<?xml version="1.0" standalone="no"?>
<!DOCTYPE svg PUBLIC "-//W3C//DTD SVG 1.1//EN" "http://www.w3.org/Graphics/SVG/1.1/DTD/svg11.dtd" >
<svg>
<metadata>
Created by FontForge 20120731 at Mon Mar 12 12:21:04 2018
 By www-data
Copyright 2009 The Cairo Project Authors (gaber@gaberism.net)
</metadata>
<defs>
<font id="Cairo-Black" horiz-adv-x="560" >
  <font-face 
    font-family="Cairo Black"
    font-weight="900"
    font-stretch="normal"
    units-per-em="1000"
    panose-1="0 0 10 0 0 0 0 0 0 0"
    ascent="800"
    descent="-200"
    x-height="500"
    cap-height="672"
    bbox="-224 -571 1791 1302"
    underline-thickness="50"
    underline-position="-50"
    unicode-range="U+000D-FEFC"
  />
<missing-glyph horiz-adv-x="235" 
 />
    <glyph glyph-name="uniFEFB" unicode="&#xfedf;&#xfe8e;" horiz-adv-x="668" arabic-form="isolated" 
d="M606 688v-688h-566v157h125v396h172v-396h97v531h172z" />
    <glyph glyph-name="uniFEFC" unicode="&#xfee0;&#xfe8e;" horiz-adv-x="679" arabic-form="final" 
d="M679 157v-157h-639v157h125v396h172v-396h97v531h172v-531h73z" />
    <glyph glyph-name="uniFEF7" unicode="&#xfedf;&#xfe84;" horiz-adv-x="668" arabic-form="isolated" 
d="M40 0zM606 688v-688h-566v157h125v396h172v-396h97v531h172zM375 671l-229 -45l-12 57l44 11q-42 36 -42 88q0 44 31.5 76t81.5 32q38 0 81 -24l-15 -75q-17 14 -39 14q-21 0 -34 -14t-13 -33q0 -30 25 -44l105 28z" />
    <glyph glyph-name="uniFEF8" unicode="&#xfee0;&#xfe84;" horiz-adv-x="679" arabic-form="final" 
d="M40 0zM679 157v-157h-639v157h125v396h172v-396h97v531h172v-531h73zM375 671l-229 -45l-12 57l44 11q-42 36 -42 88q0 44 31.5 76t81.5 32q38 0 81 -24l-15 -75q-17 14 -39 14q-21 0 -34 -14t-13 -33q0 -30 25 -44l105 28z" />
    <glyph glyph-name="uniFEF9" unicode="&#xfedf;&#xfe88;" horiz-adv-x="668" arabic-form="isolated" 
d="M40 0zM606 688v-688h-566v157h125v396h172v-396h97v531h172zM374 -299l-229 -45l-12 57l44 12q-21 17 -31.5 40t-10.5 47q0 44 31.5 76t81.5 32q41 0 82 -24l-15 -74q-6 4 -16.5 8.5t-23.5 4.5q-21 0 -34 -14t-13 -33q0 -13 6.5 -24.5t19.5 -18.5l104 27z" />
    <glyph glyph-name="uniFEFA" unicode="&#xfee0;&#xfe88;" horiz-adv-x="679" arabic-form="final" 
d="M40 0zM679 157v-157h-639v157h125v396h172v-396h97v531h172v-531h73zM374 -299l-229 -45l-12 57l44 12q-21 17 -31.5 40t-10.5 47q0 44 31.5 76t81.5 32q41 0 82 -24l-15 -74q-6 4 -16.5 8.5t-23.5 4.5q-21 0 -34 -14t-13 -33q0 -13 6.5 -24.5t19.5 -18.5l104 27z" />
    <glyph glyph-name="uniFEF5" unicode="&#xfedf;&#xfe82;" horiz-adv-x="668" arabic-form="isolated" 
d="M40 0zM606 688v-688h-566v157h125v396h172v-396h97v531h172zM289 631.5q-27 10.5 -33 12.5q-7 4 -26.5 12t-24.5 8q-6 0 -20 -11.5t-14 -10.5l-17 -18l-30 97q42 44 84 44q19 0 46 -10.5t31 -12.5q45 -20 48 -20q6 0 32 22l17 17l31 -98q-42 -42 -81 -42q-16 0 -43 10.5z
" />
    <glyph glyph-name="uniFEF6" unicode="&#xfee0;&#xfe82;" horiz-adv-x="679" arabic-form="final" 
d="M40 0zM679 157v-157h-639v157h125v396h172v-396h97v531h172v-531h73zM289 631.5q-27 10.5 -33 12.5q-7 4 -26.5 12t-24.5 8q-6 0 -20 -11.5t-14 -10.5l-17 -18l-30 97q42 44 84 44q19 0 46 -10.5t31 -12.5q45 -20 48 -20q6 0 32 22l17 17l31 -98q-42 -42 -81 -42
q-16 0 -43 10.5z" />
    <glyph glyph-name="uni06440671" unicode="&#xfedf;&#xfb51;" horiz-adv-x="668" 
d="M40 0zM606 688v-688h-566v157h125v396h172v-396h97v531h172zM137 703h37q0 25 16.5 54t44.5 48.5t59 19.5q40 0 63 -31t23 -91v-76h-243v76zM320 703q0 31 -7 45t-27 14q-25 0 -44.5 -18.5t-19.5 -40.5h98z" />
    <glyph glyph-name="uni06440671.fina" unicode="&#xfee0;&#xfb51;" horiz-adv-x="679" 
d="M40 0zM679 157v-157h-639v157h125v396h172v-396h97v531h172v-531h73zM137 703h37q0 25 16.5 54t44.5 48.5t59 19.5q40 0 63 -31t23 -91v-76h-243v76zM320 703q0 31 -7 45t-27 14q-25 0 -44.5 -18.5t-19.5 -40.5h98z" />
    <glyph glyph-name="uniFDF2" unicode="&#x627;&#xfedf;&#xfee0;&#xfeea;" horiz-adv-x="1598" arabic-form="isolated" 
d="M821 916l-92 -41v245l92 43v-247zM681.5 644q-11.5 10 -19 33t-7.5 55q0 12 1 30t2 19l65 13v-75q0 -11 2.5 -15t5 -4h3.5q22 6 22 30v51l42 9v-68q0 -8 5.5 -8h6.5l15 2v95l60 13q6 -30 8 -46.5t2 -38.5v-81l-72 -14l-7.5 -0.5t-25.5 11.5q-8 -15 -24 -23t-35 -8
q-18 0 -36 8q-2 2 -13.5 12zM1102 688h172v-688h-945q-107 0 -167 18t-91 74.5t-31 170.5q0 106 29 158.5t92 70.5t183 18q67 0 147 -4.5t107 -9.5v-339h118v411h172v-411h214v531zM1508 688v-688h-172v688h172zM225.5 191.5q13.5 -22.5 37.5 -28.5t69 -6h94v193
q-63 3 -84 3q-53 0 -79 -5.5t-38.5 -25t-12.5 -60.5q0 -48 13.5 -70.5z" />
    <glyph glyph-name="uniFE8E" unicode="&#x627;" horiz-adv-x="346" arabic-form="final" 
d="M346 157v-157h-273v688h172v-531h101z" />
    <glyph glyph-name="uniFE84" unicode="&#x623;" horiz-adv-x="346" arabic-form="final" 
d="M35 0zM346 157v-157h-273v602h172v-445h101zM276 713l-229 -45l-12 57l44 11q-42 36 -42 88q0 44 31.5 76t81.5 32q38 0 81 -24l-15 -75q-17 14 -39 14q-21 0 -34 -14t-13 -33q0 -30 25 -44l105 28z" />
    <glyph glyph-name="uniFE88" unicode="&#x625;" horiz-adv-x="346" arabic-form="final" 
d="M14 0zM346 157v-157h-273v688h172v-531h101zM255 -276l-229 -45l-12 57l44 12q-21 17 -31.5 40t-10.5 47q0 44 31.5 76t81.5 32q41 0 82 -24l-15 -74q-6 4 -16.5 8.5t-23.5 4.5q-21 0 -34 -14t-13 -33q0 -13 6.5 -24.5t19.5 -18.5l104 27z" />
    <glyph glyph-name="uniFE82" unicode="&#x622;" horiz-adv-x="346" arabic-form="final" 
d="M25 0zM346 157v-157h-273v602h172v-445h101zM190 673.5q-27 10.5 -33 12.5q-7 4 -26.5 12t-24.5 8q-6 0 -20 -11.5t-14 -10.5l-17 -18l-30 97q42 44 84 44q19 0 46 -10.5t31 -12.5q45 -20 48 -20q6 0 32 22l17 17l31 -98q-42 -42 -81 -42q-16 0 -43 10.5z" />
    <glyph glyph-name="uniFB51" unicode="&#x671;" horiz-adv-x="346" arabic-form="final" 
d="M38 0zM346 157v-157h-273v602h172v-445h101zM38 745h37q0 25 16.5 54t44.5 48.5t59 19.5q40 0 63 -31t23 -91v-76h-243v76zM221 745q0 31 -7 45t-27 14q-25 0 -44.5 -18.5t-19.5 -40.5h98z" />
    <glyph glyph-name="uni066E.init" unicode="&#x66e;" horiz-adv-x="384" 
d="M321 500v-500h-321v157h149v343h172z" />
    <glyph glyph-name="uni066E.medi" unicode="&#x66e;" horiz-adv-x="472" 
d="M472 157v-157h-472v157h149v343h172v-343h151z" />
    <glyph glyph-name="uni066E.fina" unicode="&#x66e;" horiz-adv-x="981" 
d="M981 157v-157h-623q-85 0 -147 11t-109.5 57.5t-47.5 144.5q0 44 9.5 94.5t21.5 87.5l140 -8q1 11 -7 -61q-7 -59 -7 -73q0 -35 25.5 -65.5t95.5 -30.5h326v343h172v-343h151z" />
    <glyph glyph-name="uniFE90" unicode="&#x628;" horiz-adv-x="981" arabic-form="final" 
d="M54 0zM981 157v-157h-623q-85 0 -147 11t-109.5 57.5t-47.5 144.5q0 44 9.5 94.5t21.5 87.5l140 -8q1 11 -7 -61q-7 -59 -7 -73q0 -35 25.5 -65.5t95.5 -30.5h326v343h172v-343h151zM376 -80h155v-161h-155v161z" />
    <glyph glyph-name="uniFE92" unicode="&#x628;" horiz-adv-x="472" arabic-form="medial" 
d="M0 0zM472 157v-157h-472v157h149v343h172v-343h151zM156 -80h155v-161h-155v161z" />
    <glyph glyph-name="uniFE91" unicode="&#x628;" horiz-adv-x="384" arabic-form="initial" 
d="M0 0zM321 500v-500h-321v157h149v343h172zM161 -80h155v-161h-155v161z" />
    <glyph glyph-name="uniFB57" unicode="&#x67e;" horiz-adv-x="981" arabic-form="final" 
d="M54 0zM981 157v-157h-623q-85 0 -147 11t-109.5 57.5t-47.5 144.5q0 44 9.5 94.5t21.5 87.5l140 -8q1 11 -7 -61q-7 -59 -7 -73q0 -35 25.5 -65.5t95.5 -30.5h326v343h172v-343h151zM308 -80h121v-144h-121v144zM478 -80h121v-144h-121v144zM399 -240h110v-132h-110v132z
" />
    <glyph glyph-name="uniFB59" unicode="&#x67e;" horiz-adv-x="472" arabic-form="medial" 
d="M0 0zM472 157v-157h-472v157h149v343h172v-343h151zM88 -80h121v-144h-121v144zM258 -80h121v-144h-121v144zM179 -240h110v-132h-110v132z" />
    <glyph glyph-name="uniFB58" unicode="&#x67e;" horiz-adv-x="384" arabic-form="initial" 
d="M0 0zM321 500v-500h-321v157h149v343h172zM93 -80h121v-144h-121v144zM263 -80h121v-144h-121v144zM184 -240h110v-132h-110v132z" />
    <glyph glyph-name="uniFBE9" unicode="&#x649;" horiz-adv-x="472" arabic-form="medial" 
d="M0 0zM472 157v-157h-472v157h149v343h172v-343h151z" />
    <glyph glyph-name="uniFBE8" unicode="&#x649;" horiz-adv-x="384" arabic-form="initial" 
d="M0 0zM321 500v-500h-321v157h149v343h172z" />
    <glyph glyph-name="uniFE96" unicode="&#x62a;" horiz-adv-x="981" arabic-form="final" 
d="M54 0zM981 157v-157h-623q-85 0 -147 11t-109.5 57.5t-47.5 144.5q0 44 9.5 94.5t21.5 87.5l140 -8q1 11 -7 -61q-7 -59 -7 -73q0 -35 25.5 -65.5t95.5 -30.5h326v343h172v-343h151zM307 652h121v-152h-121v152zM477 652h121v-152h-121v152z" />
    <glyph glyph-name="uniFE98" unicode="&#x62a;" horiz-adv-x="472" arabic-form="medial" 
d="M0 0zM472 157v-157h-472v157h149v343h172v-343h151zM87 745h121v-152h-121v152zM257 745h121v-152h-121v152z" />
    <glyph glyph-name="uniFE97" unicode="&#x62a;" horiz-adv-x="384" arabic-form="initial" 
d="M0 0zM321 500v-500h-321v157h149v343h172zM92 745h121v-152h-121v152zM262 745h121v-152h-121v152z" />
    <glyph glyph-name="uniFE9A" unicode="&#x62b;" horiz-adv-x="981" arabic-form="final" 
d="M54 0zM981 157v-157h-623q-85 0 -147 11t-109.5 57.5t-47.5 144.5q0 44 9.5 94.5t21.5 87.5l140 -8q1 11 -7 -61q-7 -59 -7 -73q0 -35 25.5 -65.5t95.5 -30.5h326v343h172v-343h151zM399 792h110v-132h-110v132zM308 644h121v-144h-121v144zM478 644h121v-144h-121v144z
" />
    <glyph glyph-name="uniFE9C" unicode="&#x62b;" horiz-adv-x="472" arabic-form="medial" 
d="M0 0zM472 157v-157h-472v157h149v343h172v-343h151zM179 885h110v-132h-110v132zM88 737h121v-144h-121v144zM258 737h121v-144h-121v144z" />
    <glyph glyph-name="uniFE9B" unicode="&#x62b;" horiz-adv-x="384" arabic-form="initial" 
d="M0 0zM321 500v-500h-321v157h149v343h172zM184 885h110v-132h-110v132zM93 737h121v-144h-121v144zM263 737h121v-144h-121v144z" />
    <glyph glyph-name="uniFB67" unicode="&#x679;" horiz-adv-x="981" arabic-form="final" 
d="M54 0zM981 157v-157h-623q-85 0 -147 11t-109.5 57.5t-47.5 144.5q0 44 9.5 94.5t21.5 87.5l140 -8q1 11 -7 -61q-7 -59 -7 -73q0 -35 25.5 -65.5t95.5 -30.5h326v343h172v-343h151zM556 677q27 -27 27 -71v-106h-246v68h5v228h56v-159q17 31 45 49t53 18q33 0 60 -27z
M440 633.5q-19 -11.5 -30.5 -28t-11.5 -32.5v-5h134v38q0 16 -15.5 27.5t-36.5 11.5t-40 -11.5z" />
    <glyph glyph-name="uniFB69" unicode="&#x679;" horiz-adv-x="472" arabic-form="medial" 
d="M0 0zM472 157v-157h-472v157h149v343h172v-343h151zM336 770q27 -27 27 -71v-106h-246v68h5v228h56v-159q17 31 45 49t53 18q33 0 60 -27zM220 726.5q-19 -11.5 -30.5 -28t-11.5 -32.5v-5h134v38q0 16 -15.5 27.5t-36.5 11.5t-40 -11.5z" />
    <glyph glyph-name="uniFB68" unicode="&#x679;" horiz-adv-x="384" arabic-form="initial" 
d="M0 0zM321 500v-500h-321v157h149v343h172zM341 770q27 -27 27 -71v-106h-246v68h5v228h56v-159q17 31 45 49t53 18q33 0 60 -27zM225 726.5q-19 -11.5 -30.5 -28t-11.5 -32.5v-5h134v38q0 16 -15.5 27.5t-36.5 11.5t-40 -11.5z" />
    <glyph glyph-name="uniFE9E" unicode="&#x62c;" horiz-adv-x="657" arabic-form="final" 
d="M327 -313q-30 -3 -57 -3q-108 0 -169 68.5t-61 183.5q0 104 54.5 162t162.5 58q46 0 131 -10v144q0 40 -13.5 58t-54.5 18q-16 -1 -62 -1h-98h-54l-5 111q51 15 130 24.5t138 9.5q74 0 115.5 -19t58 -53.5t17.5 -88.5v-192h97v-157h-269q-24 3 -48.5 5t-41.5 2
q-39 0 -63 -22.5t-24 -61.5q0 -36 23 -60t70 -24zM388 -55h121v-144h-121v144z" />
    <glyph glyph-name="uniFEA0" unicode="&#x62c;" horiz-adv-x="629" arabic-form="medial" 
d="M0 0zM629 157v-157h-629v157h361v133q0 40 -13 58t-54 18q-16 -1 -63 -1h-97h-55l-4 111q51 15 130 24.5t137 9.5q75 0 116.5 -19t57.5 -53.5t17 -88.5v-192h96zM240 -80h155v-161h-155v161z" />
    <glyph glyph-name="uniFE9F" unicode="&#x62c;" horiz-adv-x="593" arabic-form="initial" 
d="M0 0zM458.5 491q41.5 -19 57.5 -53.5t17 -88.5v-349h-533v157h361v133q0 40 -13 58t-54 18q-16 -1 -63 -1h-97h-55l-4 111q51 15 130 24.5t137 9.5q75 0 116.5 -19zM241 -80h155v-161h-155v161z" />
    <glyph glyph-name="uniFB7B" unicode="&#x686;" horiz-adv-x="647" arabic-form="final" 
d="M84 -247.5q-61 68.5 -61 183.5q0 104 54.5 162t162.5 58q44 0 108 -8l23 -2v144q0 40 -13 58t-54 18q-16 -1 -63 -1h-97h-55l-4 111q51 15 130 24.5t137 9.5q75 0 116.5 -19t57.5 -53.5t17 -88.5v-192h104v-157h-276q-24 3 -48.5 5t-41.5 2q-39 0 -63 -22.5t-24 -61.5
q0 -36 23.5 -60t70.5 -24l22 -152l-21 -1q-24 -2 -36 -2q-108 0 -169 68.5zM355 -60h117v-137h-117v137zM507 -60h117v-137h-117v137zM436 -217h110v-128h-110v128z" />
    <glyph glyph-name="uniFB7D" unicode="&#x686;" horiz-adv-x="629" arabic-form="medial" 
d="M0 0zM629 157v-157h-629v157h361v133q0 40 -13 58t-54 18q-16 -1 -63 -1h-97h-55l-4 111q51 15 130 24.5t137 9.5q75 0 116.5 -19t57.5 -53.5t17 -88.5v-192h96zM172 -80h121v-144h-121v144zM342 -80h121v-144h-121v144zM263 -240h110v-132h-110v132z" />
    <glyph glyph-name="uniFB7C" unicode="&#x686;" horiz-adv-x="593" arabic-form="initial" 
d="M0 0zM458.5 491q41.5 -19 57.5 -53.5t17 -88.5v-349h-533v157h361v133q0 40 -13 58t-54 18q-16 -1 -63 -1h-97h-55l-4 111q51 15 130 24.5t137 9.5q75 0 116.5 -19zM173 -80h121v-144h-121v144zM343 -80h121v-144h-121v144zM264 -240h110v-132h-110v132z" />
    <glyph glyph-name="uniFEA2" unicode="&#x62d;" horiz-adv-x="657" arabic-form="final" 
d="M657 157v-157h-269q-52 7 -90 7q-39 0 -63 -22.5t-24 -61.5q0 -36 23 -60t70 -24q24 0 80 4.5t110 12.5l19 -130q-50 -16 -121 -29t-122 -13q-108 0 -169 68.5t-61 183.5q0 104 54.5 162t162.5 58q46 0 131 -11v145q0 40 -13.5 58t-54.5 18q-16 -1 -62 -1h-98h-54l-5 111
q51 15 130 24.5t138 9.5q74 0 115.5 -19t58 -53.5t17.5 -88.5v-192h97z" />
    <glyph glyph-name="uniFEA4" unicode="&#x62d;" horiz-adv-x="629" arabic-form="medial" 
d="M629 157v-157h-629v157h361v133q0 40 -13 58t-54 18q-16 -1 -63 -1h-97h-55l-4 111q51 15 130 24.5t137 9.5q75 0 116.5 -19t57.5 -53.5t17 -88.5v-192h96z" />
    <glyph glyph-name="uniFEA3" unicode="&#x62d;" horiz-adv-x="593" arabic-form="initial" 
d="M458.5 491q41.5 -19 57.5 -53.5t17 -88.5v-349h-533v157h361v133q0 40 -13 58t-54 18q-16 -1 -63 -1h-97h-55l-4 111q51 15 130 24.5t137 9.5q75 0 116.5 -19z" />
    <glyph glyph-name="uniFEA6" unicode="&#x62e;" horiz-adv-x="657" arabic-form="final" 
d="M40 0zM657 157v-157h-269q-52 7 -90 7q-39 0 -63 -22.5t-24 -61.5q0 -36 23 -60t70 -24q24 0 80 4.5t110 12.5l19 -130q-50 -16 -121 -29t-122 -13q-108 0 -169 68.5t-61 183.5q0 104 54.5 162t162.5 58q46 0 131 -11v145q0 40 -13.5 58t-54.5 18q-16 -1 -62 -1h-98h-54
l-5 111q51 15 130 24.5t138 9.5q74 0 115.5 -19t58 -53.5t17.5 -88.5v-192h97zM264 754h155v-161h-155v161z" />
    <glyph glyph-name="uniFEA8" unicode="&#x62e;" horiz-adv-x="629" arabic-form="medial" 
d="M0 0zM629 157v-157h-629v157h361v133q0 40 -13 58t-54 18q-16 -1 -63 -1h-97h-55l-4 111q51 15 130 24.5t137 9.5q75 0 116.5 -19t57.5 -53.5t17 -88.5v-192h96zM240 754h155v-161h-155v161z" />
    <glyph glyph-name="uniFEA7" unicode="&#x62e;" horiz-adv-x="593" arabic-form="initial" 
d="M0 0zM458.5 491q41.5 -19 57.5 -53.5t17 -88.5v-349h-533v157h361v133q0 40 -13 58t-54 18q-16 -1 -63 -1h-97h-55l-4 111q51 15 130 24.5t137 9.5q75 0 116.5 -19zM241 754h155v-161h-155v161z" />
    <glyph glyph-name="uniFEAA" unicode="&#x62f;" horiz-adv-x="641" arabic-form="final" 
d="M641 157v-157h-601v157h318q-3 109 -46 158t-102 49h-115l-13 137q113 23 172 23q87 0 149 -44t94.5 -126t32.5 -194v-3h111z" />
    <glyph glyph-name="uniFEAC" unicode="&#x630;" horiz-adv-x="641" arabic-form="final" 
d="M40 0zM641 157v-157h-601v157h318q-3 109 -46 158t-102 49h-115l-13 137q113 23 172 23q87 0 149 -44t94.5 -126t32.5 -194v-3h111zM117 781h155v-161h-155v161z" />
    <glyph glyph-name="uniFB89" unicode="&#x688;" horiz-adv-x="641" arabic-form="final" 
d="M40 0zM641 157v-157h-601v157h318q-3 109 -46 158t-102 49h-115l-13 137q113 23 172 23q87 0 149 -44t94.5 -126t32.5 -194v-3h111zM297 797q27 -27 27 -71v-106h-246v68h5v228h56v-159q17 31 45 49t53 18q33 0 60 -27zM181 753.5q-19 -11.5 -30.5 -28t-11.5 -32.5v-5
h134v38q0 16 -15.5 27.5t-36.5 11.5t-40 -11.5z" />
    <glyph glyph-name="uniFEAE" unicode="&#x631;" horiz-adv-x="472" arabic-form="final" 
d="M472 0h-191q-3 -114 -45 -180.5t-124 -66.5q-22 0 -72 3v155l15 -1q54 0 54 82v509h172v-344h191v-157z" />
    <glyph glyph-name="uniFEB0" unicode="&#x632;" horiz-adv-x="472" arabic-form="final" 
d="M40 0zM472 0h-191q-3 -114 -45 -180.5t-124 -66.5q-22 0 -72 3v155l15 -1q54 0 54 82v509h172v-344h191v-157zM118 754h155v-161h-155v161z" />
    <glyph glyph-name="uniFB8D" unicode="&#x691;" horiz-adv-x="472" arabic-form="final" 
d="M40 0zM472 0h-191q-3 -114 -45 -180.5t-124 -66.5q-22 0 -72 3v155l15 -1q54 0 54 82v509h172v-344h191v-157zM298 770q27 -27 27 -71v-106h-246v68h5v228h56v-159q17 31 45 49t53 18q33 0 60 -27zM182 726.5q-19 -11.5 -30.5 -28t-11.5 -32.5v-5h134v38q0 16 -15.5 27.5
t-36.5 11.5t-40 -11.5z" />
    <glyph glyph-name="uniFB8B" unicode="&#x698;" horiz-adv-x="472" arabic-form="final" 
d="M40 0zM472 0h-191q-3 -114 -45 -180.5t-124 -66.5q-22 0 -72 3v155l15 -1q54 0 54 82v509h172v-344h191v-157zM141 885h110v-132h-110v132zM50 737h121v-144h-121v144zM220 737h121v-144h-121v144z" />
    <glyph glyph-name="uniFEB2" unicode="&#x633;" horiz-adv-x="1256" arabic-form="final" 
d="M1256 157v-157h-317q-36 0 -69.5 12t-46.5 21q-44 -33 -102 -33h-71v-40q0 -40 -27 -87.5t-97.5 -84t-189.5 -36.5q-133 0 -198.5 45.5t-81.5 97.5t-16 105q0 44 13 115.5t34 167.5l162 -9q-21 -103 -32.5 -163.5t-11.5 -87.5q0 -39 26.5 -75.5t108.5 -36.5
q72 0 105 31.5t33 73.5v434h172v-293h11q33 0 53 24t20 65v204h172v-204q0 -40 -8 -80q14 -9 33 -9h55v84l1 54q1 15 1 46q0 53 -8 154l153 7q25 -187 25 -224v-121h98z" />
    <glyph glyph-name="uniFEB4" unicode="&#x633;" horiz-adv-x="905" arabic-form="medial" 
d="M905 157v-157h-297q-36 0 -69.5 12t-46.5 21q-44 -33 -102 -33h-390v157h147v293h172v-293h11q33 0 53 24t20 65v204h172v-204q0 -40 -8 -80q14 -9 33 -9h55v84l1 54q1 15 1 46q0 53 -8 154l153 7q25 -187 25 -224v-121h78z" />
    <glyph glyph-name="uniFEB3" unicode="&#x633;" horiz-adv-x="881" arabic-form="initial" 
d="M827 278v-278h-219q-36 0 -69.5 12t-46.5 21q-44 -33 -102 -33h-390v157h147v293h172v-293h11q33 0 53 24t20 65v204h172v-204q0 -40 -8 -80q14 -9 33 -9h55v84l1 54q1 15 1 46q0 53 -8 154l153 7q25 -187 25 -224z" />
    <glyph glyph-name="uniFEB6" unicode="&#x634;" horiz-adv-x="1256" arabic-form="final" 
d="M40 0zM1256 157v-157h-317q-36 0 -69.5 12t-46.5 21q-44 -33 -102 -33h-71v-40q0 -40 -27 -87.5t-97.5 -84t-189.5 -36.5q-133 0 -198.5 45.5t-81.5 97.5t-16 105q0 44 13 115.5t34 167.5l162 -9q-21 -103 -32.5 -163.5t-11.5 -87.5q0 -39 26.5 -75.5t108.5 -36.5
q72 0 105 31.5t33 73.5v434h172v-293h11q33 0 53 24t20 65v204h172v-204q0 -40 -8 -80q14 -9 33 -9h55v84l1 54q1 15 1 46q0 53 -8 154l153 7q25 -187 25 -224v-121h98zM769 885h110v-132h-110v132zM678 737h121v-144h-121v144zM848 737h121v-144h-121v144z" />
    <glyph glyph-name="uniFEB8" unicode="&#x634;" horiz-adv-x="905" arabic-form="medial" 
d="M0 0zM905 157v-157h-297q-36 0 -69.5 12t-46.5 21q-44 -33 -102 -33h-390v157h147v293h172v-293h11q33 0 53 24t20 65v204h172v-204q0 -40 -8 -80q14 -9 33 -9h55v84l1 54q1 15 1 46q0 53 -8 154l153 7q25 -187 25 -224v-121h78zM418 885h110v-132h-110v132zM327 737h121
v-144h-121v144zM497 737h121v-144h-121v144z" />
    <glyph glyph-name="uniFEB7" unicode="&#x634;" horiz-adv-x="881" arabic-form="initial" 
d="M0 0zM827 278v-278h-219q-36 0 -69.5 12t-46.5 21q-44 -33 -102 -33h-390v157h147v293h172v-293h11q33 0 53 24t20 65v204h172v-204q0 -40 -8 -80q14 -9 33 -9h55v84l1 54q1 15 1 46q0 53 -8 154l153 7q25 -187 25 -224zM438 885h110v-132h-110v132zM347 737h121v-144
h-121v144zM517 737h121v-144h-121v144z" />
    <glyph glyph-name="uniFEBA" unicode="&#x635;" horiz-adv-x="1256" arabic-form="final" 
d="M1256 157v-157h-606v-40q0 -40 -27 -87.5t-97 -84t-188 -36.5q-190 0 -244 78.5t-54 161.5q0 39 14.5 126.5t32.5 164.5l164 -9q-46 -200 -46 -252q0 -39 26 -76t109 -37q72 0 105 32.5t33 74.5v484h172v-160q45 56 81.5 91t85.5 57t113 22q126 0 178.5 -77.5
t52.5 -181.5v-94h95zM773 298q-59 -55 -103 -141h319v58q0 57 -28 97.5t-77 40.5q-52 0 -111 -55z" />
    <glyph glyph-name="uniFEBC" unicode="&#x635;" horiz-adv-x="883" arabic-form="medial" 
d="M883 157v-157h-883v157h123v343h172v-160q45 56 81.5 91t85.5 57t113 22q126 0 178.5 -77.5t52.5 -181.5v-94h77zM417.5 298q-58.5 -55 -102.5 -141h319v58q0 57 -28.5 97.5t-77.5 40.5q-52 0 -110.5 -55z" />
    <glyph glyph-name="uniFEBB" unicode="&#x635;" horiz-adv-x="859" arabic-form="initial" 
d="M753.5 432.5q52.5 -77.5 52.5 -181.5v-251h-806v157h123v343h172v-160q45 56 81.5 91t85.5 57t113 22q126 0 178.5 -77.5zM417.5 298q-58.5 -55 -102.5 -141h319v58q0 57 -28.5 97.5t-77.5 40.5q-52 0 -110.5 -55z" />
    <glyph glyph-name="uniFEBE" unicode="&#x636;" horiz-adv-x="1256" arabic-form="final" 
d="M40 0zM1256 157v-157h-606v-40q0 -40 -27 -87.5t-97 -84t-188 -36.5q-190 0 -244 78.5t-54 161.5q0 39 14.5 126.5t32.5 164.5l164 -9q-46 -200 -46 -252q0 -39 26 -76t109 -37q72 0 105 32.5t33 74.5v484h172v-160q45 56 81.5 91t85.5 57t113 22q126 0 178.5 -77.5
t52.5 -181.5v-94h95zM773 298q-59 -55 -103 -141h319v58q0 57 -28 97.5t-77 40.5q-52 0 -111 -55zM771 754h155v-161h-155v161z" />
    <glyph glyph-name="uniFEC0" unicode="&#x636;" horiz-adv-x="883" arabic-form="medial" 
d="M0 0zM883 157v-157h-883v157h123v343h172v-160q45 56 81.5 91t85.5 57t113 22q126 0 178.5 -77.5t52.5 -181.5v-94h77zM417.5 298q-58.5 -55 -102.5 -141h319v58q0 57 -28.5 97.5t-77.5 40.5q-52 0 -110.5 -55zM420 754h155v-161h-155v161z" />
    <glyph glyph-name="uniFEBF" unicode="&#x636;" horiz-adv-x="859" arabic-form="initial" 
d="M0 0zM753.5 432.5q52.5 -77.5 52.5 -181.5v-251h-806v157h123v343h172v-160q45 56 81.5 91t85.5 57t113 22q126 0 178.5 -77.5zM417.5 298q-58.5 -55 -102.5 -141h319v58q0 57 -28.5 97.5t-77.5 40.5q-52 0 -110.5 -55zM440 754h155v-161h-155v161z" />
    <glyph glyph-name="uniFEC2" unicode="&#x637;" horiz-adv-x="835" arabic-form="final" 
d="M835 157v-157h-834v157h54v531h172v-348q45 56 81.5 91t85.5 57t113 22q126 0 178.5 -77.5t52.5 -181.5v-94h97zM349.5 298q-58.5 -55 -102.5 -141h319v58q0 57 -28.5 97.5t-77.5 40.5q-52 0 -110.5 -55z" />
    <glyph glyph-name="uniFEC4" unicode="&#x637;" horiz-adv-x="835" arabic-form="medial" 
d="M835 157v-157h-835v157h77v531h172v-309q47 47 81 73.5t80 42t111 15.5q110 0 162.5 -48t63.5 -101t11 -110v-94h77zM384.5 317q-44.5 -36 -67 -68.5t-59.5 -91.5h328v50q0 55 -21.5 100.5t-83.5 45.5q-52 0 -96.5 -36z" />
    <glyph glyph-name="uniFEC3" unicode="&#x637;" horiz-adv-x="818" arabic-form="initial" 
d="M683.5 462q52.5 -48 63.5 -101t11 -110v-251h-758v157h77v531h172v-309q47 47 81 73.5t80 42t111 15.5q110 0 162.5 -48zM384.5 317q-44.5 -36 -67 -68.5t-59.5 -91.5h328v50q0 55 -21.5 100.5t-83.5 45.5q-52 0 -96.5 -36z" />
    <glyph glyph-name="uniFEC6" unicode="&#x638;" horiz-adv-x="835" arabic-form="final" 
d="M1 0zM835 157v-157h-834v157h54v531h172v-348q45 56 81.5 91t85.5 57t113 22q126 0 178.5 -77.5t52.5 -181.5v-94h97zM349.5 298q-58.5 -55 -102.5 -141h319v58q0 57 -28.5 97.5t-77.5 40.5q-52 0 -110.5 -55zM302 754h155v-161h-155v161z" />
    <glyph glyph-name="uniFEC8" unicode="&#x638;" horiz-adv-x="835" arabic-form="medial" 
d="M0 0zM835 157v-157h-835v157h77v531h172v-309q47 47 81 73.5t80 42t111 15.5q110 0 162.5 -48t63.5 -101t11 -110v-94h77zM384.5 317q-44.5 -36 -67 -68.5t-59.5 -91.5h328v50q0 55 -21.5 100.5t-83.5 45.5q-52 0 -96.5 -36zM302 754h155v-161h-155v161z" />
    <glyph glyph-name="uniFEC7" unicode="&#x638;" horiz-adv-x="818" arabic-form="initial" 
d="M0 0zM683.5 462q52.5 -48 63.5 -101t11 -110v-251h-758v157h77v531h172v-309q47 47 81 73.5t80 42t111 15.5q110 0 162.5 -48zM384.5 317q-44.5 -36 -67 -68.5t-59.5 -91.5h328v50q0 55 -21.5 100.5t-83.5 45.5q-52 0 -96.5 -36zM333 754h155v-161h-155v161z" />
    <glyph glyph-name="uniFECA" unicode="&#x639;" horiz-adv-x="677" arabic-form="final" 
d="M677 157v-157h-148q-99 0 -198 40l-93 -37q-16 -10 -24 -30.5t-8 -49.5q0 -38 17.5 -61t63.5 -23q24 0 80 4.5t109 12.5l19 -130l-38 -10q-42 -12 -101.5 -22t-103.5 -10q-71 0 -123 31.5t-79.5 88t-27.5 130.5q0 86 38 143t113 72q-17 17 -40 35q-46 40 -69 70.5
t-24 74.5l-2 99q19 15 65.5 35.5t107 35t118.5 14.5t119 -14.5t109 -35t67 -35.5l-4 -99q1 -43 -19.5 -70.5t-63.5 -64.5q-23 -18 -41 -36q10 -1 31 -1h150zM423 286q29 32 33 52q-57 18 -126 18q-71 0 -123 -18q5 -22 35 -56t89 -66q63 38 92 70zM207 346l2 1zM454.5 347
h-0.5l1 -1q0 1 -0.5 1z" />
    <glyph glyph-name="uniFECC" unicode="&#x639;" horiz-adv-x="701" arabic-form="medial" 
d="M701 157v-157h-148q-102 0 -198 41q-47 -20 -97.5 -30.5t-94.5 -10.5h-163v157h160q20 0 30 1q-12 12 -22 20.5t-18 15.5q-43 36 -64 64.5t-20 70.5l-3 99q19 15 65.5 35.5t107 35t117.5 14.5q58 0 119 -14.5t109 -35t68 -35.5l-5 -99q1 -29 -10 -52t-27 -40t-45 -42
q-28 -24 -41 -37q10 -1 31 -1h149zM448 286.5q29 32.5 33 51.5q-57 18 -127 18q-69 0 -121 -17q5 -22 34.5 -56.5t88.5 -66.5q63 38 92 70.5zM233 346l1 1q-1 0 -1 -1zM481 346h1h-1z" />
    <glyph glyph-name="uniFECB" unicode="&#x639;" horiz-adv-x="590" arabic-form="initial" 
d="M560 157v-157h-560v157h111q-12 55 -12 101q0 103 47 159.5t105.5 76t105.5 19.5q36 0 86.5 -11t86.5 -27l-8 -165q-99 46 -153 46q-98 0 -98 -104q0 -55 35 -95h254z" />
    <glyph glyph-name="uniFECE" unicode="&#x63a;" horiz-adv-x="677" arabic-form="final" 
d="M22 0zM677 157v-157h-148q-99 0 -198 40l-93 -37q-16 -10 -24 -30.5t-8 -49.5q0 -38 17.5 -61t63.5 -23q24 0 80 4.5t109 12.5l19 -130l-38 -10q-42 -12 -101.5 -22t-103.5 -10q-71 0 -123 31.5t-79.5 88t-27.5 130.5q0 86 38 143t113 72q-17 17 -40 35q-46 40 -69 70.5
t-24 74.5l-2 99q19 15 65.5 35.5t107 35t118.5 14.5t119 -14.5t109 -35t67 -35.5l-4 -99q1 -43 -19.5 -70.5t-63.5 -64.5q-23 -18 -41 -36q10 -1 31 -1h150zM423 286q29 32 33 52q-57 18 -126 18q-71 0 -123 -18q5 -22 35 -56t89 -66q63 38 92 70zM207 346l2 1zM454.5 347
h-0.5l1 -1q0 1 -0.5 1zM250 754h155v-161h-155v161z" />
    <glyph glyph-name="uniFED0" unicode="&#x63a;" horiz-adv-x="701" arabic-form="medial" 
d="M0 0zM701 157v-157h-148q-102 0 -198 41q-47 -20 -97.5 -30.5t-94.5 -10.5h-163v157h160q20 0 30 1q-12 12 -22 20.5t-18 15.5q-43 36 -64 64.5t-20 70.5l-3 99q19 15 65.5 35.5t107 35t117.5 14.5q58 0 119 -14.5t109 -35t68 -35.5l-5 -99q1 -29 -10 -52t-27 -40
t-45 -42q-28 -24 -41 -37q10 -1 31 -1h149zM448 286.5q29 32.5 33 51.5q-57 18 -127 18q-69 0 -121 -17q5 -22 34.5 -56.5t88.5 -66.5q63 38 92 70.5zM233 346l1 1q-1 0 -1 -1zM481 346h1h-1zM272 754h155v-161h-155v161z" />
    <glyph glyph-name="uniFECF" unicode="&#x63a;" horiz-adv-x="590" arabic-form="initial" 
d="M0 0zM560 157v-157h-560v157h111q-12 55 -12 101q0 103 47 159.5t105.5 76t105.5 19.5q36 0 86.5 -11t86.5 -27l-8 -165q-99 46 -153 46q-98 0 -98 -104q0 -55 35 -95h254zM292 754h155v-161h-155v161z" />
    <glyph glyph-name="uniFED2" unicode="&#x641;" horiz-adv-x="1096" arabic-form="final" 
d="M40 0zM1096 157v-157h-752q-85 0 -147 11t-109.5 58t-47.5 146q0 76 30 180l140 -8q-2 -22 -4 -33q-9 -87 -9 -101q0 -35 25.5 -65.5t95.5 -30.5h181q-14 64 -14 118q0 122 71.5 173t217.5 51q89 0 153 -7l68 -8v-327h101zM666 157h157v186q-40 2 -51 2q-50 0 -72 -7.5
t-30.5 -33t-8.5 -84.5q0 -29 5 -63zM499.5 139q1.5 0 1.5 2h-4q1 -2 2.5 -2zM725 754h155v-161h-155v161z" />
    <glyph glyph-name="uniFED4" unicode="&#x641;" horiz-adv-x="686" arabic-form="medial" 
d="M0 0zM686 157v-157h-686v157h120q2 -2 -4 37.5t-6 82.5q0 87 33 135t97.5 67t168.5 19q96 0 143 -6l68 -8v-327h66zM448 343q-42 2 -53 2q-49 0 -70.5 -7t-30 -29.5t-8.5 -74.5q0 -41 3 -55.5t4 -21.5h155v186zM302 754h155v-161h-155v161z" />
    <glyph glyph-name="uniFED3" unicode="&#x641;" horiz-adv-x="670" arabic-form="initial" 
d="M0 0zM0 157h120q2 -2 -4 37.5t-6 82.5q0 87 33 135t97.5 67t168.5 19q96 0 143 -6l68 -8v-484h-620v157zM448 157v186q-42 2 -53 2q-49 0 -70.5 -7t-30 -29.5t-8.5 -74.5q0 -41 3 -55.5t4 -21.5h155zM298 754h155v-161h-155v161z" />
    <glyph glyph-name="uniFB6B" unicode="&#x6a4;" horiz-adv-x="1096" arabic-form="final" 
d="M40 0zM1096 157v-157h-752q-85 0 -147 11t-109.5 58t-47.5 146q0 76 30 180l140 -8q-2 -22 -4 -33q-9 -87 -9 -101q0 -35 25.5 -65.5t95.5 -30.5h181q-14 64 -14 118q0 122 71.5 173t217.5 51q89 0 153 -7l68 -8v-327h101zM666 157h157v186q-40 2 -51 2q-50 0 -72 -7.5
t-30.5 -33t-8.5 -84.5q0 -29 5 -63zM499.5 139q1.5 0 1.5 2h-4q1 -2 2.5 -2zM748 885h110v-132h-110v132zM657 737h121v-144h-121v144zM827 737h121v-144h-121v144z" />
    <glyph glyph-name="uniFB6D" unicode="&#x6a4;" horiz-adv-x="686" arabic-form="medial" 
d="M0 0zM686 157v-157h-686v157h120q2 -2 -4 37.5t-6 82.5q0 87 33 135t97.5 67t168.5 19q96 0 143 -6l68 -8v-327h66zM448 343q-42 2 -53 2q-49 0 -70.5 -7t-30 -29.5t-8.5 -74.5q0 -41 3 -55.5t4 -21.5h155v186zM325 885h110v-132h-110v132zM234 737h121v-144h-121v144z
M404 737h121v-144h-121v144z" />
    <glyph glyph-name="uniFB6C" unicode="&#x6a4;" horiz-adv-x="670" arabic-form="initial" 
d="M0 0zM0 157h120q2 -2 -4 37.5t-6 82.5q0 87 33 135t97.5 67t168.5 19q96 0 143 -6l68 -8v-484h-620v157zM448 157v186q-42 2 -53 2q-49 0 -70.5 -7t-30 -29.5t-8.5 -74.5q0 -41 3 -55.5t4 -21.5h155zM321 885h110v-132h-110v132zM230 737h121v-144h-121v144zM400 737h121
v-144h-121v144z" />
    <glyph glyph-name="uni06A1.init" unicode="&#x6a1;" horiz-adv-x="670" 
d="M0 157h120q2 -2 -4 37.5t-6 82.5q0 87 33 135t97.5 67t168.5 19q96 0 143 -6l68 -8v-484h-620v157zM448 157v186q-42 2 -53 2q-49 0 -70.5 -7t-30 -29.5t-8.5 -74.5q0 -41 3 -55.5t4 -21.5h155z" />
    <glyph glyph-name="uni06A1.medi" unicode="&#x6a1;" horiz-adv-x="686" 
d="M686 157v-157h-686v157h120q2 -2 -4 37.5t-6 82.5q0 87 33 135t97.5 67t168.5 19q96 0 143 -6l68 -8v-327h66zM448 343q-42 2 -53 2q-49 0 -70.5 -7t-30 -29.5t-8.5 -74.5q0 -41 3 -55.5t4 -21.5h155v186z" />
    <glyph glyph-name="uni06A1.fina" unicode="&#x6a1;" horiz-adv-x="1096" 
d="M1096 157v-157h-752q-85 0 -147 11t-109.5 58t-47.5 146q0 76 30 180l140 -8q-2 -22 -4 -33q-9 -87 -9 -101q0 -35 25.5 -65.5t95.5 -30.5h181q-14 64 -14 118q0 122 71.5 173t217.5 51q89 0 153 -7l68 -8v-327h101zM666 157h157v186q-40 2 -51 2q-50 0 -72 -7.5
t-30.5 -33t-8.5 -84.5q0 -29 5 -63zM499.5 139q1.5 0 1.5 2h-4q1 -2 2.5 -2z" />
    <glyph glyph-name="uni066F.init" unicode="&#x66f;" horiz-adv-x="670" 
d="M0 0zM0 157h120q2 -2 -4 37.5t-6 82.5q0 87 33 135t97.5 67t168.5 19q96 0 143 -6l68 -8v-484h-620v157zM448 157v186q-42 2 -53 2q-49 0 -70.5 -7t-30 -29.5t-8.5 -74.5q0 -41 3 -55.5t4 -21.5h155z" />
    <glyph glyph-name="uni066F.medi" unicode="&#x66f;" horiz-adv-x="686" 
d="M0 0zM686 157v-157h-686v157h120q2 -2 -4 37.5t-6 82.5q0 87 33 135t97.5 67t168.5 19q96 0 143 -6l68 -8v-327h66zM448 343q-42 2 -53 2q-49 0 -70.5 -7t-30 -29.5t-8.5 -74.5q0 -41 3 -55.5t4 -21.5h155v186z" />
    <glyph glyph-name="uni066F.fina" unicode="&#x66f;" horiz-adv-x="1012" 
d="M1012 0h-130v-39q0 -64 -30 -122t-94 -95.5t-161 -37.5h-281q-98 0 -160 37.5t-89 95.5t-27 125q0 84 44 333l160 -27l-10 -63q-14 -90 -21.5 -144t-7.5 -87q0 -113 109 -113h286q61 0 85.5 33t24.5 77v27h-110q-88 0 -133 14t-68 64.5t-23 157.5q0 119 29 174.5t88 71.5
t177 16q90 0 144 -6l68 -8v-327h130v-157zM553.5 184.5q5.5 -17.5 16 -23t29.5 -5.5l39 1h72v183h-39q-53 0 -76 -4.5t-35 -26t-12 -72.5q0 -35 5.5 -52.5z" />
    <glyph glyph-name="uniFED6" unicode="&#x642;" horiz-adv-x="1012" arabic-form="final" 
d="M40 0zM1012 0h-130v-39q0 -64 -30 -122t-94 -95.5t-161 -37.5h-281q-98 0 -160 37.5t-89 95.5t-27 125q0 84 44 333l160 -27l-10 -63q-14 -90 -21.5 -144t-7.5 -87q0 -113 109 -113h286q61 0 85.5 33t24.5 77v27h-110q-88 0 -133 14t-68 64.5t-23 157.5q0 119 29 174.5
t88 71.5t177 16q90 0 144 -6l68 -8v-327h130v-157zM553.5 184.5q5.5 -17.5 16 -23t29.5 -5.5l39 1h72v183h-39q-53 0 -76 -4.5t-35 -26t-12 -72.5q0 -35 5.5 -52.5zM544 745h121v-152h-121v152zM714 745h121v-152h-121v152z" />
    <glyph glyph-name="uniFED8" unicode="&#x642;" horiz-adv-x="686" arabic-form="medial" 
d="M0 0zM686 157v-157h-686v157h120q2 -2 -4 37.5t-6 82.5q0 87 33 135t97.5 67t168.5 19q96 0 143 -6l68 -8v-327h66zM448 343q-42 2 -53 2q-49 0 -70.5 -7t-30 -29.5t-8.5 -74.5q0 -41 3 -55.5t4 -21.5h155v186zM233 745h121v-152h-121v152zM403 745h121v-152h-121v152z
" />
    <glyph glyph-name="uniFED7" unicode="&#x642;" horiz-adv-x="670" arabic-form="initial" 
d="M0 0zM0 157h120q2 -2 -4 37.5t-6 82.5q0 87 33 135t97.5 67t168.5 19q96 0 143 -6l68 -8v-484h-620v157zM448 157v186q-42 2 -53 2q-49 0 -70.5 -7t-30 -29.5t-8.5 -74.5q0 -41 3 -55.5t4 -21.5h155zM229 745h121v-152h-121v152zM399 745h121v-152h-121v152z" />
    <glyph glyph-name="uniFEDA" unicode="&#x643;" horiz-adv-x="907" arabic-form="final" 
d="M33 0zM907 157v-157h-570q-85 0 -146.5 11t-109.5 57.5t-48 144.5q0 67 23 151l145 -8l-5 -50q-5 -42 -5 -53q0 -35 25.5 -65.5t94.5 -30.5h275v531h172v-531h149zM517 379l-229 -45l-12 57l44 11q-42 36 -42 88q0 44 31.5 76t81.5 32q38 0 81 -24l-15 -75q-17 14 -39 14
q-21 0 -34 -14t-13 -33q0 -30 25 -44l105 28z" />
    <glyph glyph-name="uniFEDC" unicode="&#x643;" horiz-adv-x="741" arabic-form="medial" 
d="M741 157v-157h-741v157h442v109q0 34 -12.5 56t-30 32t-30.5 9h-266l-81 109l65 127q21 43 53.5 85t57.5 66l129 -73q-8 -9 -37 -55.5t-53 -92.5l-5 -9h169q94 0 141 -52t59.5 -108t12.5 -95v-108h127zM327 677z" />
    <glyph glyph-name="uniFEDB" unicode="&#x643;" horiz-adv-x="674" arabic-form="initial" 
d="M542 468q47 -52 59.5 -108t12.5 -95v-265h-614v157h442v109q0 34 -12.5 56t-30 32t-30.5 9h-266l-81 109l65 127q21 43 53.5 85t57.5 66l129 -73q-8 -9 -37 -55.5t-53 -92.5l-5 -9h169q94 0 141 -52zM327 677z" />
    <glyph glyph-name="uniFB8F" unicode="&#x6a9;" horiz-adv-x="1016" arabic-form="final" 
d="M1016 157v-157h-672q-85 0 -147 11t-109.5 57.5t-47.5 144.5q0 37 6.5 77.5t16.5 73.5l145 -8l-4 -34q-7 -58 -7 -69q0 -35 25.5 -65.5t95.5 -30.5h426v109q0 34 -12.5 56t-30 32t-30.5 9h-266l-81 109l65 127q21 43 53.5 85t57.5 66l129 -73q-8 -9 -37 -55.5t-53 -92.5
l-5 -9h169q94 0 141 -52t59.5 -108t12.5 -95v-108h100zM629 677z" />
    <glyph glyph-name="uniFB91" unicode="&#x6a9;" horiz-adv-x="741" arabic-form="medial" 
d="M0 0zM741 157v-157h-741v157h442v109q0 34 -12.5 56t-30 32t-30.5 9h-266l-81 109l65 127q21 43 53.5 85t57.5 66l129 -73q-8 -9 -37 -55.5t-53 -92.5l-5 -9h169q94 0 141 -52t59.5 -108t12.5 -95v-108h127zM327 677z" />
    <glyph glyph-name="uniFB90" unicode="&#x6a9;" horiz-adv-x="674" arabic-form="initial" 
d="M0 0zM542 468q47 -52 59.5 -108t12.5 -95v-265h-614v157h442v109q0 34 -12.5 56t-30 32t-30.5 9h-266l-81 109l65 127q21 43 53.5 85t57.5 66l129 -73q-8 -9 -37 -55.5t-53 -92.5l-5 -9h169q94 0 141 -52zM327 677z" />
    <glyph glyph-name="uniFB93" unicode="&#x6af;" horiz-adv-x="1016" arabic-form="final" 
d="M40 0zM1016 157v-157h-672q-85 0 -147 11t-109.5 57.5t-47.5 144.5q0 37 6.5 77.5t16.5 73.5l145 -8l-4 -34q-7 -58 -7 -69q0 -35 25.5 -65.5t95.5 -30.5h426v109q0 34 -12.5 56t-30 32t-30.5 9h-266l-81 109l65 127q21 43 53.5 85t57.5 66l129 -73q-8 -9 -37 -55.5
t-53 -92.5l-5 -9h169q94 0 141 -52t59.5 -108t12.5 -95v-108h100zM629 677zM216 624l40 77q27 51 57 92.5t34 46.5l107 -60q-21 -24 -49.5 -63.5t-53.5 -85.5l-55 -113z" />
    <glyph glyph-name="uniFB95" unicode="&#x6af;" horiz-adv-x="741" arabic-form="medial" 
d="M0 0zM741 157v-157h-741v157h442v109q0 34 -12.5 56t-30 32t-30.5 9h-266l-81 109l65 127q21 43 53.5 85t57.5 66l129 -73q-8 -9 -37 -55.5t-53 -92.5l-5 -9h169q94 0 141 -52t59.5 -108t12.5 -95v-108h127zM327 677zM-88 624l40 77q27 51 57 92.5t34 46.5l107 -60
q-21 -24 -49.5 -63.5t-53.5 -85.5l-55 -113z" />
    <glyph glyph-name="uniFB94" unicode="&#x6af;" horiz-adv-x="674" arabic-form="initial" 
d="M0 0zM542 468q47 -52 59.5 -108t12.5 -95v-265h-614v157h442v109q0 34 -12.5 56t-30 32t-30.5 9h-266l-81 109l65 127q21 43 53.5 85t57.5 66l129 -73q-8 -9 -37 -55.5t-53 -92.5l-5 -9h169q94 0 141 -52zM327 677zM-88 624l40 77q27 51 57 92.5t34 46.5l107 -60
q-21 -24 -49.5 -63.5t-53.5 -85.5l-55 -113z" />
    <glyph glyph-name="uniFEDE" unicode="&#x644;" horiz-adv-x="775" arabic-form="final" 
d="M775 0h-118q-1 -62 -35.5 -119t-102 -93t-161.5 -36q-92 0 -163.5 34.5t-110.5 92.5t-39 125q0 56 33 272l161 -9q-9 -61 -19 -140t-10 -103q0 -29 17.5 -55.5t50 -43t73.5 -16.5q44 0 74.5 17.5t45 43.5t14.5 51v667h172v-531h118v-157z" />
    <glyph glyph-name="uniFEE0" unicode="&#x644;" horiz-adv-x="385" arabic-form="medial" 
d="M385 157v-157h-385v157h123v531h172v-531h90z" />
    <glyph glyph-name="uniFEDF" unicode="&#x644;" horiz-adv-x="368" arabic-form="initial" 
d="M295 688v-688h-295v157h123v531h172z" />
    <glyph glyph-name="uniFEE2" unicode="&#x645;" horiz-adv-x="744" arabic-form="final" 
d="M744 157v-157h-70q-11 0 -21 7t-15 18v-25h-325q-44 0 -78.5 -29t-34.5 -110q0 -59 27 -184l-147 -6q-15 61 -28 143t-13 132q0 68 26 113.5t68 70.5q-19 74 -19 122q0 47 13 108t29 111q29 14 87 25.5t132 11.5q118 0 175.5 -33t72.5 -85.5t15 -139.5v-56
q6 -17 16.5 -27t19.5 -10h70zM466 157v97q0 34 -5 53.5t-28 33t-73 13.5q-37 0 -71 -8q-10 -55 -10 -94q0 -25 4.5 -51t9.5 -44h173z" />
    <glyph glyph-name="uniFEE4" unicode="&#x645;" horiz-adv-x="767" arabic-form="medial" 
d="M767 157v-157h-70q-12 0 -22 7.5t-15 20.5v-28h-660v157h149q-13 56 -13 95q0 47 13.5 109t29.5 110q28 14 86 25.5t132 11.5q119 0 176 -33t72 -85t15 -140v-53q6 -18 16.5 -29t20.5 -11h70zM305.5 201q4.5 -26 9.5 -44h173v97q0 35 -4.5 54t-27.5 32.5t-73 13.5
q-38 0 -72 -8q-10 -55 -10 -94q0 -25 4.5 -51z" />
    <glyph glyph-name="uniFEE3" unicode="&#x645;" horiz-adv-x="704" arabic-form="initial" 
d="M573 475q57 -33 72 -85t15 -140v-250h-660v157h149q-13 56 -13 95q0 47 13.5 109t29.5 110q28 14 86 25.5t132 11.5q119 0 176 -33zM305.5 201q4.5 -26 9.5 -44h173v97q0 35 -4.5 54t-27.5 32.5t-73 13.5q-38 0 -72 -8q-10 -55 -10 -94q0 -25 4.5 -51z" />
    <glyph glyph-name="uniFEE6" unicode="&#x646;" horiz-adv-x="747" arabic-form="final" 
d="M40 0zM747 0h-95q-1 -62 -35.5 -119t-102 -93t-161.5 -36q-92 0 -163.5 34.5t-110.5 92.5t-39 125q0 56 33 272l161 -9q-9 -61 -19 -140t-10 -103q0 -29 17.5 -55.5t50 -43t73.5 -16.5q44 0 74.5 17.5t45 43.5t14.5 51v479h172v-343h95v-157zM275 661h155v-161h-155v161z
" />
    <glyph glyph-name="uniFEE8" unicode="&#x646;" horiz-adv-x="472" arabic-form="medial" 
d="M0 0zM472 157v-157h-472v157h149v343h172v-343h151zM156 754h155v-161h-155v161z" />
    <glyph glyph-name="uniFEE7" unicode="&#x646;" horiz-adv-x="384" arabic-form="initial" 
d="M0 0zM321 500v-500h-321v157h149v343h172zM161 754h155v-161h-155v161z" />
    <glyph glyph-name="uni06BA.init" unicode="&#x6ba;" horiz-adv-x="384" 
d="M0 0zM321 500v-500h-321v157h149v343h172z" />
    <glyph glyph-name="uni06BA.medi" unicode="&#x6ba;" horiz-adv-x="472" 
d="M0 0zM472 157v-157h-472v157h149v343h172v-343h151z" />
    <glyph glyph-name="uniFB9F" unicode="&#x6ba;" horiz-adv-x="747" arabic-form="final" 
d="M747 0h-95q-1 -62 -35.5 -119t-102 -93t-161.5 -36q-92 0 -163.5 34.5t-110.5 92.5t-39 125q0 56 33 272l161 -9q-9 -61 -19 -140t-10 -103q0 -29 17.5 -55.5t50 -43t73.5 -16.5q44 0 74.5 17.5t45 43.5t14.5 51v479h172v-343h95v-157z" />
    <glyph glyph-name="uniFEEA" unicode="&#x647;" horiz-adv-x="696" arabic-form="final" 
d="M696 157v-157h-367q-107 0 -167 18t-91 74.5t-31 170.5q0 106 29 158.5t92 70.5t183 18q67 0 147 -4.5t107 -9.5v-339h98zM225.5 191.5q13.5 -22.5 37.5 -28.5t69 -6h94v193q-63 3 -84 3q-53 0 -79 -5.5t-38.5 -25t-12.5 -60.5q0 -48 13.5 -70.5z" />
    <glyph glyph-name="uniFEEC" unicode="&#x647;" horiz-adv-x="861" arabic-form="medial" 
d="M861 157v-157h-861v157h99v16q-1 55 27.5 107.5t80 85.5t118.5 33t117.5 -33.5t78 -85t27.5 -105.5v-18h58v115q0 90 -38 139t-88.5 66t-97.5 17q-36 0 -84.5 -6.5t-139.5 -21.5q-8 -2 -22 -4l-15 141q95 23 168 35.5t133 12.5q128 0 207.5 -54.5t114 -140t34.5 -184.5
v-115h83zM286.5 222.5q-14.5 -20.5 -14.5 -50.5v-15h104v16q0 29 -15.5 49.5t-37.5 20.5t-36.5 -20.5z" />
    <glyph glyph-name="uniFEEB" unicode="&#x647;" horiz-adv-x="822" arabic-form="initial" 
d="M629.5 596.5q79.5 -54.5 114 -140t34.5 -184.5v-272h-778v157h99v16q-1 55 27.5 107.5t80 85.5t118.5 33t117.5 -33.5t78 -85t27.5 -105.5v-18h58v115q0 90 -38 139t-88.5 66t-97.5 17q-36 0 -84.5 -6.5t-139.5 -21.5q-8 -2 -22 -4l-15 141q95 23 168 35.5t133 12.5
q128 0 207.5 -54.5zM286.5 222.5q-14.5 -20.5 -14.5 -50.5v-15h104v16q0 29 -15.5 49.5t-37.5 20.5t-36.5 -20.5z" />
    <glyph glyph-name="uniFBA7" unicode="&#x6c1;" horiz-adv-x="687" arabic-form="final" 
d="M687 157v-157h-262v353q-16 0 -34 2l-38 1q-64 0 -93 -10t-39.5 -38.5t-10.5 -92.5v-215h-170v214q0 130 32.5 191t114.5 81.5t255 20.5q51 0 87 -5l68 -8v-337h90z" />
    <glyph glyph-name="uniFBA9" unicode="&#x6c1;" horiz-adv-x="598" arabic-form="medial" 
d="M598 0h-91v-305l-74 -8q-6 0 -26.5 -2t-46.5 -1q-101 0 -156 39t-76.5 106t-27.5 171h-100v157h262v-85l-1 -60q0 -72 15 -120t59 -51v316h263v-157z" />
    <glyph glyph-name="uniFBA8" unicode="&#x6c1;" horiz-adv-x="384" arabic-form="initial" 
d="M0 0zM321 500v-500h-321v157h149v343h172zM140 -62h139l-53 -280h-191z" />
    <glyph glyph-name="uni06C2.init" unicode="&#x6c2;" horiz-adv-x="384" 
d="M0 0zM321 500v-500h-321v157h149v343h172zM140 -62h139l-53 -280h-191zM354 672l-229 -45l-12 57l44 11q-42 36 -42 88q0 44 31.5 76t81.5 32q38 0 81 -24l-15 -75q-17 14 -39 14q-21 0 -34 -14t-13 -33q0 -30 25 -44l105 28z" />
    <glyph glyph-name="uni06C2.medi" unicode="&#x6c2;" horiz-adv-x="598" 
d="M0 0zM598 0h-91v-305l-74 -8q-6 0 -26.5 -2t-46.5 -1q-101 0 -156 39t-76.5 106t-27.5 171h-100v157h262v-85l-1 -60q0 -72 15 -120t59 -51v316h263v-157zM414 439l-229 -45l-12 57l44 11q-42 36 -42 88q0 44 31.5 76t81.5 32q38 0 81 -24l-15 -75q-17 14 -39 14
q-21 0 -34 -14t-13 -33q0 -30 25 -44l105 28z" />
    <glyph glyph-name="uni06C2.fina" unicode="&#x6c2;" horiz-adv-x="696" 
d="M40 0zM696 157v-157h-367q-107 0 -167 18t-91 74.5t-31 170.5q0 106 29 158.5t92 70.5t183 18q67 0 147 -4.5t107 -9.5v-339h98zM225.5 191.5q13.5 -22.5 37.5 -28.5t69 -6h94v193q-63 3 -84 3q-53 0 -79 -5.5t-38.5 -25t-12.5 -60.5q0 -48 13.5 -70.5zM460 672l-229 -45
l-12 57l44 11q-42 36 -42 88q0 44 31.5 76t81.5 32q38 0 81 -24l-15 -75q-17 14 -39 14q-21 0 -34 -14t-13 -33q0 -30 25 -44l105 28z" />
    <glyph glyph-name="uniFBAB" unicode="&#x6be;" horiz-adv-x="844" arabic-form="final" 
d="M844 157v-157h-804v157h43v16q-1 55 27.5 107.5t80 85.5t118.5 33t117.5 -33.5t78 -85t27.5 -105.5v-18h58v115q0 90 -38 139t-88.5 66t-97.5 17q-36 0 -84.5 -6.5t-139.5 -21.5q-8 -2 -22 -4l-15 141q95 23 168 35.5t133 12.5q128 0 207.5 -54.5t114 -140t34.5 -184.5
v-115h82zM270.5 222.5q-14.5 -20.5 -14.5 -50.5v-15h104v16q0 29 -15.5 49.5t-37.5 20.5t-36.5 -20.5z" />
    <glyph glyph-name="uniFBAD" unicode="&#x6be;" horiz-adv-x="861" arabic-form="medial" 
d="M861 157v-157h-861v157h99v16q-1 55 27.5 107.5t80 85.5t118.5 33t117.5 -33.5t78 -85t27.5 -105.5v-18h58v115q0 90 -38 139t-88.5 66t-97.5 17q-36 0 -84.5 -6.5t-139.5 -21.5q-8 -2 -22 -4l-15 141q95 23 168 35.5t133 12.5q128 0 207.5 -54.5t114 -140t34.5 -184.5
v-115h83zM286.5 222.5q-14.5 -20.5 -14.5 -50.5v-15h104v16q0 29 -15.5 49.5t-37.5 20.5t-36.5 -20.5z" />
    <glyph glyph-name="uniFBAC" unicode="&#x6be;" horiz-adv-x="822" arabic-form="initial" 
d="M629.5 596.5q79.5 -54.5 114 -140t34.5 -184.5v-272h-778v157h99v16q-1 55 27.5 107.5t80 85.5t118.5 33t117.5 -33.5t78 -85t27.5 -105.5v-18h58v115q0 90 -38 139t-88.5 66t-97.5 17q-36 0 -84.5 -6.5t-139.5 -21.5q-8 -2 -22 -4l-15 141q95 23 168 35.5t133 12.5
q128 0 207.5 -54.5zM286.5 222.5q-14.5 -20.5 -14.5 -50.5v-15h104v16q0 29 -15.5 49.5t-37.5 20.5t-36.5 -20.5z" />
    <glyph glyph-name="uniFE94" unicode="&#x629;" horiz-adv-x="696" arabic-form="final" 
d="M40 0zM696 157v-157h-367q-107 0 -167 18t-91 74.5t-31 170.5q0 106 29 158.5t92 70.5t183 18q67 0 147 -4.5t107 -9.5v-339h98zM225.5 191.5q13.5 -22.5 37.5 -28.5t69 -6h94v193q-63 3 -84 3q-53 0 -79 -5.5t-38.5 -25t-12.5 -60.5q0 -48 13.5 -70.5zM198 745h121v-152
h-121v152zM368 745h121v-152h-121v152z" />
    <glyph glyph-name="uni06C3.fina" unicode="&#x6c3;" horiz-adv-x="687" 
d="M40 0zM687 157v-157h-262v353q-16 0 -34 2l-38 1q-64 0 -93 -10t-39.5 -38.5t-10.5 -92.5v-215h-170v214q0 130 32.5 191t114.5 81.5t255 20.5q51 0 87 -5l68 -8v-337h90zM186 775h121v-152h-121v152zM356 775h121v-152h-121v152z" />
    <glyph glyph-name="uniFEEE" unicode="&#x648;" horiz-adv-x="692" arabic-form="final" 
d="M692 0h-157q-13 -103 -64 -175.5t-166 -72.5q-65 0 -190 22v156q137 -21 173 -21q44 0 59 21t14 70h-96q-96 0 -145.5 37t-64.5 88.5t-15 115.5q0 121 32.5 182t83 79.5t123.5 18.5q70 0 140 -9t120 -20v-335h153v-157zM231.5 181q19.5 -24 75.5 -24h60v205q-32 2 -59 2
q-26 0 -46 -6t-35 -30.5t-15 -75.5q0 -47 19.5 -71z" />
    <glyph glyph-name="uniFE86" unicode="&#x624;" horiz-adv-x="692" arabic-form="final" 
d="M40 0zM692 0h-157q-13 -103 -64 -175.5t-166 -72.5q-65 0 -190 22v156q137 -21 173 -21q44 0 59 21t14 70h-96q-96 0 -145.5 37t-64.5 88.5t-15 115.5q0 121 32.5 182t83 79.5t123.5 18.5q70 0 140 -9t120 -20v-335h153v-157zM231.5 181q19.5 -24 75.5 -24h60v205
q-32 2 -59 2q-26 0 -46 -6t-35 -30.5t-15 -75.5q0 -47 19.5 -71zM433 672l-229 -45l-12 57l44 11q-42 36 -42 88q0 44 31.5 76t81.5 32q38 0 81 -24l-15 -75q-17 14 -39 14q-21 0 -34 -14t-13 -33q0 -30 25 -44l105 28z" />
    <glyph glyph-name="uniFEF0" unicode="&#x649;" horiz-adv-x="994" arabic-form="final" 
d="M994 0h-106q-6 -136 -71 -192t-173 -56h-289q-67 0 -140 25.5t-124 82.5t-51 147q0 39 9.5 96t18.5 90l159 -26q-4 -29 -9.5 -74.5t-5.5 -63.5q0 -49 36.5 -84.5t101.5 -35.5l284 1q29 0 44 4.5t24 24t10 61.5q-49 1 -86 13t-81 44l76 136q22 -18 39 -26t30.5 -9t44.5 -1
h259v-157z" />
    <glyph glyph-name="uniFEF2" unicode="&#x64a;" horiz-adv-x="994" arabic-form="final" 
d="M40 0zM994 0h-106q-6 -136 -71 -192t-173 -56h-289q-67 0 -140 25.5t-124 82.5t-51 147q0 39 9.5 96t18.5 90l159 -26q-4 -29 -9.5 -74.5t-5.5 -63.5q0 -49 36.5 -84.5t101.5 -35.5l284 1q29 0 44 4.5t24 24t10 61.5q-49 1 -86 13t-81 44l76 136q22 -18 39 -26t30.5 -9
t44.5 -1h259v-157zM335 -320h121v-152h-121v152zM505 -320h121v-152h-121v152z" />
    <glyph glyph-name="uniFEF4" unicode="&#x64a;" horiz-adv-x="472" arabic-form="medial" 
d="M0 0zM472 157v-157h-472v157h149v343h172v-343h151zM88 -80h121v-152h-121v152zM258 -80h121v-152h-121v152z" />
    <glyph glyph-name="uniFEF3" unicode="&#x64a;" horiz-adv-x="384" arabic-form="initial" 
d="M0 0zM321 500v-500h-321v157h149v343h172zM93 -80h121v-152h-121v152zM263 -80h121v-152h-121v152z" />
    <glyph glyph-name="uniFE8A" unicode="&#x626;" horiz-adv-x="994" arabic-form="final" 
d="M40 0zM994 0h-106q-6 -136 -71 -192t-173 -56h-289q-67 0 -140 25.5t-124 82.5t-51 147q0 39 9.5 96t18.5 90l159 -26q-4 -29 -9.5 -74.5t-5.5 -63.5q0 -49 36.5 -84.5t101.5 -35.5l284 1q29 0 44 4.5t24 24t10 61.5q-49 1 -86 13t-81 44l76 136q22 -18 39 -26t30.5 -9
t44.5 -1h259v-157zM301 340l-229 -45l-12 57l44 11q-42 36 -42 88q0 44 31.5 76t81.5 32q38 0 81 -24l-15 -75q-17 14 -39 14q-21 0 -34 -14t-13 -33q0 -30 25 -44l105 28z" />
    <glyph glyph-name="uniFE8C" unicode="&#x626;" horiz-adv-x="472" arabic-form="medial" 
d="M0 0zM472 157v-157h-472v157h149v343h172v-343h151zM349 672l-229 -45l-12 57l44 11q-42 36 -42 88q0 44 31.5 76t81.5 32q38 0 81 -24l-15 -75q-17 14 -39 14q-21 0 -34 -14t-13 -33q0 -30 25 -44l105 28z" />
    <glyph glyph-name="uniFE8B" unicode="&#x626;" horiz-adv-x="384" arabic-form="initial" 
d="M0 0zM321 500v-500h-321v157h149v343h172zM354 672l-229 -45l-12 57l44 11q-42 36 -42 88q0 44 31.5 76t81.5 32q38 0 81 -24l-15 -75q-17 14 -39 14q-21 0 -34 -14t-13 -33q0 -30 25 -44l105 28z" />
    <glyph glyph-name="uniFBFD" unicode="&#x6cc;" horiz-adv-x="994" arabic-form="final" 
d="M40 0zM994 0h-106q-6 -136 -71 -192t-173 -56h-289q-67 0 -140 25.5t-124 82.5t-51 147q0 39 9.5 96t18.5 90l159 -26q-4 -29 -9.5 -74.5t-5.5 -63.5q0 -49 36.5 -84.5t101.5 -35.5l284 1q29 0 44 4.5t24 24t10 61.5q-49 1 -86 13t-81 44l76 136q22 -18 39 -26t30.5 -9
t44.5 -1h259v-157z" />
    <glyph glyph-name="uniFBFF" unicode="&#x6cc;" horiz-adv-x="472" arabic-form="medial" 
d="M0 0zM472 157v-157h-472v157h149v343h172v-343h151zM88 -80h121v-152h-121v152zM258 -80h121v-152h-121v152z" />
    <glyph glyph-name="uniFBFE" unicode="&#x6cc;" horiz-adv-x="384" arabic-form="initial" 
d="M0 0zM321 500v-500h-321v157h149v343h172zM93 -80h121v-152h-121v152zM263 -80h121v-152h-121v152z" />
    <glyph glyph-name="uniFBAF" unicode="&#x6d2;" horiz-adv-x="710" arabic-form="final" 
d="M205 0v-8q0 -49 18.5 -65t48.5 -16l28 1h322v-157h-279h-58q-78 0 -129.5 13.5t-85 61t-33.5 144.5q0 53 10 103.5t23 79.5h640v-157h-505z" />
    <glyph glyph-name="uniFBB1" unicode="&#x6d3;" horiz-adv-x="710" arabic-form="final" 
d="M37 0zM205 0v-8q0 -49 18.5 -65t48.5 -16l28 1h322v-157h-279h-58q-78 0 -129.5 13.5t-85 61t-33.5 144.5q0 53 10 103.5t23 79.5h640v-157h-505zM341 309l-229 -45l-12 57l44 11q-42 36 -42 88q0 44 31.5 76t81.5 32q38 0 81 -24l-15 -75q-17 14 -39 14q-21 0 -34 -14
t-13 -33q0 -30 25 -44l105 28z" />
    <glyph glyph-name="uniFC6A" unicode="&#xfc6a;" horiz-adv-x="782" arabic-form="final" 
d="M40 0zM782 157v-157h-283v335q-119 -5 -218 -17v-301q0 -122 -42 -193t-127 -71q-22 0 -72 3v155l15 -1q54 0 54 82v454q75 19 213 36.5t349 17.5v-343h111zM524 -80h155v-161h-155v161z" />
    <glyph glyph-name="uniFC6B" unicode="&#xfc6b;" horiz-adv-x="782" arabic-form="final" 
d="M40 0zM782 157v-157h-283v335q-119 -5 -218 -17v-301q0 -122 -42 -193t-127 -71q-22 0 -72 3v155l15 -1q54 0 54 82v454q75 19 213 36.5t349 17.5v-343h111zM524 -80h155v-161h-155v161zM118 754h155v-161h-155v161z" />
    <glyph glyph-name="uniFC6D" unicode="&#xfc6d;" horiz-adv-x="1133" arabic-form="final" 
d="M40 0zM430 500h-155v161h155v-161zM1133 157v-157h-283v338q-75 -3 -118.5 -9.5t-49.5 -7.5q-20 -4 -30 -5v-313q0 -63 -34 -120.5t-102 -94t-163 -36.5q-92 0 -163.5 34.5t-110.5 92.5t-39 125q0 56 33 272l161 -9q-9 -61 -19 -140t-10 -103q0 -29 17.5 -55.5t50 -43
t73.5 -16.5q44 0 74.5 17.5t45 43.5t14.5 51v421q186 58 542 58v-343h111zM874 -80h155v-161h-155v161z" />
    <glyph glyph-name="uniFC6E" unicode="&#xfc6e;" horiz-adv-x="1287" arabic-form="final" 
d="M40 0zM1287 157v-157h-283v345h-343q-82 0 -82 -44q0 -15 20 -26t64 -27q38 -14 56 -22q68 -27 103 -50.5t51 -57t16 -88.5q0 -153 -65.5 -215.5t-179.5 -62.5h-289q-67 0 -140 25.5t-124 82.5t-51 147q0 39 9.5 96t18.5 90l159 -26q-4 -29 -9.5 -74.5t-5.5 -63.5
q0 -49 36.5 -84.5t101.5 -35.5l284 1q31 0 46 5.5t23.5 28.5t8.5 75q0 18 -15.5 27t-48.5 19q-20 5 -37 12q-113 38 -160.5 87t-47.5 123q0 105 64 159t174 54h535v-343h111zM1029 -80h155v-161h-155v161z" />
    <glyph glyph-name="uniFC6F" unicode="&#xfc6f;" horiz-adv-x="1287" arabic-form="final" 
d="M40 0zM1287 157v-157h-283v345h-343q-82 0 -82 -44q0 -15 20 -26t64 -27q38 -14 56 -22q68 -27 103 -50.5t51 -57t16 -88.5q0 -153 -65.5 -215.5t-179.5 -62.5h-289q-67 0 -140 25.5t-124 82.5t-51 147q0 39 9.5 96t18.5 90l159 -26q-4 -29 -9.5 -74.5t-5.5 -63.5
q0 -49 36.5 -84.5t101.5 -35.5l284 1q31 0 46 5.5t23.5 28.5t8.5 75q0 18 -15.5 27t-48.5 19q-20 5 -37 12q-113 38 -160.5 87t-47.5 123q0 105 64 159t174 54h535v-343h111zM1029 -80h155v-161h-155v161zM335 -320h121v-152h-121v152zM505 -320h121v-152h-121v152z" />
    <glyph glyph-name="uniFC70" unicode="&#xfc70;" horiz-adv-x="782" arabic-form="final" 
d="M40 0zM782 157v-157h-283v335q-119 -5 -218 -17v-301q0 -122 -42 -193t-127 -71q-22 0 -72 3v155l15 -1q54 0 54 82v454q75 19 213 36.5t349 17.5v-343h111zM455 745h121v-152h-121v152zM625 745h121v-152h-121v152z" />
    <glyph glyph-name="uniFC71" unicode="&#xfc71;" horiz-adv-x="782" arabic-form="final" 
d="M40 0zM782 157v-157h-283v335q-119 -5 -218 -17v-301q0 -122 -42 -193t-127 -71q-22 0 -72 3v155l15 -1q54 0 54 82v454q75 19 213 36.5t349 17.5v-343h111zM455 745h121v-152h-121v152zM625 745h121v-152h-121v152zM118 754h155v-161h-155v161z" />
    <glyph glyph-name="uniFC73" unicode="&#xfc73;" horiz-adv-x="1133" arabic-form="final" 
d="M40 0zM430 500h-155v161h155v-161zM1133 157v-157h-283v338q-75 -3 -118.5 -9.5t-49.5 -7.5q-20 -4 -30 -5v-313q0 -63 -34 -120.5t-102 -94t-163 -36.5q-92 0 -163.5 34.5t-110.5 92.5t-39 125q0 56 33 272l161 -9q-9 -61 -19 -140t-10 -103q0 -29 17.5 -55.5t50 -43
t73.5 -16.5q44 0 74.5 17.5t45 43.5t14.5 51v421q186 58 542 58v-343h111zM805 745h121v-152h-121v152zM975 745h121v-152h-121v152z" />
    <glyph glyph-name="uniFC74" unicode="&#xfc74;" horiz-adv-x="1287" arabic-form="final" 
d="M40 0zM1287 157v-157h-283v345h-343q-82 0 -82 -44q0 -15 20 -26t64 -27q38 -14 56 -22q68 -27 103 -50.5t51 -57t16 -88.5q0 -153 -65.5 -215.5t-179.5 -62.5h-289q-67 0 -140 25.5t-124 82.5t-51 147q0 39 9.5 96t18.5 90l159 -26q-4 -29 -9.5 -74.5t-5.5 -63.5
q0 -49 36.5 -84.5t101.5 -35.5l284 1q31 0 46 5.5t23.5 28.5t8.5 75q0 18 -15.5 27t-48.5 19q-20 5 -37 12q-113 38 -160.5 87t-47.5 123q0 105 64 159t174 54h535v-343h111zM960 745h121v-152h-121v152zM1130 745h121v-152h-121v152z" />
    <glyph glyph-name="uniFC75" unicode="&#xfc75;" horiz-adv-x="1287" arabic-form="final" 
d="M40 0zM1287 157v-157h-283v345h-343q-82 0 -82 -44q0 -15 20 -26t64 -27q38 -14 56 -22q68 -27 103 -50.5t51 -57t16 -88.5q0 -153 -65.5 -215.5t-179.5 -62.5h-289q-67 0 -140 25.5t-124 82.5t-51 147q0 39 9.5 96t18.5 90l159 -26q-4 -29 -9.5 -74.5t-5.5 -63.5
q0 -49 36.5 -84.5t101.5 -35.5l284 1q31 0 46 5.5t23.5 28.5t8.5 75q0 18 -15.5 27t-48.5 19q-20 5 -37 12q-113 38 -160.5 87t-47.5 123q0 105 64 159t174 54h535v-343h111zM960 745h121v-152h-121v152zM1130 745h121v-152h-121v152zM335 -320h121v-152h-121v152zM505 -320
h121v-152h-121v152z" />
    <glyph glyph-name="uniFC76" unicode="&#xfc76;" horiz-adv-x="782" arabic-form="final" 
d="M40 0zM782 157v-157h-283v335q-119 -5 -218 -17v-301q0 -122 -42 -193t-127 -71q-22 0 -72 3v155l15 -1q54 0 54 82v454q75 19 213 36.5t349 17.5v-343h111zM547 885h110v-132h-110v132zM456 737h121v-144h-121v144zM626 737h121v-144h-121v144z" />
    <glyph glyph-name="uniFC77" unicode="&#xfc77;" horiz-adv-x="782" arabic-form="final" 
d="M40 0zM782 157v-157h-283v335q-119 -5 -218 -17v-301q0 -122 -42 -193t-127 -71q-22 0 -72 3v155l15 -1q54 0 54 82v454q75 19 213 36.5t349 17.5v-343h111zM547 885h110v-132h-110v132zM456 737h121v-144h-121v144zM626 737h121v-144h-121v144zM118 754h155v-161h-155
v161z" />
    <glyph glyph-name="uniFC79" unicode="&#xfc79;" horiz-adv-x="1133" arabic-form="final" 
d="M40 0zM430 500h-155v161h155v-161zM1133 157v-157h-283v338q-75 -3 -118.5 -9.5t-49.5 -7.5q-20 -4 -30 -5v-313q0 -63 -34 -120.5t-102 -94t-163 -36.5q-92 0 -163.5 34.5t-110.5 92.5t-39 125q0 56 33 272l161 -9q-9 -61 -19 -140t-10 -103q0 -29 17.5 -55.5t50 -43
t73.5 -16.5q44 0 74.5 17.5t45 43.5t14.5 51v421q186 58 542 58v-343h111zM897 885h110v-132h-110v132zM806 737h121v-144h-121v144zM976 737h121v-144h-121v144z" />
    <glyph glyph-name="uniFC7A" unicode="&#xfc7a;" horiz-adv-x="1287" arabic-form="final" 
d="M40 0zM1287 157v-157h-283v345h-343q-82 0 -82 -44q0 -15 20 -26t64 -27q38 -14 56 -22q68 -27 103 -50.5t51 -57t16 -88.5q0 -153 -65.5 -215.5t-179.5 -62.5h-289q-67 0 -140 25.5t-124 82.5t-51 147q0 39 9.5 96t18.5 90l159 -26q-4 -29 -9.5 -74.5t-5.5 -63.5
q0 -49 36.5 -84.5t101.5 -35.5l284 1q31 0 46 5.5t23.5 28.5t8.5 75q0 18 -15.5 27t-48.5 19q-20 5 -37 12q-113 38 -160.5 87t-47.5 123q0 105 64 159t174 54h535v-343h111zM1052 885h110v-132h-110v132zM961 737h121v-144h-121v144zM1131 737h121v-144h-121v144z" />
    <glyph glyph-name="uniFC7B" unicode="&#xfc7b;" horiz-adv-x="1287" arabic-form="final" 
d="M40 0zM1287 157v-157h-283v345h-343q-82 0 -82 -44q0 -15 20 -26t64 -27q38 -14 56 -22q68 -27 103 -50.5t51 -57t16 -88.5q0 -153 -65.5 -215.5t-179.5 -62.5h-289q-67 0 -140 25.5t-124 82.5t-51 147q0 39 9.5 96t18.5 90l159 -26q-4 -29 -9.5 -74.5t-5.5 -63.5
q0 -49 36.5 -84.5t101.5 -35.5l284 1q31 0 46 5.5t23.5 28.5t8.5 75q0 18 -15.5 27t-48.5 19q-20 5 -37 12q-113 38 -160.5 87t-47.5 123q0 105 64 159t174 54h535v-343h111zM1052 885h110v-132h-110v132zM961 737h121v-144h-121v144zM1131 737h121v-144h-121v144zM335 -320
h121v-152h-121v152zM505 -320h121v-152h-121v152z" />
    <glyph glyph-name="uniFD0E" unicode="&#xfd0e;" horiz-adv-x="1238" arabic-form="isolated" 
d="M1185 276v-276h-220q-35 0 -66.5 11t-49.5 22q-44 -33 -101 -33h-244v337q-110 -5 -223 -19v-301q0 -122 -42 -193t-127 -71q-22 0 -72 3v155l15 -1q54 0 54 82v454q74 19 215 36.5t352 17.5v-343h11q33 0 53.5 24t20.5 65v202h172v-202q0 -41 -8 -81q16 -8 33 -8h55v82
l1 96q0 68 -8 159l153 6q26 -195 26 -224z" />
    <glyph glyph-name="uniFD2A" unicode="&#xfd2a;" horiz-adv-x="1363" arabic-form="final" 
d="M1363 157v-157h-398q-35 0 -66.5 11t-49.5 22q-44 -33 -101 -33h-244v337q-110 -5 -223 -19v-301q0 -122 -42 -193t-127 -71q-22 0 -72 3v155l15 -1q54 0 54 82v454q74 19 215 36.5t352 17.5v-343h11q33 0 53.5 24t20.5 65v202h172v-202q0 -41 -8 -81q16 -8 33 -8h55v82
l1 96q0 68 -8 159l153 6q26 -195 26 -224v-119h178z" />
    <glyph glyph-name="uniFCFB" unicode="&#xfcfb;" horiz-adv-x="1737" arabic-form="isolated" 
d="M1684 278v-278h-219q-36 0 -69.5 12t-46.5 21q-44 -33 -102 -33h-243v345h-343q-82 0 -82 -44q0 -15 20 -26t64 -27q38 -14 56 -22q68 -27 103 -50.5t51 -57t16 -88.5q0 -153 -65.5 -215.5t-179.5 -62.5h-289q-67 0 -140 25.5t-124 82.5t-51 147q0 39 9.5 96t18.5 90
l159 -26q-4 -29 -9.5 -74.5t-5.5 -63.5q0 -49 36.5 -84.5t101.5 -35.5l284 1q31 0 46 5.5t23.5 28.5t8.5 75q0 18 -15.5 27t-48.5 19q-20 5 -37 12q-113 38 -160.5 87t-47.5 123q0 105 64 159t174 54h535v-343h10q33 0 53.5 24t20.5 65v204h172v-204q0 -40 -8 -80
q14 -9 33 -9h55v84l1 54q1 15 1 46q0 53 -8 154l153 7q25 -187 25 -224z" />
    <glyph glyph-name="uniFD17" unicode="&#xfd17;" horiz-adv-x="1791" arabic-form="final" 
d="M1791 157v-157h-326q-36 0 -69.5 12t-46.5 21q-44 -33 -102 -33h-243v345h-343q-82 0 -82 -44q0 -15 20 -26t64 -27q38 -14 56 -22q68 -27 103 -50.5t51 -57t16 -88.5q0 -153 -65.5 -215.5t-179.5 -62.5h-289q-67 0 -140 25.5t-124 82.5t-51 147q0 39 9.5 96t18.5 90
l159 -26q-4 -29 -9.5 -74.5t-5.5 -63.5q0 -49 36.5 -84.5t101.5 -35.5l284 1q31 0 46 5.5t23.5 28.5t8.5 75q0 18 -15.5 27t-48.5 19q-20 5 -37 12q-113 38 -160.5 87t-47.5 123q0 105 64 159t174 54h535v-343h10q33 0 53.5 24t20.5 65v204h172v-204q0 -40 -8 -80
q14 -9 33 -9h55v84l1 54q1 15 1 46q0 53 -8 154l153 7q25 -187 25 -224v-121h107z" />
    <glyph glyph-name="uniFCFC" unicode="&#xfcfc;" horiz-adv-x="1737" arabic-form="isolated" 
d="M40 0zM1684 278v-278h-219q-36 0 -69.5 12t-46.5 21q-44 -33 -102 -33h-243v345h-343q-82 0 -82 -44q0 -15 20 -26t64 -27q38 -14 56 -22q68 -27 103 -50.5t51 -57t16 -88.5q0 -153 -65.5 -215.5t-179.5 -62.5h-289q-67 0 -140 25.5t-124 82.5t-51 147q0 39 9.5 96
t18.5 90l159 -26q-4 -29 -9.5 -74.5t-5.5 -63.5q0 -49 36.5 -84.5t101.5 -35.5l284 1q31 0 46 5.5t23.5 28.5t8.5 75q0 18 -15.5 27t-48.5 19q-20 5 -37 12q-113 38 -160.5 87t-47.5 123q0 105 64 159t174 54h535v-343h10q33 0 53.5 24t20.5 65v204h172v-204q0 -40 -8 -80
q14 -9 33 -9h55v84l1 54q1 15 1 46q0 53 -8 154l153 7q25 -187 25 -224zM335 -320h121v-152h-121v152zM505 -320h121v-152h-121v152z" />
    <glyph glyph-name="uniFD18" unicode="&#xfd18;" horiz-adv-x="1791" arabic-form="final" 
d="M40 0zM1791 157v-157h-326q-36 0 -69.5 12t-46.5 21q-44 -33 -102 -33h-243v345h-343q-82 0 -82 -44q0 -15 20 -26t64 -27q38 -14 56 -22q68 -27 103 -50.5t51 -57t16 -88.5q0 -153 -65.5 -215.5t-179.5 -62.5h-289q-67 0 -140 25.5t-124 82.5t-51 147q0 39 9.5 96
t18.5 90l159 -26q-4 -29 -9.5 -74.5t-5.5 -63.5q0 -49 36.5 -84.5t101.5 -35.5l284 1q31 0 46 5.5t23.5 28.5t8.5 75q0 18 -15.5 27t-48.5 19q-20 5 -37 12q-113 38 -160.5 87t-47.5 123q0 105 64 159t174 54h535v-343h10q33 0 53.5 24t20.5 65v204h172v-204q0 -40 -8 -80
q14 -9 33 -9h55v84l1 54q1 15 1 46q0 53 -8 154l153 7q25 -187 25 -224v-121h107zM335 -320h121v-152h-121v152zM505 -320h121v-152h-121v152z" />
    <glyph glyph-name="uniFD0D" unicode="&#xfd0d;" horiz-adv-x="1238" arabic-form="isolated" 
d="M40 0zM1185 276v-276h-220q-35 0 -66.5 11t-49.5 22q-44 -33 -101 -33h-244v337q-110 -5 -223 -19v-301q0 -122 -42 -193t-127 -71q-22 0 -72 3v155l15 -1q54 0 54 82v454q74 19 215 36.5t352 17.5v-343h11q33 0 53.5 24t20.5 65v202h172v-202q0 -41 -8 -81q16 -8 33 -8
h55v82l1 96q0 68 -8 159l153 6q26 -195 26 -224zM795 885h110v-132h-110v132zM704 737h121v-144h-121v144zM874 737h121v-144h-121v144z" />
    <glyph glyph-name="uniFD29" unicode="&#xfd29;" horiz-adv-x="1363" arabic-form="final" 
d="M40 0zM1363 157v-157h-398q-35 0 -66.5 11t-49.5 22q-44 -33 -101 -33h-244v337q-110 -5 -223 -19v-301q0 -122 -42 -193t-127 -71q-22 0 -72 3v155l15 -1q54 0 54 82v454q74 19 215 36.5t352 17.5v-343h11q33 0 53.5 24t20.5 65v202h172v-202q0 -41 -8 -81q16 -8 33 -8
h55v82l1 96q0 68 -8 159l153 6q26 -195 26 -224v-119h178zM803 885h110v-132h-110v132zM712 737h121v-144h-121v144zM882 737h121v-144h-121v144z" />
    <glyph glyph-name="uniFCFD" unicode="&#xfcfd;" horiz-adv-x="1737" arabic-form="isolated" 
d="M40 0zM1684 278v-278h-219q-36 0 -69.5 12t-46.5 21q-44 -33 -102 -33h-243v345h-343q-82 0 -82 -44q0 -15 20 -26t64 -27q38 -14 56 -22q68 -27 103 -50.5t51 -57t16 -88.5q0 -153 -65.5 -215.5t-179.5 -62.5h-289q-67 0 -140 25.5t-124 82.5t-51 147q0 39 9.5 96
t18.5 90l159 -26q-4 -29 -9.5 -74.5t-5.5 -63.5q0 -49 36.5 -84.5t101.5 -35.5l284 1q31 0 46 5.5t23.5 28.5t8.5 75q0 18 -15.5 27t-48.5 19q-20 5 -37 12q-113 38 -160.5 87t-47.5 123q0 105 64 159t174 54h535v-343h10q33 0 53.5 24t20.5 65v204h172v-204q0 -40 -8 -80
q14 -9 33 -9h55v84l1 54q1 15 1 46q0 53 -8 154l153 7q25 -187 25 -224zM1295 885h110v-132h-110v132zM1204 737h121v-144h-121v144zM1374 737h121v-144h-121v144z" />
    <glyph glyph-name="uniFD19" unicode="&#xfd19;" horiz-adv-x="1791" arabic-form="final" 
d="M40 0zM1791 157v-157h-326q-36 0 -69.5 12t-46.5 21q-44 -33 -102 -33h-243v345h-343q-82 0 -82 -44q0 -15 20 -26t64 -27q38 -14 56 -22q68 -27 103 -50.5t51 -57t16 -88.5q0 -153 -65.5 -215.5t-179.5 -62.5h-289q-67 0 -140 25.5t-124 82.5t-51 147q0 39 9.5 96
t18.5 90l159 -26q-4 -29 -9.5 -74.5t-5.5 -63.5q0 -49 36.5 -84.5t101.5 -35.5l284 1q31 0 46 5.5t23.5 28.5t8.5 75q0 18 -15.5 27t-48.5 19q-20 5 -37 12q-113 38 -160.5 87t-47.5 123q0 105 64 159t174 54h535v-343h10q33 0 53.5 24t20.5 65v204h172v-204q0 -40 -8 -80
q14 -9 33 -9h55v84l1 54q1 15 1 46q0 53 -8 154l153 7q25 -187 25 -224v-121h107zM1295 872h110v-132h-110v132zM1204 724h121v-144h-121v144zM1374 724h121v-144h-121v144z" />
    <glyph glyph-name="uniFCFE" unicode="&#xfcfe;" horiz-adv-x="1737" arabic-form="isolated" 
d="M40 0zM1684 278v-278h-219q-36 0 -69.5 12t-46.5 21q-44 -33 -102 -33h-243v345h-343q-82 0 -82 -44q0 -15 20 -26t64 -27q38 -14 56 -22q68 -27 103 -50.5t51 -57t16 -88.5q0 -153 -65.5 -215.5t-179.5 -62.5h-289q-67 0 -140 25.5t-124 82.5t-51 147q0 39 9.5 96
t18.5 90l159 -26q-4 -29 -9.5 -74.5t-5.5 -63.5q0 -49 36.5 -84.5t101.5 -35.5l284 1q31 0 46 5.5t23.5 28.5t8.5 75q0 18 -15.5 27t-48.5 19q-20 5 -37 12q-113 38 -160.5 87t-47.5 123q0 105 64 159t174 54h535v-343h10q33 0 53.5 24t20.5 65v204h172v-204q0 -40 -8 -80
q14 -9 33 -9h55v84l1 54q1 15 1 46q0 53 -8 154l153 7q25 -187 25 -224zM1295 885h110v-132h-110v132zM1204 737h121v-144h-121v144zM1374 737h121v-144h-121v144zM335 -320h121v-152h-121v152zM505 -320h121v-152h-121v152z" />
    <glyph glyph-name="uniFD1A" unicode="&#xfd1a;" horiz-adv-x="1791" arabic-form="final" 
d="M40 0zM1791 157v-157h-326q-36 0 -69.5 12t-46.5 21q-44 -33 -102 -33h-243v345h-343q-82 0 -82 -44q0 -15 20 -26t64 -27q38 -14 56 -22q68 -27 103 -50.5t51 -57t16 -88.5q0 -153 -65.5 -215.5t-179.5 -62.5h-289q-67 0 -140 25.5t-124 82.5t-51 147q0 39 9.5 96
t18.5 90l159 -26q-4 -29 -9.5 -74.5t-5.5 -63.5q0 -49 36.5 -84.5t101.5 -35.5l284 1q31 0 46 5.5t23.5 28.5t8.5 75q0 18 -15.5 27t-48.5 19q-20 5 -37 12q-113 38 -160.5 87t-47.5 123q0 105 64 159t174 54h535v-343h10q33 0 53.5 24t20.5 65v204h172v-204q0 -40 -8 -80
q14 -9 33 -9h55v84l1 54q1 15 1 46q0 53 -8 154l153 7q25 -187 25 -224v-121h107zM1295 872h110v-132h-110v132zM1204 724h121v-144h-121v144zM1374 724h121v-144h-121v144zM335 -320h121v-152h-121v152zM505 -320h121v-152h-121v152z" />
    <glyph glyph-name="uniFD0F" unicode="&#xfd0f;" horiz-adv-x="1238" arabic-form="isolated" 
d="M1134.5 432.5q52.5 -77.5 52.5 -181.5v-251h-683v337q-107 -4 -223 -19v-301q0 -122 -42 -193t-127 -71q-22 0 -72 3v155l15 -1q54 0 54 82v454q74 19 215 36.5t352 17.5v-160q45 56 81.5 91t85.5 57t113 22q126 0 178.5 -77.5zM799 298q-59 -55 -103 -141h319v58
q0 57 -28 97.5t-77 40.5q-52 0 -111 -55z" />
    <glyph glyph-name="uniFD2B" unicode="&#xfd2b;" horiz-adv-x="1259" arabic-form="final" 
d="M1259 157v-157h-755v337q-107 -4 -223 -19v-301q0 -122 -42 -193t-127 -71q-22 0 -72 3v155l15 -1q54 0 54 82v454q74 19 215 36.5t352 17.5v-160q45 56 81.5 91t85.5 57t113 22q126 0 178.5 -77.5t52.5 -181.5v-94h72zM799 298q-59 -55 -103 -141h319v58q0 57 -28 97.5
t-77 40.5q-52 0 -111 -55z" />
    <glyph glyph-name="uniFD05" unicode="&#xfd05;" horiz-adv-x="1737" arabic-form="isolated" 
d="M1634.5 432.5q52.5 -77.5 52.5 -181.5v-251h-683v345h-343q-82 0 -82 -44q0 -15 20 -26t64 -27q38 -14 56 -22q68 -27 103 -50.5t51 -57t16 -88.5q0 -153 -65.5 -215.5t-179.5 -62.5h-289q-67 0 -140 25.5t-124 82.5t-51 147q0 39 9.5 96t18.5 90l159 -26
q-4 -29 -9.5 -74.5t-5.5 -63.5q0 -49 36.5 -84.5t101.5 -35.5l284 1q31 0 46 5.5t23.5 28.5t8.5 75q0 18 -15.5 27t-48.5 19q-20 5 -37 12q-113 38 -160.5 87t-47.5 123q0 105 64 159t174 54h535v-160q45 56 81.5 91t85.5 57t113 22q126 0 178.5 -77.5zM1298.5 298
q-58.5 -55 -102.5 -141h319v58q0 57 -28.5 97.5t-77.5 40.5q-52 0 -110.5 -55z" />
    <glyph glyph-name="uniFD21" unicode="&#xfd21;" horiz-adv-x="1781" arabic-form="final" 
d="M1781 157v-157h-777v345h-343q-82 0 -82 -44q0 -15 20 -26t64 -27q38 -14 56 -22q68 -27 103 -50.5t51 -57t16 -88.5q0 -153 -65.5 -215.5t-179.5 -62.5h-289q-67 0 -140 25.5t-124 82.5t-51 147q0 39 9.5 96t18.5 90l159 -26q-4 -29 -9.5 -74.5t-5.5 -63.5
q0 -49 36.5 -84.5t101.5 -35.5l284 1q31 0 46 5.5t23.5 28.5t8.5 75q0 18 -15.5 27t-48.5 19q-20 5 -37 12q-113 38 -160.5 87t-47.5 123q0 105 64 159t174 54h535v-160q45 56 81.5 91t85.5 57t113 22q126 0 178.5 -77.5t52.5 -181.5v-94h94zM1298.5 298
q-58.5 -55 -102.5 -141h319v58q0 57 -28.5 97.5t-77.5 40.5q-52 0 -110.5 -55z" />
    <glyph glyph-name="uniFD06" unicode="&#xfd06;" horiz-adv-x="1737" arabic-form="isolated" 
d="M40 0zM1634.5 432.5q52.5 -77.5 52.5 -181.5v-251h-683v345h-343q-82 0 -82 -44q0 -15 20 -26t64 -27q38 -14 56 -22q68 -27 103 -50.5t51 -57t16 -88.5q0 -153 -65.5 -215.5t-179.5 -62.5h-289q-67 0 -140 25.5t-124 82.5t-51 147q0 39 9.5 96t18.5 90l159 -26
q-4 -29 -9.5 -74.5t-5.5 -63.5q0 -49 36.5 -84.5t101.5 -35.5l284 1q31 0 46 5.5t23.5 28.5t8.5 75q0 18 -15.5 27t-48.5 19q-20 5 -37 12q-113 38 -160.5 87t-47.5 123q0 105 64 159t174 54h535v-160q45 56 81.5 91t85.5 57t113 22q126 0 178.5 -77.5zM1298.5 298
q-58.5 -55 -102.5 -141h319v58q0 57 -28.5 97.5t-77.5 40.5q-52 0 -110.5 -55zM335 -320h121v-152h-121v152zM505 -320h121v-152h-121v152z" />
    <glyph glyph-name="uniFD22" unicode="&#xfd22;" horiz-adv-x="1781" arabic-form="final" 
d="M40 0zM1781 157v-157h-777v345h-343q-82 0 -82 -44q0 -15 20 -26t64 -27q38 -14 56 -22q68 -27 103 -50.5t51 -57t16 -88.5q0 -153 -65.5 -215.5t-179.5 -62.5h-289q-67 0 -140 25.5t-124 82.5t-51 147q0 39 9.5 96t18.5 90l159 -26q-4 -29 -9.5 -74.5t-5.5 -63.5
q0 -49 36.5 -84.5t101.5 -35.5l284 1q31 0 46 5.5t23.5 28.5t8.5 75q0 18 -15.5 27t-48.5 19q-20 5 -37 12q-113 38 -160.5 87t-47.5 123q0 105 64 159t174 54h535v-160q45 56 81.5 91t85.5 57t113 22q126 0 178.5 -77.5t52.5 -181.5v-94h94zM1298.5 298
q-58.5 -55 -102.5 -141h319v58q0 57 -28.5 97.5t-77.5 40.5q-52 0 -110.5 -55zM335 -320h121v-152h-121v152zM505 -320h121v-152h-121v152z" />
    <glyph glyph-name="uniFD10" unicode="&#xfd10;" horiz-adv-x="1238" arabic-form="isolated" 
d="M40 0zM1134.5 432.5q52.5 -77.5 52.5 -181.5v-251h-683v337q-107 -4 -223 -19v-301q0 -122 -42 -193t-127 -71q-22 0 -72 3v155l15 -1q54 0 54 82v454q74 19 215 36.5t352 17.5v-160q45 56 81.5 91t85.5 57t113 22q126 0 178.5 -77.5zM799 298q-59 -55 -103 -141h319v58
q0 57 -28 97.5t-77 40.5q-52 0 -111 -55zM797 754h155v-161h-155v161z" />
    <glyph glyph-name="uniFD2C" unicode="&#xfd2c;" horiz-adv-x="1259" arabic-form="final" 
d="M40 0zM1259 157v-157h-755v337q-107 -4 -223 -19v-301q0 -122 -42 -193t-127 -71q-22 0 -72 3v155l15 -1q54 0 54 82v454q74 19 215 36.5t352 17.5v-160q45 56 81.5 91t85.5 57t113 22q126 0 178.5 -77.5t52.5 -181.5v-94h72zM799 298q-59 -55 -103 -141h319v58
q0 57 -28 97.5t-77 40.5q-52 0 -111 -55zM797 754h155v-161h-155v161z" />
    <glyph glyph-name="uniFD07" unicode="&#xfd07;" horiz-adv-x="1737" arabic-form="isolated" 
d="M40 0zM1634.5 432.5q52.5 -77.5 52.5 -181.5v-251h-683v345h-343q-82 0 -82 -44q0 -15 20 -26t64 -27q38 -14 56 -22q68 -27 103 -50.5t51 -57t16 -88.5q0 -153 -65.5 -215.5t-179.5 -62.5h-289q-67 0 -140 25.5t-124 82.5t-51 147q0 39 9.5 96t18.5 90l159 -26
q-4 -29 -9.5 -74.5t-5.5 -63.5q0 -49 36.5 -84.5t101.5 -35.5l284 1q31 0 46 5.5t23.5 28.5t8.5 75q0 18 -15.5 27t-48.5 19q-20 5 -37 12q-113 38 -160.5 87t-47.5 123q0 105 64 159t174 54h535v-160q45 56 81.5 91t85.5 57t113 22q126 0 178.5 -77.5zM1298.5 298
q-58.5 -55 -102.5 -141h319v58q0 57 -28.5 97.5t-77.5 40.5q-52 0 -110.5 -55zM1318 754h155v-161h-155v161z" />
    <glyph glyph-name="uniFD23" unicode="&#xfd23;" horiz-adv-x="1781" arabic-form="final" 
d="M40 0zM1781 157v-157h-777v345h-343q-82 0 -82 -44q0 -15 20 -26t64 -27q38 -14 56 -22q68 -27 103 -50.5t51 -57t16 -88.5q0 -153 -65.5 -215.5t-179.5 -62.5h-289q-67 0 -140 25.5t-124 82.5t-51 147q0 39 9.5 96t18.5 90l159 -26q-4 -29 -9.5 -74.5t-5.5 -63.5
q0 -49 36.5 -84.5t101.5 -35.5l284 1q31 0 46 5.5t23.5 28.5t8.5 75q0 18 -15.5 27t-48.5 19q-20 5 -37 12q-113 38 -160.5 87t-47.5 123q0 105 64 159t174 54h535v-160q45 56 81.5 91t85.5 57t113 22q126 0 178.5 -77.5t52.5 -181.5v-94h94zM1298.5 298
q-58.5 -55 -102.5 -141h319v58q0 57 -28.5 97.5t-77.5 40.5q-52 0 -110.5 -55zM1318 754h155v-161h-155v161z" />
    <glyph glyph-name="uniFD08" unicode="&#xfd08;" horiz-adv-x="1737" arabic-form="isolated" 
d="M40 0zM1634.5 432.5q52.5 -77.5 52.5 -181.5v-251h-683v345h-343q-82 0 -82 -44q0 -15 20 -26t64 -27q38 -14 56 -22q68 -27 103 -50.5t51 -57t16 -88.5q0 -153 -65.5 -215.5t-179.5 -62.5h-289q-67 0 -140 25.5t-124 82.5t-51 147q0 39 9.5 96t18.5 90l159 -26
q-4 -29 -9.5 -74.5t-5.5 -63.5q0 -49 36.5 -84.5t101.5 -35.5l284 1q31 0 46 5.5t23.5 28.5t8.5 75q0 18 -15.5 27t-48.5 19q-20 5 -37 12q-113 38 -160.5 87t-47.5 123q0 105 64 159t174 54h535v-160q45 56 81.5 91t85.5 57t113 22q126 0 178.5 -77.5zM1298.5 298
q-58.5 -55 -102.5 -141h319v58q0 57 -28.5 97.5t-77.5 40.5q-52 0 -110.5 -55zM1318 754h155v-161h-155v161zM335 -320h121v-152h-121v152zM505 -320h121v-152h-121v152z" />
    <glyph glyph-name="uniFD24" unicode="&#xfd24;" horiz-adv-x="1781" arabic-form="final" 
d="M40 0zM1781 157v-157h-777v345h-343q-82 0 -82 -44q0 -15 20 -26t64 -27q38 -14 56 -22q68 -27 103 -50.5t51 -57t16 -88.5q0 -153 -65.5 -215.5t-179.5 -62.5h-289q-67 0 -140 25.5t-124 82.5t-51 147q0 39 9.5 96t18.5 90l159 -26q-4 -29 -9.5 -74.5t-5.5 -63.5
q0 -49 36.5 -84.5t101.5 -35.5l284 1q31 0 46 5.5t23.5 28.5t8.5 75q0 18 -15.5 27t-48.5 19q-20 5 -37 12q-113 38 -160.5 87t-47.5 123q0 105 64 159t174 54h535v-160q45 56 81.5 91t85.5 57t113 22q126 0 178.5 -77.5t52.5 -181.5v-94h94zM1298.5 298
q-58.5 -55 -102.5 -141h319v58q0 57 -28.5 97.5t-77.5 40.5q-52 0 -110.5 -55zM1318 754h155v-161h-155v161zM335 -320h121v-152h-121v152zM505 -320h121v-152h-121v152z" />
    <glyph glyph-name="uniFC8A" unicode="&#xfc8a;" horiz-adv-x="782" arabic-form="final" 
d="M40 0zM782 157v-157h-283v335q-119 -5 -218 -17v-301q0 -122 -42 -193t-127 -71q-22 0 -72 3v155l15 -1q54 0 54 82v454q75 19 213 36.5t349 17.5v-343h111zM524 754h155v-161h-155v161z" />
    <glyph glyph-name="uniFC8B" unicode="&#xfc8b;" horiz-adv-x="782" arabic-form="final" 
d="M40 0zM782 157v-157h-283v335q-119 -5 -218 -17v-301q0 -122 -42 -193t-127 -71q-22 0 -72 3v155l15 -1q54 0 54 82v454q75 19 213 36.5t349 17.5v-343h111zM524 754h155v-161h-155v161zM118 754h155v-161h-155v161z" />
    <glyph glyph-name="uniFC8D" unicode="&#xfc8d;" horiz-adv-x="1133" arabic-form="final" 
d="M40 0zM430 500h-155v161h155v-161zM1133 157v-157h-283v338q-75 -3 -118.5 -9.5t-49.5 -7.5q-20 -4 -30 -5v-313q0 -63 -34 -120.5t-102 -94t-163 -36.5q-92 0 -163.5 34.5t-110.5 92.5t-39 125q0 56 33 272l161 -9q-9 -61 -19 -140t-10 -103q0 -29 17.5 -55.5t50 -43
t73.5 -16.5q44 0 74.5 17.5t45 43.5t14.5 51v421q186 58 542 58v-343h111zM874 754h155v-161h-155v161z" />
    <glyph glyph-name="uniFC8E" unicode="&#xfc8e;" horiz-adv-x="1287" arabic-form="final" 
d="M40 0zM1287 157v-157h-283v345h-343q-82 0 -82 -44q0 -15 20 -26t64 -27q38 -14 56 -22q68 -27 103 -50.5t51 -57t16 -88.5q0 -153 -65.5 -215.5t-179.5 -62.5h-289q-67 0 -140 25.5t-124 82.5t-51 147q0 39 9.5 96t18.5 90l159 -26q-4 -29 -9.5 -74.5t-5.5 -63.5
q0 -49 36.5 -84.5t101.5 -35.5l284 1q31 0 46 5.5t23.5 28.5t8.5 75q0 18 -15.5 27t-48.5 19q-20 5 -37 12q-113 38 -160.5 87t-47.5 123q0 105 64 159t174 54h535v-343h111zM1029 754h155v-161h-155v161z" />
    <glyph glyph-name="uniFC8F" unicode="&#xfc8f;" horiz-adv-x="1287" arabic-form="final" 
d="M40 0zM1287 157v-157h-283v345h-343q-82 0 -82 -44q0 -15 20 -26t64 -27q38 -14 56 -22q68 -27 103 -50.5t51 -57t16 -88.5q0 -153 -65.5 -215.5t-179.5 -62.5h-289q-67 0 -140 25.5t-124 82.5t-51 147q0 39 9.5 96t18.5 90l159 -26q-4 -29 -9.5 -74.5t-5.5 -63.5
q0 -49 36.5 -84.5t101.5 -35.5l284 1q31 0 46 5.5t23.5 28.5t8.5 75q0 18 -15.5 27t-48.5 19q-20 5 -37 12q-113 38 -160.5 87t-47.5 123q0 105 64 159t174 54h535v-343h111zM1029 754h155v-161h-155v161zM335 -320h121v-152h-121v152zM505 -320h121v-152h-121v152z" />
    <glyph glyph-name="uniFC91" unicode="&#xfc91;" horiz-adv-x="782" arabic-form="final" 
d="M40 0zM782 157v-157h-283v335q-119 -5 -218 -17v-301q0 -122 -42 -193t-127 -71q-22 0 -72 3v155l15 -1q54 0 54 82v454q75 19 213 36.5t349 17.5v-343h111zM456 -80h121v-152h-121v152zM626 -80h121v-152h-121v152z" />
    <glyph glyph-name="uniFC92" unicode="&#xfc92;" horiz-adv-x="782" arabic-form="final" 
d="M40 0zM782 157v-157h-283v335q-119 -5 -218 -17v-301q0 -122 -42 -193t-127 -71q-22 0 -72 3v155l15 -1q54 0 54 82v454q75 19 213 36.5t349 17.5v-343h111zM456 -80h121v-152h-121v152zM626 -80h121v-152h-121v152zM118 754h155v-161h-155v161z" />
    <glyph glyph-name="uniFC94" unicode="&#xfc94;" horiz-adv-x="1133" arabic-form="final" 
d="M40 0zM430 500h-155v161h155v-161zM1133 157v-157h-283v338q-75 -3 -118.5 -9.5t-49.5 -7.5q-20 -4 -30 -5v-313q0 -63 -34 -120.5t-102 -94t-163 -36.5q-92 0 -163.5 34.5t-110.5 92.5t-39 125q0 56 33 272l161 -9q-9 -61 -19 -140t-10 -103q0 -29 17.5 -55.5t50 -43
t73.5 -16.5q44 0 74.5 17.5t45 43.5t14.5 51v421q186 58 542 58v-343h111zM806 -80h121v-152h-121v152zM976 -80h121v-152h-121v152z" />
    <glyph glyph-name="uniFC64" unicode="&#xfc64;" horiz-adv-x="782" arabic-form="final" 
d="M40 0zM782 157v-157h-283v335q-119 -5 -218 -17v-301q0 -122 -42 -193t-127 -71q-22 0 -72 3v155l15 -1q54 0 54 82v454q75 19 213 36.5t349 17.5v-343h111zM717 672l-229 -45l-12 57l44 11q-42 36 -42 88q0 44 31.5 76t81.5 32q38 0 81 -24l-15 -75q-17 14 -39 14
q-21 0 -34 -14t-13 -33q0 -30 25 -44l105 28z" />
    <glyph glyph-name="uniFC65" unicode="&#xfc65;" horiz-adv-x="782" arabic-form="final" 
d="M40 0zM782 157v-157h-283v335q-119 -5 -218 -17v-301q0 -122 -42 -193t-127 -71q-22 0 -72 3v155l15 -1q54 0 54 82v454q75 19 213 36.5t349 17.5v-343h111zM717 672l-229 -45l-12 57l44 11q-42 36 -42 88q0 44 31.5 76t81.5 32q38 0 81 -24l-15 -75q-17 14 -39 14
q-21 0 -34 -14t-13 -33q0 -30 25 -44l105 28zM118 754h155v-161h-155v161z" />
    <glyph glyph-name="uniFC67" unicode="&#xfc67;" horiz-adv-x="1133" arabic-form="final" 
d="M40 0zM430 500h-155v161h155v-161zM1133 157v-157h-283v338q-75 -3 -118.5 -9.5t-49.5 -7.5q-20 -4 -30 -5v-313q0 -63 -34 -120.5t-102 -94t-163 -36.5q-92 0 -163.5 34.5t-110.5 92.5t-39 125q0 56 33 272l161 -9q-9 -61 -19 -140t-10 -103q0 -29 17.5 -55.5t50 -43
t73.5 -16.5q44 0 74.5 17.5t45 43.5t14.5 51v421q186 58 542 58v-343h111zM1067 672l-229 -45l-12 57l44 11q-42 36 -42 88q0 44 31.5 76t81.5 32q38 0 81 -24l-15 -75q-17 14 -39 14q-21 0 -34 -14t-13 -33q0 -30 25 -44l105 28z" />
    <glyph glyph-name="uniFC68" unicode="&#xfc68;" horiz-adv-x="1287" arabic-form="final" 
d="M40 0zM1287 157v-157h-283v345h-343q-82 0 -82 -44q0 -15 20 -26t64 -27q38 -14 56 -22q68 -27 103 -50.5t51 -57t16 -88.5q0 -153 -65.5 -215.5t-179.5 -62.5h-289q-67 0 -140 25.5t-124 82.5t-51 147q0 39 9.5 96t18.5 90l159 -26q-4 -29 -9.5 -74.5t-5.5 -63.5
q0 -49 36.5 -84.5t101.5 -35.5l284 1q31 0 46 5.5t23.5 28.5t8.5 75q0 18 -15.5 27t-48.5 19q-20 5 -37 12q-113 38 -160.5 87t-47.5 123q0 105 64 159t174 54h535v-343h111zM1222 672l-229 -45l-12 57l44 11q-42 36 -42 88q0 44 31.5 76t81.5 32q38 0 81 -24l-15 -75
q-17 14 -39 14q-21 0 -34 -14t-13 -33q0 -30 25 -44l105 28z" />
    <glyph glyph-name="uniFC69" unicode="&#xfc69;" horiz-adv-x="1287" arabic-form="final" 
d="M40 0zM1287 157v-157h-283v345h-343q-82 0 -82 -44q0 -15 20 -26t64 -27q38 -14 56 -22q68 -27 103 -50.5t51 -57t16 -88.5q0 -153 -65.5 -215.5t-179.5 -62.5h-289q-67 0 -140 25.5t-124 82.5t-51 147q0 39 9.5 96t18.5 90l159 -26q-4 -29 -9.5 -74.5t-5.5 -63.5
q0 -49 36.5 -84.5t101.5 -35.5l284 1q31 0 46 5.5t23.5 28.5t8.5 75q0 18 -15.5 27t-48.5 19q-20 5 -37 12q-113 38 -160.5 87t-47.5 123q0 105 64 159t174 54h535v-343h111zM1222 672l-229 -45l-12 57l44 11q-42 36 -42 88q0 44 31.5 76t81.5 32q38 0 81 -24l-15 -75
q-17 14 -39 14q-21 0 -34 -14t-13 -33q0 -30 25 -44l105 28zM335 -320h121v-152h-121v152zM505 -320h121v-152h-121v152z" />
    <glyph glyph-name=".notdef" horiz-adv-x="235" 
 />
    <glyph glyph-name="nonmarkingreturn" horiz-adv-x="235" 
 />
    <glyph glyph-name="space" unicode=" " horiz-adv-x="220" 
 />
    <glyph glyph-name="uni0000" horiz-adv-x="0" 
 />
    <glyph glyph-name="uni0000" horiz-adv-x="0" 
 />
    <glyph glyph-name="uni000D" unicode="&#xd;" horiz-adv-x="333" 
 />
    <glyph glyph-name="exclam" unicode="!" horiz-adv-x="302" 
d="M57 672h189l-20 -407h-150zM58 194h185v-194h-185v194z" />
    <glyph glyph-name="quotedbl" unicode="&#x22;" horiz-adv-x="436" 
d="M49 672h165l-9 -252h-152zM225 672h165l-8 -252h-152z" />
    <glyph glyph-name="numbersign" unicode="#" 
d="M97 132h-86v144h86v86h-86v144h86v150h148v-150h70v150h148v-150h86v-144h-86v-86h86v-144h-86v-132h-148v132h-70v-132h-148v132zM315 276v86h-70v-86h70z" />
    <glyph glyph-name="dollar" unicode="$" 
d="M181 -127l14 119q-47 6 -71 11.5t-51 13.5l-22 5l16 133q83 -11 148 -15l15 123q-104 35 -146.5 84t-42.5 119q0 96 63.5 151.5t169.5 55.5l7 1l18 144h90l-19 -152q16 -1 59.5 -7.5t61.5 -11.5l14 -4l-14 -136q-77 8 -141 12l-13 -113q68 -25 106 -50t56 -59.5t18 -87.5
q0 -110 -66.5 -166.5t-172.5 -56.5h8l-15 -120q-90 3 -90 7zM261 520q-20 -4 -34 -17t-14 -26q0 -15 39 -39zM335 160q10 14 10 27q0 22 -29 46l-11 -94q20 7 30 21z" />
    <glyph glyph-name="percent" unicode="%" 
d="M105 -11l255 722l90 -33l-255 -719zM36 411.5q-31 37.5 -31 111.5q0 150 126 150q127 0 127 -150q0 -75 -31 -112t-96 -37q-64 0 -95 37.5zM135 522q0 22 -1.5 37t-2.5 15q-4 0 -4 -52q0 -48 4 -48t4 48zM332.5 24q-31.5 37 -31.5 111q0 151 127 151q64 0 95.5 -37.5
t31.5 -113.5q0 -74 -30.5 -111t-95.5 -37t-96.5 37zM430.5 100q1.5 14 1.5 36q0 21 -1.5 35.5t-2.5 14.5q-1 -3 -2 -16.5t-1 -34.5q0 -49 3 -49q1 0 2.5 14z" />
    <glyph glyph-name="ampersand" unicode="&#x26;" horiz-adv-x="710" 
d="M93 41.5q-63 54.5 -63 157.5q0 67 31 116t103 80q-44 53 -58 86.5t-14 66.5q0 86 59.5 128.5t166.5 42.5q108 0 166 -42.5t58 -131.5q0 -54 -27 -98.5t-99 -104.5l62 -64q3 4 8.5 48.5t4.5 57.5l168 -5q-14 -103 -54 -199l101 -82l-97 -112l-96 70q-42 -25 -66 -37.5
t-64.5 -22t-97.5 -9.5q-129 0 -192 54.5zM355.5 489q9.5 20 9.5 39q0 22 -12 33.5t-34 11.5q-25 0 -38 -12t-13 -31t10.5 -36.5t34.5 -43.5l9 -12q24 31 33.5 51zM364 146l32 2l-148 148q-19 -16 -30.5 -41.5t-11.5 -48.5q0 -32 22 -48.5t64 -16.5q12 0 72 5z" />
    <glyph glyph-name="quotesingle" unicode="'" horiz-adv-x="260" 
d="M49 672h165l-9 -252h-152z" />
    <glyph glyph-name="parenleft" unicode="(" horiz-adv-x="337" 
d="M97 -26.5q-29 73.5 -48.5 163.5t-19.5 163q0 120 37 246t87 204h164q-32 -79 -63.5 -221.5t-31.5 -223.5q0 -99 24.5 -203.5t70.5 -226.5h-164q-27 25 -56 98.5z" />
    <glyph glyph-name="parenright" unicode=")" horiz-adv-x="337" 
d="M20 -125q96 248 96 431q0 76 -32 222.5t-64 221.5h164q55 -93 89.5 -215t34.5 -235q0 -75 -19.5 -165.5t-48.5 -163t-56 -96.5h-164z" />
    <glyph glyph-name="asterisk" unicode="*" horiz-adv-x="428" 
d="M189 465l-101 -79l-57 72l103 77l-100 71l56 77l98 -70l38 118l92 -31l-37 -119h119v-90h-117l36 -117l-89 -26z" />
    <glyph glyph-name="plus" unicode="+" 
d="M202 174h-155v154h155v150h154v-150h157v-154h-157v-152h-154v152z" />
    <glyph glyph-name="comma" unicode="," horiz-adv-x="290" 
d="M63 157h192l-106 -280h-138z" />
    <glyph glyph-name="hyphen" unicode="-" horiz-adv-x="388" 
d="M48 338h291v-156h-291v156z" />
    <glyph glyph-name="period" unicode="." horiz-adv-x="283" 
d="M49 201h185v-201h-185v201z" />
    <glyph glyph-name="slash" unicode="/" horiz-adv-x="502" 
d="M30 7l292 718l152 -54l-292 -718z" />
    <glyph glyph-name="zero" unicode="0" 
d="M80 74q-66 84 -66 259q0 176 66 259.5t200 83.5q136 0 201.5 -83.5t65.5 -259.5t-65.5 -259.5t-201.5 -83.5q-134 0 -200 84zM344.5 188q18.5 43 18.5 145q0 103 -18.5 146t-64.5 43t-64.5 -43t-18.5 -146q0 -102 18.5 -145t64.5 -43t64.5 43z" />
    <glyph glyph-name="one" unicode="1" 
d="M259 457l-125 -78l-82 133l223 148h162v-660h-178v457z" />
    <glyph glyph-name="two" unicode="2" 
d="M62 152l107 103q61 63 89 96.5t36.5 54.5t8.5 47q0 63 -60 63q-67 0 -147 -9l-23 -1l-7 135q96 32 207 32q107 0 160.5 -50t53.5 -147q0 -52 -13.5 -92t-46.5 -80t-94 -95l-75 -54h236v-155h-432v152z" />
    <glyph glyph-name="three" unicode="3" 
d="M180.5 -6q-40.5 7 -94.5 23l-32 8l7 133q100 -15 176 -15q47 0 63 14t16 36q0 31 -21 47.5t-49 14.5h-133v146h133q26 0 43 23t17 51q0 44 -93 44q-30 0 -92 -10l-29 -4l-26 -3l-11 129q90 42 202 42q120 0 176.5 -44t56.5 -137q0 -58 -13.5 -89.5t-49.5 -65.5
q30 -21 45 -37.5t21.5 -38.5t6.5 -60q0 -109 -56.5 -161.5t-181.5 -52.5q-41 0 -81.5 7z" />
    <glyph glyph-name="four" unicode="4" 
d="M293 96h-253v135l146 429h198l-168 -410h77v171h179v-171h49v-154h-49v-96h-179v96z" />
    <glyph glyph-name="five" unicode="5" 
d="M173 -3q-67 11 -94 21l-38 10l19 130q119 -17 208 -17q30 0 46.5 16.5t16.5 48.5q0 31 -12.5 47.5t-34.5 16.5l-39 1q-9 1 -28 1q-18 0 -39 -3h-11l-101 25l18 366h415v-153h-278l-16 -95q51 12 93 12q217 0 217 -201q0 -112 -60 -174.5t-170 -62.5q-45 0 -112 11z" />
    <glyph glyph-name="six" unicode="6" 
d="M89.5 77.5q-64.5 90.5 -64.5 262.5q0 333 286 333q79 0 176 -28l34 -9l-16 -134q-113 17 -178 17q-62 0 -90.5 -25t-28.5 -80l19 3q49 13 76 13q119 0 177.5 -52.5t58.5 -166.5q0 -224 -261 -224q-124 0 -188.5 90.5zM338 159.5q17 18.5 17 51.5t-14.5 49t-48.5 16
q-20 0 -34 -1.5t-38 -8.5l-13 -2q0 -66 21 -94.5t64 -28.5q29 0 46 18.5z" />
    <glyph glyph-name="seven" unicode="7" 
d="M107 31l209 435v36h-252v158h430v-193l-223 -480z" />
    <glyph glyph-name="eight" unicode="8" 
d="M25 168q0 57 13.5 92.5t49.5 76.5q-33 36 -42.5 66.5t-9.5 83.5q0 84 67 136q69 50 175 50q72 0 127.5 -23t87 -65.5t31.5 -98.5q0 -41 -2.5 -62t-12 -40.5t-32.5 -46.5q34 -44 45.5 -75t11.5 -83q0 -96 -72 -144t-185 -48q-252 0 -252 181zM321 403q11 36 11 54
q0 56 -52 56q-24 0 -38 -15.5t-14 -46.5q0 -12 17 -48h76zM342 209q0 10 -5.5 23.5t-15.5 20.5h-76q-13 -9 -20.5 -20t-7.5 -20q0 -66 63 -66q62 0 62 62z" />
    <glyph glyph-name="nine" unicode="9" 
d="M74 14l-35 9l16 135q113 -17 194 -17q102 0 100 117l-35 -10q-49 -15 -60 -15q-111 0 -173 56t-62 162q0 107 67.5 164.5t196.5 57.5q120 0 184.5 -88.5t64.5 -261.5t-71 -254.5t-212 -81.5q-85 0 -175 27zM341 400l9 2q1 59 -19 88t-61 29q-67 0 -67 -68q0 -63 67 -63
q36 0 71 12z" />
    <glyph glyph-name="colon" unicode=":" horiz-adv-x="282" 
d="M49 468h185v-201h-185v201zM49 201h185v-201h-185v201z" />
    <glyph glyph-name="semicolon" unicode=";" horiz-adv-x="300" 
d="M57 468h185v-201h-185v201zM66 157h191l-105 -280h-139z" />
    <glyph glyph-name="less" unicode="&#x3c;" 
d="M69 181v140l400 169v-174l-209 -61l209 -73v-174z" />
    <glyph glyph-name="equal" unicode="=" 
d="M54 441h452v-155h-452v155zM54 218h452v-156h-452v156z" />
    <glyph glyph-name="greater" unicode="&#x3e;" 
d="M92 182l209 73l-209 61v174l399 -169v-140l-399 -173v174z" />
    <glyph glyph-name="question" unicode="?" horiz-adv-x="430" 
d="M85 339q0 9 12 25t30 28q2 2 22 16q40 29 57.5 47t17.5 39q0 17 -14 27t-39 10q-68 0 -137 -12l-8 128q76 38 192 38q91 0 139 -39.5t48 -113.5q0 -60 -6 -93t-21.5 -55t-48.5 -45q-31 -19 -47.5 -37.5t-16.5 -45.5v-28h-137q-43 39 -43 111zM99 193h185v-194h-185v194z
" />
    <glyph glyph-name="at" unicode="@" horiz-adv-x="970" 
d="M302.5 -189q-84.5 24 -147.5 76q-126 111 -126 374q0 147 59.5 253.5t167.5 162.5t250 56q141 0 240.5 -50.5t152 -146.5t52.5 -231v-5q0 -139 -53 -217.5t-154 -78.5q-45 0 -83 14.5t-58 38.5q-69 -54 -130 -54q-103 0 -149 64.5t-46 190.5q0 123 43 181t140 58
q31 0 62 -18l13 -7v11h174v-171q0 -117 2 -124q1 -21 6 -30t19 -9q26 0 34 37.5t8 113.5v6q0 142 -67.5 208t-208.5 66q-93 0 -160.5 -40.5t-104 -115.5t-36.5 -175q0 -155 70 -232t230 -77l143 8l7 -150q-80 -11 -150 -11q-115 0 -199.5 24zM540 167q-4 32 -4 61v113
q-20 3 -33 3q-22 0 -32 -7.5t-13.5 -25.5t-3.5 -55q0 -100 34 -100q36 0 52 11z" />
    <glyph glyph-name="A" unicode="A" horiz-adv-x="606" 
d="M401 86h-196l-13 -86h-180l129 672h324l129 -672h-180zM325 526h-44l-46 -286h136z" />
    <glyph glyph-name="B" unicode="B" horiz-adv-x="604" 
d="M67 672h277q111 0 163.5 -43.5t52.5 -143.5q0 -47 -13.5 -79.5t-51.5 -60.5q37 -17 55 -51.5t18 -89.5q0 -101 -58.5 -152.5t-167.5 -51.5h-275v672zM332 410q23 0 35.5 13.5t12.5 40.5q0 26 -12 41.5t-33 15.5h-90v-111h87zM333 151q29 0 41.5 11.5t12.5 41.5
q0 28 -9 42.5t-42 14.5h-91v-110h88z" />
    <glyph glyph-name="C" unicode="C" horiz-adv-x="542" 
d="M141.5 24q-58.5 37 -80.5 110.5t-22 196.5q0 144 25.5 220t79.5 105t150 29q98 0 214 -30l-5 -140q-94 13 -152 13q-53 0 -81 -16.5t-38.5 -52t-10.5 -100.5q0 -33 1 -51q3 -74 12 -107t32 -45t74 -12q69 0 163 11l3 -144q-108 -24 -197 -24q-109 0 -167.5 37z" />
    <glyph glyph-name="D" unicode="D" horiz-adv-x="633" 
d="M475.5 649q63.5 -23 91.5 -92.5t28 -213.5q0 -130 -21.5 -201t-88 -106.5t-201.5 -35.5h-217v672h217q128 0 191.5 -23zM367 177.5q27 22.5 35 64.5t8 119q0 62 -9 94.5t-36 47t-82 14.5h-38v-362h38q57 0 84 22.5z" />
    <glyph glyph-name="E" unicode="E" horiz-adv-x="555" 
d="M245 517v-105h214v-152h-214v-105h274v-155h-452v672h452v-155h-274z" />
    <glyph glyph-name="F" unicode="F" horiz-adv-x="534" 
d="M245 517v-153h214v-155h-214v-209h-178v672h447v-155h-269z" />
    <glyph glyph-name="G" unicode="G" horiz-adv-x="608" 
d="M150.5 23q-61.5 36 -87.5 112.5t-26 205.5q0 126 28 201t88.5 109t161.5 34q93 0 206 -21l37 -8l-4 -136q-104 8 -184 8q-70 0 -102.5 -28.5t-40 -73t-7.5 -123.5q0 -65 9.5 -99t35 -48.5t74.5 -14.5h43v76h-26v154h202v-362q-160 -22 -236 -22q-110 0 -171.5 36z" />
    <glyph glyph-name="H" unicode="H" horiz-adv-x="678" 
d="M612 672v-672h-180v261h-187v-261h-178v672h178v-257h187v257h180z" />
    <glyph glyph-name="I" unicode="I" horiz-adv-x="313" 
d="M67 672h178v-672h-178v672z" />
    <glyph glyph-name="J" unicode="J" horiz-adv-x="311" 
d="M20 85q19 0 35 13.5t16 32.5v541h178l1 -544q0 -70 -20.5 -112.5t-70.5 -63.5t-139 -21v154z" />
    <glyph glyph-name="K" unicode="K" horiz-adv-x="609" 
d="M476 337l118 -337h-205l-72 247l-72 -8v-239h-178v672h178v-279l74 9l72 270h203z" />
    <glyph glyph-name="L" unicode="L" horiz-adv-x="467" 
d="M458 157v-157h-391v672h178v-515h213z" />
    <glyph glyph-name="M" unicode="M" horiz-adv-x="870" 
d="M803 672v-672h-178v470h-11l-93 -437h-172l-94 437h-10v-470h-178v672h299l69 -400l69 400h299z" />
    <glyph glyph-name="N" unicode="N" horiz-adv-x="704" 
d="M638 672v-672h-285l-108 513v-513h-178v672h292l99 -497v497h180z" />
    <glyph glyph-name="O" unicode="O" horiz-adv-x="647" 
d="M102.5 70q-67.5 83 -67.5 263q0 182 67 267t221 85t221 -85t67 -266q0 -173 -66 -260t-222 -87q-153 0 -220.5 83zM384.5 160.5q22.5 19.5 32.5 61t10 112.5q0 106 -23 151.5t-81 45.5q-57 0 -80.5 -46t-23.5 -152q0 -94 20 -143t84 -49q39 0 61.5 19.5z" />
    <glyph glyph-name="P" unicode="P" horiz-adv-x="586" 
d="M67 672h248q125 0 190.5 -62t65.5 -183t-66 -186.5t-190 -65.5h-70v-175h-178v672zM314 326q76 0 76 101q0 51 -18.5 72.5t-57.5 21.5h-69v-195h69z" />
    <glyph glyph-name="Q" unicode="Q" horiz-adv-x="647" 
d="M341 -14h1q-1 0 -6 0.5t-13 0.5q-104 0 -167 36.5t-92 112.5t-29 197q0 182 67 267t221 85t221 -85.5t67 -268.5q0 -99 -26 -172.5t-73 -114.5l82 -132l-162 -75zM384.5 160q22.5 19 32.5 60.5t10 112.5q0 107 -23 152.5t-81 45.5q-57 0 -80.5 -46.5t-23.5 -153.5
q0 -62 7 -102t29.5 -64t67.5 -24q39 0 61.5 19z" />
    <glyph glyph-name="R" unicode="R" horiz-adv-x="623" 
d="M67 672h269q126 0 189.5 -59t63.5 -174t-82 -193l73 -246h-195l-49 203h-91v-203h-178v672zM339 355q32 0 49.5 24.5t17.5 59.5q0 34 -19.5 58t-50.5 24h-91v-166h94z" />
    <glyph glyph-name="S" unicode="S" horiz-adv-x="545" 
d="M75 15l-36 8l18 136q132 -18 204 -18q78 0 78 54q0 19 -17.5 30t-51.5 24q-22 8 -32 13q-113 38 -160.5 87t-47.5 123q0 105 64 159t174 54q45 0 85.5 -6t148.5 -26l-14 -138q-130 15 -200 15q-82 0 -82 -45q0 -15 20 -25.5t63 -26.5q44 -16 57 -22q66 -27 102 -52.5
t52 -61.5t16 -91q0 -70 -32.5 -119.5t-88 -75t-124.5 -25.5q-86 0 -196 29z" />
    <glyph glyph-name="T" unicode="T" horiz-adv-x="526" 
d="M174 515h-161v157h500v-157h-159v-515h-180v515z" />
    <glyph glyph-name="U" unicode="U" horiz-adv-x="661" 
d="M127 49.5q-67 62.5 -67 193.5v429h179v-432q0 -99 93 -99q45 0 67 25.5t22 73.5v432h180v-429q0 -131 -66.5 -193.5t-203.5 -62.5t-204 62.5z" />
    <glyph glyph-name="V" unicode="V" horiz-adv-x="617" 
d="M11 672h188l91 -517h37l91 517h188l-142 -672h-311z" />
    <glyph glyph-name="W" unicode="W" horiz-adv-x="959" 
d="M12 672h188l61 -521h6l109 525h207l109 -525h6l61 521h189l-123 -672h-254l-91 468l-91 -468h-255z" />
    <glyph glyph-name="X" unicode="X" horiz-adv-x="576" 
d="M186 317l-184 355h197l94 -219l97 219h183l-184 -344l184 -328h-197l-94 200l-97 -200h-183z" />
    <glyph glyph-name="Y" unicode="Y" horiz-adv-x="570" 
d="M196 264l-203 408h197l94 -236l94 236h197l-200 -408v-264h-179v264z" />
    <glyph glyph-name="Z" unicode="Z" horiz-adv-x="529" 
d="M40 140l232 362v15h-232v155h450v-140l-232 -361v-16h232v-154h-450v139z" />
    <glyph glyph-name="bracketleft" unicode="[" horiz-adv-x="372" 
d="M61 749h280v-155h-103v-562h103v-155h-280v872z" />
    <glyph glyph-name="backslash" unicode="\" horiz-adv-x="539" 
d="M33 655l146 67l328 -710l-149 -63z" />
    <glyph glyph-name="bracketright" unicode="]" horiz-adv-x="372" 
d="M32 -123v155h102v562h-102v155h280v-872h-280z" />
    <glyph glyph-name="asciicircum" unicode="^" 
d="M196 660h146l196 -351h-180l-87 184l-95 -184h-180z" />
    <glyph glyph-name="underscore" unicode="_" horiz-adv-x="612" 
d="M92 -60h428v-146h-428v146z" />
    <glyph glyph-name="grave" unicode="`" horiz-adv-x="289" 
d="M-28 613l50 149l276 -105l-36 -111z" />
    <glyph glyph-name="a" unicode="a" horiz-adv-x="518" 
d="M62.5 29.5q-40.5 42.5 -40.5 129.5q0 83 44.5 116.5t144.5 38.5l74 4v23q0 17 -8.5 21.5t-35.5 4.5l-90 -2q-86 -4 -92 -2l-4 117q108 33 210 33q103 0 148 -40.5t45 -131.5v-176q1 -11 2 -24.5t4 -18t11 -6.5l-5 -129q-62 0 -92.5 5.5t-66.5 25.5q-62 -31 -125 -31
q-83 0 -123.5 42.5zM275 131l10 1v69l-53 -4q-17 -2 -27 -12t-10 -28q0 -31 31 -31q16 0 49 5z" />
    <glyph glyph-name="b" unicode="b" horiz-adv-x="556" 
d="M100 -2l-45 5v685h174v-196q8 3 27 9.5t34.5 9t34.5 2.5q101 0 151.5 -62t50.5 -201q0 -140 -56.5 -202t-179.5 -62q-75 0 -191 12zM332 165q19 23 19 82q0 111 -72 111q-23 0 -50 -2v-211q23 -3 43 -3q41 0 60 23z" />
    <glyph glyph-name="c" unicode="c" horiz-adv-x="453" 
d="M80 51q-51 64 -51 199q0 107 27 164.5t75 78t123 20.5q30 0 67 -6t97 -20l-4 -136q-93 7 -116 7q-39 0 -59 -9.5t-27 -31.5t-7 -64q0 -45 7.5 -68.5t27.5 -33t58 -9.5l115 7l5 -137q-113 -25 -181 -25q-106 0 -157 64z" />
    <glyph glyph-name="d" unicode="d" horiz-adv-x="562" 
d="M75.5 51.5q-45.5 64.5 -45.5 192.5q0 139 49 204t146 65q21 0 46.5 -4t33.5 -5q8 -2 15.5 -3t13.5 -2v189h174v-688h-173v12q-41 -17 -63.5 -21t-46.5 -4q-104 0 -149.5 64.5zM276.5 141q6.5 -1 15.5 -1q12 0 32 3l10 -1v213q-44 8 -73 8q-27 0 -41.5 -26.5t-14.5 -91.5
q0 -60 14.5 -81.5t48.5 -21.5q2 0 8.5 -1z" />
    <glyph glyph-name="e" unicode="e" horiz-adv-x="513" 
d="M82.5 46q-54.5 59 -54.5 193q0 137 57.5 205.5t175.5 68.5q109 0 167.5 -56t58.5 -164l-14 -117h-270q3 -18 11.5 -26t23.5 -9.5t51 -1.5t85.5 2t67.5 4l27 3l2 -125q-111 -36 -214 -36q-120 0 -174.5 59zM317 306q0 39 -12 52.5t-46 13.5t-45 -13.5t-12 -52.5h115z" />
    <glyph glyph-name="f" unicode="f" horiz-adv-x="374" 
d="M81 353h-48v147h48v7q0 74 14.5 116t47.5 60t92 18l122 -10l-2 -147q-52 5 -75 5q-11 0 -18 -16t-7 -27v-6h105v-147h-105v-353h-174v353z" />
    <glyph glyph-name="g" unicode="g" horiz-adv-x="547" 
d="M95.5 -197.5q-67.5 29.5 -67.5 97.5q0 31 18 62.5t50 57.5q-43 30 -43 75q0 17 8 33t34 53q-30 30 -45.5 64.5t-15.5 79.5q0 94 61.5 139.5t162.5 45.5q40 0 101 -13l169 6v-136l-61 9q10 -23 12 -31.5t2 -27.5q0 -91 -54 -130t-162 -39q-29 0 -42 4q-5 -10 -5 -27
q0 -14 17 -18t63 -6q84 -3 133 -13.5t76 -40.5t27 -90q0 -95 -67.5 -139.5t-198.5 -44.5q-105 0 -172.5 29.5zM297 292.5q14 14.5 14 35.5q0 22 -14 35.5t-38 13.5q-23 0 -37 -13t-14 -35t14.5 -36.5t37.5 -14.5t37 14.5zM338 -79q21 6 21 15q0 17 -29 17q-10 0 -19 -1
t-17 -1q-6 0 -9 1l-78 8q-1 -9 -4 -18l-4 -12q0 -6 23 -10.5t57 -4.5q38 0 59 6z" />
    <glyph glyph-name="h" unicode="h" horiz-adv-x="564" 
d="M55 688h174v-209q33 19 57 26.5t56 7.5q90 0 130.5 -61t40.5 -176v-276h-173v272q0 42 -12.5 64t-44.5 22q-22 0 -45 -5l-9 -2v-351h-174v688z" />
    <glyph glyph-name="i" unicode="i" horiz-adv-x="285" 
d="M55 0zM55 500h174v-500h-174v500zM56 699h174v-167h-174v167z" />
    <glyph glyph-name="j" unicode="j" horiz-adv-x="286" 
d="M0 0zM-24 -108q38 29 54.5 47t21 36.5t4.5 55.5v469h174v-470q0 -74 -15.5 -117.5t-54 -76t-116.5 -71.5zM57 699h174v-167h-174v167z" />
    <glyph glyph-name="k" unicode="k" horiz-adv-x="539" 
d="M55 688h174v-381l33 13l69 180h194l-108 -242l115 -258h-195l-69 170l-39 -13v-157h-174v688z" />
    <glyph glyph-name="l" unicode="l" horiz-adv-x="296" 
d="M61 688h174v-688h-174v688z" />
    <glyph glyph-name="m" unicode="m" horiz-adv-x="841" 
d="M55 500h173v-23q36 20 57.5 28t45.5 8q30 0 62.5 -11t55.5 -33q52 25 88.5 34.5t73.5 9.5q95 0 137.5 -58t42.5 -179v-276h-174v270q0 42 -11.5 65t-39.5 23q-2 0 -12 -0.5t-32 -4.5l-12 -2l-2 -93v-258h-174v256q0 41 -4 62t-15.5 30.5t-35.5 9.5q-18 0 -42 -5h-8v-353
h-174v500z" />
    <glyph glyph-name="n" unicode="n" horiz-adv-x="564" 
d="M55 500h173v-23q32 20 57 28t54 8q92 0 133 -61.5t41 -175.5v-276h-174v270q0 46 -13.5 67t-49.5 21h-11t-29 -5h-7v-353h-174v500z" />
    <glyph glyph-name="o" unicode="o" horiz-adv-x="535" 
d="M140.5 21q-54.5 34 -84 95t-29.5 138q0 75 29 133.5t83 92t128 33.5t128.5 -33t83.5 -91.5t29 -134.5q0 -78 -29.5 -138.5t-84.5 -94.5t-127 -34t-126.5 34zM313 163.5q20 30.5 20 90.5q0 55 -19 84t-47 29t-46.5 -29t-18.5 -84q0 -60 19.5 -90.5t45.5 -30.5t46 30.5z
" />
    <glyph glyph-name="p" unicode="p" horiz-adv-x="555" 
d="M55 500h173v-21q38 23 58 28.5t43 5.5q99 0 147.5 -65t48.5 -207q0 -96 -24 -151.5t-73 -79t-130 -23.5q-35 0 -69 6v-195h-174v702zM333 161q16 24 16 82q0 59 -16 87t-57 28l-11 1q-12 0 -29 -6l-7 -2v-212q18 -2 46 -2q42 0 58 24z" />
    <glyph glyph-name="q" unicode="q" horiz-adv-x="554" 
d="M326 10q-40 -15 -57 -19t-44 -4q-100 0 -147.5 61.5t-47.5 207.5q0 102 25 157t79.5 77.5t151.5 22.5l214 -15v-700h-174v212zM316 144h10v217q-15 2 -38 2q-48 0 -66.5 -23.5t-18.5 -84.5t17 -87t52 -26q28 0 44 2z" />
    <glyph glyph-name="r" unicode="r" horiz-adv-x="389" 
d="M55 500h173v-43q87 45 144 56v-175q-31 -7 -77 -13q-8 -1 -50 -8l-16 -3v-314h-174v500z" />
    <glyph glyph-name="s" unicode="s" horiz-adv-x="477" 
d="M72 7l-33 7l4 143q119 -15 173 -15q59 0 59 9q0 5 -12 9t-39 8l-45 8q-77 13 -113 48.5t-36 115.5q0 82 55 127t147 45q61 0 166 -23l36 -6l-2 -143q-129 16 -171 16q-29 0 -44 -2t-15 -9q0 -8 16.5 -13t53.5 -10l37 -6q75 -14 106.5 -50.5t31.5 -108.5q0 -170 -206 -170
q-72 0 -169 20z" />
    <glyph glyph-name="t" unicode="t" horiz-adv-x="373" 
d="M136 6.5q-35 19.5 -50 61.5t-15 114v171h-51v147h51v130h174v-130h99v-147h-99v-182q0 -30 22 -28l68 -1l6 -137q-43 -11 -63.5 -14.5t-44.5 -3.5q-62 0 -97 19.5z" />
    <glyph glyph-name="u" unicode="u" horiz-adv-x="568" 
d="M88 47.5q-38 60.5 -38 189.5v263h174v-267q0 -41 3 -58.5t14 -25t36 -7.5q21 0 62 5v353h173v-500h-171v23q-43 -22 -68.5 -29t-51.5 -7q-95 0 -133 60.5z" />
    <glyph glyph-name="v" unicode="v" horiz-adv-x="509" 
d="M8 500h180l56 -353h22l59 353h175l-106 -500h-280z" />
    <glyph glyph-name="w" unicode="w" horiz-adv-x="779" 
d="M19 500h170l35 -353h29l47 343h178l48 -343h28l35 353h170l-79 -500h-266l-25 249l-24 -249h-267z" />
    <glyph glyph-name="x" unicode="x" horiz-adv-x="489" 
d="M132 252l-123 248h183l52 -128l54 128h184l-131 -243l131 -257h-183l-55 125l-52 -125h-183z" />
    <glyph glyph-name="y" unicode="y" horiz-adv-x="511" 
d="M228 0h-108l-110 500h170l68 -353h17l67 353h170l-154 -702h-169z" />
    <glyph glyph-name="z" unicode="z" horiz-adv-x="453" 
d="M40 155l164 190h-164v155h371v-155l-163 -190h163v-155h-371v155z" />
    <glyph glyph-name="braceleft" unicode="{" horiz-adv-x="367" 
d="M206.5 -118q-46.5 17 -67 53t-20.5 97l7 120q0 33 -29.5 57.5t-85.5 38.5v132q55 13 85 34.5t30 49.5l-7 127q0 65 20 101.5t66.5 53t128.5 19.5v-147q-27 -4 -37 -13.5t-10 -27.5l7 -132q0 -44 -8 -67t-32.5 -37t-76.5 -26q50 -11 75.5 -27.5t34.5 -42.5t9 -72l-7 -117
q0 -21 8.5 -33t32.5 -14l2 -147q-79 3 -125.5 20z" />
    <glyph glyph-name="bar" unicode="|" horiz-adv-x="293" 
d="M60 688h174v-890h-174v890z" />
    <glyph glyph-name="braceright" unicode="}" horiz-adv-x="367" 
d="M37 9q24 2 32.5 14t8.5 33l-7 117q0 46 9 72t34.5 42.5t75.5 27.5q-52 12 -76.5 26t-32.5 37t-8 67l7 132q0 18 -10 27.5t-37 13.5v147q82 -3 128.5 -19.5t66.5 -53t20 -101.5l-7 -127q0 -28 30 -49.5t85 -34.5v-132q-56 -14 -85.5 -38.5t-29.5 -57.5l7 -120
q0 -61 -20.5 -97t-67 -53t-125.5 -20z" />
    <glyph glyph-name="asciitilde" unicode="~" 
d="M275 169q-79 16 -100 16q-18 0 -47 -8.5t-45 -17.5l-17 -7l-9 137q63 51 128 51q30 0 104 -17q76 -16 98 -16q37 0 88 24l17 9l6 -138q-12 -15 -48.5 -32t-63.5 -17q-31 0 -111 16z" />
    <glyph glyph-name="uni00A0" unicode="&#xa0;" horiz-adv-x="220" 
 />
    <glyph glyph-name="exclamdown" unicode="&#xa1;" horiz-adv-x="288" 
d="M236 500v-194h-186v194h186zM219 235l20 -407h-189l18 407h151z" />
    <glyph glyph-name="cent" unicode="&#xa2;" 
d="M265 24q-89 8 -137.5 68t-48.5 159q0 98 47.5 155.5t138.5 66.5v90h140v-94l64 -14l-5 -127l-129 1q-37 0 -59 -19.5t-22 -58.5q0 -41 24 -61t75 -20l111 2l4 -126q-20 -10 -63 -15v-102h-140v95z" />
    <glyph glyph-name="sterling" unicode="&#xa3;" 
d="M72 146h66v151h-62v147h62v61q0 93 42.5 130t135.5 37q73 0 145 -22l22 -7l-6 -133q-60 6 -135 6q-11 0 -21.5 -7.5t-10.5 -9.5v-55h141v-147h-141v-151h104l63 16l27 -144l-81 -18h-351v146z" />
    <glyph glyph-name="currency" unicode="&#xa4;" 
d="M11 101l74 74q-13 36 -13 78q0 39 13 75l-74 75l118 118l74 -75q39 14 78 14q36 0 75 -14l75 75l118 -118l-75 -75q14 -39 14 -75q0 -39 -14 -78l75 -74l-118 -118l-75 75q-39 -14 -75 -14q-37 0 -77 14l-75 -75zM327 205q20 20 20 47t-20 47t-47 20t-47 -20t-20 -47
q0 -25 21 -46t46 -21q27 0 47 20z" />
    <glyph glyph-name="yen" unicode="&#xa5;" 
d="M193 115h-135v143h135v17h-134v143h60l-126 242h198l90 -172l90 172h198l-125 -242h58v-143h-130v-17h129v-143h-129v-115h-179v115z" />
    <glyph glyph-name="brokenbar" unicode="&#xa6;" horiz-adv-x="297" 
d="M62 688h174v-371h-174v371zM62 179h174v-381h-174v381z" />
    <glyph glyph-name="section" unicode="&#xa7;" horiz-adv-x="529" 
d="M85 -195l-32 5l17 138q108 -15 161 -15q47 0 66 6.5t19 21.5q0 17 -23 26q-31 12 -113 37q-63 18 -95 36.5t-45 47t-13 77.5q0 33 19.5 74t48.5 65q-44 32 -44 106q0 199 234 199q73 0 154 -21l30 -7l-8 -138q-111 16 -166 16q-35 0 -50.5 -3.5t-20.5 -13t-5 -30.5
q0 -7 17.5 -12.5t55.5 -13.5q50 -11 63 -16q60 -17 89.5 -34.5t40.5 -43.5t11 -74q0 -72 -54 -147q23 -22 31 -43t8 -72q0 -71 -23.5 -113t-74.5 -61t-136 -19q-46 0 -162 22zM318 172q2 9 2 19v14q0 13 -5.5 21t-11 13t-6.5 6q3 1 -44 12.5t-45 9.5q-6 -6 -6 -49
q0 -20 3.5 -25t22.5 -14q27 -12 79 -28q9 12 11 21z" />
    <glyph glyph-name="dieresis" unicode="&#xa8;" horiz-adv-x="289" 
d="M-42 739h165v-160h-165v160zM185 739h164v-160h-164v160z" />
    <glyph glyph-name="copyright" unicode="&#xa9;" horiz-adv-x="642" 
d="M176.5 181.5q-65.5 38.5 -102.5 105.5t-37 150t36.5 148.5t102.5 102.5t149 37q82 0 145.5 -38.5t98.5 -105.5t35 -150q0 -82 -35.5 -148t-99 -103t-145.5 -37t-147.5 38.5zM428.5 242.5q47.5 29.5 74.5 79.5t27 110t-27.5 111t-75.5 81t-106 30q-87 0 -148 -64
q-62 -65 -62 -156q0 -60 28 -110.5t76 -80.5t107 -30t106.5 29.5zM227.5 301.5q-30.5 37.5 -30.5 134.5q0 66 14.5 102t44.5 50.5t83 14.5q37 0 72 -16l10 -3l-9 -108q-33 6 -54 6q-20 0 -25 -7.5t-5 -33.5q0 -24 6.5 -40t12.5 -16l65 3l9 -102q-24 -22 -98 -22
q-65 0 -95.5 37.5z" />
    <glyph glyph-name="ordfeminine" unicode="&#xaa;" horiz-adv-x="351" 
d="M16 471q0 46 29.5 64t95.5 20l47 2v5q0 10 -24 10l-133 -7l-2 82q69 19 145 19q75 0 109.5 -22.5t34.5 -72.5v-103q6 -4 16 -5l-2 -78q-43 -6 -58 -6q-38 0 -67 19q-35 -19 -81 -19q-110 0 -110 92zM188 471v20l-18 -1q-23 -2 -23 -16q0 -11 16 -11q14 0 25 8z" />
    <glyph glyph-name="guillemotleft" unicode="&#xab;" horiz-adv-x="642" 
d="M37 178v120l245 178v-174l-99 -62l99 -73v-173zM350 178v120l245 178v-174l-99 -62l99 -73v-173z" />
    <glyph glyph-name="logicalnot" unicode="&#xac;" 
d="M340 214h-288v155h441v-274h-153v119z" />
    <glyph glyph-name="registered" unicode="&#xae;" horiz-adv-x="642" 
d="M177 180.5q-66 37.5 -103 104t-37 150.5q0 83 36.5 149.5t102 103.5t147.5 37t146 -39t99.5 -106t35.5 -149q0 -83 -34.5 -148.5t-97.5 -102.5t-146 -37t-149 37.5zM427.5 243q47.5 30 75 80.5t27.5 110.5q0 59 -27.5 109.5t-75.5 80.5t-106 30q-61 0 -109 -31.5
t-74.5 -82.5t-26.5 -107q0 -59 28.5 -109.5t77 -80.5t106.5 -30q57 0 104.5 30zM193 595h153q50 0 82 -28t32 -75q0 -48 -5.5 -70t-23.5 -43l32 -107h-126l-14 84h-9v-84h-121v323zM321 443q22 0 22 32q0 31 -17 31h-13v-63h8z" />
    <glyph glyph-name="macron" unicode="&#xaf;" horiz-adv-x="289" 
d="M1 706h295v-127h-295v127z" />
    <glyph glyph-name="degree" unicode="&#xb0;" 
d="M167.5 417q-42.5 42 -42.5 112t43 113t112 43t112 -43t43 -113q0 -69 -43 -111.5t-112 -42.5q-70 0 -112.5 42zM327.5 483q18.5 18 18.5 46q0 29 -18.5 48t-47.5 19q-32 0 -48 -19.5t-16 -47.5t18 -46t46 -18q29 0 47.5 18z" />
    <glyph glyph-name="plusminus" unicode="&#xb1;" 
d="M202 255h-155v154h155v96h154v-96h157v-154h-157v-82h-154v82zM47 161h466v-155h-466v155z" />
    <glyph glyph-name="uni00B2" unicode="&#xb2;" horiz-adv-x="280" 
d="M15 591l63 41q43 28 43 39q-2 0 -9 0.5t-20 0.5l-70 -4l-6 127q98 7 139 7q108 0 108 -88q0 -48 -11.5 -70.5t-40.5 -39.5l-22 -6h72v-120h-246v113z" />
    <glyph glyph-name="uni00B3" unicode="&#xb3;" horiz-adv-x="350" 
d="M54 445l-21 4l3 101q68 -6 92 -6q31 0 41 2.5t10 17.5q0 17 -31 18h-82v102h77q31 0 31 18t-40 18l-95 -5l-3 99q73 16 115 16q88 0 125.5 -24.5t37.5 -85.5q0 -31 -8 -48t-28 -31q23 -18 32 -34.5t9 -45.5q0 -70 -36.5 -99t-117.5 -29q-48 0 -111 12z" />
    <glyph glyph-name="acute" unicode="&#xb4;" horiz-adv-x="268" 
d="M-9 657l276 105l49 -149l-289 -67z" />
    <glyph glyph-name="uni00B5" unicode="&#xb5;" 
d="M49 500h173v-308q2 -26 11.5 -38t35.5 -12q5 0 21 -0.5t38 5.5h10v353h173v-500h-172v23q-66 -36 -115 -36q4 0 3.5 -2t-5.5 -5v-182h-173v702z" />
    <glyph glyph-name="paragraph" unicode="&#xb6;" horiz-adv-x="603" 
d="M216 261h-7q-85 0 -135.5 56.5t-50.5 147.5q0 61 23.5 108t66 73t99.5 26h332v-147h-12v-525h-144v525h-26v-525h-146v261z" />
    <glyph glyph-name="periodcentered" unicode="&#xb7;" horiz-adv-x="282" 
d="M49 326h185v-200h-185v200z" />
    <glyph glyph-name="cedilla" unicode="&#xb8;" horiz-adv-x="265" 
d="M37 -247l-15 4l5 98q12 -1 22.5 -0.5t13.5 0.5q34 0 34 18q0 14 -34 14h-12v114h61v-30q71 -2 101 -22.5t30 -78.5q0 -61 -32.5 -94t-90.5 -33q-40 0 -83 10z" />
    <glyph glyph-name="uni00B9" unicode="&#xb9;" horiz-adv-x="280" 
d="M91 642l-33 -22l-63 92l110 78h120v-312h-134v164z" />
    <glyph glyph-name="ordmasculine" unicode="&#xba;" horiz-adv-x="447" 
d="M31 472q0 92 48.5 139.5t144.5 47.5t144 -47t48 -140q0 -187 -192 -187q-193 0 -193 187zM253.5 431q6.5 11 6.5 42t-6.5 42t-29.5 11t-31 -12t-8 -41q0 -28 8.5 -40.5t30.5 -12.5q23 0 29.5 11z" />
    <glyph glyph-name="guillemotright" unicode="&#xbb;" horiz-adv-x="646" 
d="M47 167l99 73l-99 62v174l246 -178v-120l-246 -184v173zM360 167l99 73l-99 62v174l246 -178v-120l-246 -184v173z" />
    <glyph glyph-name="onequarter" unicode="&#xbc;" horiz-adv-x="596" 
d="M122 790h120v-312h-100l-304 -492l-62 44l332 533v79l-33 -22l-63 92zM584 14v-95h-12v-41h-124v41h-138v82l46 212h133l-66 -199h25v46l124 16v-62h12z" />
    <glyph glyph-name="onehalf" unicode="&#xbd;" horiz-adv-x="577" 
d="M122 790h120v-312h-100l-304 -492l-62 44l332 533v79l-33 -22l-63 92zM486 20h72v-120h-246v113l63 41q43 28 43 39q-2 0 -9 0.5t-20 0.5l-70 -4l-6 127q98 7 139 7q108 0 108 -88q0 -48 -11.5 -70.5t-40.5 -39.5z" />
    <glyph glyph-name="threequarters" unicode="&#xbe;" horiz-adv-x="666" 
d="M0 0zM-224 30l394 632l61 -41l-393 -635zM168 -81h-138v82l46 212h133l-66 -199h25v46l124 16v-62h12v-95h-12v-41h-124v41zM370 445l-21 4l3 101q68 -6 92 -6q31 0 41 2.5t10 17.5q0 17 -31 18h-82v102h77q31 0 31 18t-40 18l-95 -5l-3 99q73 16 115 16
q88 0 125.5 -24.5t37.5 -85.5q0 -31 -8 -48t-28 -31q23 -18 32 -34.5t9 -45.5q0 -70 -36.5 -99t-117.5 -29q-48 0 -111 12z" />
    <glyph glyph-name="questiondown" unicode="&#xbf;" horiz-adv-x="428" 
d="M329 306h-185v194h185v-194zM343 160q0 -9 -12 -25t-30 -28q-2 -2 -22 -16q-40 -29 -57.5 -47t-17.5 -39q0 -17 14 -27t39 -10q68 0 137 12l8 -128q-76 -38 -192 -38q-91 0 -139 39.5t-48 113.5q0 60 6 93t21.5 55t48.5 45q31 19 47.5 37.5t16.5 45.5v28h137
q43 -39 43 -111z" />
    <glyph glyph-name="Agrave" unicode="&#xc0;" horiz-adv-x="606" 
d="M12 0zM128 798l51 156l276 -110l-39 -119zM401 86h-196l-13 -86h-180l129 672h324l129 -672h-180zM325 526h-44l-46 -286h136z" />
    <glyph glyph-name="Aacute" unicode="&#xc1;" horiz-adv-x="606" 
d="M12 0zM401 86h-196l-13 -86h-180l129 672h324l129 -672h-180zM325 526h-44l-46 -286h136zM146 844l276 110l51 -156l-288 -73z" />
    <glyph glyph-name="Acircumflex" unicode="&#xc2;" horiz-adv-x="606" 
d="M12 0zM401 86h-196l-13 -86h-180l129 672h324l129 -672h-180zM325 526h-44l-46 -286h136zM226 906h152l134 -158h-181l-27 40l-31 -40h-181z" />
    <glyph glyph-name="Atilde" unicode="&#xc3;" horiz-adv-x="606" 
d="M12 0zM401 86h-196l-13 -86h-180l129 672h324l129 -672h-180zM325 526h-44l-46 -286h136zM286 748l-25 7q-47 14 -54 14q-24 0 -71 -30l-14 -8l-37 122q23 28 57.5 48t67.5 20q31 0 94 -20t73 -20q25 0 73 30l15 9l37 -124q-1 -1 -38.5 -34.5t-84.5 -33.5q-28 0 -93 20z
" />
    <glyph glyph-name="Adieresis" unicode="&#xc4;" horiz-adv-x="606" 
d="M12 0zM401 86h-196l-13 -86h-180l129 672h324l129 -672h-180zM325 526h-44l-46 -286h136zM109 895h164v-160h-164v160zM333 895h165v-160h-165v160z" />
    <glyph glyph-name="Aring" unicode="&#xc5;" horiz-adv-x="606" 
d="M401 86h-196l-13 -86h-180l127 663q-6 20 -6 42q0 67 48.5 103.5t121.5 36.5q74 0 123 -36.5t49 -103.5q0 -24 -8 -46l127 -659h-180zM263.5 729q-17.5 -9 -17.5 -24t17 -23.5t40 -8.5t40 8.5t17 23.5q0 16 -16.5 24.5t-40.5 8.5q-22 0 -39.5 -9zM235 240h136l-46 286
h-44z" />
    <glyph glyph-name="AE" unicode="&#xc6;" horiz-adv-x="868" 
d="M164 686h667v-171h-274v-85h214v-170h-214v-89h274v-171h-450v77h-187l-10 -77h-177zM381 249l1 266h-94l-52 -266h145z" />
    <glyph glyph-name="Ccedilla" unicode="&#xc7;" horiz-adv-x="542" 
d="M311 -13v-16q71 -2 101 -22.5t30 -78.5q0 -61 -32.5 -94t-90.5 -33q-40 0 -83 10l-15 4l5 98q12 -1 22.5 -0.5t13.5 0.5q34 0 34 18q0 14 -34 14h-12v103q-85 10 -130.5 50t-63 109.5t-17.5 181.5q0 144 25.5 220t79.5 105t150 29q98 0 214 -30l-5 -140q-94 13 -152 13
q-53 0 -81 -16.5t-38.5 -52t-10.5 -100.5q0 -33 1 -51q3 -74 12 -107t32 -45t74 -12q69 0 163 11l3 -144q-106 -24 -195 -24z" />
    <glyph glyph-name="Egrave" unicode="&#xc8;" horiz-adv-x="555" 
d="M67 0zM245 517v-105h214v-152h-214v-105h274v-155h-452v672h452v-155h-274zM119 798l51 156l276 -110l-39 -119z" />
    <glyph glyph-name="Eacute" unicode="&#xc9;" horiz-adv-x="555" 
d="M67 0zM245 517v-105h214v-152h-214v-105h274v-155h-452v672h452v-155h-274zM140 844l276 110l51 -156l-288 -73z" />
    <glyph glyph-name="Ecircumflex" unicode="&#xca;" horiz-adv-x="555" 
d="M67 0zM245 517v-105h214v-152h-214v-105h274v-155h-452v672h452v-155h-274zM224 906h152l134 -158h-181l-27 40l-31 -40h-181z" />
    <glyph glyph-name="Edieresis" unicode="&#xcb;" horiz-adv-x="555" 
d="M67 0zM245 517v-105h214v-152h-214v-105h274v-155h-452v672h452v-155h-274zM101 895h164v-160h-164v160zM325 895h165v-160h-165v160z" />
    <glyph glyph-name="Igrave" unicode="&#xcc;" horiz-adv-x="313" 
d="M0 0zM67 672h178v-672h-178v672zM-27 798l51 156l276 -110l-39 -119z" />
    <glyph glyph-name="Iacute" unicode="&#xcd;" horiz-adv-x="313" 
d="M4 0zM67 672h178v-672h-178v672zM4 844l276 110l51 -156l-288 -73z" />
    <glyph glyph-name="Icircumflex" unicode="&#xce;" horiz-adv-x="313" 
d="M0 0zM67 672h178v-672h-178v672zM82 906h152l134 -158h-181l-27 40l-31 -40h-181z" />
    <glyph glyph-name="Idieresis" unicode="&#xcf;" horiz-adv-x="313" 
d="M0 0zM67 672h178v-672h-178v672zM-36 895h164v-160h-164v160zM188 895h165v-160h-165v160z" />
    <glyph glyph-name="Eth" unicode="&#xd0;" horiz-adv-x="639" 
d="M73 254h-45v172h45v260h214q132 0 197.5 -29.5t89.5 -99t24 -203.5q0 -135 -21.5 -208t-87.5 -109.5t-202 -36.5h-214v254zM287 170q58 0 80 6t34.5 44t12.5 131l1 40q1 12 1 32q0 33 -9 52.5t-37 30t-83 10.5h-38v-90h111v-172h-111v-84h38z" />
    <glyph glyph-name="Ntilde" unicode="&#xd1;" horiz-adv-x="704" 
d="M67 0zM638 672v-672h-285l-108 513v-513h-178v672h292l99 -497v497h180zM338 748l-25 7q-47 14 -54 14q-24 0 -71 -30l-14 -8l-37 122q23 28 57.5 48t67.5 20q31 0 94 -20t73 -20q25 0 73 30l15 9l37 -124q-1 -1 -38.5 -34.5t-84.5 -33.5q-28 0 -93 20z" />
    <glyph glyph-name="Ograve" unicode="&#xd2;" horiz-adv-x="647" 
d="M35 0zM102.5 70q-67.5 83 -67.5 263q0 182 67 267t221 85t221 -85t67 -266q0 -173 -66 -260t-222 -87q-153 0 -220.5 83zM384.5 160.5q22.5 19.5 32.5 61t10 112.5q0 106 -23 151.5t-81 45.5q-57 0 -80.5 -46t-23.5 -152q0 -94 20 -143t84 -49q39 0 61.5 19.5zM137 798
l51 156l276 -110l-39 -119z" />
    <glyph glyph-name="Oacute" unicode="&#xd3;" horiz-adv-x="647" 
d="M35 0zM102.5 70q-67.5 83 -67.5 263q0 182 67 267t221 85t221 -85t67 -266q0 -173 -66 -260t-222 -87q-153 0 -220.5 83zM384.5 160.5q22.5 19.5 32.5 61t10 112.5q0 106 -23 151.5t-81 45.5q-57 0 -80.5 -46t-23.5 -152q0 -94 20 -143t84 -49q39 0 61.5 19.5zM147 844
l276 110l51 -156l-288 -73z" />
    <glyph glyph-name="Ocircumflex" unicode="&#xd4;" horiz-adv-x="647" 
d="M35 0zM102.5 70q-67.5 83 -67.5 263q0 182 67 267t221 85t221 -85t67 -266q0 -173 -66 -260t-222 -87q-153 0 -220.5 83zM384.5 160.5q22.5 19.5 32.5 61t10 112.5q0 106 -23 151.5t-81 45.5q-57 0 -80.5 -46t-23.5 -152q0 -94 20 -143t84 -49q39 0 61.5 19.5zM250 906
h152l134 -158h-181l-27 40l-31 -40h-181z" />
    <glyph glyph-name="Otilde" unicode="&#xd5;" horiz-adv-x="647" 
d="M35 0zM102.5 70q-67.5 83 -67.5 263q0 182 67 267t221 85t221 -85t67 -266q0 -173 -66 -260t-222 -87q-153 0 -220.5 83zM384.5 160.5q22.5 19.5 32.5 61t10 112.5q0 106 -23 151.5t-81 45.5q-57 0 -80.5 -46t-23.5 -152q0 -94 20 -143t84 -49q39 0 61.5 19.5zM317 748
l-25 7q-47 14 -54 14q-24 0 -71 -30l-14 -8l-37 122q23 28 57.5 48t67.5 20q31 0 94 -20t73 -20q25 0 73 30l15 9l37 -124q-1 -1 -38.5 -34.5t-84.5 -33.5q-28 0 -93 20z" />
    <glyph glyph-name="Odieresis" unicode="&#xd6;" horiz-adv-x="647" 
d="M35 0zM102.5 70q-67.5 83 -67.5 263q0 182 67 267t221 85t221 -85t67 -266q0 -173 -66 -260t-222 -87q-153 0 -220.5 83zM384.5 160.5q22.5 19.5 32.5 61t10 112.5q0 106 -23 151.5t-81 45.5q-57 0 -80.5 -46t-23.5 -152q0 -94 20 -143t84 -49q39 0 61.5 19.5zM131 895
h164v-160h-164v160zM355 895h165v-160h-165v160z" />
    <glyph glyph-name="multiply" unicode="&#xd7;" horiz-adv-x="558" 
d="M413 250l126 -126l-110 -110l-126 126l-126 -126l-110 110l126 126l-126 126l110 110l126 -126l126 126l110 -110z" />
    <glyph glyph-name="Oslash" unicode="&#xd8;" horiz-adv-x="647" 
d="M59 -70l58 123q-39 39 -60.5 110t-21.5 168q0 183 67 268.5t221 85.5q46 0 85 -6l64 138l128 -55l-69 -149q80 -84 80 -282q0 -177 -67.5 -260.5t-220.5 -83.5q-44 0 -80 5l-58 -126zM339 532l-16 -1q-55 0 -79.5 -44.5t-24.5 -120.5q0 -71 -9 -115zM427 299q0 71 9 110
l-125 -270l12 2q104 0 104 158z" />
    <glyph glyph-name="Ugrave" unicode="&#xd9;" horiz-adv-x="661" 
d="M60 0zM127 49.5q-67 62.5 -67 193.5v429h179v-432q0 -99 93 -99q45 0 67 25.5t22 73.5v432h180v-429q0 -131 -66.5 -193.5t-203.5 -62.5t-204 62.5zM161 798l51 156l276 -110l-39 -119z" />
    <glyph glyph-name="Uacute" unicode="&#xda;" horiz-adv-x="661" 
d="M60 0zM127 49.5q-67 62.5 -67 193.5v429h179v-432q0 -99 93 -99q45 0 67 25.5t22 73.5v432h180v-429q0 -131 -66.5 -193.5t-203.5 -62.5t-204 62.5zM159 844l276 110l51 -156l-288 -73z" />
    <glyph glyph-name="Ucircumflex" unicode="&#xdb;" horiz-adv-x="661" 
d="M60 0zM127 49.5q-67 62.5 -67 193.5v429h179v-432q0 -99 93 -99q45 0 67 25.5t22 73.5v432h180v-429q0 -131 -66.5 -193.5t-203.5 -62.5t-204 62.5zM256 906h152l134 -158h-181l-27 40l-31 -40h-181z" />
    <glyph glyph-name="Udieresis" unicode="&#xdc;" horiz-adv-x="661" 
d="M60 0zM127 49.5q-67 62.5 -67 193.5v429h179v-432q0 -99 93 -99q45 0 67 25.5t22 73.5v432h180v-429q0 -131 -66.5 -193.5t-203.5 -62.5t-204 62.5zM138 895h164v-160h-164v160zM362 895h165v-160h-165v160z" />
    <glyph glyph-name="Yacute" unicode="&#xdd;" horiz-adv-x="570" 
d="M0 0zM196 264l-203 408h197l94 -236l94 236h197l-200 -408v-264h-179v264zM111 844l276 110l51 -156l-288 -73z" />
    <glyph glyph-name="Thorn" unicode="&#xde;" horiz-adv-x="594" 
d="M67 686h178v-89h70q128 0 193 -63t65 -186q0 -125 -67 -194.5t-191 -69.5h-70v-84h-178v686zM314 258q36 0 57.5 25t21.5 65q0 37 -21 58t-58 21h-69v-169h69z" />
    <glyph glyph-name="germandbls" unicode="&#xdf;" horiz-adv-x="636" 
d="M574 259.5q25 -18.5 36 -42.5t11 -62q0 -67 -19.5 -103t-63 -50.5t-120.5 -14.5q-58 0 -143 22l-26 6l4 136q106 -12 142 -12q18 0 33 -1.5t15 -3.5q0 10 -12 16t-37 13q-33 11 -40 14q-55 21 -85.5 51t-39.5 73v-301h-174v507q0 102 59 148t190 46q133 0 196.5 -39
t63.5 -126q0 -35 -10 -56.5t-28.5 -35t-54.5 -29.5q-39 -17 -53.5 -26.5t-14.5 -25.5q0 -18 36 -38.5t63 -25.5q47 -21 72 -39.5zM343 500q24 7 33.5 12.5t9.5 14.5q0 15 -18 19t-36 3.5t-23 -0.5q-80 0 -80 -41v-113q6 35 24.5 56.5t53.5 35.5z" />
    <glyph glyph-name="agrave" unicode="&#xe0;" horiz-adv-x="518" 
d="M22 0zM62.5 29.5q-40.5 42.5 -40.5 129.5q0 83 44.5 116.5t144.5 38.5l74 4v23q0 17 -8.5 21.5t-35.5 4.5l-90 -2q-86 -4 -92 -2l-4 117q108 33 210 33q103 0 148 -40.5t45 -131.5v-176q1 -11 2 -24.5t4 -18t11 -6.5l-5 -129q-62 0 -92.5 5.5t-66.5 25.5
q-62 -31 -125 -31q-83 0 -123.5 42.5zM275 131l10 1v69l-53 -4q-17 -2 -27 -12t-10 -28q0 -31 31 -31q16 0 49 5zM91 613l50 149l276 -105l-36 -111z" />
    <glyph glyph-name="aacute" unicode="&#xe1;" horiz-adv-x="518" 
d="M22 0zM62.5 29.5q-40.5 42.5 -40.5 129.5q0 83 44.5 116.5t144.5 38.5l74 4v23q0 17 -8.5 21.5t-35.5 4.5l-90 -2q-86 -4 -92 -2l-4 117q108 33 210 33q103 0 148 -40.5t45 -131.5v-176q1 -11 2 -24.5t4 -18t11 -6.5l-5 -129q-62 0 -92.5 5.5t-66.5 25.5
q-62 -31 -125 -31q-83 0 -123.5 42.5zM275 131l10 1v69l-53 -4q-17 -2 -27 -12t-10 -28q0 -31 31 -31q16 0 49 5zM81 657l276 105l49 -149l-289 -67z" />
    <glyph glyph-name="acircumflex" unicode="&#xe2;" horiz-adv-x="518" 
d="M22 0zM62.5 29.5q-40.5 42.5 -40.5 129.5q0 83 44.5 116.5t144.5 38.5l74 4v23q0 17 -8.5 21.5t-35.5 4.5l-90 -2q-86 -4 -92 -2l-4 117q108 33 210 33q103 0 148 -40.5t45 -131.5v-176q1 -11 2 -24.5t4 -18t11 -6.5l-5 -129q-62 0 -92.5 5.5t-66.5 25.5
q-62 -31 -125 -31q-83 0 -123.5 42.5zM275 131l10 1v69l-53 -4q-17 -2 -27 -12t-10 -28q0 -31 31 -31q16 0 49 5zM203 730h106l130 -158h-155l-28 54l-26 -54h-155z" />
    <glyph glyph-name="atilde" unicode="&#xe3;" horiz-adv-x="518" 
d="M22 0zM62.5 29.5q-40.5 42.5 -40.5 129.5q0 83 44.5 116.5t144.5 38.5l74 4v23q0 17 -8.5 21.5t-35.5 4.5l-90 -2q-86 -4 -92 -2l-4 117q108 33 210 33q103 0 148 -40.5t45 -131.5v-176q1 -11 2 -24.5t4 -18t11 -6.5l-5 -129q-62 0 -92.5 5.5t-66.5 25.5
q-62 -31 -125 -31q-83 0 -123.5 42.5zM275 131l10 1v69l-53 -4q-17 -2 -27 -12t-10 -28q0 -31 31 -31q16 0 49 5zM211 581q-42 15 -55 15q-30 0 -68 -19l-13 -6l-37 93q18 22 54 43.5t59 21.5q24 0 66 -15q41 -14 54 -14q31 0 72 22l14 9l37 -95q-4 -7 -25 -24.5t-46 -31
t-45 -13.5q-22 0 -67 14z" />
    <glyph glyph-name="adieresis" unicode="&#xe4;" horiz-adv-x="518" 
d="M22 0zM62.5 29.5q-40.5 42.5 -40.5 129.5q0 83 44.5 116.5t144.5 38.5l74 4v23q0 17 -8.5 21.5t-35.5 4.5l-90 -2q-86 -4 -92 -2l-4 117q108 33 210 33q103 0 148 -40.5t45 -131.5v-176q1 -11 2 -24.5t4 -18t11 -6.5l-5 -129q-62 0 -92.5 5.5t-66.5 25.5
q-62 -31 -125 -31q-83 0 -123.5 42.5zM275 131l10 1v69l-53 -4q-17 -2 -27 -12t-10 -28q0 -31 31 -31q16 0 49 5zM38 739h165v-160h-165v160zM265 739h164v-160h-164v160z" />
    <glyph glyph-name="aring" unicode="&#xe5;" horiz-adv-x="518" 
d="M460 140.5q1 -13.5 4 -18t11 -6.5l-5 -129q-62 0 -92.5 5.5t-66.5 25.5q-62 -31 -125 -31q-83 0 -123.5 42.5t-40.5 129.5q0 83 44.5 116.5t144.5 38.5l74 4v23q0 17 -8.5 21.5t-35.5 4.5l-90 -2q-86 -4 -92 -2l-4 117q97 29 182 32q-41 11 -67 44t-26 77q0 54 37 90
t91 36t91 -36t37 -90q0 -45 -27 -78t-70 -43q82 -7 118.5 -48t36.5 -123v-176q1 -11 2 -24.5zM244.5 660q-10.5 -10 -10.5 -27t10.5 -27t27.5 -10t27.5 10t10.5 27t-10.5 27t-27.5 10t-27.5 -10zM285 201l-53 -4q-17 -2 -27 -12t-10 -28q0 -31 31 -31q16 0 49 5l10 1v69z
" />
    <glyph glyph-name="ae" unicode="&#xe6;" horiz-adv-x="771" 
d="M63 32q-41 45 -41 127q0 77 44 115t125 40l94 4v14q0 4 -9.5 9t-24.5 5q-70 0 -155 -8l-33 -3l-5 150q144 27 224 27q65 0 113 -13q53 13 120 13q111 0 169 -56t58 -163l-14 -118h-270q1 -16 18.5 -22.5t53.5 -6.5q80 0 168 7l28 2l2 -132q-114 -36 -218 -36t-157 44
l-17 -9q-79 -35 -145 -35q-87 0 -128 45zM572 306q0 30 -12.5 41t-47.5 11q-33 0 -43.5 -11.5t-10.5 -40.5h114zM224.5 133q5.5 -2 16.5 -2q16 0 45 4l-1 53l-53 2q-16 0 -26.5 -7.5t-10.5 -19.5q0 -13 5.5 -20.5t15.5 -7.5q3 0 8.5 -2z" />
    <glyph glyph-name="ccedilla" unicode="&#xe7;" horiz-adv-x="453" 
d="M259 -12v-17q71 -2 101 -22.5t30 -78.5q0 -61 -32.5 -94t-90.5 -33q-40 0 -83 10l-15 4l5 98q12 -1 22.5 -0.5t13.5 0.5q34 0 34 18q0 14 -34 14h-12v102q-86 11 -127.5 75t-41.5 186q0 107 27 164.5t75 78t123 20.5q30 0 67 -6t97 -20l-4 -136q-93 7 -116 7
q-39 0 -59 -9.5t-27 -31.5t-7 -64q0 -45 7.5 -68.5t27.5 -33t58 -9.5l115 7l5 -137q-98 -21 -159 -24z" />
    <glyph glyph-name="egrave" unicode="&#xe8;" horiz-adv-x="513" 
d="M28 0zM82.5 46q-54.5 59 -54.5 193q0 137 57.5 205.5t175.5 68.5q109 0 167.5 -56t58.5 -164l-14 -117h-270q3 -18 11.5 -26t23.5 -9.5t51 -1.5t85.5 2t67.5 4l27 3l2 -125q-111 -36 -214 -36q-120 0 -174.5 59zM317 306q0 39 -12 52.5t-46 13.5t-45 -13.5t-12 -52.5h115
zM102 613l50 149l276 -105l-36 -111z" />
    <glyph glyph-name="eacute" unicode="&#xe9;" horiz-adv-x="513" 
d="M28 0zM82.5 46q-54.5 59 -54.5 193q0 137 57.5 205.5t175.5 68.5q109 0 167.5 -56t58.5 -164l-14 -117h-270q3 -18 11.5 -26t23.5 -9.5t51 -1.5t85.5 2t67.5 4l27 3l2 -125q-111 -36 -214 -36q-120 0 -174.5 59zM317 306q0 39 -12 52.5t-46 13.5t-45 -13.5t-12 -52.5h115
zM78 657l276 105l49 -149l-289 -67z" />
    <glyph glyph-name="ecircumflex" unicode="&#xea;" horiz-adv-x="513" 
d="M28 0zM82.5 46q-54.5 59 -54.5 193q0 137 57.5 205.5t175.5 68.5q109 0 167.5 -56t58.5 -164l-14 -117h-270q3 -18 11.5 -26t23.5 -9.5t51 -1.5t85.5 2t67.5 4l27 3l2 -125q-111 -36 -214 -36q-120 0 -174.5 59zM317 306q0 39 -12 52.5t-46 13.5t-45 -13.5t-12 -52.5h115
zM202 730h106l130 -158h-155l-28 54l-26 -54h-155z" />
    <glyph glyph-name="edieresis" unicode="&#xeb;" horiz-adv-x="513" 
d="M28 0zM82.5 46q-54.5 59 -54.5 193q0 137 57.5 205.5t175.5 68.5q109 0 167.5 -56t58.5 -164l-14 -117h-270q3 -18 11.5 -26t23.5 -9.5t51 -1.5t85.5 2t67.5 4l27 3l2 -125q-111 -36 -214 -36q-120 0 -174.5 59zM317 306q0 39 -12 52.5t-46 13.5t-45 -13.5t-12 -52.5h115
zM60 739h165v-160h-165v160zM287 739h164v-160h-164v160z" />
    <glyph glyph-name="igrave" unicode="&#xec;" horiz-adv-x="285" 
d="M0 0zM55 500h174v-500h-174v500zM-59 613l50 149l276 -105l-36 -111z" />
    <glyph glyph-name="iacute" unicode="&#xed;" horiz-adv-x="285" 
d="M26 0zM55 500h174v-500h-174v500zM26 657l276 105l49 -149l-289 -67z" />
    <glyph glyph-name="icircumflex" unicode="&#xee;" horiz-adv-x="285" 
d="M0 0zM55 500h174v-500h-174v500zM81 730h106l130 -158h-155l-28 54l-26 -54h-155z" />
    <glyph glyph-name="idieresis" unicode="&#xef;" horiz-adv-x="285" 
d="M0 0zM55 500h174v-500h-174v500zM-59 739h165v-160h-165v160zM168 739h164v-160h-164v160z" />
    <glyph glyph-name="eth" unicode="&#xf0;" horiz-adv-x="580" 
d="M549 350q0 -184 -64.5 -271.5t-206.5 -87.5q-125 0 -184 55.5t-59 173.5q0 84 35 138.5t105 74.5l-68 94l63 42l-97 13l20 119q132 -1 233 -29l92 62l68 -96l-39 -25q102 -82 102 -263zM365 427q-7 39 -17.5 59t-39.5 35l-131 -88q34 10 82 10q59 0 95 -12zM341 180
q24 34 24 99q-20 12 -98 12q-22 0 -35 -22t-13 -49q0 -40 14 -57t41 -17q43 0 67 34z" />
    <glyph glyph-name="ntilde" unicode="&#xf1;" horiz-adv-x="564" 
d="M55 0zM55 500h173v-23q32 20 57 28t54 8q92 0 133 -61.5t41 -175.5v-276h-174v270q0 46 -13.5 67t-49.5 21h-11t-29 -5h-7v-353h-174v500zM278 581q-42 15 -55 15q-30 0 -68 -19l-13 -6l-37 93q18 22 54 43.5t59 21.5q24 0 66 -15q41 -14 54 -14q31 0 72 22l14 9l37 -95
q-4 -7 -25 -24.5t-46 -31t-45 -13.5q-22 0 -67 14z" />
    <glyph glyph-name="ograve" unicode="&#xf2;" horiz-adv-x="535" 
d="M27 0zM140.5 21q-54.5 34 -84 95t-29.5 138q0 75 29 133.5t83 92t128 33.5t128.5 -33t83.5 -91.5t29 -134.5q0 -78 -29.5 -138.5t-84.5 -94.5t-127 -34t-126.5 34zM313 163.5q20 30.5 20 90.5q0 55 -19 84t-47 29t-46.5 -29t-18.5 -84q0 -60 19.5 -90.5t45.5 -30.5
t46 30.5zM111 613l50 149l276 -105l-36 -111z" />
    <glyph glyph-name="oacute" unicode="&#xf3;" horiz-adv-x="535" 
d="M27 0zM140.5 21q-54.5 34 -84 95t-29.5 138q0 75 29 133.5t83 92t128 33.5t128.5 -33t83.5 -91.5t29 -134.5q0 -78 -29.5 -138.5t-84.5 -94.5t-127 -34t-126.5 34zM313 163.5q20 30.5 20 90.5q0 55 -19 84t-47 29t-46.5 -29t-18.5 -84q0 -60 19.5 -90.5t45.5 -30.5
t46 30.5zM91 657l276 105l49 -149l-289 -67z" />
    <glyph glyph-name="ocircumflex" unicode="&#xf4;" horiz-adv-x="535" 
d="M27 0zM140.5 21q-54.5 34 -84 95t-29.5 138q0 75 29 133.5t83 92t128 33.5t128.5 -33t83.5 -91.5t29 -134.5q0 -78 -29.5 -138.5t-84.5 -94.5t-127 -34t-126.5 34zM313 163.5q20 30.5 20 90.5q0 55 -19 84t-47 29t-46.5 -29t-18.5 -84q0 -60 19.5 -90.5t45.5 -30.5
t46 30.5zM205 730h106l130 -158h-155l-28 54l-26 -54h-155z" />
    <glyph glyph-name="otilde" unicode="&#xf5;" horiz-adv-x="535" 
d="M27 0zM140.5 21q-54.5 34 -84 95t-29.5 138q0 75 29 133.5t83 92t128 33.5t128.5 -33t83.5 -91.5t29 -134.5q0 -78 -29.5 -138.5t-84.5 -94.5t-127 -34t-126.5 34zM313 163.5q20 30.5 20 90.5q0 55 -19 84t-47 29t-46.5 -29t-18.5 -84q0 -60 19.5 -90.5t45.5 -30.5
t46 30.5zM254 581q-42 15 -55 15q-30 0 -68 -19l-13 -6l-37 93q18 22 54 43.5t59 21.5q24 0 66 -15q41 -14 54 -14q31 0 72 22l14 9l37 -95q-4 -7 -25 -24.5t-46 -31t-45 -13.5q-22 0 -67 14z" />
    <glyph glyph-name="odieresis" unicode="&#xf6;" horiz-adv-x="535" 
d="M27 0zM140.5 21q-54.5 34 -84 95t-29.5 138q0 75 29 133.5t83 92t128 33.5t128.5 -33t83.5 -91.5t29 -134.5q0 -78 -29.5 -138.5t-84.5 -94.5t-127 -34t-126.5 34zM313 163.5q20 30.5 20 90.5q0 55 -19 84t-47 29t-46.5 -29t-18.5 -84q0 -60 19.5 -90.5t45.5 -30.5
t46 30.5zM72 739h165v-160h-165v160zM299 739h164v-160h-164v160z" />
    <glyph glyph-name="divide" unicode="&#xf7;" horiz-adv-x="550" 
d="M175 500h200v-140h-200v140zM43 340h464v-170h-464v170zM175 150h200v-140h-200v140z" />
    <glyph glyph-name="oslash" unicode="&#xf8;" horiz-adv-x="535" 
d="M508 248q0 -123 -65 -192t-176 -69q-33 0 -54 4l-40 -96l-100 38l43 99q-42 32 -65.5 88t-23.5 128q0 124 58.5 194.5t181.5 70.5q20 0 44 -3l38 98l102 -38l-40 -94q97 -64 97 -228zM255 366q-29 -5 -41 -34.5t-12 -83.5l1 -18zM337 305l-69 -172q31 1 48 30t17 71
q0 43 4 71z" />
    <glyph glyph-name="ugrave" unicode="&#xf9;" horiz-adv-x="568" 
d="M50 0zM88 47.5q-38 60.5 -38 189.5v263h174v-267q0 -41 3 -58.5t14 -25t36 -7.5q21 0 62 5v353h173v-500h-171v23q-43 -22 -68.5 -29t-51.5 -7q-95 0 -133 60.5zM87 613l50 149l276 -105l-36 -111z" />
    <glyph glyph-name="uacute" unicode="&#xfa;" horiz-adv-x="568" 
d="M50 0zM88 47.5q-38 60.5 -38 189.5v263h174v-267q0 -41 3 -58.5t14 -25t36 -7.5q21 0 62 5v353h173v-500h-171v23q-43 -22 -68.5 -29t-51.5 -7q-95 0 -133 60.5zM113 657l276 105l49 -149l-289 -67z" />
    <glyph glyph-name="ucircumflex" unicode="&#xfb;" horiz-adv-x="568" 
d="M50 0zM88 47.5q-38 60.5 -38 189.5v263h174v-267q0 -41 3 -58.5t14 -25t36 -7.5q21 0 62 5v353h173v-500h-171v23q-43 -22 -68.5 -29t-51.5 -7q-95 0 -133 60.5zM195 730h106l130 -158h-155l-28 54l-26 -54h-155z" />
    <glyph glyph-name="udieresis" unicode="&#xfc;" horiz-adv-x="568" 
d="M50 0zM88 47.5q-38 60.5 -38 189.5v263h174v-267q0 -41 3 -58.5t14 -25t36 -7.5q21 0 62 5v353h173v-500h-171v23q-43 -22 -68.5 -29t-51.5 -7q-95 0 -133 60.5zM89 739h165v-160h-165v160zM316 739h164v-160h-164v160z" />
    <glyph glyph-name="yacute" unicode="&#xfd;" horiz-adv-x="511" 
d="M10 0zM228 0h-108l-110 500h170l68 -353h17l67 353h170l-154 -702h-169zM101 657l276 105l49 -149l-289 -67z" />
    <glyph glyph-name="thorn" unicode="&#xfe;" horiz-adv-x="555" 
d="M55 688h174v-196q57 21 82 21q74 0 121 -25t70.5 -83.5t23.5 -157.5t-24.5 -156t-73 -80.5t-128.5 -23.5l-71 8v-197h-174v890zM336 163.5q15 26.5 15 93.5q0 43 -18.5 72t-46.5 29q-34 0 -47 -2h-10v-213q32 -6 57 -6q35 0 50 26.5z" />
    <glyph glyph-name="ydieresis" unicode="&#xff;" horiz-adv-x="511" 
d="M10 0zM228 0h-108l-110 500h170l68 -353h17l67 353h170l-154 -702h-169zM62 739h165v-160h-165v160zM289 739h164v-160h-164v160z" />
    <glyph glyph-name="Amacron" unicode="&#x100;" horiz-adv-x="606" 
d="M12 0zM401 86h-196l-13 -86h-180l129 672h324l129 -672h-180zM325 526h-44l-46 -286h136zM113 887h371v-125h-371v125z" />
    <glyph glyph-name="amacron" unicode="&#x101;" horiz-adv-x="518" 
d="M22 0zM62.5 29.5q-40.5 42.5 -40.5 129.5q0 83 44.5 116.5t144.5 38.5l74 4v23q0 17 -8.5 21.5t-35.5 4.5l-90 -2q-86 -4 -92 -2l-4 117q108 33 210 33q103 0 148 -40.5t45 -131.5v-176q1 -11 2 -24.5t4 -18t11 -6.5l-5 -129q-62 0 -92.5 5.5t-66.5 25.5
q-62 -31 -125 -31q-83 0 -123.5 42.5zM275 131l10 1v69l-53 -4q-17 -2 -27 -12t-10 -28q0 -31 31 -31q16 0 49 5zM104 706h295v-127h-295v127z" />
    <glyph glyph-name="Abreve" unicode="&#x102;" horiz-adv-x="606" 
d="M12 0zM401 86h-196l-13 -86h-180l129 672h324l129 -672h-180zM325 526h-44l-46 -286h136zM92 905h156q12 -45 50 -45q20 0 33 12.5t18 32.5h155q-27 -165 -207 -165q-178 0 -205 165z" />
    <glyph glyph-name="abreve" unicode="&#x103;" horiz-adv-x="518" 
d="M37 758h180q5 -13 13.5 -18t24.5 -5q15 0 22.5 5t11.5 18h181q-26 -177 -217 -177q-190 0 -216 177zM62 32.5q-40 45.5 -40 129.5q0 80 44.5 114.5t143.5 39.5l75 2v14q0 3 -9.5 8.5t-15.5 5.5q-62 0 -154 -3l-42 -1l-5 146l37 5q120 19 174 19q96 0 142 -41t46 -137
v-145l-1 -34q0 -12 3 -16t14 -6l-6 -146q-48 0 -73.5 2.5t-42 8.5t-41.5 20l-22 -7q-39 -14 -62 -19t-48 -5q-77 0 -117 45.5zM285 140v48l-53 2q-37 0 -37 -27q0 -15 5 -21.5t16 -6.5q14 0 69 5z" />
    <glyph glyph-name="Aogonek" unicode="&#x104;" horiz-adv-x="606" 
d="M600 -210q-73 -13 -118 -13q-52 0 -85.5 28t-33.5 72q0 41 18.5 75t41.5 48h-9l-13 86h-196l-13 -86h-180l129 672h324l129 -672h-24q-48 -29 -48 -65q0 -16 5.5 -22t20.5 -6l37 2zM325 526h-44l-46 -286h136z" />
    <glyph glyph-name="aogonek" unicode="&#x105;" horiz-adv-x="518" 
d="M459 -91l15 -119q-73 -13 -118 -13q-52 0 -85.5 28t-33.5 72q0 41 18.5 74.5t41.5 48.5l19 13h5l-10 5q-62 -31 -125 -31q-83 0 -123.5 42.5t-40.5 129.5q0 83 44.5 116.5t144.5 38.5l74 4v23q0 17 -8.5 21.5t-35.5 4.5l-90 -2q-86 -4 -92 -2l-4 117q108 33 210 33
q103 0 148 -40.5t45 -131.5v-176q1 -11 2 -24.5t4 -18t11 -6.5l-5 -129q-31 0 -44 1q-30 -26 -30 -53q0 -16 5.5 -22t20.5 -6zM285 201l-53 -4q-17 -2 -27 -12t-10 -28q0 -31 31 -31q16 0 49 5l10 1v69z" />
    <glyph glyph-name="Cacute" unicode="&#x106;" horiz-adv-x="542" 
d="M39 0zM141.5 24q-58.5 37 -80.5 110.5t-22 196.5q0 144 25.5 220t79.5 105t150 29q98 0 214 -30l-5 -140q-94 13 -152 13q-53 0 -81 -16.5t-38.5 -52t-10.5 -100.5q0 -33 1 -51q3 -74 12 -107t32 -45t74 -12q69 0 163 11l3 -144q-108 -24 -197 -24q-109 0 -167.5 37z
M125 844l276 110l51 -156l-288 -73z" />
    <glyph glyph-name="cacute" unicode="&#x107;" horiz-adv-x="453" 
d="M29 0zM80 51q-51 64 -51 199q0 107 27 164.5t75 78t123 20.5q30 0 67 -6t97 -20l-4 -136q-93 7 -116 7q-39 0 -59 -9.5t-27 -31.5t-7 -64q0 -45 7.5 -68.5t27.5 -33t58 -9.5l115 7l5 -137q-113 -25 -181 -25q-106 0 -157 64zM78 657l276 105l49 -149l-289 -67z" />
    <glyph glyph-name="Ccircumflex" unicode="&#x108;" horiz-adv-x="542" 
d="M39 0zM141.5 24q-58.5 37 -80.5 110.5t-22 196.5q0 144 25.5 220t79.5 105t150 29q98 0 214 -30l-5 -140q-94 13 -152 13q-53 0 -81 -16.5t-38.5 -52t-10.5 -100.5q0 -33 1 -51q3 -74 12 -107t32 -45t74 -12q69 0 163 11l3 -144q-108 -24 -197 -24q-109 0 -167.5 37z
M216 906h152l134 -158h-181l-27 40l-31 -40h-181z" />
    <glyph glyph-name="ccircumflex" unicode="&#x109;" horiz-adv-x="453" 
d="M29 0zM80 51q-51 64 -51 199q0 107 27 164.5t75 78t123 20.5q30 0 67 -6t97 -20l-4 -136q-93 7 -116 7q-39 0 -59 -9.5t-27 -31.5t-7 -64q0 -45 7.5 -68.5t27.5 -33t58 -9.5l115 7l5 -137q-113 -25 -181 -25q-106 0 -157 64zM163 730h106l130 -158h-155l-28 54l-26 -54
h-155z" />
    <glyph glyph-name="Cdotaccent" unicode="&#x10a;" horiz-adv-x="542" 
d="M39 0zM141.5 24q-58.5 37 -80.5 110.5t-22 196.5q0 144 25.5 220t79.5 105t150 29q98 0 214 -30l-5 -140q-94 13 -152 13q-53 0 -81 -16.5t-38.5 -52t-10.5 -100.5q0 -33 1 -51q3 -74 12 -107t32 -45t74 -12q69 0 163 11l3 -144q-108 -24 -197 -24q-109 0 -167.5 37z
M195 899h174v-167h-174v167z" />
    <glyph glyph-name="cdotaccent" unicode="&#x10b;" horiz-adv-x="453" 
d="M29 0zM80 51q-51 64 -51 199q0 107 27 164.5t75 78t123 20.5q30 0 67 -6t97 -20l-4 -136q-93 7 -116 7q-39 0 -59 -9.5t-27 -31.5t-7 -64q0 -45 7.5 -68.5t27.5 -33t58 -9.5l115 7l5 -137q-113 -25 -181 -25q-106 0 -157 64zM173 688h174v-167h-174v167z" />
    <glyph glyph-name="Ccaron" unicode="&#x10c;" horiz-adv-x="542" 
d="M39 0zM141.5 24q-58.5 37 -80.5 110.5t-22 196.5q0 144 25.5 220t79.5 105t150 29q98 0 214 -30l-5 -140q-94 13 -152 13q-53 0 -81 -16.5t-38.5 -52t-10.5 -100.5q0 -33 1 -51q3 -74 12 -107t32 -45t74 -12q69 0 163 11l3 -144q-108 -24 -197 -24q-109 0 -167.5 37z
M102 906h180l32 -40l27 40h180l-134 -158h-151z" />
    <glyph glyph-name="ccaron" unicode="&#x10d;" horiz-adv-x="453" 
d="M29 0zM80 51q-51 64 -51 199q0 107 27 164.5t75 78t123 20.5q30 0 67 -6t97 -20l-4 -136q-93 7 -116 7q-39 0 -59 -9.5t-27 -31.5t-7 -64q0 -45 7.5 -68.5t27.5 -33t58 -9.5l115 7l5 -137q-113 -25 -181 -25q-106 0 -157 64zM216 730l27 -53l28 53h155l-131 -158h-106
l-128 158h155z" />
    <glyph glyph-name="Dcaron" unicode="&#x10e;" horiz-adv-x="633" 
d="M67 0zM475.5 649q63.5 -23 91.5 -92.5t28 -213.5q0 -130 -21.5 -201t-88 -106.5t-201.5 -35.5h-217v672h217q128 0 191.5 -23zM367 177.5q27 22.5 35 64.5t8 119q0 62 -9 94.5t-36 47t-82 14.5h-38v-362h38q57 0 84 22.5zM102 906h180l32 -40l27 40h180l-134 -158h-151z
" />
    <glyph glyph-name="dcaron" unicode="&#x10f;" horiz-adv-x="562" 
d="M30 0zM75.5 51.5q-45.5 64.5 -45.5 192.5q0 139 49 204t146 65q21 0 46.5 -4t33.5 -5q8 -2 15.5 -3t13.5 -2v189h174v-688h-173v12q-41 -17 -63.5 -21t-46.5 -4q-104 0 -149.5 64.5zM276.5 141q6.5 -1 15.5 -1q12 0 32 3l10 -1v213q-44 8 -73 8q-27 0 -41.5 -26.5
t-14.5 -91.5q0 -60 14.5 -81.5t48.5 -21.5q2 0 8.5 -1zM612 675h167l-58 -252h-159z" />
    <glyph glyph-name="Dcroat" unicode="&#x110;" horiz-adv-x="639" 
d="M73 254h-45v172h45v260h214q132 0 197.5 -29.5t89.5 -99t24 -203.5q0 -135 -21.5 -208t-87.5 -109.5t-202 -36.5h-214v254zM287 170q58 0 80 6t34.5 44t12.5 131l1 40q1 12 1 32q0 33 -9 52.5t-37 30t-83 10.5h-38v-90h111v-172h-111v-84h38z" />
    <glyph glyph-name="dcroat" unicode="&#x111;" horiz-adv-x="570" 
d="M61.5 52.5q-45.5 65.5 -45.5 199.5q0 266 221 266l81 -6v33h-61v107h61v38h224v-38h40v-107h-40v-545h-221l-2 22q-56 -35 -105 -35q-107 0 -152.5 65.5zM318 171v163q-23 3 -32 3q-26 0 -35 -20t-9 -64q0 -43 9.5 -64t35.5 -21z" />
    <glyph glyph-name="Emacron" unicode="&#x112;" horiz-adv-x="555" 
d="M67 0zM245 517v-105h214v-152h-214v-105h274v-155h-452v672h452v-155h-274zM101 887h371v-125h-371v125z" />
    <glyph glyph-name="emacron" unicode="&#x113;" horiz-adv-x="513" 
d="M28 0zM82.5 46q-54.5 59 -54.5 193q0 137 57.5 205.5t175.5 68.5q109 0 167.5 -56t58.5 -164l-14 -117h-270q3 -18 11.5 -26t23.5 -9.5t51 -1.5t85.5 2t67.5 4l27 3l2 -125q-111 -36 -214 -36q-120 0 -174.5 59zM317 306q0 39 -12 52.5t-46 13.5t-45 -13.5t-12 -52.5h115
zM106 706h295v-127h-295v127z" />
    <glyph glyph-name="Ebreve" unicode="&#x114;" horiz-adv-x="555" 
d="M67 0zM245 517v-105h214v-152h-214v-105h274v-155h-452v672h452v-155h-274zM92 905h156q12 -45 50 -45q20 0 33 12.5t18 32.5h155q-27 -165 -207 -165q-178 0 -205 165z" />
    <glyph glyph-name="ebreve" unicode="&#x115;" horiz-adv-x="513" 
d="M28 0zM143 611.5q-45 47.5 -58 121.5h128q4 -26 16.5 -40t29.5 -14q20 0 31 12t17 42h127q-13 -74 -58.5 -121.5t-116.5 -47.5t-116 47.5zM82.5 46q-54.5 59 -54.5 193q0 137 57.5 205.5t175.5 68.5q109 0 167.5 -56t58.5 -164l-14 -117h-270q3 -18 11.5 -26t23.5 -9.5
t51 -1.5t85.5 2t67.5 4l27 3l2 -125q-111 -36 -214 -36q-120 0 -174.5 59zM317 306q0 39 -12 52.5t-46 13.5t-45 -13.5t-12 -52.5h115z" />
    <glyph glyph-name="Edotaccent" unicode="&#x116;" horiz-adv-x="555" 
d="M67 0zM245 517v-105h214v-152h-214v-105h274v-155h-452v672h452v-155h-274zM215 911h174v-167h-174v167z" />
    <glyph glyph-name="edotaccent" unicode="&#x117;" horiz-adv-x="513" 
d="M28 0zM82.5 46q-54.5 59 -54.5 193q0 137 57.5 205.5t175.5 68.5q109 0 167.5 -56t58.5 -164l-14 -117h-270q3 -18 11.5 -26t23.5 -9.5t51 -1.5t85.5 2t67.5 4l27 3l2 -125q-111 -36 -214 -36q-120 0 -174.5 59zM317 306q0 39 -12 52.5t-46 13.5t-45 -13.5t-12 -52.5h115
zM172 688h174v-167h-174v167z" />
    <glyph glyph-name="Eogonek" unicode="&#x118;" horiz-adv-x="555" 
d="M523 -210q-73 -13 -118 -13q-52 0 -85.5 28t-33.5 72q0 41 18.5 75t41.5 48h-279v672h452v-155h-274v-105h214v-152h-214v-105h274v-155h-26q-48 -29 -48 -65q0 -16 5.5 -22t20.5 -6l37 2z" />
    <glyph glyph-name="eogonek" unicode="&#x119;" horiz-adv-x="513" 
d="M473 176h-270q3 -18 11.5 -26t23.5 -9.5t51 -1.5t85.5 2t67.5 4l27 3l2 -125q-40 -14 -78 -21l10 -1q-50 -29 -50 -66q0 -16 5.5 -22t20.5 -6l37 2l15 -119q-73 -13 -118 -13q-52 0 -85.5 28t-33.5 72q0 33 13 62.5t31 47.5q-110 5 -160 64t-50 188q0 137 57.5 205.5
t175.5 68.5q109 0 167.5 -56t58.5 -164zM317 306q0 39 -12 52.5t-46 13.5t-45 -13.5t-12 -52.5h115z" />
    <glyph glyph-name="Ecaron" unicode="&#x11a;" horiz-adv-x="555" 
d="M63 0zM245 517v-105h214v-152h-214v-105h274v-155h-452v672h452v-155h-274zM63 906h180l32 -40l27 40h180l-134 -158h-151z" />
    <glyph glyph-name="ecaron" unicode="&#x11b;" horiz-adv-x="513" 
d="M28 0zM82.5 46q-54.5 59 -54.5 193q0 137 57.5 205.5t175.5 68.5q109 0 167.5 -56t58.5 -164l-14 -117h-270q3 -18 11.5 -26t23.5 -9.5t51 -1.5t85.5 2t67.5 4l27 3l2 -125q-111 -36 -214 -36q-120 0 -174.5 59zM317 306q0 39 -12 52.5t-46 13.5t-45 -13.5t-12 -52.5h115
zM227 730l27 -53l28 53h155l-131 -158h-106l-128 158h155z" />
    <glyph glyph-name="Gcircumflex" unicode="&#x11c;" horiz-adv-x="608" 
d="M37 0zM150.5 23q-61.5 36 -87.5 112.5t-26 205.5q0 126 28 201t88.5 109t161.5 34q93 0 206 -21l37 -8l-4 -136q-104 8 -184 8q-70 0 -102.5 -28.5t-40 -73t-7.5 -123.5q0 -65 9.5 -99t35 -48.5t74.5 -14.5h43v76h-26v154h202v-362q-160 -22 -236 -22q-110 0 -171.5 36z
M257 906h152l134 -158h-181l-27 40l-31 -40h-181z" />
    <glyph glyph-name="gcircumflex" unicode="&#x11d;" horiz-adv-x="547" 
d="M28 0zM95.5 -197.5q-67.5 29.5 -67.5 97.5q0 31 18 62.5t50 57.5q-43 30 -43 75q0 17 8 33t34 53q-30 30 -45.5 64.5t-15.5 79.5q0 94 61.5 139.5t162.5 45.5q40 0 101 -13l169 6v-136l-61 9q10 -23 12 -31.5t2 -27.5q0 -91 -54 -130t-162 -39q-29 0 -42 4q-5 -10 -5 -27
q0 -14 17 -18t63 -6q84 -3 133 -13.5t76 -40.5t27 -90q0 -95 -67.5 -139.5t-198.5 -44.5q-105 0 -172.5 29.5zM297 292.5q14 14.5 14 35.5q0 22 -14 35.5t-38 13.5q-23 0 -37 -13t-14 -35t14.5 -36.5t37.5 -14.5t37 14.5zM338 -79q21 6 21 15q0 17 -29 17q-10 0 -19 -1
t-17 -1q-6 0 -9 1l-78 8q-1 -9 -4 -18l-4 -12q0 -6 23 -10.5t57 -4.5q38 0 59 6zM225 730h106l130 -158h-155l-28 54l-26 -54h-155z" />
    <glyph glyph-name="Gbreve" unicode="&#x11e;" horiz-adv-x="608" 
d="M37 0zM150.5 23q-61.5 36 -87.5 112.5t-26 205.5q0 126 28 201t88.5 109t161.5 34q93 0 206 -21l37 -8l-4 -136q-104 8 -184 8q-70 0 -102.5 -28.5t-40 -73t-7.5 -123.5q0 -65 9.5 -99t35 -48.5t74.5 -14.5h43v76h-26v154h202v-362q-160 -22 -236 -22q-110 0 -171.5 36z
M113 905h156q12 -45 50 -45q20 0 33 12.5t18 32.5h155q-27 -165 -207 -165q-178 0 -205 165z" />
    <glyph glyph-name="gbreve" unicode="&#x11f;" horiz-adv-x="547" 
d="M28 0zM95.5 -197.5q-67.5 29.5 -67.5 97.5q0 31 18 62.5t50 57.5q-43 30 -43 75q0 17 8 33t34 53q-30 30 -45.5 64.5t-15.5 79.5q0 94 61.5 139.5t162.5 45.5q40 0 101 -13l169 6v-136l-61 9q10 -23 12 -31.5t2 -27.5q0 -91 -54 -130t-162 -39q-29 0 -42 4q-5 -10 -5 -27
q0 -14 17 -18t63 -6q84 -3 133 -13.5t76 -40.5t27 -90q0 -95 -67.5 -139.5t-198.5 -44.5q-105 0 -172.5 29.5zM297 292.5q14 14.5 14 35.5q0 22 -14 35.5t-38 13.5q-23 0 -37 -13t-14 -35t14.5 -36.5t37.5 -14.5t37 14.5zM338 -79q21 6 21 15q0 17 -29 17q-10 0 -19 -1
t-17 -1q-6 0 -9 1l-78 8q-1 -9 -4 -18l-4 -12q0 -6 23 -10.5t57 -4.5q38 0 59 6zM161 611.5q-45 47.5 -58 121.5h128q4 -26 16.5 -40t29.5 -14q20 0 31 12t17 42h127q-13 -74 -58.5 -121.5t-116.5 -47.5t-116 47.5z" />
    <glyph glyph-name="Gdotaccent" unicode="&#x120;" horiz-adv-x="608" 
d="M37 0zM150.5 23q-61.5 36 -87.5 112.5t-26 205.5q0 126 28 201t88.5 109t161.5 34q93 0 206 -21l37 -8l-4 -136q-104 8 -184 8q-70 0 -102.5 -28.5t-40 -73t-7.5 -123.5q0 -65 9.5 -99t35 -48.5t74.5 -14.5h43v76h-26v154h202v-362q-160 -22 -236 -22q-110 0 -171.5 36z
M225 911h174v-167h-174v167z" />
    <glyph glyph-name="gdotaccent" unicode="&#x121;" horiz-adv-x="547" 
d="M28 0zM95.5 -197.5q-67.5 29.5 -67.5 97.5q0 31 18 62.5t50 57.5q-43 30 -43 75q0 17 8 33t34 53q-30 30 -45.5 64.5t-15.5 79.5q0 94 61.5 139.5t162.5 45.5q40 0 101 -13l169 6v-136l-61 9q10 -23 12 -31.5t2 -27.5q0 -91 -54 -130t-162 -39q-29 0 -42 4q-5 -10 -5 -27
q0 -14 17 -18t63 -6q84 -3 133 -13.5t76 -40.5t27 -90q0 -95 -67.5 -139.5t-198.5 -44.5q-105 0 -172.5 29.5zM297 292.5q14 14.5 14 35.5q0 22 -14 35.5t-38 13.5q-23 0 -37 -13t-14 -35t14.5 -36.5t37.5 -14.5t37 14.5zM338 -79q21 6 21 15q0 17 -29 17q-10 0 -19 -1
t-17 -1q-6 0 -9 1l-78 8q-1 -9 -4 -18l-4 -12q0 -6 23 -10.5t57 -4.5q38 0 59 6zM191 688h174v-167h-174v167z" />
    <glyph glyph-name="Gcommaaccent" unicode="&#x122;" horiz-adv-x="608" 
d="M37 0zM150.5 23q-61.5 36 -87.5 112.5t-26 205.5q0 126 28 201t88.5 109t161.5 34q93 0 206 -21l37 -8l-4 -136q-104 8 -184 8q-70 0 -102.5 -28.5t-40 -73t-7.5 -123.5q0 -65 9.5 -99t35 -48.5t74.5 -14.5h43v76h-26v154h202v-362q-160 -22 -236 -22q-110 0 -171.5 36z
M243 -76h167l-58 -252h-159z" />
    <glyph glyph-name="gcommaaccent" unicode="&#x123;" horiz-adv-x="547" 
d="M322 579h-167l58 252h159zM95.5 -197.5q-67.5 29.5 -67.5 97.5q0 31 18 62.5t50 57.5q-43 30 -43 75q0 17 8 33t34 53q-30 30 -45.5 64.5t-15.5 79.5q0 94 61.5 139.5t162.5 45.5q40 0 101 -13l169 6v-136l-61 9q10 -23 12 -31.5t2 -27.5q0 -91 -54 -130t-162 -39
q-29 0 -42 4q-5 -10 -5 -27q0 -14 17 -18t63 -6q84 -3 133 -13.5t76 -40.5t27 -90q0 -95 -67.5 -139.5t-198.5 -44.5q-105 0 -172.5 29.5zM297 292.5q14 14.5 14 35.5q0 22 -14 35.5t-38 13.5q-23 0 -37 -13t-14 -35t14.5 -36.5t37.5 -14.5t37 14.5zM338 -79q21 6 21 15
q0 17 -29 17q-10 0 -19 -1t-17 -1q-6 0 -9 1l-78 8q-1 -9 -4 -18l-4 -12q0 -6 23 -10.5t57 -4.5q38 0 59 6z" />
    <glyph glyph-name="Hcircumflex" unicode="&#x124;" horiz-adv-x="678" 
d="M67 0zM612 672v-672h-180v261h-187v-261h-178v672h178v-257h187v257h180zM263 906h152l134 -158h-181l-27 40l-31 -40h-181z" />
    <glyph glyph-name="hcircumflex" unicode="&#x125;" horiz-adv-x="564" 
d="M55 0zM55 688h174v-209q33 19 57 26.5t56 7.5q90 0 130.5 -61t40.5 -176v-276h-173v272q0 42 -12.5 64t-44.5 22q-22 0 -45 -5l-9 -2v-351h-174v688zM228 892h106l130 -158h-155l-28 54l-26 -54h-155z" />
    <glyph glyph-name="Hbar" unicode="&#x126;" horiz-adv-x="684" 
d="M71 471h-49v150h49v51h178v-51h187v51h180v-51h54v-150h-54v-471h-180v261h-187v-261h-178v471zM436 415v56h-187v-56h187z" />
    <glyph glyph-name="hbar" unicode="&#x127;" horiz-adv-x="578" 
d="M28 545h-40v107h40v38h224v-38h61v-107h-61v-44q73 17 107 17q74 0 116 -24.5t61 -80t19 -152.5v-261h-224v238q0 87 -38 87l-41 -6v-319h-224v545z" />
    <glyph glyph-name="Itilde" unicode="&#x128;" horiz-adv-x="313" 
d="M0 0zM67 672h178v-672h-178v672zM150 748l-25 7q-47 14 -54 14q-24 0 -71 -30l-14 -8l-37 122q23 28 57.5 48t67.5 20q31 0 94 -20t73 -20q25 0 73 30l15 9l37 -124q-1 -1 -38.5 -34.5t-84.5 -33.5q-28 0 -93 20z" />
    <glyph glyph-name="itilde" unicode="&#x129;" horiz-adv-x="285" 
d="M0 0zM55 500h174v-500h-174v500zM141 581q-42 15 -55 15q-30 0 -68 -19l-13 -6l-37 93q18 22 54 43.5t59 21.5q24 0 66 -15q41 -14 54 -14q31 0 72 22l14 9l37 -95q-4 -7 -25 -24.5t-46 -31t-45 -13.5q-22 0 -67 14z" />
    <glyph glyph-name="Imacron" unicode="&#x12a;" horiz-adv-x="313" 
d="M0 0zM67 672h178v-672h-178v672zM-25 887h371v-125h-371v125z" />
    <glyph glyph-name="imacron" unicode="&#x12b;" horiz-adv-x="285" 
d="M0 0zM55 500h174v-500h-174v500zM-5 706h295v-127h-295v127z" />
    <glyph glyph-name="Ibreve" unicode="&#x12c;" horiz-adv-x="313" 
d="M0 0zM67 672h178v-672h-178v672zM-26 905h156q12 -45 50 -45q20 0 33 12.5t18 32.5h155q-27 -165 -207 -165q-178 0 -205 165z" />
    <glyph glyph-name="ibreve" unicode="&#x12d;" horiz-adv-x="285" 
d="M0 0zM55 500h174v-500h-174v500zM26 611.5q-45 47.5 -58 121.5h128q4 -26 16.5 -40t29.5 -14q20 0 31 12t17 42h127q-13 -74 -58.5 -121.5t-116.5 -47.5t-116 47.5z" />
    <glyph glyph-name="Iogonek" unicode="&#x12e;" horiz-adv-x="313" 
d="M261 -210q-73 -13 -118 -13q-52 0 -85.5 28t-33.5 72q0 41 18.5 74.5t41.5 48.5h-17v672h178v-672h-14q-48 -29 -48 -65q0 -16 5.5 -22t20.5 -6l37 2z" />
    <glyph glyph-name="iogonek" unicode="&#x12f;" horiz-adv-x="285" 
d="M230 532h-174v167h174v-167zM245 -210q-73 -13 -118 -13q-52 0 -85.5 28t-33.5 72q0 41 18.5 74.5t41.5 48.5h-13v500h174v-500h-14q-48 -29 -48 -65q0 -16 5.5 -22t20.5 -6l37 2z" />
    <glyph glyph-name="Idotaccent" unicode="&#x130;" horiz-adv-x="313" 
d="M67 0zM67 672h178v-672h-178v672zM70 911h174v-167h-174v167z" />
    <glyph glyph-name="dotlessi" unicode="&#x131;" horiz-adv-x="285" 
d="M55 500h174v-500h-174v500z" />
    <glyph glyph-name="Jcircumflex" unicode="&#x134;" horiz-adv-x="311" 
d="M0 0zM20 85q19 0 35 13.5t16 32.5v541h178l1 -544q0 -70 -20.5 -112.5t-70.5 -63.5t-139 -21v154zM84 908h152l134 -158h-181l-27 40l-31 -40h-181z" />
    <glyph glyph-name="jcircumflex" unicode="&#x135;" horiz-adv-x="286" 
d="M0 0zM-24 -108q38 29 54.5 47t21 36.5t4.5 55.5v469h174v-470q0 -74 -15.5 -117.5t-54 -76t-116.5 -71.5zM94 730h106l130 -158h-155l-28 54l-26 -54h-155z" />
    <glyph glyph-name="Kcommaaccent" unicode="&#x136;" horiz-adv-x="609" 
d="M67 0zM476 337l118 -337h-205l-72 247l-72 -8v-239h-178v672h178v-279l74 9l72 270h203zM233 -76h167l-58 -252h-159z" />
    <glyph glyph-name="kcommaaccent" unicode="&#x137;" horiz-adv-x="539" 
d="M0 0zM55 688h174v-381l33 13l69 180h194l-108 -242l115 -258h-195l-69 170l-39 -13v-157h-174v688zM-34 -76h167l-58 -252h-159z" />
    <glyph glyph-name="Lacute" unicode="&#x139;" horiz-adv-x="467" 
d="M67 0zM458 157v-157h-391v672h178v-515h213zM94 844l276 110l51 -156l-288 -73z" />
    <glyph glyph-name="lacute" unicode="&#x13a;" horiz-adv-x="296" 
d="M34 0zM61 688h174v-688h-174v688zM34 871l276 105l49 -149l-289 -67z" />
    <glyph glyph-name="Lcommaaccent" unicode="&#x13b;" horiz-adv-x="467" 
d="M67 0zM458 157v-157h-391v672h178v-515h213zM180 -76h167l-58 -252h-159z" />
    <glyph glyph-name="lcommaaccent" unicode="&#x13c;" horiz-adv-x="296" 
d="M11 0zM61 688h174v-688h-174v688zM61 -76h167l-58 -252h-159z" />
    <glyph glyph-name="Lcaron" unicode="&#x13d;" horiz-adv-x="501" 
d="M476 686v-277h-168v277h168zM245 157h213v-157h-391v672h178v-515z" />
    <glyph glyph-name="lcaron" unicode="&#x13e;" horiz-adv-x="474" 
d="M61 0zM61 688h174v-688h-174v688zM335 675h167l-58 -252h-159z" />
    <glyph glyph-name="Lslash" unicode="&#x141;" horiz-adv-x="480" 
d="M78 180l-32 -21l-83 115l115 81v317h179v-193l70 51l84 -116l-154 -108v-149h212v-157h-391v180z" />
    <glyph glyph-name="lslash" unicode="&#x142;" horiz-adv-x="428" 
d="M122 177l-40 -27l-84 116l124 86v336h174v-214l55 39l84 -116l-139 -98v-299h-174v177z" />
    <glyph glyph-name="Nacute" unicode="&#x143;" horiz-adv-x="704" 
d="M67 0zM638 672v-672h-285l-108 513v-513h-178v672h292l99 -497v497h180zM190 844l276 110l51 -156l-288 -73z" />
    <glyph glyph-name="nacute" unicode="&#x144;" horiz-adv-x="564" 
d="M55 0zM55 500h173v-23q32 20 57 28t54 8q92 0 133 -61.5t41 -175.5v-276h-174v270q0 46 -13.5 67t-49.5 21h-11t-29 -5h-7v-353h-174v500zM137 657l276 105l49 -149l-289 -67z" />
    <glyph glyph-name="Ncommaaccent" unicode="&#x145;" horiz-adv-x="704" 
d="M67 0zM638 672v-672h-285l-108 513v-513h-178v672h292l99 -497v497h180zM283 -76h167l-58 -252h-159z" />
    <glyph glyph-name="ncommaaccent" unicode="&#x146;" horiz-adv-x="564" 
d="M0 0zM55 500h173v-23q32 20 57 28t54 8q92 0 133 -61.5t41 -175.5v-276h-174v270q0 46 -13.5 67t-49.5 21h-11t-29 -5h-7v-353h-174v500zM-52 -76h167l-58 -252h-159z" />
    <glyph glyph-name="Ncaron" unicode="&#x147;" horiz-adv-x="704" 
d="M67 0zM638 672v-672h-285l-108 513v-513h-178v672h292l99 -497v497h180zM144 908h180l32 -40l27 40h180l-134 -158h-151z" />
    <glyph glyph-name="ncaron" unicode="&#x148;" horiz-adv-x="564" 
d="M55 0zM55 500h173v-23q32 20 57 28t54 8q92 0 133 -61.5t41 -175.5v-276h-174v270q0 46 -13.5 67t-49.5 21h-11t-29 -5h-7v-353h-174v500zM251 730l27 -53l28 53h155l-131 -158h-106l-128 158h155z" />
    <glyph glyph-name="Eng" unicode="&#x14a;" horiz-adv-x="704" 
d="M407 -73q19 0 35 13.5t16 31.5v28h-105l-104 517h-4v-517h-178v672h292l97 -517h2v517h180l-1 -702q0 -81 -29 -125.5t-90 -60.5q-38 -11 -111 -11v154z" />
    <glyph glyph-name="eng" unicode="&#x14b;" horiz-adv-x="561" 
d="M245 -112q48 26 65.5 39t23 28t5.5 48v259q0 38 -13 65t-27 27q-2 0 -5.5 0.5t-9.5 0.5q-13 0 -41 -4l-15 -3v-348h-174v498h174v-14q81 29 109 29q89 0 132.5 -66.5t43.5 -184.5v-252q0 -79 -14.5 -123t-54 -75t-121.5 -67z" />
    <glyph glyph-name="Omacron" unicode="&#x14c;" horiz-adv-x="647" 
d="M35 0zM102.5 70q-67.5 83 -67.5 263q0 182 67 267t221 85t221 -85t67 -266q0 -173 -66 -260t-222 -87q-153 0 -220.5 83zM384.5 160.5q22.5 19.5 32.5 61t10 112.5q0 106 -23 151.5t-81 45.5q-57 0 -80.5 -46t-23.5 -152q0 -94 20 -143t84 -49q39 0 61.5 19.5zM132 887
h371v-125h-371v125z" />
    <glyph glyph-name="omacron" unicode="&#x14d;" horiz-adv-x="535" 
d="M27 0zM140.5 21q-54.5 34 -84 95t-29.5 138q0 75 29 133.5t83 92t128 33.5t128.5 -33t83.5 -91.5t29 -134.5q0 -78 -29.5 -138.5t-84.5 -94.5t-127 -34t-126.5 34zM313 163.5q20 30.5 20 90.5q0 55 -19 84t-47 29t-46.5 -29t-18.5 -84q0 -60 19.5 -90.5t45.5 -30.5
t46 30.5zM125 698h295v-127h-295v127z" />
    <glyph glyph-name="Obreve" unicode="&#x14e;" horiz-adv-x="647" 
d="M35 0zM102.5 70q-67.5 83 -67.5 263q0 182 67 267t221 85t221 -85t67 -266q0 -173 -66 -260t-222 -87q-153 0 -220.5 83zM384.5 160.5q22.5 19.5 32.5 61t10 112.5q0 106 -23 151.5t-81 45.5q-57 0 -80.5 -46t-23.5 -152q0 -94 20 -143t84 -49q39 0 61.5 19.5zM119 905
h156q12 -45 50 -45q20 0 33 12.5t18 32.5h155q-27 -165 -207 -165q-178 0 -205 165z" />
    <glyph glyph-name="obreve" unicode="&#x14f;" horiz-adv-x="535" 
d="M27 0zM140.5 21q-54.5 34 -84 95t-29.5 138q0 75 29 133.5t83 92t128 33.5t128.5 -33t83.5 -91.5t29 -134.5q0 -78 -29.5 -138.5t-84.5 -94.5t-127 -34t-126.5 34zM313 163.5q20 30.5 20 90.5q0 55 -19 84t-47 29t-46.5 -29t-18.5 -84q0 -60 19.5 -90.5t45.5 -30.5
t46 30.5zM153 611.5q-45 47.5 -58 121.5h128q4 -26 16.5 -40t29.5 -14q20 0 31 12t17 42h127q-13 -74 -58.5 -121.5t-116.5 -47.5t-116 47.5z" />
    <glyph glyph-name="Ohungarumlaut" unicode="&#x150;" horiz-adv-x="647" 
d="M35 0zM102.5 70q-67.5 83 -67.5 263q0 182 67 267t221 85t221 -85t67 -266q0 -173 -66 -260t-222 -87q-153 0 -220.5 83zM384.5 160.5q22.5 19.5 32.5 61t10 112.5q0 106 -23 151.5t-81 45.5q-57 0 -80.5 -46t-23.5 -152q0 -94 20 -143t84 -49q39 0 61.5 19.5zM162 770
l17 240l158 -46l-34 -233zM378 768l17 241l156 -46l-32 -233z" />
    <glyph glyph-name="ohungarumlaut" unicode="&#x151;" horiz-adv-x="535" 
d="M27 0zM140.5 21q-54.5 34 -84 95t-29.5 138q0 75 29 133.5t83 92t128 33.5t128.5 -33t83.5 -91.5t29 -134.5q0 -78 -29.5 -138.5t-84.5 -94.5t-127 -34t-126.5 34zM313 163.5q20 30.5 20 90.5q0 55 -19 84t-47 29t-46.5 -29t-18.5 -84q0 -60 19.5 -90.5t45.5 -30.5
t46 30.5zM239 631l98 224l146 -83l-110 -222zM28 631l98 223l146 -82l-111 -222z" />
    <glyph glyph-name="OE" unicode="&#x152;" horiz-adv-x="887" 
d="M140 22.5q-55 35.5 -78 113.5t-23 213q0 131 25.5 207t81 109.5t149.5 33.5q23 0 101 -13h454v-171h-278v-85h218v-169h-218v-90h278v-170h-452q-62 -14 -103 -14q-100 0 -155 35.5zM396 169v350q-62 4 -96 4q-48 0 -63.5 -33.5t-15.5 -99.5l1 -80q0 -58 8.5 -88.5
t31 -44.5t67.5 -14q9 0 67 6z" />
    <glyph glyph-name="oe" unicode="&#x153;" horiz-adv-x="819" 
d="M85.5 59q-58.5 72 -58.5 190q0 122 58.5 192.5t181.5 70.5q52 0 88.5 -15t63.5 -50q28 38 60.5 51.5t81.5 13.5q113 0 171 -56t58 -163l-14 -118h-270q1 -16 19 -22.5t53 -6.5q80 0 168 7l28 2l2 -132q-114 -36 -229 -36q-89 0 -136 52q-26 -24 -67 -38t-91 -14
q-109 0 -167.5 72zM620 306q0 30 -12.5 41t-46.5 11t-45 -11t-11 -41h115zM333 249q0 55 -13.5 80.5t-50.5 25.5t-52 -27.5t-15 -80.5q0 -50 16.5 -76.5t48.5 -26.5q66 0 66 105z" />
    <glyph glyph-name="Racute" unicode="&#x154;" horiz-adv-x="623" 
d="M67 0zM67 672h269q126 0 189.5 -59t63.5 -174t-82 -193l73 -246h-195l-49 203h-91v-203h-178v672zM339 355q32 0 49.5 24.5t17.5 59.5q0 34 -19.5 58t-50.5 24h-91v-166h94zM159 844l276 110l51 -156l-288 -73z" />
    <glyph glyph-name="racute" unicode="&#x155;" horiz-adv-x="389" 
d="M35 0zM55 500h173v-43q87 45 144 56v-175q-31 -7 -77 -13q-8 -1 -50 -8l-16 -3v-314h-174v500zM35 657l276 105l49 -149l-289 -67z" />
    <glyph glyph-name="Rcommaaccent" unicode="&#x156;" horiz-adv-x="623" 
d="M67 0zM67 672h269q126 0 189.5 -59t63.5 -174t-82 -193l73 -246h-195l-49 203h-91v-203h-178v672zM339 355q32 0 49.5 24.5t17.5 59.5q0 34 -19.5 58t-50.5 24h-91v-166h94zM238 -76h167l-58 -252h-159z" />
    <glyph glyph-name="rcommaaccent" unicode="&#x157;" horiz-adv-x="389" 
d="M6 0zM55 500h173v-43q87 45 144 56v-175q-31 -7 -77 -13q-8 -1 -50 -8l-16 -3v-314h-174v500zM56 -76h167l-58 -252h-159z" />
    <glyph glyph-name="Rcaron" unicode="&#x158;" horiz-adv-x="623" 
d="M67 0zM67 672h269q126 0 189.5 -59t63.5 -174t-82 -193l73 -246h-195l-49 203h-91v-203h-178v672zM339 355q32 0 49.5 24.5t17.5 59.5q0 34 -19.5 58t-50.5 24h-91v-166h94zM89 906h180l32 -40l27 40h180l-134 -158h-151z" />
    <glyph glyph-name="rcaron" unicode="&#x159;" horiz-adv-x="389" 
d="M0 0zM55 500h173v-43q87 45 144 56v-175q-31 -7 -77 -13q-8 -1 -50 -8l-16 -3v-314h-174v500zM146 730l27 -53l28 53h155l-131 -158h-106l-128 158h155z" />
    <glyph glyph-name="Sacute" unicode="&#x15a;" horiz-adv-x="545" 
d="M30 0zM75 15l-36 8l18 136q132 -18 204 -18q78 0 78 54q0 19 -17.5 30t-51.5 24q-22 8 -32 13q-113 38 -160.5 87t-47.5 123q0 105 64 159t174 54q45 0 85.5 -6t148.5 -26l-14 -138q-130 15 -200 15q-82 0 -82 -45q0 -15 20 -25.5t63 -26.5q44 -16 57 -22
q66 -27 102 -52.5t52 -61.5t16 -91q0 -70 -32.5 -119.5t-88 -75t-124.5 -25.5q-86 0 -196 29zM132 844l276 110l51 -156l-288 -73z" />
    <glyph glyph-name="sacute" unicode="&#x15b;" horiz-adv-x="477" 
d="M30 0zM72 7l-33 7l4 143q119 -15 173 -15q59 0 59 9q0 5 -12 9t-39 8l-45 8q-77 13 -113 48.5t-36 115.5q0 82 55 127t147 45q61 0 166 -23l36 -6l-2 -143q-129 16 -171 16q-29 0 -44 -2t-15 -9q0 -8 16.5 -13t53.5 -10l37 -6q75 -14 106.5 -50.5t31.5 -108.5
q0 -170 -206 -170q-72 0 -169 20zM76 657l276 105l49 -149l-289 -67z" />
    <glyph glyph-name="Scircumflex" unicode="&#x15c;" horiz-adv-x="545" 
d="M30 0zM75 15l-36 8l18 136q132 -18 204 -18q78 0 78 54q0 19 -17.5 30t-51.5 24q-22 8 -32 13q-113 38 -160.5 87t-47.5 123q0 105 64 159t174 54q45 0 85.5 -6t148.5 -26l-14 -138q-130 15 -200 15q-82 0 -82 -45q0 -15 20 -25.5t63 -26.5q44 -16 57 -22
q66 -27 102 -52.5t52 -61.5t16 -91q0 -70 -32.5 -119.5t-88 -75t-124.5 -25.5q-86 0 -196 29zM202 908h152l134 -158h-181l-27 40l-31 -40h-181z" />
    <glyph glyph-name="scircumflex" unicode="&#x15d;" horiz-adv-x="477" 
d="M30 0zM72 7l-33 7l4 143q119 -15 173 -15q59 0 59 9q0 5 -12 9t-39 8l-45 8q-77 13 -113 48.5t-36 115.5q0 82 55 127t147 45q61 0 166 -23l36 -6l-2 -143q-129 16 -171 16q-29 0 -44 -2t-15 -9q0 -8 16.5 -13t53.5 -10l37 -6q75 -14 106.5 -50.5t31.5 -108.5
q0 -170 -206 -170q-72 0 -169 20zM185 730h106l130 -158h-155l-28 54l-26 -54h-155z" />
    <glyph glyph-name="Scedilla" unicode="&#x15e;" horiz-adv-x="545" 
d="M461.5 58q-54.5 -56 -142.5 -69v-18q71 -2 101 -22.5t30 -78.5q0 -61 -32.5 -94t-90.5 -33q-40 0 -83 10l-15 4l5 98q12 -1 22.5 -0.5t13.5 0.5q34 0 34 18q0 14 -34 14h-12v99q-76 1 -183 29l-36 8l18 136q132 -18 204 -18q78 0 78 54q0 19 -17.5 30t-51.5 24
q-22 8 -32 13q-113 38 -160.5 87t-47.5 123q0 105 64 159t174 54q45 0 85.5 -6t148.5 -26l-14 -138q-130 15 -200 15q-82 0 -82 -45q0 -15 20 -25.5t63 -26.5q44 -16 57 -22q66 -27 102 -52.5t52 -61.5t16 -91q0 -92 -54.5 -148z" />
    <glyph glyph-name="scedilla" unicode="&#x15f;" horiz-adv-x="477" 
d="M264 -12v-17q71 -2 101 -22.5t30 -78.5q0 -61 -32.5 -94t-90.5 -33q-40 0 -83 10l-15 4l5 98q12 -1 22.5 -0.5t13.5 0.5q34 0 34 18q0 14 -34 14h-12v101q-59 5 -131 19l-33 7l4 143q119 -15 173 -15q59 0 59 9q0 5 -12 9t-39 8l-45 8q-77 13 -113 48.5t-36 115.5
q0 82 55 127t147 45q61 0 166 -23l36 -6l-2 -143q-129 16 -171 16q-29 0 -44 -2t-15 -9q0 -8 16.5 -13t53.5 -10l37 -6q75 -14 106.5 -50.5t31.5 -108.5q0 -160 -183 -169z" />
    <glyph glyph-name="Scaron" unicode="&#x160;" horiz-adv-x="545" 
d="M30 0zM75 15l-36 8l18 136q132 -18 204 -18q78 0 78 54q0 19 -17.5 30t-51.5 24q-22 8 -32 13q-113 38 -160.5 87t-47.5 123q0 105 64 159t174 54q45 0 85.5 -6t148.5 -26l-14 -138q-130 15 -200 15q-82 0 -82 -45q0 -15 20 -25.5t63 -26.5q44 -16 57 -22
q66 -27 102 -52.5t52 -61.5t16 -91q0 -70 -32.5 -119.5t-88 -75t-124.5 -25.5q-86 0 -196 29zM91 906h180l32 -40l27 40h180l-134 -158h-151z" />
    <glyph glyph-name="scaron" unicode="&#x161;" horiz-adv-x="477" 
d="M30 0zM72 7l-33 7l4 143q119 -15 173 -15q59 0 59 9q0 5 -12 9t-39 8l-45 8q-77 13 -113 48.5t-36 115.5q0 82 55 127t147 45q61 0 166 -23l36 -6l-2 -143q-129 16 -171 16q-29 0 -44 -2t-15 -9q0 -8 16.5 -13t53.5 -10l37 -6q75 -14 106.5 -50.5t31.5 -108.5
q0 -170 -206 -170q-72 0 -169 20zM221 730l27 -53l28 53h155l-131 -158h-106l-128 158h155z" />
    <glyph glyph-name="uni0162" unicode="&#x162;" horiz-adv-x="526" 
d="M295 0v-29q71 -2 101 -22.5t30 -78.5q0 -61 -32.5 -94t-90.5 -33q-40 0 -83 10l-15 4l5 98q12 -1 22.5 -0.5t13.5 0.5q34 0 34 18q0 14 -34 14h-12v113h-60v515h-161v157h500v-157h-159v-515h-59z" />
    <glyph glyph-name="uni0163" unicode="&#x163;" horiz-adv-x="373" 
d="M245 171q0 -30 22 -28l68 -1l6 -137q-43 -11 -63.5 -14.5t-44.5 -3.5q-39 0 -66 7v-23q71 -2 101 -22.5t30 -78.5q0 -61 -32.5 -94t-90.5 -33q-40 0 -83 10l-15 4l5 98q12 -1 22.5 -0.5t13.5 0.5q34 0 34 18q0 14 -34 14h-12v114h41q-42 18 -59 60.5t-17 120.5v171h-51
v147h51v130h174v-130h99v-147h-99v-182z" />
    <glyph glyph-name="Tcaron" unicode="&#x164;" horiz-adv-x="526" 
d="M13 0zM174 515h-161v157h500v-157h-159v-515h-180v515zM56 906h180l32 -40l27 40h180l-134 -158h-151z" />
    <glyph glyph-name="tcaron" unicode="&#x165;" horiz-adv-x="524" 
d="M380 686h169v-277h-169v277zM136 6.5q-35 19.5 -50 61.5t-15 114v171h-51v147h51v130h174v-130h99v-147h-99v-182q0 -30 22 -28l68 -1l6 -137q-43 -11 -63.5 -14.5t-44.5 -3.5q-62 0 -97 19.5z" />
    <glyph glyph-name="Tbar" unicode="&#x166;" horiz-adv-x="527" 
d="M175 222h-112v149h112v144h-162v157h500v-157h-159v-144h122v-149h-122v-222h-179v222z" />
    <glyph glyph-name="tbar" unicode="&#x167;" horiz-adv-x="372" 
d="M135.5 5q-35.5 18 -50.5 59.5t-15 117.5v-2h-13v127h13v35h-51v156h51v132h173v-132h100v-156h-100v-35h69v-127h-69v2q0 -29 22 -29h68l7 -148q-69 -18 -103 -18q-66 0 -101.5 18z" />
    <glyph glyph-name="Utilde" unicode="&#x168;" horiz-adv-x="661" 
d="M60 0zM127 49.5q-67 62.5 -67 193.5v429h179v-432q0 -99 93 -99q45 0 67 25.5t22 73.5v432h180v-429q0 -131 -66.5 -193.5t-203.5 -62.5t-204 62.5zM313 746l-25 7q-47 14 -54 14q-24 0 -71 -30l-14 -8l-37 122q23 28 57.5 48t67.5 20q31 0 94 -20t73 -20q25 0 73 30
l15 9l37 -124q-1 -1 -38.5 -34.5t-84.5 -33.5q-28 0 -93 20z" />
    <glyph glyph-name="utilde" unicode="&#x169;" horiz-adv-x="568" 
d="M50 0zM88 47.5q-38 60.5 -38 189.5v263h174v-267q0 -41 3 -58.5t14 -25t36 -7.5q21 0 62 5v353h173v-500h-171v23q-43 -22 -68.5 -29t-51.5 -7q-95 0 -133 60.5zM268 581q-42 15 -55 15q-30 0 -68 -19l-13 -6l-37 93q18 22 54 43.5t59 21.5q24 0 66 -15q41 -14 54 -14
q31 0 72 22l14 9l37 -95q-4 -7 -25 -24.5t-46 -31t-45 -13.5q-22 0 -67 14z" />
    <glyph glyph-name="Umacron" unicode="&#x16a;" horiz-adv-x="661" 
d="M60 0zM127 49.5q-67 62.5 -67 193.5v429h179v-432q0 -99 93 -99q45 0 67 25.5t22 73.5v432h180v-429q0 -131 -66.5 -193.5t-203.5 -62.5t-204 62.5zM150 887h371v-125h-371v125z" />
    <glyph glyph-name="umacron" unicode="&#x16b;" horiz-adv-x="568" 
d="M50 0zM88 47.5q-38 60.5 -38 189.5v263h174v-267q0 -41 3 -58.5t14 -25t36 -7.5q21 0 62 5v353h173v-500h-171v23q-43 -22 -68.5 -29t-51.5 -7q-95 0 -133 60.5zM138 706h295v-127h-295v127z" />
    <glyph glyph-name="Ubreve" unicode="&#x16c;" horiz-adv-x="661" 
d="M60 0zM127 49.5q-67 62.5 -67 193.5v429h179v-432q0 -99 93 -99q45 0 67 25.5t22 73.5v432h180v-429q0 -131 -66.5 -193.5t-203.5 -62.5t-204 62.5zM130 905h156q12 -45 50 -45q20 0 33 12.5t18 32.5h155q-27 -165 -207 -165q-178 0 -205 165z" />
    <glyph glyph-name="ubreve" unicode="&#x16d;" horiz-adv-x="568" 
d="M50 0zM88 47.5q-38 60.5 -38 189.5v263h174v-267q0 -41 3 -58.5t14 -25t36 -7.5q21 0 62 5v353h173v-500h-171v23q-43 -22 -68.5 -29t-51.5 -7q-95 0 -133 60.5zM171 611.5q-45 47.5 -58 121.5h128q4 -26 16.5 -40t29.5 -14q20 0 31 12t17 42h127q-13 -74 -58.5 -121.5
t-116.5 -47.5t-116 47.5z" />
    <glyph glyph-name="Uring" unicode="&#x16e;" horiz-adv-x="661" 
d="M60 0zM127 49.5q-67 62.5 -67 193.5v429h179v-432q0 -99 93 -99q45 0 67 25.5t22 73.5v432h180v-429q0 -131 -66.5 -193.5t-203.5 -62.5t-204 62.5zM214 732q-49 37 -49 102q0 67 48.5 103.5t121.5 36.5q74 0 123 -36.5t49 -103.5q0 -65 -49.5 -102t-122.5 -37
q-72 0 -121 37zM375 810.5q17 8.5 17 23.5q0 16 -16.5 24.5t-40.5 8.5q-22 0 -39.5 -9t-17.5 -24t17 -23.5t40 -8.5t40 8.5z" />
    <glyph glyph-name="uring" unicode="&#x16f;" horiz-adv-x="568" 
d="M50 0zM88 47.5q-38 60.5 -38 189.5v263h174v-267q0 -41 3 -58.5t14 -25t36 -7.5q21 0 62 5v353h173v-500h-171v23q-43 -22 -68.5 -29t-51.5 -7q-95 0 -133 60.5zM192 544q-37 36 -37 89q0 54 37 90t91 36t91 -36t37 -90q0 -53 -37 -89t-91 -36t-91 36zM310.5 606
q10.5 10 10.5 27t-10.5 27t-27.5 10t-27.5 -10t-10.5 -27t10.5 -27t27.5 -10t27.5 10z" />
    <glyph glyph-name="Uhungarumlaut" unicode="&#x170;" horiz-adv-x="661" 
d="M60 0zM127 49.5q-67 62.5 -67 193.5v429h179v-432q0 -99 93 -99q45 0 67 25.5t22 73.5v432h180v-429q0 -131 -66.5 -193.5t-203.5 -62.5t-204 62.5zM151 770l17 240l158 -46l-34 -233zM367 768l17 241l156 -46l-32 -233z" />
    <glyph glyph-name="uhungarumlaut" unicode="&#x171;" horiz-adv-x="568" 
d="M50 0zM88 47.5q-38 60.5 -38 189.5v263h174v-267q0 -41 3 -58.5t14 -25t36 -7.5q21 0 62 5v353h173v-500h-171v23q-43 -22 -68.5 -29t-51.5 -7q-95 0 -133 60.5zM299 631l98 224l146 -83l-110 -222zM88 631l98 223l146 -82l-111 -222z" />
    <glyph glyph-name="Uogonek" unicode="&#x172;" horiz-adv-x="661" 
d="M601 672v-429q0 -106 -44 -167t-134 -80q-41 -28 -41 -61q0 -16 5.5 -22t20.5 -6l37 2l15 -119q-73 -13 -118 -13q-52 0 -85.5 28t-33.5 72q0 35 14 65.5t34 47.5q-107 13 -159 75.5t-52 177.5v429h179v-432q0 -99 93 -99q45 0 67 25.5t22 73.5v432h180z" />
    <glyph glyph-name="uogonek" unicode="&#x173;" horiz-adv-x="568" 
d="M522 -210q-73 -13 -118 -13q-52 0 -85.5 28t-33.5 72q0 41 18.5 74.5t41.5 48.5h-4v23q-43 -22 -68.5 -29t-51.5 -7q-95 0 -133 60.5t-38 189.5v263h174v-267q0 -41 3 -58.5t14 -25t36 -7.5q21 0 62 5v353h173v-500h-20q-48 -29 -48 -65q0 -16 5.5 -22t20.5 -6l37 2z" />
    <glyph glyph-name="Wcircumflex" unicode="&#x174;" horiz-adv-x="959" 
d="M12 0zM12 672h188l61 -521h6l109 525h207l109 -525h6l61 521h189l-123 -672h-254l-91 468l-91 -468h-255zM404 908h152l134 -158h-181l-27 40l-31 -40h-181z" />
    <glyph glyph-name="wcircumflex" unicode="&#x175;" horiz-adv-x="779" 
d="M19 0zM19 500h170l35 -353h29l47 343h178l48 -343h28l35 353h170l-79 -500h-266l-25 249l-24 -249h-267zM338 730h106l130 -158h-155l-28 54l-26 -54h-155z" />
    <glyph glyph-name="Ycircumflex" unicode="&#x176;" horiz-adv-x="570" 
d="M0 0zM196 264l-203 408h197l94 -236l94 236h197l-200 -408v-264h-179v264zM211 906h152l134 -158h-181l-27 40l-31 -40h-181z" />
    <glyph glyph-name="ycircumflex" unicode="&#x177;" horiz-adv-x="511" 
d="M10 0zM228 0h-108l-110 500h170l68 -353h17l67 353h170l-154 -702h-169zM202 730h106l130 -158h-155l-28 54l-26 -54h-155z" />
    <glyph glyph-name="Ydieresis" unicode="&#x178;" horiz-adv-x="570" 
d="M0 0zM196 264l-203 408h197l94 -236l94 236h197l-200 -408v-264h-179v264zM89 895h164v-160h-164v160zM313 895h165v-160h-165v160z" />
    <glyph glyph-name="Zacute" unicode="&#x179;" horiz-adv-x="529" 
d="M40 1zM40 140l232 362v15h-232v155h450v-140l-232 -361v-16h232v-154h-450v139zM100 844l276 110l51 -156l-288 -73z" />
    <glyph glyph-name="zacute" unicode="&#x17a;" horiz-adv-x="453" 
d="M40 0zM40 155l164 190h-164v155h371v-155l-163 -190h163v-155h-371v155zM61 657l276 105l49 -149l-289 -67z" />
    <glyph glyph-name="Zdotaccent" unicode="&#x17b;" horiz-adv-x="529" 
d="M40 1zM40 140l232 362v15h-232v155h450v-140l-232 -361v-16h232v-154h-450v139zM179 911h174v-167h-174v167z" />
    <glyph glyph-name="zdotaccent" unicode="&#x17c;" horiz-adv-x="453" 
d="M40 0zM40 155l164 190h-164v155h371v-155l-163 -190h163v-155h-371v155zM139 688h174v-167h-174v167z" />
    <glyph glyph-name="Zcaron" unicode="&#x17d;" horiz-adv-x="529" 
d="M40 1zM40 140l232 362v15h-232v155h450v-140l-232 -361v-16h232v-154h-450v139zM54 906h180l32 -40l27 40h180l-134 -158h-151z" />
    <glyph glyph-name="zcaron" unicode="&#x17e;" horiz-adv-x="453" 
d="M40 0zM40 155l164 190h-164v155h371v-155l-163 -190h163v-155h-371v155zM214 730l27 -53l28 53h155l-131 -158h-106l-128 158h155z" />
    <glyph glyph-name="florin" unicode="&#x192;" 
d="M453 547v-148h-105v-441q0 -102 -43 -143.5t-141 -41.5q-61 0 -100 13l-17 4v140l90 -1q18 0 27.5 10t9.5 24v436h-48v148h48v4q0 75 14.5 112.5t46.5 50.5t93 13q46 0 95 -12l25 -3v-140l-66 1q-21 0 -27 -4.5t-7 -21.5h105z" />
    <glyph glyph-name="Aringacute" unicode="&#x1fa;" horiz-adv-x="606" 
d="M12 0zM124 949l276 110l51 -156l-288 -73zM401 86h-196l-13 -86h-180l127 663q-6 20 -6 42q0 67 48.5 103.5t121.5 36.5q74 0 123 -36.5t49 -103.5q0 -24 -8 -46l127 -659h-180zM263.5 729q-17.5 -9 -17.5 -24t17 -23.5t40 -8.5t40 8.5t17 23.5q0 16 -16.5 24.5
t-40.5 8.5q-22 0 -39.5 -9zM235 240h136l-46 286h-44z" />
    <glyph glyph-name="aringacute" unicode="&#x1fb;" horiz-adv-x="518" 
d="M22 0zM92 871l276 105l49 -149l-289 -67zM460 140.5q1 -13.5 4 -18t11 -6.5l-5 -129q-62 0 -92.5 5.5t-66.5 25.5q-62 -31 -125 -31q-83 0 -123.5 42.5t-40.5 129.5q0 83 44.5 116.5t144.5 38.5l74 4v23q0 17 -8.5 21.5t-35.5 4.5l-90 -2q-86 -4 -92 -2l-4 117
q97 29 182 32q-41 11 -67 44t-26 77q0 54 37 90t91 36t91 -36t37 -90q0 -45 -27 -78t-70 -43q82 -7 118.5 -48t36.5 -123v-176q1 -11 2 -24.5zM244.5 660q-10.5 -10 -10.5 -27t10.5 -27t27.5 -10t27.5 10t10.5 27t-10.5 27t-27.5 10t-27.5 -10zM285 201l-53 -4
q-17 -2 -27 -12t-10 -28q0 -31 31 -31q16 0 49 5l10 1v69z" />
    <glyph glyph-name="AEacute" unicode="&#x1fc;" horiz-adv-x="868" 
d="M7 0zM164 686h667v-171h-274v-85h214v-170h-214v-89h274v-171h-450v77h-187l-10 -77h-177zM381 249l1 266h-94l-52 -266h145zM333 844l276 110l51 -156l-288 -73z" />
    <glyph glyph-name="aeacute" unicode="&#x1fd;" horiz-adv-x="771" 
d="M22 0zM63 32q-41 45 -41 127q0 77 44 115t125 40l94 4v14q0 4 -9.5 9t-24.5 5q-70 0 -155 -8l-33 -3l-5 150q144 27 224 27q65 0 113 -13q53 13 120 13q111 0 169 -56t58 -163l-14 -118h-270q1 -16 18.5 -22.5t53.5 -6.5q80 0 168 7l28 2l2 -132q-114 -36 -218 -36
t-157 44l-17 -9q-79 -35 -145 -35q-87 0 -128 45zM572 306q0 30 -12.5 41t-47.5 11q-33 0 -43.5 -11.5t-10.5 -40.5h114zM224.5 133q5.5 -2 16.5 -2q16 0 45 4l-1 53l-53 2q-16 0 -26.5 -7.5t-10.5 -19.5q0 -13 5.5 -20.5t15.5 -7.5q3 0 8.5 -2zM233 657l276 105l49 -149
l-289 -67z" />
    <glyph glyph-name="Oslashacute" unicode="&#x1fe;" horiz-adv-x="647" 
d="M611 331q0 -177 -67.5 -260.5t-220.5 -83.5q-44 0 -80 5l-58 -126l-126 64l58 123q-39 39 -60.5 110t-21.5 168q0 183 67 268.5t221 85.5q46 0 85 -6l54 117l-279 -71l-39 119l276 110l48 -146l4 9l128 -55l-69 -149q80 -84 80 -282zM339 532l-16 -1q-55 0 -79.5 -44.5
t-24.5 -120.5q0 -71 -9 -115zM436 409l-125 -270l12 2q104 0 104 158q0 71 9 110z" />
    <glyph glyph-name="oslashacute" unicode="&#x1ff;" horiz-adv-x="535" 
d="M508 248q0 -123 -65 -192t-176 -69q-33 0 -54 4l-40 -96l-100 38l43 99q-42 32 -65.5 88t-23.5 128q0 124 58.5 194.5t181.5 70.5q20 0 44 -3l32 83l-201 -47l-36 111l276 105l49 -149l-59 -14l79 -29l-40 -94q97 -64 97 -228zM255 366q-29 -5 -41 -34.5t-12 -83.5l1 -18
zM337 305l-69 -172q31 1 48 30t17 71q0 43 4 71z" />
    <glyph glyph-name="Scommaaccent" unicode="&#x218;" horiz-adv-x="545" 
d="M30 0zM75 15l-36 8l18 136q132 -18 204 -18q78 0 78 54q0 19 -17.5 30t-51.5 24q-22 8 -32 13q-113 38 -160.5 87t-47.5 123q0 105 64 159t174 54q45 0 85.5 -6t148.5 -26l-14 -138q-130 15 -200 15q-82 0 -82 -45q0 -15 20 -25.5t63 -26.5q44 -16 57 -22
q66 -27 102 -52.5t52 -61.5t16 -91q0 -70 -32.5 -119.5t-88 -75t-124.5 -25.5q-86 0 -196 29zM193 -76h167l-58 -252h-159z" />
    <glyph glyph-name="scommaaccent" unicode="&#x219;" horiz-adv-x="477" 
d="M0 0zM72 7l-33 7l4 143q119 -15 173 -15q59 0 59 9q0 5 -12 9t-39 8l-45 8q-77 13 -113 48.5t-36 115.5q0 82 55 127t147 45q61 0 166 -23l36 -6l-2 -143q-129 16 -171 16q-29 0 -44 -2t-15 -9q0 -8 16.5 -13t53.5 -10l37 -6q75 -14 106.5 -50.5t31.5 -108.5
q0 -170 -206 -170q-72 0 -169 20zM-53 -76h167l-58 -252h-159z" />
    <glyph glyph-name="uni021A" unicode="&#x21a;" horiz-adv-x="526" 
d="M13 0zM174 515h-161v157h500v-157h-159v-515h-180v515zM207 -76h167l-58 -252h-159z" />
    <glyph glyph-name="uni021B" unicode="&#x21b;" horiz-adv-x="373" 
d="M0 0zM136 6.5q-35 19.5 -50 61.5t-15 114v171h-51v147h51v130h174v-130h99v-147h-99v-182q0 -30 22 -28l68 -1l6 -137q-43 -11 -63.5 -14.5t-44.5 -3.5q-62 0 -97 19.5zM-13 -76h167l-58 -252h-159z" />
    <glyph glyph-name="circumflex" unicode="&#x2c6;" horiz-adv-x="289" 
d="M101 730h106l130 -158h-155l-28 54l-26 -54h-155z" />
    <glyph glyph-name="caron" unicode="&#x2c7;" horiz-adv-x="289" 
d="M133 730l27 -53l28 53h155l-131 -158h-106l-128 158h155z" />
    <glyph glyph-name="breve" unicode="&#x2d8;" horiz-adv-x="289" 
d="M36 611.5q-45 47.5 -58 121.5h128q4 -26 16.5 -40t29.5 -14q20 0 31 12t17 42h127q-13 -74 -58.5 -121.5t-116.5 -47.5t-116 47.5z" />
    <glyph glyph-name="dotaccent" unicode="&#x2d9;" horiz-adv-x="289" 
d="M58 688h174v-167h-174v167z" />
    <glyph glyph-name="ring" unicode="&#x2da;" horiz-adv-x="289" 
d="M56 544q-37 36 -37 89q0 54 37 90t91 36t91 -36t37 -90q0 -53 -37 -89t-91 -36t-91 36zM174.5 606q10.5 10 10.5 27t-10.5 27t-27.5 10t-27.5 -10t-10.5 -27t10.5 -27t27.5 -10t27.5 10z" />
    <glyph glyph-name="ogonek" unicode="&#x2db;" horiz-adv-x="490" 
d="M273.5 -195q-33.5 28 -33.5 72q0 41 18.5 75t41.5 48l19 13l130 -12q-50 -29 -50 -66q0 -16 5.5 -22t20.5 -6l37 2l15 -119q-73 -13 -118 -13q-52 0 -85.5 28z" />
    <glyph glyph-name="tilde" unicode="&#x2dc;" horiz-adv-x="289" 
d="M156 581q-42 15 -55 15q-30 0 -68 -19l-13 -6l-37 93q18 22 54 43.5t59 21.5q24 0 66 -15q41 -14 54 -14q31 0 72 22l14 9l37 -95q-4 -7 -25 -24.5t-46 -31t-45 -13.5q-22 0 -67 14z" />
    <glyph glyph-name="hungarumlaut" unicode="&#x2dd;" horiz-adv-x="289" 
d="M162 631l98 224l146 -83l-110 -222zM-49 631l98 223l146 -82l-111 -222z" />
    <glyph glyph-name="pi" unicode="&#x3c0;" 
d="M371.5 0q-47.5 14 -62.5 47.5t-15 106.5v199h-38l-24 -353h-175l33 353q-19 0 -58 -10l-17 -3v140q71 20 156 20h261q40 0 82 8l13 3v-142q-22 -9 -60 -14v-201q0 -9 13.5 -15t43.5 -6v-147q-105 0 -152.5 14z" />
    <glyph glyph-name="Wgrave" unicode="&#x1e80;" horiz-adv-x="959" 
d="M12 0zM12 672h188l61 -521h6l109 525h207l109 -525h6l61 521h189l-123 -672h-254l-91 468l-91 -468h-255zM331 798l51 156l276 -110l-39 -119z" />
    <glyph glyph-name="wgrave" unicode="&#x1e81;" horiz-adv-x="779" 
d="M19 0zM19 500h170l35 -353h29l47 343h178l48 -343h28l35 353h170l-79 -500h-266l-25 249l-24 -249h-267zM214 613l50 149l276 -105l-36 -111z" />
    <glyph glyph-name="Wacute" unicode="&#x1e82;" horiz-adv-x="959" 
d="M12 0zM12 672h188l61 -521h6l109 525h207l109 -525h6l61 521h189l-123 -672h-254l-91 468l-91 -468h-255zM327 844l276 110l51 -156l-288 -73z" />
    <glyph glyph-name="wacute" unicode="&#x1e83;" horiz-adv-x="779" 
d="M19 0zM19 500h170l35 -353h29l47 343h178l48 -343h28l35 353h170l-79 -500h-266l-25 249l-24 -249h-267zM234 657l276 105l49 -149l-289 -67z" />
    <glyph glyph-name="Wdieresis" unicode="&#x1e84;" horiz-adv-x="959" 
d="M12 0zM12 672h188l61 -521h6l109 525h207l109 -525h6l61 521h189l-123 -672h-254l-91 468l-91 -468h-255zM284 895h164v-160h-164v160zM508 895h165v-160h-165v160z" />
    <glyph glyph-name="wdieresis" unicode="&#x1e85;" horiz-adv-x="779" 
d="M19 0zM19 500h170l35 -353h29l47 343h178l48 -343h28l35 353h170l-79 -500h-266l-25 249l-24 -249h-267zM196 739h165v-160h-165v160zM423 739h164v-160h-164v160z" />
    <glyph glyph-name="uni1EAB" unicode="&#x1eab;" horiz-adv-x="518" 
d="M22 0zM62.5 29.5q-40.5 42.5 -40.5 129.5q0 83 44.5 116.5t144.5 38.5l74 4v23q0 17 -8.5 21.5t-35.5 4.5l-90 -2q-86 -4 -92 -2l-4 117q108 33 210 33q103 0 148 -40.5t45 -131.5v-176q1 -11 2 -24.5t4 -18t11 -6.5l-5 -129q-62 0 -92.5 5.5t-66.5 25.5
q-62 -31 -125 -31q-83 0 -123.5 42.5zM275 131l10 1v69l-53 -4q-17 -2 -27 -12t-10 -28q0 -31 31 -31q16 0 49 5zM180 700h106l130 -158h-155l-28 54l-26 -54h-155zM228 765q-42 15 -55 15q-30 0 -68 -19l-13 -6l-37 93q18 22 54 43.5t59 21.5q24 0 66 -15q41 -14 54 -14
q31 0 72 22l14 9l37 -95q-4 -7 -25 -24.5t-46 -31t-45 -13.5q-22 0 -67 14z" />
    <glyph glyph-name="uni1EB0" unicode="&#x1eb0;" horiz-adv-x="603" 
d="M12 0zM401 86h-196l-13 -86h-180l129 672h324l129 -672h-180zM325 526h-44l-46 -286h136zM104 861h156q12 -45 50 -45q20 0 33 12.5t18 32.5h155q-27 -165 -207 -165q-178 0 -205 165zM91 987l51 156l276 -110l-39 -119z" />
    <glyph glyph-name="uni1EC5" unicode="&#x1ec5;" horiz-adv-x="515" 
d="M28 0zM82.5 46q-54.5 59 -54.5 193q0 137 57.5 205.5t175.5 68.5q109 0 167.5 -56t58.5 -164l-14 -117h-270q3 -18 11.5 -26t23.5 -9.5t51 -1.5t85.5 2t67.5 4l27 3l2 -125q-111 -36 -214 -36q-120 0 -174.5 59zM317 306q0 39 -12 52.5t-46 13.5t-45 -13.5t-12 -52.5h115
zM215 700h106l130 -158h-155l-28 54l-26 -54h-155zM249 765q-42 15 -55 15q-30 0 -68 -19l-13 -6l-37 93q18 22 54 43.5t59 21.5q24 0 66 -15q41 -14 54 -14q31 0 72 22l14 9l37 -95q-4 -7 -25 -24.5t-46 -31t-45 -13.5q-22 0 -67 14z" />
    <glyph glyph-name="uni1ED7" unicode="&#x1ed7;" horiz-adv-x="535" 
d="M27 0zM140.5 21q-54.5 34 -84 95t-29.5 138q0 75 29 133.5t83 92t128 33.5t128.5 -33t83.5 -91.5t29 -134.5q0 -78 -29.5 -138.5t-84.5 -94.5t-127 -34t-126.5 34zM313 163.5q20 30.5 20 90.5q0 55 -19 84t-47 29t-46.5 -29t-18.5 -84q0 -60 19.5 -90.5t45.5 -30.5
t46 30.5zM218 700h106l130 -158h-155l-28 54l-26 -54h-155zM252 765q-42 15 -55 15q-30 0 -68 -19l-13 -6l-37 93q18 22 54 43.5t59 21.5q24 0 66 -15q41 -14 54 -14q31 0 72 22l14 9l37 -95q-4 -7 -25 -24.5t-46 -31t-45 -13.5q-22 0 -67 14z" />
    <glyph glyph-name="Ygrave" unicode="&#x1ef2;" horiz-adv-x="570" 
d="M0 0zM196 264l-203 408h197l94 -236l94 236h197l-200 -408v-264h-179v264zM141 798l51 156l276 -110l-39 -119z" />
    <glyph glyph-name="ygrave" unicode="&#x1ef3;" horiz-adv-x="511" 
d="M10 0zM228 0h-108l-110 500h170l68 -353h17l67 353h170l-154 -702h-169zM64 613l50 149l276 -105l-36 -111z" />
    <glyph glyph-name="uni1EF8" unicode="&#x1ef8;" horiz-adv-x="548" 
d="M0 0zM276 748l-25 7q-47 14 -54 14q-24 0 -71 -30l-14 -8l-37 122q23 28 57.5 48t67.5 20q31 0 94 -20t73 -20q25 0 73 30l15 9l37 -124q-1 -1 -38.5 -34.5t-84.5 -33.5q-28 0 -93 20zM196 264l-203 408h197l94 -236l94 236h197l-200 -408v-264h-179v264z" />
    <glyph glyph-name="uni1EF9" unicode="&#x1ef9;" horiz-adv-x="511" 
d="M10 0zM251 581q-42 15 -55 15q-30 0 -68 -19l-13 -6l-37 93q18 22 54 43.5t59 21.5q24 0 66 -15q41 -14 54 -14q31 0 72 22l14 9l37 -95q-4 -7 -25 -24.5t-46 -31t-45 -13.5q-22 0 -67 14zM228 0h-108l-110 500h170l68 -353h17l67 353h170l-154 -702h-169z" />
    <glyph glyph-name="endash" unicode="&#x2013;" horiz-adv-x="603" 
d="M51 338h500v-146h-500v146z" />
    <glyph glyph-name="emdash" unicode="&#x2014;" horiz-adv-x="1103" 
d="M51 338h1000v-146h-1000v146z" />
    <glyph glyph-name="quoteleft" unicode="&#x2018;" horiz-adv-x="286" 
d="M123 660h133l-51 -266h-181z" />
    <glyph glyph-name="quoteright" unicode="&#x2019;" horiz-adv-x="279" 
d="M165 396h-132l51 265h180z" />
    <glyph glyph-name="quotesinglbase" unicode="&#x201a;" horiz-adv-x="281" 
d="M156 -210h-180l86 441h244z" />
    <glyph glyph-name="quotedblleft" unicode="&#x201c;" horiz-adv-x="490" 
d="M123 660h133l-51 -266h-181zM328 660h132l-50 -266h-181z" />
    <glyph glyph-name="quotedblright" unicode="&#x201d;" horiz-adv-x="480" 
d="M59 395h-133l51 266h181zM467 395h-132l51 266h180z" />
    <glyph glyph-name="quotedblbase" unicode="&#x201e;" horiz-adv-x="462" 
d="M73 120h132l-51 -265h-180zM277 120h133l-51 -265h-181z" />
    <glyph glyph-name="dagger" unicode="&#x2020;" horiz-adv-x="481" 
d="M154 354h-130v146h130v172h174v-172h129v-146h-129l-14 -422h-146z" />
    <glyph glyph-name="daggerdbl" unicode="&#x2021;" horiz-adv-x="506" 
d="M166 104h-129v147h129v103h-129v146h129v172h174v-172h128v-146h-128v-103h129v-147h-129v-172h-174v172z" />
    <glyph glyph-name="bullet" unicode="&#x2022;" horiz-adv-x="435" 
d="M93 372h250v-276h-250v276z" />
    <glyph glyph-name="ellipsis" unicode="&#x2026;" horiz-adv-x="793" 
d="M49 201h185v-201h-185v201zM304 201h186v-201h-186v201zM559 201h186v-201h-186v201z" />
    <glyph glyph-name="perthousand" unicode="&#x2030;" horiz-adv-x="852" 
d="M123 -11l255 722l90 -33l-255 -719zM54 411.5q-31 37.5 -31 112.5q0 149 127 149q126 0 126 -149q0 -75 -30.5 -112.5t-95.5 -37.5t-96 37.5zM153 524q0 50 -4 50q-1 -3 -2 -16t-1 -34q0 -22 0.5 -36t2.5 -14q4 0 4 50zM351 24q-31 37 -31 111q0 151 126 151
q128 0 128 -150q0 -75 -31 -112t-96 -37t-96 37zM607.5 24q-30.5 37 -30.5 111q0 151 126 151q128 0 128 -150q0 -75 -31 -112t-97 -37q-65 0 -95.5 37zM449 102q1 13 1 34t-1.5 35.5t-2.5 14.5q-1 -3 -2 -16.5t-1 -34.5q0 -49 4 -49q1 3 2 16zM705.5 100q1.5 14 1.5 36
q0 21 -1.5 35.5t-2.5 14.5q-1 -3 -2 -16.5t-1 -34.5t0.5 -35t2.5 -14q1 0 2.5 14z" />
    <glyph glyph-name="guilsinglleft" unicode="&#x2039;" horiz-adv-x="329" 
d="M37 178v120l245 178v-174l-99 -62l99 -73v-173z" />
    <glyph glyph-name="guilsinglright" unicode="&#x203a;" horiz-adv-x="329" 
d="M45 183l99 74l-99 62v174l246 -178v-120l-246 -185v173z" />
    <glyph glyph-name="fraction" unicode="&#x2044;" horiz-adv-x="17" 
d="M-224 30l394 632l61 -41l-393 -635z" />
    <glyph glyph-name="uni2070" unicode="&#x2070;" horiz-adv-x="293" 
d="M232.5 795q30.5 -17 43.5 -55t13 -104t-13.5 -104t-44 -55.5t-84.5 -17.5t-85 17.5t-44.5 55.5t-13.5 104q0 65 13.5 103t45 55.5t85.5 17.5t84.5 -17zM161 581q4 16 4 55q0 38 -4 54.5t-14 16.5t-14 -16.5t-4 -54.5q0 -40 4 -55.5t14 -15.5t14 16z" />
    <glyph glyph-name="uni2074" unicode="&#x2074;" horiz-adv-x="299" 
d="M151 497h-138v82l46 212h133l-66 -199h25v46l124 16v-62h12v-95h-12v-41h-124v41z" />
    <glyph glyph-name="uni2075" unicode="&#x2075;" horiz-adv-x="288" 
d="M38 480l-22 5l9 81q63 -10 111 -10q22 0 22 13q0 14 -21 14l-39 -6l-73 9l7 211h231v-98h-145l-3 -22q25 7 50 7q61 0 85.5 -22t24.5 -83q0 -60 -32 -86.5t-96 -26.5q-46 0 -109 14z" />
    <glyph glyph-name="uni2076" unicode="&#x2076;" horiz-adv-x="284" 
d="M38.5 507.5q-31.5 41.5 -31.5 134.5q0 88 36 128.5t105 40.5q31 0 93 -12l19 -4l-8 -84q-61 8 -87 8q-30 0 -39.5 -7.5t-11.5 -26.5q27 9 42 9q63 0 92 -27t29 -87q0 -114 -135 -114q-72 0 -103.5 41.5zM166 581q0 24 -23 24q-17 0 -29 -6q0 -25 5.5 -34t22.5 -9
q24 0 24 25z" />
    <glyph glyph-name="uni2077" unicode="&#x2077;" horiz-adv-x="280" 
d="M20 490l84 159v7h-81v134h241v-117l-88 -206z" />
    <glyph glyph-name="uni2078" unicode="&#x2078;" horiz-adv-x="323" 
d="M6 553q0 23 8 41t18 27q7 6 31 20q-29 17 -40 34.5t-11 52.5q0 99 149 99q77 0 113 -21.5t36 -77.5q0 -35 -11 -52.5t-40 -35.5q34 -17 45.5 -34.5t11.5 -55.5t-21.5 -63t-55.5 -33t-78 -8q-155 0 -155 107zM169 682q10 12 10 32q0 21 -17 21q-18 0 -18 -25q0 -11 10 -28
h15zM183 565q0 17 -14 33h-15q-15 -13 -15 -35q0 -23 22 -23t22 25z" />
    <glyph glyph-name="uni2079" unicode="&#x2079;" horiz-adv-x="292" 
d="M38 474l-21 4l8 88q65 -9 97 -9q30 0 39.5 8t11.5 28q-27 -9 -43 -9q-62 0 -92 28.5t-30 90.5q0 119 136 119q74 0 107.5 -43.5t33.5 -139.5q0 -93 -37.5 -135.5t-109.5 -42.5q-38 0 -100 13zM173 683q0 26 -5.5 35t-23.5 9q-24 0 -24 -25q0 -26 23 -26q13 0 30 7z" />
    <glyph glyph-name="uni2080" unicode="&#x2080;" horiz-adv-x="293" 
d="M4 0zM232.5 217q30.5 -17 43.5 -55t13 -104t-13.5 -104t-44 -55.5t-84.5 -17.5t-85 17.5t-44.5 55.5t-13.5 104q0 65 13.5 103t45 55.5t85.5 17.5t84.5 -17zM161 3q4 16 4 55q0 38 -4 54.5t-14 16.5t-14 -16.5t-4 -54.5q0 -40 4 -55.5t14 -15.5t14 16z" />
    <glyph glyph-name="uni2081" unicode="&#x2081;" horiz-adv-x="280" 
d="M0 0zM91 64l-33 -22l-63 92l110 78h120v-312h-134v164z" />
    <glyph glyph-name="uni2082" unicode="&#x2082;" horiz-adv-x="280" 
d="M15 13l63 41q43 28 43 39q-2 0 -9 0.5t-20 0.5l-70 -4l-6 127q98 7 139 7q108 0 108 -88q0 -48 -11.5 -70.5t-40.5 -39.5l-22 -6h72v-120h-246v113z" />
    <glyph glyph-name="uni2083" unicode="&#x2083;" horiz-adv-x="350" 
d="M33 0zM54 -133l-21 4l3 101q68 -6 92 -6q31 0 41 2.5t10 17.5q0 17 -31 18h-82v102h77q31 0 31 18t-40 18l-95 -5l-3 99q73 16 115 16q88 0 125.5 -24.5t37.5 -85.5q0 -31 -8 -48t-28 -31q23 -18 32 -34.5t9 -45.5q0 -70 -36.5 -99t-117.5 -29q-48 0 -111 12z" />
    <glyph glyph-name="uni2084" unicode="&#x2084;" horiz-adv-x="299" 
d="M151 -81h-138v82l46 212h133l-66 -199h25v46l124 16v-62h12v-95h-12v-41h-124v41z" />
    <glyph glyph-name="uni2085" unicode="&#x2085;" horiz-adv-x="288" 
d="M16 0zM38 -98l-22 5l9 81q63 -10 111 -10q22 0 22 13q0 14 -21 14l-39 -6l-73 9l7 211h231v-98h-145l-3 -22q25 7 50 7q61 0 85.5 -22t24.5 -83q0 -60 -32 -86.5t-96 -26.5q-46 0 -109 14z" />
    <glyph glyph-name="uni2086" unicode="&#x2086;" horiz-adv-x="284" 
d="M7 0zM38.5 -70.5q-31.5 41.5 -31.5 134.5q0 88 36 128.5t105 40.5q31 0 93 -12l19 -4l-8 -84q-61 8 -87 8q-30 0 -39.5 -7.5t-11.5 -26.5q27 9 42 9q63 0 92 -27t29 -87q0 -114 -135 -114q-72 0 -103.5 41.5zM166 3q0 24 -23 24q-17 0 -29 -6q0 -25 5.5 -34t22.5 -9
q24 0 24 25z" />
    <glyph glyph-name="uni2087" unicode="&#x2087;" horiz-adv-x="280" 
d="M20 0zM20 -88l84 159v7h-81v134h241v-117l-88 -206z" />
    <glyph glyph-name="uni2088" unicode="&#x2088;" horiz-adv-x="323" 
d="M6 0zM6 -25q0 23 8 41t18 27q7 6 31 20q-29 17 -40 34.5t-11 52.5q0 99 149 99q77 0 113 -21.5t36 -77.5q0 -35 -11 -52.5t-40 -35.5q34 -17 45.5 -34.5t11.5 -55.5t-21.5 -63t-55.5 -33t-78 -8q-155 0 -155 107zM169 104q10 12 10 32q0 21 -17 21q-18 0 -18 -25
q0 -11 10 -28h15zM183 -13q0 17 -14 33h-15q-15 -13 -15 -35q0 -23 22 -23t22 25z" />
    <glyph glyph-name="uni2089" unicode="&#x2089;" horiz-adv-x="292" 
d="M8 0zM38 -104l-21 4l8 88q65 -9 97 -9q30 0 39.5 8t11.5 28q-27 -9 -43 -9q-62 0 -92 28.5t-30 90.5q0 119 136 119q74 0 107.5 -43.5t33.5 -139.5q0 -93 -37.5 -135.5t-109.5 -42.5q-38 0 -100 13zM173 105q0 26 -5.5 35t-23.5 9q-24 0 -24 -25q0 -26 23 -26q13 0 30 7z
" />
    <glyph glyph-name="Euro" unicode="&#x20ac;" 
d="M164.5 30q-56.5 43 -76.5 134h-65v129h52v47h-52v129h61q12 78 40 122t78 63t132 19q71 0 201 -29l-5 -137q-87 12 -146 12q-46 0 -66.5 -2.5t-32 -13t-21.5 -34.5h201v-129h-211v-47h211v-129h-193q13 -16 32 -19.5t73 -3.5q53 0 153 10l3 -140q-102 -24 -217 -24
q-95 0 -151.5 43z" />
    <glyph glyph-name="trademark" unicode="&#x2122;" horiz-adv-x="649" 
d="M138 555h-65v98h200v-98h-25v-223h-110v223zM294 653h123l25 -124l27 124h124v-322h-102v141l-13 -116h-63l-19 116v-141h-102v322z" />
    <glyph glyph-name="uni2126" unicode="&#x2126;" 
d="M57 137h51q-31 22 -56 89t-25 165q0 148 61 215t192 67t192 -67t61 -215q0 -98 -24.5 -165t-55.5 -89h50v-146h-215v127q23 34 42 96.5t19 131.5q0 71 -5.5 107.5t-20 51t-43.5 14.5t-43.5 -14.5t-20 -50.5t-5.5 -108q0 -69 19 -131.5t42 -96.5v-127h-215v146z" />
    <glyph glyph-name="partialdiff" unicode="&#x2202;" 
d="M74.5 47q-58.5 56 -58.5 172q0 108 58 166t167 58q55 0 91 -15l11 -5q-5 56 -16 83.5t-33 38t-64 10.5q-30 0 -68.5 -6.5t-60.5 -13.5l-23 -6l-4 131q50 24 89.5 32.5t95.5 8.5q142 0 206.5 -88.5t64.5 -272.5q0 -123 -27.5 -199.5t-88 -113t-160.5 -36.5
q-121 0 -179.5 56zM322 170q21 33 21 111q-10 16 -82 16q-29 0 -43.5 -18.5t-14.5 -60.5t13 -61.5t40 -19.5q45 0 66 33z" />
    <glyph glyph-name="uni2206" unicode="&#x2206;" 
d="M38 135l101 525h285l99 -527v-133h-485v135zM353 146l-58 371h-27l-60 -371h145z" />
    <glyph glyph-name="product" unicode="&#x220f;" 
d="M73 609h-41v155h498v-155h-48v-800h-178v800h-51v-800h-180v800z" />
    <glyph glyph-name="summation" unicode="&#x2211;" 
d="M21 -27l218 318l-218 306v168h520v-155h-330v-10l187 -249v-119l-187 -261v-8h330v-154h-520v164z" />
    <glyph glyph-name="minus" unicode="&#x2212;" 
d="M59 328h442v-154h-442v154z" />
    <glyph glyph-name="radical" unicode="&#x221a;" 
d="M50 281h-51v155h195l68 -415h15l121 779h176l-168 -926h-276z" />
    <glyph glyph-name="infinity" unicode="&#x221e;" 
d="M498.5 421q36.5 -42 36.5 -129q0 -171 -148 -171q-33 0 -61.5 15.5t-45.5 43.5q-19 -25 -49 -42t-58 -17q-148 0 -148 171q0 87 36.5 129t109.5 42q33 0 62 -15.5t47 -43.5q18 28 47 43.5t62 15.5q73 0 109.5 -42zM380 292q0 24 -20 24q-2 0 -9.5 -11.5t-13.5 -12.5
q11 -10 16 -17t7 -7q20 0 20 24zM208.5 272.5q3.5 4.5 7.5 14t7 5.5q-17 22 -24 24q-19 0 -19 -24t20 -24q5 0 8.5 4.5z" />
    <glyph glyph-name="integral" unicode="&#x222b;" 
d="M148 -199l-44 8l4 141q22 -2 40 -2q23 0 30 7t7 27v622q0 69 14 107t48 54.5t96 16.5q18 0 93 -15l20 -3l-4 -140q-19 3 -54 3q-23 0 -28.5 -4.5t-5.5 -19.5v-626q0 -87 -40.5 -135t-116.5 -49q-18 0 -59 8z" />
    <glyph glyph-name="approxequal" unicode="&#x2248;" 
d="M276 278q-79 16 -102 16q-18 0 -49 -9.5t-44 -15.5l-17 -9l-8 137q17 15 60 33t70 18q29 0 103 -16q76 -16 98 -16q42 0 91 25l17 7l7 -137q-22 -22 -66 -42q-22 -7 -49 -7q-32 0 -111 16zM276 34q-79 16 -102 16q-18 0 -49.5 -9t-43.5 -15l-17 -9l-8 137q17 15 60 33
t70 18q31 0 103 -17q76 -16 98 -16q39 0 91 25l17 8l7 -138q-23 -23 -66 -41q-25 -8 -49 -8q-32 0 -111 16z" />
    <glyph glyph-name="notequal" unicode="&#x2260;" 
d="M69 -22l37 84h-54v156h123l29 68h-152v155h220l68 154l134 -53l-45 -101h75v-155h-143l-30 -68h173v-156h-242l-61 -137z" />
    <glyph glyph-name="lessequal" unicode="&#x2264;" 
d="M67 267v148l420 114v-167l-230 -14l230 -16v-166zM67 117h420v-155h-420v155z" />
    <glyph glyph-name="greaterequal" unicode="&#x2265;" 
d="M74 332l230 16l-230 14v167l420 -114v-148l-420 -101v166zM74 -38v155h420v-155h-420z" />
    <glyph glyph-name="lozenge" unicode="&#x25ca;" 
d="M515 324l-148 -324h-175l-149 324l149 336h175zM344 325l-65 153l-65 -153l65 -145z" />
    <glyph glyph-name="uniF6BE" unicode="&#xf6be;" horiz-adv-x="286" 
d="M-24 -108q38 29 54.5 47t21 36.5t4.5 55.5v469h174v-470q0 -74 -15.5 -117.5t-54 -76t-116.5 -71.5z" />
    <glyph glyph-name="uniF6C3" unicode="&#xf6c3;" horiz-adv-x="0" 
d="M-144 -76h167l-58 -252h-159z" />
    <glyph glyph-name="DLE" horiz-adv-x="0" 
 />
    <glyph glyph-name="zero.pnum" horiz-adv-x="539" 
d="M136 15q-52 24 -77.5 79.5t-25.5 148.5q0 266 236 266q237 0 237 -267q0 -136 -57.5 -193.5t-179.5 -57.5q-81 0 -133 24zM314 147.5q16 9.5 23.5 35.5t7.5 77q0 55 -18.5 78.5t-57.5 23.5q-42 0 -58.5 -25t-16.5 -90q0 -44 7 -67.5t23 -32.5t45 -9t45 9.5z" />
    <glyph glyph-name="one.pnum" horiz-adv-x="424" 
d="M205 312l-143 -68l-58 130l229 126h133v-500h-161v312z" />
    <glyph glyph-name="two.pnum" horiz-adv-x="496" 
d="M39 140l97 57q20 16 71 52q43 30 59.5 45.5t16.5 32.5q0 18 -16 22.5t-43 4.5q-35 0 -105 -5.5t-70 -6.5l-10 148q136 19 211 19q208 0 208 -153q0 -42 -13 -71t-42.5 -55.5t-88.5 -65.5l-38 -16h184v-148h-421v140z" />
    <glyph glyph-name="three.pnum" horiz-adv-x="480" 
d="M62 9l-35 5l19 148q97 -8 176 -8q35 0 48 1t15 3.5t2 11.5q0 2 -14 4.5t-40 1.5h-136v141h135q24 -1 32 3.5t8 15.5q0 8 -10.5 13.5t-32.5 5.5q-21 0 -117 -4l-35 -2l-26 -3l-16 144q119 20 210 20q188 0 188 -123q0 -46 -13.5 -72t-37.5 -48q66 -36 66 -109
q0 -83 -56 -125t-151 -42q-64 0 -179 18z" />
    <glyph glyph-name="four.pnum" horiz-adv-x="491" 
d="M271 75h-247v113l106 312h173l-102 -271h70v102h161v-102h33v-154h-33v-62h-161v62z" />
    <glyph glyph-name="five.pnum" horiz-adv-x="517" 
d="M63 19l-37 9l19 148q131 -27 211 -27q52 0 52 3q0 22 -68 22q-20 0 -54 -9l-11 -2l-129 23l25 319h395v-172h-249l-10 -15q27 9 65 9q103 0 158.5 -43t55.5 -123q0 -78 -59.5 -124t-168.5 -46q-87 0 -195 28z" />
    <glyph glyph-name="six.pnum" horiz-adv-x="523" 
d="M88 52.5q-55 62.5 -55 199.5q0 132 66.5 194.5t173.5 62.5q97 0 172 -11l25 -4l-12 -133q-140 7 -184 7q-41 0 -60 -16.5t-19 -43.5q59 21 102 21q201 0 201 -172q0 -51 -31 -89t-87 -58t-128 -20q-109 0 -164 62.5zM337 157q0 8 -18.5 14.5t-51.5 6.5h-60h-12
q3 -47 75 -47q67 0 67 26z" />
    <glyph glyph-name="seven.pnum" horiz-adv-x="428" 
d="M81 27l171 307v25h-230v140h383v-165l-187 -343z" />
    <glyph glyph-name="eight.pnum" horiz-adv-x="498" 
d="M93.5 29q-62.5 39 -62.5 111q0 78 64 120q-50 44 -50 106q0 70 54 106.5t149 36.5q94 0 149.5 -36.5t55.5 -105.5q0 -62 -48 -107q62 -41 62 -123q0 -70 -62.5 -108.5t-155.5 -38.5t-155.5 39zM274 311q8 6 13 17t5 21q0 6 -10.5 13.5t-31.5 7.5t-32.5 -9t-11.5 -16
t7 -17.5t16 -16.5h45zM291 137q15 8 15 19q0 9 -8 18.5t-24 17.5h-45q-16 -8 -26.5 -18.5t-10.5 -15.5q0 -13 14.5 -21t41.5 -8q28 0 43 8z" />
    <glyph glyph-name="nine.pnum" horiz-adv-x="486" 
d="M66 11l-18 5l16 131q65 -12 161 -12q29 0 48 16.5t19 40.5q-35 -7 -70 -7q-100 0 -147 37.5t-47 115.5q0 81 57 126.5t152 45.5q218 0 218 -259q0 -133 -62.5 -196.5t-167.5 -63.5q-101 0 -159 20zM272 325q12 2 10 4q1 19 -13 29.5t-39 10.5q-23 0 -32 -5.5t-9 -21.5
q0 -19 57 -19q14 0 26 2z" />
    <glyph glyph-name="questiondown.cap" horiz-adv-x="416" 
d="M325 478h-185v194h185v-194zM339 332q0 -9 -12 -25t-30 -28q-2 -2 -22 -16q-40 -29 -57.5 -47t-17.5 -39q0 -17 14 -27t39 -10q68 0 137 12l8 -128q-76 -38 -192 -38q-91 0 -139 39.5t-48 113.5q0 60 6 93t21.5 55t48.5 45q31 19 47.5 37.5t16.5 45.5v28h137
q43 -39 43 -111z" />
    <glyph glyph-name="endash.cap" horiz-adv-x="608" 
d="M51 222zM51 368h500v-146h-500v146z" />
    <glyph glyph-name="emdash.cap" horiz-adv-x="1108" 
d="M51 222zM51 368h1000v-146h-1000v146z" />
    <glyph glyph-name="periodcentered.cap" horiz-adv-x="283" 
d="M49 424h185v-201h-185v201z" />
    <glyph glyph-name="exclamdown.cap" horiz-adv-x="302" 
d="M243 674v-194h-185v194h185zM226 409l20 -407h-189l19 407h150z" />
    <glyph glyph-name="parenleft.cap" horiz-adv-x="337" 
d="M29 0zM97 3.5q-29 73.5 -48.5 163.5t-19.5 163q0 120 37 246t87 204h164q-32 -79 -63.5 -221.5t-31.5 -223.5q0 -99 24.5 -203.5t70.5 -226.5h-164q-27 25 -56 98.5z" />
    <glyph glyph-name="parenright.cap" horiz-adv-x="337" 
d="M20 0zM20 -90q96 248 96 431q0 76 -32 222.5t-64 221.5h164q55 -93 89.5 -215t34.5 -235q0 -75 -19.5 -165.5t-48.5 -163t-56 -96.5h-164z" />
    <glyph glyph-name="bracketleft.cap" horiz-adv-x="372" 
d="M61 779h280v-155h-103v-562h103v-155h-280v872z" />
    <glyph glyph-name="bracketright.cap" horiz-adv-x="372" 
d="M32 -93v155h102v562h-102v155h280v-872h-280z" />
    <glyph glyph-name="braceleft.cap" horiz-adv-x="367" 
d="M205.5 -88q-46.5 17 -67 53t-20.5 97l7 120q0 33 -29.5 57.5t-85.5 38.5v132q55 13 85 34.5t30 49.5l-7 127q0 65 20.5 101.5t66.5 53t129 19.5l-1 -147q-26 -4 -36.5 -13.5t-10.5 -27.5l7 -132q0 -45 -8 -67.5t-32 -36.5t-76 -26q50 -11 75 -27.5t34 -42.5t9 -72
l-7 -117q0 -21 9 -33t33 -14l1 -147q-79 3 -125.5 20z" />
    <glyph glyph-name="braceright.cap" horiz-adv-x="369" 
d="M37 33q24 3 33 14.5t9 32.5l-7 118q0 46 9 72t34 42.5t75 27.5q-52 11 -76 25t-32 37t-8 68l7 131q0 19 -10.5 28.5t-36.5 13.5l-1 147q83 -3 129 -19.5t66.5 -53t20.5 -102.5l-7 -126q0 -28 30 -49.5t85 -34.5v-133q-55 -13 -85 -37.5t-30 -57.5l7 -120q0 -61 -20.5 -97
t-67 -53t-125.5 -20z" />
    <glyph glyph-name="grave.cap" horiz-adv-x="289" 
d="M8 798l51 156l276 -110l-39 -119z" />
    <glyph glyph-name="acute.cap" horiz-adv-x="289" 
d="M-6 844l276 110l51 -156l-288 -73z" />
    <glyph glyph-name="circumflex.cap" horiz-adv-x="502" 
d="M138 906h152l134 -158h-181l-27 40l-31 -40h-181z" />
    <glyph glyph-name="caron.cap" horiz-adv-x="289" 
d="M-53 906h180l32 -40l27 40h180l-134 -158h-151z" />
    <glyph glyph-name="tilde.cap" horiz-adv-x="289" 
d="M154 748l-25 7q-47 14 -54 14q-24 0 -71 -30l-14 -8l-37 122q23 28 57.5 48t67.5 20q31 0 94 -20t73 -20q25 0 73 30l15 9l37 -124q-1 -1 -38.5 -34.5t-84.5 -33.5q-28 0 -93 20z" />
    <glyph glyph-name="dieresis.cap" horiz-adv-x="289" 
d="M-55 895h164v-160h-164v160zM169 895h165v-160h-165v160z" />
    <glyph glyph-name="macron.cap" horiz-adv-x="289" 
d="M-27 887h371v-125h-371v125z" />
    <glyph glyph-name="breve.cap" horiz-adv-x="289" 
d="M-36 905h156q12 -45 50 -45q20 0 33 12.5t18 32.5h155q-27 -165 -207 -165q-178 0 -205 165z" />
    <glyph glyph-name="ring.cap" horiz-adv-x="289" 
d="M39 578q-49 37 -49 102q0 67 48.5 103.5t121.5 36.5q74 0 123 -36.5t49 -103.5q0 -65 -49.5 -102t-122.5 -37q-72 0 -121 37zM200 656.5q17 8.5 17 23.5q0 16 -16.5 24.5t-40.5 8.5q-22 0 -39.5 -9t-17.5 -24t17 -23.5t40 -8.5t40 8.5z" />
    <glyph glyph-name="hungarumlaut.cap" horiz-adv-x="289" 
d="M-12 770l17 240l158 -46l-34 -233zM204 768l17 241l156 -46l-32 -233z" />
    <glyph glyph-name="dotaccent.cap" horiz-adv-x="289" 
d="M58 911h174v-167h-174v167z" />
    <glyph glyph-name="zero.numr" horiz-adv-x="293" 
d="M4 359zM232.5 695q30.5 -17 43.5 -55t13 -104t-13.5 -104t-44 -55.5t-84.5 -17.5t-85 17.5t-44.5 55.5t-13.5 104q0 65 13.5 103t45 55.5t85.5 17.5t84.5 -17zM161 481q4 16 4 55q0 38 -4 54.5t-14 16.5t-14 -16.5t-4 -54.5q0 -40 4 -55.5t14 -15.5t14 16z" />
    <glyph glyph-name="one.numr" horiz-adv-x="280" 
d="M0 378zM91 542l-33 -22l-63 92l110 78h120v-312h-134v164z" />
    <glyph glyph-name="two.numr" horiz-adv-x="280" 
d="M15 378zM15 491l63 41q43 28 43 39q-2 0 -9 0.5t-20 0.5l-70 -4l-6 127q98 7 139 7q108 0 108 -88q0 -48 -11.5 -70.5t-40.5 -39.5l-22 -6h72v-120h-246v113z" />
    <glyph glyph-name="three.numr" horiz-adv-x="350" 
d="M33 333zM54 345l-21 4l3 101q68 -6 92 -6q31 0 41 2.5t10 17.5q0 17 -31 18h-82v102h77q31 0 31 18t-40 18l-95 -5l-3 99q73 16 115 16q88 0 125.5 -24.5t37.5 -85.5q0 -31 -8 -48t-28 -31q23 -18 32 -34.5t9 -45.5q0 -70 -36.5 -99t-117.5 -29q-48 0 -111 12z" />
    <glyph glyph-name="four.numr" horiz-adv-x="299" 
d="M13 356zM151 397h-138v82l46 212h133l-66 -199h25v46l124 16v-62h12v-95h-12v-41h-124v41z" />
    <glyph glyph-name="five.numr" horiz-adv-x="288" 
d="M16 366zM38 380l-22 5l9 81q63 -10 111 -10q22 0 22 13q0 14 -21 14l-39 -6l-73 9l7 211h231v-98h-145l-3 -22q25 7 50 7q61 0 85.5 -22t24.5 -83q0 -60 -32 -86.5t-96 -26.5q-46 0 -109 14z" />
    <glyph glyph-name="six.numr" horiz-adv-x="284" 
d="M7 366zM38.5 407.5q-31.5 41.5 -31.5 134.5q0 88 36 128.5t105 40.5q31 0 93 -12l19 -4l-8 -84q-61 8 -87 8q-30 0 -39.5 -7.5t-11.5 -26.5q27 9 42 9q63 0 92 -27t29 -87q0 -114 -135 -114q-72 0 -103.5 41.5zM166 481q0 24 -23 24q-17 0 -29 -6q0 -25 5.5 -34t22.5 -9
q24 0 24 25z" />
    <glyph glyph-name="seven.numr" horiz-adv-x="280" 
d="M20 367zM20 390l84 159v7h-81v134h241v-117l-88 -206z" />
    <glyph glyph-name="eight.numr" horiz-adv-x="323" 
d="M6 346zM6 453q0 23 8 41t18 27q7 6 31 20q-29 17 -40 34.5t-11 52.5q0 99 149 99q77 0 113 -21.5t36 -77.5q0 -35 -11 -52.5t-40 -35.5q34 -17 45.5 -34.5t11.5 -55.5t-21.5 -63t-55.5 -33t-78 -8q-155 0 -155 107zM169 582q10 12 10 32q0 21 -17 21q-18 0 -18 -25
q0 -11 10 -28h15zM183 465q0 17 -14 33h-15q-15 -13 -15 -35q0 -23 22 -23t22 25z" />
    <glyph glyph-name="nine.numr" horiz-adv-x="292" 
d="M8 361zM38 374l-21 4l8 88q65 -9 97 -9q30 0 39.5 8t11.5 28q-27 -9 -43 -9q-62 0 -92 28.5t-30 90.5q0 119 136 119q74 0 107.5 -43.5t33.5 -139.5q0 -93 -37.5 -135.5t-109.5 -42.5q-38 0 -100 13zM173 583q0 26 -5.5 35t-23.5 9q-24 0 -24 -25q0 -26 23 -26q13 0 30 7
z" />
    <glyph glyph-name="zero.slash" 
d="M80 74q-66 84 -66 259q0 176 66 259.5t200 83.5q136 0 201.5 -83.5t65.5 -259.5t-65.5 -259.5t-201.5 -83.5q-134 0 -200 84zM344.5 188q18.5 43 18.5 145q0 103 -18.5 146t-64.5 43t-64.5 -43t-18.5 -146q0 -102 18.5 -145t64.5 -43t64.5 43zM250 374h55v-102h-55v102z
" />
    <glyph glyph-name="at.cap" horiz-adv-x="965" 
d="M29 0zM302.5 -226q-84.5 24 -147.5 76q-126 111 -126 374q0 147 59.5 253.5t167.5 162.5t250 56q141 0 240.5 -50.5t152 -146.5t52.5 -231v-5q0 -139 -53 -217.5t-154 -78.5q-45 0 -83 14.5t-58 38.5q-69 -54 -130 -54q-103 0 -149 64.5t-46 190.5q0 123 43 181t140 58
q31 0 62 -18l13 -7v11h174v-171q0 -117 2 -124q1 -21 6 -30t19 -9q26 0 34 37.5t8 113.5v6q0 142 -67.5 208t-208.5 66q-93 0 -160.5 -40.5t-104 -115.5t-36.5 -175q0 -155 70 -232t230 -77l143 8l7 -150q-80 -11 -150 -11q-115 0 -199.5 24zM540 130q-4 32 -4 61v113
q-20 3 -33 3q-22 0 -32 -7.5t-13.5 -25.5t-3.5 -55q0 -100 34 -100q36 0 52 11z" />
    <glyph glyph-name="zero.dnom" horiz-adv-x="293" 
d="M4 0zM232.5 317q30.5 -17 43.5 -55t13 -104t-13.5 -104t-44 -55.5t-84.5 -17.5t-85 17.5t-44.5 55.5t-13.5 104q0 65 13.5 103t45 55.5t85.5 17.5t84.5 -17zM161 103q4 16 4 55q0 38 -4 54.5t-14 16.5t-14 -16.5t-4 -54.5q0 -40 4 -55.5t14 -15.5t14 16z" />
    <glyph glyph-name="one.dnom" horiz-adv-x="280" 
d="M0 0zM91 164l-33 -22l-63 92l110 78h120v-312h-134v164z" />
    <glyph glyph-name="two.dnom" horiz-adv-x="280" 
d="M15 0zM15 113l63 41q43 28 43 39q-2 0 -9 0.5t-20 0.5l-70 -4l-6 127q98 7 139 7q108 0 108 -88q0 -48 -11.5 -70.5t-40.5 -39.5l-22 -6h72v-120h-246v113z" />
    <glyph glyph-name="three.dnom" horiz-adv-x="350" 
d="M33 0zM54 -33l-21 4l3 101q68 -6 92 -6q31 0 41 2.5t10 17.5q0 17 -31 18h-82v102h77q31 0 31 18t-40 18l-95 -5l-3 99q73 16 115 16q88 0 125.5 -24.5t37.5 -85.5q0 -31 -8 -48t-28 -31q23 -18 32 -34.5t9 -45.5q0 -70 -36.5 -99t-117.5 -29q-48 0 -111 12z" />
    <glyph glyph-name="four.dnom" horiz-adv-x="299" 
d="M13 0zM151 19h-138v82l46 212h133l-66 -199h25v46l124 16v-62h12v-95h-12v-41h-124v41z" />
    <glyph glyph-name="five.dnom" horiz-adv-x="288" 
d="M16 0zM38 2l-22 5l9 81q63 -10 111 -10q22 0 22 13q0 14 -21 14l-39 -6l-73 9l7 211h231v-98h-145l-3 -22q25 7 50 7q61 0 85.5 -22t24.5 -83q0 -60 -32 -86.5t-96 -26.5q-46 0 -109 14z" />
    <glyph glyph-name="six.dnom" horiz-adv-x="284" 
d="M7 0zM38.5 29.5q-31.5 41.5 -31.5 134.5q0 88 36 128.5t105 40.5q31 0 93 -12l19 -4l-8 -84q-61 8 -87 8q-30 0 -39.5 -7.5t-11.5 -26.5q27 9 42 9q63 0 92 -27t29 -87q0 -114 -135 -114q-72 0 -103.5 41.5zM166 103q0 24 -23 24q-17 0 -29 -6q0 -25 5.5 -34t22.5 -9
q24 0 24 25z" />
    <glyph glyph-name="seven.dnom" horiz-adv-x="280" 
d="M20 0zM20 12l84 159v7h-81v134h241v-117l-88 -206z" />
    <glyph glyph-name="eight.dnom" horiz-adv-x="323" 
d="M6 0zM6 75q0 23 8 41t18 27q7 6 31 20q-29 17 -40 34.5t-11 52.5q0 99 149 99q77 0 113 -21.5t36 -77.5q0 -35 -11 -52.5t-40 -35.5q34 -17 45.5 -34.5t11.5 -55.5t-21.5 -63t-55.5 -33t-78 -8q-155 0 -155 107zM169 204q10 12 10 32q0 21 -17 21q-18 0 -18 -25
q0 -11 10 -28h15zM183 87q0 17 -14 33h-15q-15 -13 -15 -35q0 -23 22 -23t22 25z" />
    <glyph glyph-name="nine.dnom" horiz-adv-x="292" 
d="M8 0zM38 -4l-21 4l8 88q65 -9 97 -9q30 0 39.5 8t11.5 28q-27 -9 -43 -9q-62 0 -92 28.5t-30 90.5q0 119 136 119q74 0 107.5 -43.5t33.5 -139.5q0 -93 -37.5 -135.5t-109.5 -42.5q-38 0 -100 13zM173 205q0 26 -5.5 35t-23.5 9q-24 0 -24 -25q0 -26 23 -26q13 0 30 7z
" />
    <glyph glyph-name="hyphen.cap" horiz-adv-x="388" 
d="M48 212zM48 368h291v-156h-291v156z" />
    <glyph glyph-name="uni0621" unicode="&#x621;" horiz-adv-x="525" 
d="M498 77l-427 -77l-23 102l91 24q-29 29 -43 63.5t-14 71.5q0 47 22 89t62.5 67.5t92.5 25.5q36 0 70 -9.5t58.5 -22.5t30.5 -20l-26 -114q-10 7 -31 14.5t-42 7.5q-36 0 -59 -24.5t-23 -57.5t24 -60l206 54z" />
    <glyph glyph-name="uni0627" unicode="&#x627;" horiz-adv-x="335" 
d="M73 688h172v-688h-172v688z" />
    <glyph glyph-name="uni0627.short" horiz-adv-x="335" 
d="M73 602h172v-602h-172v602z" />
    <glyph glyph-name="uniFE8E.short" horiz-adv-x="346" 
d="M346 157v-157h-273v602h172v-445h101z" />
    <glyph glyph-name="uni0623" unicode="&#x623;" horiz-adv-x="335" 
d="M34 0zM73 602h172v-602h-172v602zM275 713l-229 -45l-12 57l44 11q-42 36 -42 88q0 44 31.5 76t81.5 32q38 0 81 -24l-15 -75q-17 14 -39 14q-21 0 -34 -14t-13 -33q0 -30 25 -44l105 28z" />
    <glyph glyph-name="uni0625" unicode="&#x625;" horiz-adv-x="335" 
d="M32 0zM73 688h172v-688h-172v688zM273 -276l-229 -45l-12 57l44 12q-21 17 -31.5 40t-10.5 47q0 44 31.5 76t81.5 32q41 0 82 -24l-15 -74q-6 4 -16.5 8.5t-23.5 4.5q-21 0 -34 -14t-13 -33q0 -13 6.5 -24.5t19.5 -18.5l104 27z" />
    <glyph glyph-name="uni0622" unicode="&#x622;" horiz-adv-x="335" 
d="M24 0zM73 602h172v-602h-172v602zM189 673.5q-27 10.5 -33 12.5q-7 4 -26.5 12t-24.5 8q-6 0 -20 -11.5t-14 -10.5l-17 -18l-30 97q42 44 84 44q19 0 46 -10.5t31 -12.5q45 -20 48 -20q6 0 32 22l17 17l31 -98q-42 -42 -81 -42q-16 0 -43 10.5z" />
    <glyph glyph-name="uni0671" unicode="&#x671;" horiz-adv-x="335" 
d="M37 0zM73 602h172v-602h-172v602zM37 745h37q0 25 16.5 54t44.5 48.5t59 19.5q40 0 63 -31t23 -91v-76h-243v76zM220 745q0 31 -7 45t-27 14q-25 0 -44.5 -18.5t-19.5 -40.5h98z" />
    <glyph glyph-name="uni066E" unicode="&#x66e;" horiz-adv-x="893" 
d="M830 500v-500h-472q-85 0 -147 11t-109.5 57.5t-47.5 144.5q0 44 9.5 94.5t21.5 87.5l140 -8q1 11 -7 -61q-7 -59 -7 -73q0 -35 25.5 -65.5t95.5 -30.5h326v343h172z" />
    <glyph glyph-name="uni0628" unicode="&#x628;" horiz-adv-x="893" 
d="M54 0zM830 500v-500h-472q-85 0 -147 11t-109.5 57.5t-47.5 144.5q0 44 9.5 94.5t21.5 87.5l140 -8q1 11 -7 -61q-7 -59 -7 -73q0 -35 25.5 -65.5t95.5 -30.5h326v343h172zM368 -80h155v-161h-155v161z" />
    <glyph glyph-name="uni067E" unicode="&#x67e;" horiz-adv-x="893" 
d="M54 0zM830 500v-500h-472q-85 0 -147 11t-109.5 57.5t-47.5 144.5q0 44 9.5 94.5t21.5 87.5l140 -8q1 11 -7 -61q-7 -59 -7 -73q0 -35 25.5 -65.5t95.5 -30.5h326v343h172zM300 -80h121v-144h-121v144zM470 -80h121v-144h-121v144zM391 -240h110v-132h-110v132z" />
    <glyph glyph-name="uni062A" unicode="&#x62a;" horiz-adv-x="893" 
d="M54 0zM830 500v-500h-472q-85 0 -147 11t-109.5 57.5t-47.5 144.5q0 44 9.5 94.5t21.5 87.5l140 -8q1 11 -7 -61q-7 -59 -7 -73q0 -35 25.5 -65.5t95.5 -30.5h326v343h172zM299 652h121v-152h-121v152zM469 652h121v-152h-121v152z" />
    <glyph glyph-name="uni062B" unicode="&#x62b;" horiz-adv-x="893" 
d="M54 0zM830 500v-500h-472q-85 0 -147 11t-109.5 57.5t-47.5 144.5q0 44 9.5 94.5t21.5 87.5l140 -8q1 11 -7 -61q-7 -59 -7 -73q0 -35 25.5 -65.5t95.5 -30.5h326v343h172zM391 792h110v-132h-110v132zM300 644h121v-144h-121v144zM470 644h121v-144h-121v144z" />
    <glyph glyph-name="uni0679" unicode="&#x679;" horiz-adv-x="893" 
d="M54 0zM830 500v-500h-472q-85 0 -147 11t-109.5 57.5t-47.5 144.5q0 44 9.5 94.5t21.5 87.5l140 -8q1 11 -7 -61q-7 -59 -7 -73q0 -35 25.5 -65.5t95.5 -30.5h326v343h172zM548 677q27 -27 27 -71v-106h-246v68h5v228h56v-159q17 31 45 49t53 18q33 0 60 -27zM432 633.5
q-19 -11.5 -30.5 -28t-11.5 -32.5v-5h134v38q0 16 -15.5 27.5t-36.5 11.5t-40 -11.5z" />
    <glyph glyph-name="uni062C" unicode="&#x62c;" horiz-adv-x="620" 
d="M327 -313q-30 -3 -57 -3q-108 0 -169 68.5t-61 183.5q0 104 54.5 162t162.5 58q46 0 131 -10v144q0 40 -13.5 58t-54.5 18q-16 -1 -62 -1h-98h-54l-5 111q51 15 130 24.5t138 9.5q74 0 115.5 -19t58 -53.5t17.5 -88.5v-349h-172q-24 3 -48.5 5t-41.5 2q-39 0 -63 -22.5
t-24 -61.5q0 -36 23 -60t70 -24zM388 -55h121v-144h-121v144z" />
    <glyph glyph-name="uni0686" unicode="&#x686;" horiz-adv-x="639" 
d="M217.5 -137q23.5 -24 70.5 -24l22 -152l-21 -1q-24 -2 -36 -2q-108 0 -169 68.5t-61 183.5q0 104 54.5 162t162.5 58q36 0 88 -8q38 -4 43 -4v146q0 40 -13 58t-54 18q-16 -1 -63 -1h-97h-55l-4 111q51 15 130 24.5t137 9.5q75 0 116.5 -19t57.5 -53.5t17 -88.5v-349
h-172q-24 3 -48.5 5t-41.5 2q-39 0 -63 -22.5t-24 -61.5q0 -36 23.5 -60zM377 145q2 0 0 2v-2zM472 -197h-117v137h117v-137zM624 -60v-137h-117v137h117zM436 -217h110v-128h-110v128z" />
    <glyph glyph-name="uni062D" unicode="&#x62d;" horiz-adv-x="620" 
d="M235 -15.5q-24 -22.5 -24 -61.5q0 -36 23 -60t70 -24q24 0 80 4.5t110 12.5l19 -130q-50 -16 -121 -29t-122 -13q-108 0 -169 68.5t-61 183.5q0 104 54.5 162t162.5 58q46 0 131 -11v145q0 40 -13.5 58t-54.5 18q-16 -1 -62 -1h-98h-54l-5 111q51 15 130 24.5t138 9.5
q74 0 115.5 -19t58 -53.5t17.5 -88.5v-349h-172q-52 7 -90 7q-39 0 -63 -22.5z" />
    <glyph glyph-name="uni062E" unicode="&#x62e;" horiz-adv-x="620" 
d="M40 0zM235 -15.5q-24 -22.5 -24 -61.5q0 -36 23 -60t70 -24q24 0 80 4.5t110 12.5l19 -130q-50 -16 -121 -29t-122 -13q-108 0 -169 68.5t-61 183.5q0 104 54.5 162t162.5 58q46 0 131 -11v145q0 40 -13.5 58t-54.5 18q-16 -1 -62 -1h-98h-54l-5 111q51 15 130 24.5
t138 9.5q74 0 115.5 -19t58 -53.5t17.5 -88.5v-349h-172q-52 7 -90 7q-39 0 -63 -22.5zM244 754h155v-161h-155v161z" />
    <glyph glyph-name="uni062F" unicode="&#x62f;" horiz-adv-x="547" 
d="M403 480q62 -44 94.5 -126t32.5 -194v-160h-490v157h318q-3 109 -46 158t-102 49h-115l-13 137q113 23 172 23q87 0 149 -44z" />
    <glyph glyph-name="uni0630" unicode="&#x630;" horiz-adv-x="547" 
d="M40 0zM403 480q62 -44 94.5 -126t32.5 -194v-160h-490v157h318q-3 109 -46 158t-102 49h-115l-13 137q113 23 172 23q87 0 149 -44zM121 781h155v-161h-155v161z" />
    <glyph glyph-name="uni0688" unicode="&#x688;" horiz-adv-x="547" 
d="M40 0zM403 480q62 -44 94.5 -126t32.5 -194v-160h-490v157h318q-3 109 -46 158t-102 49h-115l-13 137q113 23 172 23q87 0 149 -44zM301 797q27 -27 27 -71v-106h-246v68h5v228h56v-159q17 31 45 49t53 18q33 0 60 -27zM185 753.5q-19 -11.5 -30.5 -28t-11.5 -32.5v-5
h134v38q0 16 -15.5 27.5t-36.5 11.5t-40 -11.5z" />
    <glyph glyph-name="uni0631" unicode="&#x631;" horiz-adv-x="333" 
d="M40 -244v155l15 -1q54 0 54 82v509h172v-484q0 -122 -42 -193t-127 -71q-22 0 -72 3z" />
    <glyph glyph-name="uni0632" unicode="&#x632;" horiz-adv-x="333" 
d="M40 0zM40 -244v155l15 -1q54 0 54 82v509h172v-484q0 -122 -42 -193t-127 -71q-22 0 -72 3zM118 754h155v-161h-155v161z" />
    <glyph glyph-name="uni0691" unicode="&#x691;" horiz-adv-x="333" 
d="M40 0zM40 -244v155l15 -1q54 0 54 82v509h172v-484q0 -122 -42 -193t-127 -71q-22 0 -72 3zM298 770q27 -27 27 -71v-106h-246v68h5v228h56v-159q17 31 45 49t53 18q33 0 60 -27zM182 726.5q-19 -11.5 -30.5 -28t-11.5 -32.5v-5h134v38q0 16 -15.5 27.5t-36.5 11.5
t-40 -11.5z" />
    <glyph glyph-name="uni0698" unicode="&#x698;" horiz-adv-x="333" 
d="M40 0zM40 -244v155l15 -1q54 0 54 82v509h172v-484q0 -122 -42 -193t-127 -71q-22 0 -72 3zM141 885h110v-132h-110v132zM50 737h121v-144h-121v144zM220 737h121v-144h-121v144z" />
    <glyph glyph-name="uni0633" unicode="&#x633;" horiz-adv-x="1212" 
d="M1158 278v-278h-219q-36 0 -69.5 12t-46.5 21q-44 -33 -102 -33h-71v-40q0 -40 -27 -87.5t-97.5 -84t-189.5 -36.5q-133 0 -198.5 45.5t-81.5 97.5t-16 105q0 44 13 115.5t34 167.5l162 -9q-21 -103 -32.5 -163.5t-11.5 -87.5q0 -39 26.5 -75.5t108.5 -36.5
q72 0 105 31.5t33 73.5v434h172v-293h11q33 0 53 24t20 65v204h172v-204q0 -40 -8 -80q14 -9 33 -9h55v84l1 54q1 15 1 46q0 53 -8 154l153 7q25 -187 25 -224z" />
    <glyph glyph-name="uni0634" unicode="&#x634;" horiz-adv-x="1212" 
d="M40 0zM1158 278v-278h-219q-36 0 -69.5 12t-46.5 21q-44 -33 -102 -33h-71v-40q0 -40 -27 -87.5t-97.5 -84t-189.5 -36.5q-133 0 -198.5 45.5t-81.5 97.5t-16 105q0 44 13 115.5t34 167.5l162 -9q-21 -103 -32.5 -163.5t-11.5 -87.5q0 -39 26.5 -75.5t108.5 -36.5
q72 0 105 31.5t33 73.5v434h172v-293h11q33 0 53 24t20 65v204h172v-204q0 -40 -8 -80q14 -9 33 -9h55v84l1 54q1 15 1 46q0 53 -8 154l153 7q25 -187 25 -224zM769 885h110v-132h-110v132zM678 737h121v-144h-121v144zM848 737h121v-144h-121v144z" />
    <glyph glyph-name="uni0635" unicode="&#x635;" horiz-adv-x="1221" 
d="M1161 0h-511v-40q0 -40 -27 -87.5t-97 -84t-188 -36.5q-190 0 -244 78.5t-54 161.5q0 39 14.5 126.5t32.5 164.5l164 -9q-46 -200 -46 -252q0 -39 26 -76t109 -37q72 0 105 32.5t33 74.5v484h172v-160q45 56 81.5 91t85.5 57t113 22q126 0 178.5 -77.5t52.5 -181.5v-251z
M773 298q-59 -55 -103 -141h319v58q0 57 -28 97.5t-77 40.5q-52 0 -111 -55z" />
    <glyph glyph-name="uni0636" unicode="&#x636;" horiz-adv-x="1221" 
d="M40 0zM1161 0h-511v-40q0 -40 -27 -87.5t-97 -84t-188 -36.5q-190 0 -244 78.5t-54 161.5q0 39 14.5 126.5t32.5 164.5l164 -9q-46 -200 -46 -252q0 -39 26 -76t109 -37q72 0 105 32.5t33 74.5v484h172v-160q45 56 81.5 91t85.5 57t113 22q126 0 178.5 -77.5t52.5 -181.5
v-251zM773 298q-59 -55 -103 -141h319v58q0 57 -28 97.5t-77 40.5q-52 0 -111 -55zM774 754h155v-161h-155v161z" />
    </font>
</defs>
</svg>
