<?xml version="1.0" standalone="no"?>
<!DOCTYPE svg PUBLIC "-//W3C//DTD SVG 1.1//EN" "http://www.w3.org/Graphics/SVG/1.1/DTD/svg11.dtd" >
<svg>
<metadata>
Created by FontForge 20120731 at Thu Mar 22 10:25:28 2018
 By www-data
Generated by Glyphter
</metadata>
<defs>
<font id="cb7029bdc517c80ab7f0b0d222c19f70d328dcb7" horiz-adv-x="1024" >
  <font-face 
    font-family="cb7029bdc517c80ab7f0b0d222c19f70d328dcb7"
    font-weight="400"
    font-stretch="normal"
    units-per-em="1024"
    panose-1="2 0 5 3 0 0 0 0 0 0"
    ascent="1024"
    descent="0"
    x-height="930"
    cap-height="1012.5"
    bbox="-1 -1 1025 1025.32"
    underline-thickness="0"
    underline-position="10"
    unicode-range="U+0021-007B"
  />
<missing-glyph 
 />
    <glyph glyph-name=".notdef" 
 />
    <glyph glyph-name=".notdef" 
 />
    <glyph glyph-name="exclam" unicode="!" 
d="M512 818q-148 -1 -276.5 -75t-227.5 -206q-8 -12 -8 -25t8 -24q99 -132 227.5 -206t276.5 -75q148 1 276.5 75t227.5 206q8 11 8 24t-8 25q-99 131 -227.5 205.5t-276.5 75.5v0zM526 298q-128 -2 -193 95t-14 215q62 113 178.5 120.5t193.5 -95.5q20 -30 29 -64t7 -70
q-7 -83 -62.5 -138.5t-138.5 -62.5v0zM519 397q-69 -1 -103.5 51.5t-7.5 115.5q34 61 96.5 65t104.5 -52q21 -32 19 -71q-4 -45 -34 -75t-75 -34v0zM519 397z" />
    <glyph glyph-name="quotedbl" unicode="&#x22;" 
d="M426 966v0q181 -3 301 -100t125 -244q-5 -147 -125 -244t-301 -101q-33 0 -66 4q-70 -66 -147 -88t-156 -22v23q44 21 72.5 56.5t29.5 79.5q0 12 -2 24q-72 48 -114 117t-43 151q5 146 125 243.5t301 100.5v0zM884 194q2 -39 23.5 -70t57.5 -46v-19q-68 -1 -131.5 18
t-123.5 76q-29 -4 -58 -4q-59 0 -116 15.5t-109 45.5q94 -1 181.5 28.5t160.5 87.5q68 54 109 131t42 165v27q48 -37 75 -90t29 -114q-3 -72 -39 -132.5t-98 -97.5q-2 -10 -2 -20zM884 194z" />
    <glyph glyph-name="numbersign" unicode="#" 
d="M730 739q-88 144 -195 275q-9 10 -23 10t-23 -10q-106 -131 -195 -275q-140 -232 -140 -380q11 -213 179 -310t358 0q84 49 131.5 131t47.5 179q0 147 -141 380h1zM561 133q-31 -8 -64 -8q-103 3 -172 67t-71 159q2 54 23 104q6 11 18 8.5t11 -14.5l-1 -25
q3 -104 73 -177t181 -86q11 -2 14 -13q-1 -12 -12 -15v0zM561 133z" />
    <glyph glyph-name="dollar" unicode="$" 
d="M972 965h-160h-161q-22 -1 -37 -16t-15 -37v-320q0 -22 15 -37t37 -15h154q1 -54 -13.5 -105t-44.5 -96q-27 -34 -60.5 -59t-73.5 -40q-21 -10 -28 -30t3 -40l37 -80q10 -20 29.5 -27t39.5 1q98 41 176 115q42 39 72.5 87.5t47.5 103.5q38 143 34 291v251q-1 22 -15.5 37
t-36.5 16v0zM972 965zM109 64q98 42 176 115q42 39 72.5 87t48.5 103q37 144 32 292v251q0 22 -15 37t-37 16h-320q-22 -1 -36.5 -16t-14.5 -37v-320q0 -22 15 -37t37 -15h154q1 -54 -13.5 -105t-44.5 -96q-53 -67 -132 -99q-21 -10 -28 -30t3 -40l37 -80q10 -20 29.5 -27
t39.5 1h-3zM109 64z" />
    <glyph glyph-name="percent" unicode="%" 
d="M701 1024h-181h-180q-26 0 -43 -17t-17 -42v-362q0 -25 17 -42t42 -17h174q1 -61 -15.5 -119t-50.5 -109q-29 -37 -67 -65.5t-82 -45.5q-23 -11 -31.5 -34t2.5 -46l42 -91q12 -22 33.5 -30t44.5 1q111 47 199 130q48 45 82.5 100t53.5 117q42 162 37 329v284
q-1 25 -17.5 42t-42.5 17v0zM701 1024z" />
    <glyph glyph-name="ampersand" unicode="&#x26;" 
d="M768 556q-42 28 -337 226l-338 227q-38 24 -63.5 8t-26.5 -65v-878q1 -50 26.5 -66t63.5 10l675 450q10 8 16.5 19t6.5 25t-6.5 25t-16.5 19v0zM881 1024h45h45q21 -1 35.5 -15.5t15.5 -35.5v-922q-1 -21 -15.5 -35.5t-35.5 -15.5h-90q-22 1 -36.5 15.5t-14.5 35.5v922
q0 21 14.5 35.5t36.5 15.5v0z" />
    <glyph glyph-name="quotesingle" unicode="'" 
d="M784 463q-27 -27 -220 -221l-221 -220q-22 -22 -51.5 -22t-51.5 22t-22 51.5t22 51.5l392 387l-390 392q-19 23 -17.5 52t23.5 48.5t48.5 19.5t46.5 -19l441 -441q22 -22 22 -50.5t-22 -50.5v0v0z" />
    <glyph glyph-name="parenleft" unicode="(" 
d="M242 460q-21 22 -21 50t21 50v0l439 441q20 21 49 22.5t50.5 -18t23 -48t-17.5 -51.5l-392 -395l387 -387q21 -23 21 -52t-21.5 -50.5t-50.5 -21.5t-52 21l-436 439v0z" />
    <glyph glyph-name="parenright" unicode=")" 
d="M563 785q27 -28 220 -220l220 -220q21 -23 21 -52t-22 -50.5t-51 -21.5t-51 21v0l-386 391l-391 -391q-20 -21 -49 -22.5t-50.5 18t-23 48.5t17.5 51l445 445q22 23 50 23.5t50 -20.5v0v0z" />
    <glyph glyph-name="asterisk" unicode="*" 
d="M563 241q-22 -21 -50 -21t-51 21v0l-444 442q-19 22 -17.5 51t23 49t48 20t47.5 -19l390 -391l390 391q23 21 52 21t51 -22t22 -51t-21 -52l-440 -439v0z" />
    <glyph glyph-name="plus" unicode="+" 
d="M1017 842q-9 8 -68 60l-68 60q-7 5 -15.5 4.5t-14.5 -6.5l-493 -562l-175 232q-5 7 -13.5 8.5t-15.5 -4.5l-146 -109q-7 -5 -8 -13.5t4 -15.5l325 -430q6 -8 16 -8v0q10 0 16 7l658 747q6 7 5 15.5t-7 14.5v0zM1017 842z" />
    <glyph glyph-name="comma" unicode="," 
d="M1024 205q-19 19 -154 153l-153 154l307 307l-205 205l-307 -307l-307 307l-205 -205l307 -307l-307 -307l205 -205l307 307l307 -307zM1024 205z" />
    <glyph glyph-name="hyphen" unicode="-" 
d="M744 937h-96h-97v88h-262v-88h-192v-139h647v139zM358 955h62h62v-18h-124v18zM358 955zM682 529q1 13 7 100l6 100h-550l44 -671h264q-95 151 -27 298t245 172l12 1h-1zM682 529zM698 461q-138 -7 -200 -115t0 -230q75 -115 199.5 -115t199.5 115q31 53 31 115
q-2 98 -67 163t-163 67v0zM823 154q-3 -3 -25 -24l-24 -25l-77 77l-77 -77l-48 49l77 77l-77 77l49 49l77 -77l77 77l49 -49l-77 -77zM823 154z" />
    <glyph glyph-name="period" unicode="." 
d="M772 685h-260h-260q-9 0 -15 -5.5t-6 -14.5v-435q0 -9 5.5 -14.5t14.5 -6.5h93v-146q0 -27 18 -45t45 -18v0q26 1 43.5 18t17.5 44v146h86v-146q1 -27 18.5 -44t43.5 -18v0q26 1 43.5 18t18.5 44v146h94q9 0 15.5 6.5t5.5 15.5v435q0 9 -6 14.5t-15 5.5v0zM144 685v0
q-27 0 -44 -17.5t-18 -43.5v-251q1 -26 18 -43.5t44 -17.5v0q26 1 43 18t18 43v251q-1 26 -18 43.5t-43 17.5v0zM880 685v0q-26 0 -43 -17.5t-18 -43.5v-251q1 -26 18 -43.5t44 -17.5v0q26 0 43.5 17.5t17.5 43.5v251q0 26 -17.5 43.5t-44.5 17.5v0zM256 716h255h255
q10 0 16 8t4 18q-13 60 -48.5 108.5t-88.5 78.5l44 79q3 5 -0.5 10.5t-9.5 5.5t-10 -6l-43 -80q-57 26 -118.5 26t-118.5 -26l-44 80q-3 5 -9 5.5t-9.5 -5t-0.5 -11.5l44 -79q-54 -30 -89.5 -78t-48.5 -108q-2 -10 4 -17.5t16 -8.5v0zM663 833q1 -14 -9.5 -21.5t-23.5 -2.5
q-15 8 -14 24q2 14 13.5 19.5t23.5 -2.5q9 -6 10 -17v0zM382 857q14 -1 20.5 -12t-1 -23.5t-20 -12.5t-20.5 12q-3 6 -3 12q0 11 7.5 17.5t18.5 6.5h-2z" />
    <glyph glyph-name="slash" unicode="/" 
d="M792 480q1 61 30 112t80 83q-32 46 -81 73t-106 29q-61 2 -113 -20.5t-83 -26.5q-31 3 -74.5 23t-94.5 22q-67 -3 -122.5 -36.5t-89.5 -91.5q-63 -124 -34 -270.5t99 -246.5q32 -50 72 -89.5t90 -40.5q47 4 79.5 22t88.5 20q55 -3 87.5 -21t81.5 -21q50 2 87.5 39.5
t68.5 86.5q46 68 71 146q-63 27 -99.5 82.5t-37.5 124.5v1zM664 860q29 35 42.5 77t10.5 87q-44 -4 -82.5 -24t-68 -53t-43.5 -74t-11 -85q45 0 84.5 18.5t67.5 53.5v0zM664 860z" />
    <glyph glyph-name="zero" unicode="0" 
d="M779 850q0 37 -26 63l-85 86q-27 25 -64 25h-5v-179h180v5v0zM700 253q-6 -2 -47 -15l-48 -16h-15q-39 1 -60.5 30.5t-10.5 67.5l29 86q9 27 29 47l203 202v130h-211q-13 0 -21 8.5t-8 21.5v209h-450q-38 -1 -63.5 -26t-26.5 -64v-844q1 -38 26.5 -63t63.5 -26h599
q38 1 63.5 26t27.5 64v223l-33 -32q-20 -20 -47 -29v0zM150 724h210h209q18 0 26 -14.5t-0.5 -29.5t-25.5 -15h-419q-18 0 -26 14.5t0.5 29.5t25.5 15v0zM150 604h150h149q18 -1 26 -15t-0.5 -29t-25.5 -16h-299q-18 1 -26 15t0.5 29.5t25.5 15.5v0zM150 485h150h149
q18 -3 25 -18t-3 -30q-8 -11 -22 -13h-299q-18 3 -24.5 18t2.5 30q8 11 22 13v0zM120 333q0 13 8.5 21.5t21.5 8.5h299q18 -2 25 -17t-3 -30q-8 -11 -22 -13h-299q-13 0 -21.5 8.5t-8.5 21.5v0zM569 123h-90h-89q-18 -1 -27.5 12.5t-2.5 30.5q4 9 12 13.5t18 3.5h179
q18 -2 25 -17t-3 -30q-8 -11 -22 -13v0zM595 282q5 2 39 13l39 13l-71 71l-26 -78q-1 -9 4.5 -15t14.5 -4v0v0zM638 428l42 -42l43 -43l199 198l-85 85zM1006 712q-18 17 -42 17t-43 -17l-43 -44l85 -85l43 44q18 18 18 42t-18 43v0zM1006 627z" />
    <glyph glyph-name="one" unicode="1" 
d="M1024 546q-17 197 -149 329t-329 149v0h-68v0q-197 -17 -329 -149t-149 -329v0v-68v0q17 -197 149 -329t329 -149v0h68v0q197 17 329 149t149 329v0v68v0zM321 912q-54 -73 -81 -161h-102q34 53 80.5 93.5t102.5 67.5v0zM102 683h60h60q-14 -68 -17 -137h-135
q5 71 32 137v0zM70 478h67h68q3 -69 17 -137h-120q-27 66 -32 137v0zM138 273h51h51q27 -87 81 -161q-56 27 -102.5 68t-80.5 93v0zM478 73q-53 15 -96 67.5t-71 132.5h167v-200zM478 342h-93h-94q-15 67 -17 136h204v-136zM478 546h-102h-103q3 69 18 137h186zM478 751h-84
h-83q28 81 71 133t96 67v-200zM886 751h-51h-51q-27 88 -81 161q56 -27 102.5 -67.5t80.5 -93.5v0zM546 951q53 -15 96 -67t71 -133h-167v200zM546 683h93h94q15 -68 17 -137h-204v137zM546 478h102h103q-3 -69 -18 -137h-187v137zM546 73v100v100h167q-28 -81 -71 -133
t-96 -67v0zM703 112q54 74 81 161h103q-34 -53 -80.5 -93.5t-102.5 -67.5h-1zM922 342h-60h-60q14 67 17 136h136q-6 -71 -33 -137v1zM819 547q-3 69 -17 137h120q27 -66 32 -137h-135zM819 547z" />
    <glyph glyph-name="two" unicode="2" 
d="M352 512h-160h-160v128h320v128l192 -192l-192 -192v128zM992 1024v-416v-416l-384 -192v192h-384v256h64v-192h320v576l256 128h-576v-256h-64v320h768zM992 1024z" />
    <glyph glyph-name="three" unicode="3" 
d="M828 423q-117 -6 -170 -98t0 -196q64 -98 170 -98t170 98q26 46 26 98q-2 83 -57.5 138.5t-138.5 57.5v0zM947 205h-49h-49v-99h-42v99h-99v43h99v99h42v-99h98v-43zM238 781q6 -126 106 -183.5t213 -0.5q49 29 77 77.5t29 106.5q-7 127 -106.5 184.5t-212.5 -0.5
q-50 -29 -78 -77.5t-28 -106.5zM787 461q-38 42 -84 74l-10 6q-97 -125 -243 -125t-243 125l-9 -5q-93 -64 -145 -162t-53 -211v-48h617q-53 113 -2.5 216t172.5 130v0z" />
    <glyph glyph-name="four" unicode="4" 
d="M913 556q-46 28 -365 226l-365 226q-42 26 -69.5 10t-27.5 -67v-878q1 -51 28.5 -67t68.5 10l730 452q22 17 26 44q-4 27 -26 44v0zM913 556z" />
    <glyph glyph-name="five" unicode="5" 
d="M443 37q0 -16 -10.5 -26.5t-26.5 -10.5h-203q-15 0 -25.5 10.5t-10.5 26.5v950q0 16 10.5 26.5t25.5 10.5h203q16 0 26.5 -10.5t10.5 -26.5v-950zM443 37zM858 37q0 -16 -10.5 -26.5t-26.5 -10.5h-203q-15 0 -25.5 10.5t-11.5 26.5v950q1 16 11.5 26.5t25.5 10.5h203
q16 0 26.5 -10.5t10.5 -26.5v-950zM858 37z" />
    <glyph glyph-name="six" unicode="6" 
d="M0 1024v-512v-512h1024v1024h-1024z" />
    <glyph glyph-name="seven" unicode="7" 
d="M1015 137q-28 50 -230 401l-231 401q-6 11 -16.5 17t-23 6t-23.5 -6t-17 -17l-468 -807q-12 -24 0.5 -46t39.5 -23h934q19 0 31.5 13.5t12.5 32.5q1 15 -9 28v0zM128 155q24 42 192 335l193 335l386 -670h-771zM128 155zM467 618v-103v-102q-1 -28 20 -42t46 -4
q13 7 20 19t7 27v205q0 28 -21 42t-46 3q-13 -6 -20 -18.5t-6 -26.5v0zM467 618zM513 327q-24 -1 -40 -17t-17 -41q0 -34 25.5 -51t56.5 -4q16 8 24.5 23t7.5 32q0 25 -16.5 41t-40.5 17v0zM513 327z" />
    <glyph glyph-name="eight" unicode="8" 
d="M495 498q16 -28 126 -218l126 -218q-53 -27 -110.5 -40.5t-116.5 -12.5q-300 6 -443.5 238t-15.5 504q66 120 179 190t249 75v-503q1 -9 5 -16zM1024 545h-236h-236v471q195 -16 325.5 -146.5t146.5 -324.5v0zM616 608h168h168q-30 128 -119.5 217t-216.5 119v-336z
M800 93q99 67 157.5 168t66.5 221h-448zM800 93z" />
    <glyph glyph-name="nine" unicode="9" 
d="M992 53h-472h-471v943q0 10 -6.5 17t-17 7.5t-17.5 -7t-7 -17.5v-966q0 -11 7 -18t18 -7h966q14 -4 24 5.5t8 24.5q-3 11 -12 16t-20 2v0zM992 53zM119 721v-311v-310h203v621h-203zM407 963v-432v-431h203v863h-203zM695 687v-293v-294h203v587h-203z" />
    <glyph glyph-name="A" unicode="A" 
d="M512 473q33 1 55.5 23t23.5 55v394q0 33 -23 56t-56 22.5t-55 -23t-24 -55.5v-394q2 -33 24 -55t55 -23v0zM512 473zM935 684q-24 49 -59.5 91t-79.5 75q-26 20 -58.5 15.5t-51.5 -31t-14.5 -58.5t30.5 -51q60 -45 92.5 -110.5t33.5 -141.5q0 -63 -25 -121t-68 -101.5
t-101.5 -68t-121.5 -24.5t-121 24.5t-101.5 68t-67.5 100.5q-27 64 -24.5 132t32.5 130q34 67 94 111q25 20 29.5 52t-14.5 58t-51.5 30.5t-58.5 -15.5q-90 -67 -139.5 -165.5t-49.5 -210.5q-1 -96 37 -184q36 -86 101 -150.5t151 -100.5q88 -38 182.5 -38t183.5 38
q86 36 151 100.5t101 150.5q38 88 38 184q0 111 -49 211h-1zM935 684z" />
    <glyph glyph-name="B" unicode="B" 
d="M987 587q-7 1 -52 8l-51 9q-10 45 -32 86l65 80q11 14 10.5 29.5t-11.5 28.5l-40 46q-12 12 -27.5 14t-29.5 -6l-87 -55q-58 41 -128 58l-17 102q-3 17 -15 27t-29 11h-61q-17 -1 -29 -11t-15 -27l-17 -102q-57 -14 -108 -45l-83 59q-13 10 -29 8.5t-28 -13.5l-43 -43
q-12 -12 -13 -27.5t8 -29.5l59 -83q-30 -50 -44 -107l-102 -17q-17 -3 -27.5 -15t-10.5 -29v-61q0 -17 10.5 -29t26.5 -15l103 -17q11 -47 34 -89l-65 -81q-10 -13 -9.5 -29t11.5 -28l40 -46q11 -12 27 -14.5t30 6.5l88 55q58 -39 125 -55l17 -102q3 -17 15 -27t29 -10h61
q17 0 29 10t15 27l17 102q57 14 107 44l85 -61q14 -10 30 -8.5t28 12.5l42 43q12 12 13 28t-8 30l-61 86q30 50 44 107l103 17q16 3 26.5 15t10.5 29v61q0 17 -10.5 29t-26.5 15v0zM514 321q-115 6 -167 96t0 192q63 96 166.5 96t166.5 -96q25 -45 26 -96q-3 -82 -57 -136
t-135 -56v0zM514 321z" />
    <glyph glyph-name="C" unicode="C" 
d="M512 523q88 3 145.5 73.5t60.5 177t-37 177t-169 73.5q-128 -3 -169 -73.5t-38 -177t61.5 -177t145.5 -73.5v0zM512 523zM123 141q0 6 0 4v-4v0zM123 141zM901 151q2 176 -49.5 250.5t-226.5 102.5q-22 -23 -51.5 -34t-61.5 -9q-32 -2 -61 9t-52 34q-173 -28 -225 -101
t-50 -244v-17q0 -3 0 -1v-26q-7 -7 69.5 -57.5t318.5 -57.5q243 7 320 57.5t70 57.5v19q-1 9 0 17h-1zM901 151z" />
    <glyph glyph-name="D" unicode="D" 
d="M98 666q8 -5 59 -40l263 -185q13 -8 29.5 -18t33.5 -16q14 -5 29 -5v0q14 0 28 5q17 6 33.5 16t29.5 18l323 225q42 29 70 70q27 40 28 87q0 19 -7 35.5t-20 29.5q-27 26 -64 26h-842q-19 1 -37 -7t-30 -23q-25 -32 -24 -73q4 -44 32 -77q27 -39 66 -68v0zM98 666z
M967 606q-187 -128 -285 -197q-32 -25 -52 -38q-26 -16 -54 -27q-31 -13 -63 -14v0q-33 1 -63 14q-29 11 -54 27q-20 13 -53 38q-77 56 -284 197q-33 21 -59 49v-453q1 -39 27 -65t64 -26h842q38 0 64 26t27 65v453q-26 -28 -57 -49v0zM967 606z" />
    <glyph glyph-name="E" unicode="E" 
d="M706 1025q-137 -4 -228.5 -95t-94.5 -228q1 -58 19 -113l-398 -399v-189h190v113h113v114h114l172 171q55 -19 114 -19q191 15 274 169t-9 323q-44 70 -114 110t-152 43v0zM800 683q-48 1 -80.5 33t-33.5 81q1 68 53 101t114 6q30 -16 46 -44.5t15 -62.5q0 -49 -32.5 -81
t-81.5 -33v0zM800 683z" />
    <glyph glyph-name="F" unicode="F" 
d="M949 509q-20 22 -46.5 33.5t-55.5 11.5q-41 0 -77 -19v277h-228q17 35 16 73q1 29 -10.5 55t-33.5 46q-46 38 -103 38t-103 -38q-21 -20 -32.5 -46t-11.5 -55q0 -39 18 -73h-244v-313l21 11q30 16 64 16q23 0 43.5 -9t36.5 -26q31 -38 31 -84.5t-31 -84.5
q-16 -17 -36.5 -26t-43.5 -9q-34 0 -64 16l-21 10v-313h279l-13 21q-17 31 -17 67q0 23 9 43.5t26 36t38.5 23.5t45 8t45 -8t39 -23.5t26.5 -36t9 -43.5q0 -36 -18 -67l-12 -21h275v278q36 -19 77 -19q29 0 55.5 11t46 33t29.5 48t10 54.5t-10 54.5t-28 48z" />
    <glyph glyph-name="G" unicode="G" 
d="M973 564h-460h-461q-31 -2 -44.5 -26t-0.5 -51q7 -12 19 -19t26 -7h921q31 2 44.5 26t0.5 51q-7 12 -19 18.5t-26 7.5v0zM973 564zM52 768h461h460q31 2 44.5 26t0.5 51q-7 12 -19 19t-26 7h-921q-31 -2 -44.5 -26t-0.5 -51q7 -12 19 -19t26 -7v0zM52 768zM973 256h-460
h-461q-31 -1 -44.5 -25t-0.5 -51q7 -12 19 -19t26 -7h921q31 2 44.5 26t0.5 51q-7 12 -19 18.5t-26 6.5v0zM973 256z" />
    <glyph glyph-name="H" unicode="H" 
d="M1024 510q-16 305 -255.5 444t-512.5 0q-226 -143 -253 -387.5t163 -433.5v0l20 -17q13 -10 28 -20l8 -7q15 -10 31 -19l7 -4q17 -10 35 -19h3q59 -27 123 -39h4q20 -3 41 -5l47 -2q20 0 41 2h5q21 1 41 5h3q64 11 122 38l4 2q18 8 34 18l8 4q15 9 30 19l10 7l24 18
l22 19v0q80 74 123 171t44 206v0zM37 510q15 283 237.5 411.5t474.5 0.5q212 -134 235 -363.5t-157 -403.5q-8 6 -17 10l-157 79q-11 5 -17 14.5t-6 21.5v56q5 7 11 15q32 45 50 96q18 8 28.5 24.5t10.5 36.5v66q0 25 -17 44v87q3 30 -6 58t-29 51q-51 59 -164.5 59
t-165.5 -59q-19 -23 -28 -51t-7 -58v-87q-16 -19 -16 -44v-66q1 -32 25 -52q18 -65 58 -119v-54q0 -12 -5.5 -21.5t-16.5 -15.5l-147 -80q-7 -4 -14 -9q-76 68 -117.5 159.5t-42.5 193.5v0zM37 510z" />
    <glyph glyph-name="I" unicode="I" 
d="M936 160q-5 8 -37 61l-36 61q-26 42 -39 89.5t-13 96.5v108q-1 101 -59 178.5t-154 107.5v77q-3 50 -43 73.5t-85 -0.5q-20 -11 -31 -30.5t-11 -42.5v-77q-97 -30 -155 -107.5t-59 -178.5v-107q0 -50 -13 -97t-39 -90l-73 -122q-6 -11 -0.5 -21t17.5 -11h811q13 0 19 10
t0 22v0v0zM512 0q44 1 79.5 23.5t55.5 61.5h-269q19 -39 54.5 -61.5t79.5 -23.5v0z" />
    <glyph glyph-name="J" unicode="J" 
d="M278 751h-6h-7l-24 -120h61l-24 120v0zM813 424q32 39 51 86h-101q18 -47 50 -86v0zM934 842h-186h-186l77 -623q2 -38 -23 -68l-129 -150h447q39 1 64 26t27 64v660q-1 38 -26.5 64t-64.5 27v0zM934 510h-4h-4q-23 -73 -72 -132q17 -15 34 -28l35 -27q9 -8 10.5 -19.5
t-6 -21.5t-19.5 -11t-22 6l-38 29q-18 14 -35 30q-18 -16 -35 -30l-37 -29q-10 -7 -22 -6t-20 11t-6.5 22t11.5 20l34 27q16 13 33 28q-48 59 -71 132h-8q-18 2 -25 17t3 30q8 11 22 13h90v30q1 17 15 25.5t29 0t16 -25.5v-30h92q18 0 27 -13t3 -30q-4 -9 -12.5 -13.5
t-17.5 -4.5v0zM489 946q-5 34 -30 56t-59 22h-309q-39 -1 -64 -26t-26 -64v-663q0 -39 25.5 -64.5t64.5 -26.5h473q6 7 11 13.5t5 15.5l-91 737v0zM368 451q-12 -2 -22 4.5t-13 19.5l-19 96h-85l-19 -96q-5 -18 -20 -23t-28.5 6.5t-10.5 27.5l60 300q3 11 11 17.5t19 6.5h62
q11 1 19.5 -5.5t10.5 -18.5l59 -299q2 -13 -4.5 -23t-19.5 -13v0zM408 10q6 7 50 55l51 56h-158l5 -42q4 -23 17.5 -41t34.5 -28v0zM813 424q32 39 51 86h-101q18 -47 50 -86v0z" />
    <glyph glyph-name="K" unicode="K" 
d="M461 307v-51v-51h103v102h-103zM512 1024q-304 -16 -442.5 -256t-0.5 -512q166 -256 443 -256t443 256q34 59 51.5 123.5t17.5 132.5q-5 218 -149.5 362t-362.5 150v0zM512 93q-249 13 -362.5 209.5t0.5 419.5q136 209 362.5 209t362.5 -209q28 -48 42 -101.5t14 -108.5
q-4 -178 -122.5 -296t-296.5 -123v0zM512 93zM711 663q-34 117 -140.5 148.5t-198.5 -47.5q-31 -30 -47.5 -68.5t-16.5 -81.5h102q8 61 58.5 84.5t102.5 -8.5q23 -16 34.5 -40.5t9.5 -52.5q-9 -39 -38.5 -62.5t-69.5 -22.5q-20 0 -32.5 -13t-13.5 -32v-108h103v58
q82 23 123.5 92.5t23.5 153.5v0zM711 663z" />
    <glyph glyph-name="L" unicode="L" 
d="M724 112q0 -4 -7 -30l-7 -29q-64 -25 -102 -39q-44 -14 -89 -13q-33 -2 -64.5 7.5t-57.5 30.5q-21 18 -32 43t-11 53q0 24 4 48q4 27 11 53l53 190q8 27 12.5 50t4.5 46q3 29 -15 51q-26 17 -57 14q-22 0 -43.5 -6.5t-36.5 -11.5l14 58q53 21 101 37q44 15 91 15
q32 2 62.5 -7.5t55.5 -29.5q21 -19 32 -44.5t10 -53.5q1 -12 -2 -42t-11 -58l-54 -190q-6 -22 -12 -51q-4 -22 -5 -44q-3 -29 17 -51q27 -17 59 -14q22 0 44 7q18 5 35 12v-1zM738 906q0 -25 -9.5 -47t-27.5 -38q-40 -35 -90.5 -35t-90.5 35q-18 16 -28 38t-9.5 46t10 46
t27.5 38q40 36 90.5 36t90.5 -36q18 -16 27.5 -38t9.5 -46v1zM738 906z" />
    <glyph glyph-name="M" unicode="M" 
d="M1002 215l-79 79l-79 79q-26 24 -58.5 23t-57.5 -25l-80 -79l-16 8q-106 55 -191 139q-84 85 -139 192l-9 15l79 79q25 25 25.5 57.5t-22.5 58.5l-158 159q-26 24 -58.5 23.5t-57.5 -24.5l-45 -46v0q-23 -29 -36 -64q-13 -32 -17 -66q-16 -129 49.5 -259t224.5 -288
q228 -212 380.5 -248.5t166.5 -24.5q34 4 65 16q35 14 65 37v0l45 43q25 25 25.5 57.5t-22.5 58.5v0zM1002 215z" />
    <glyph glyph-name="N" unicode="N" 
d="M727 1024h-215h-215q-32 -1 -53 -22t-21 -52v-876q0 -31 21 -52t53 -22h430q32 1 53 22t22 52v876q-1 31 -22 52t-53 22v0zM406 978h106h106q4 0 7 -5t3 -12.5t-3 -12.5t-7 -5h-212q-4 0 -7 5t-3 13q1 16 10 17v0zM512 74q-28 2 -41 24t0 48q15 23 40.5 23.5t41.5 -23.5
q6 -11 6 -24q0 -20 -13.5 -33.5t-33.5 -14.5v0zM746 237h-234h-234v661h468v-661zM746 237z" />
    <glyph glyph-name="O" unicode="O" 
d="M518 780q130 5 207 -20.5t88 -161.5h211q-8 215 -161 279t-351 57q-198 7 -351 -57t-161 -279h209q13 139 95 164.5t212 17.5h2zM518 780zM105 502q40 -1 68 5.5t35 42.5q2 12 2 23h-210q1 -53 31 -63t74 -8v0zM105 502zM814 573h-2q0 -11 3 -23q8 -33 35.5 -39t66.5 -5
q45 -2 75 7.5t31 59.5h-209zM814 573zM711 625v14v15q0 10 -9.5 12.5t-24.5 2.5h-31q-14 0 -24 -2t-10 -13v-45h-219v45q-1 10 -10.5 12.5t-24.5 2.5h-31q-14 0 -24 -2t-10 -13v-56q-46 -49 -126 -158t-93 -141v-179q0 -13 8.5 -21.5t21.5 -8.5h797q12 0 20.5 8.5t9.5 21.5
v179q-13 31 -93.5 139.5t-126.5 159.5v27zM382 275q-17 1 -25 14.5t0.5 28.5t24 15.5t25.5 -14.5q4 -7 4 -15q0 -12 -8.5 -20.5t-20.5 -8.5v0zM382 375q-17 0 -25 14t0.5 29t24 15t25.5 -14q4 -7 4 -15q0 -12 -8.5 -20.5t-20.5 -8.5v0zM382 474q-17 1 -25 14.5t0.5 28.5
t24 15.5t25.5 -14.5q4 -7 4 -15q0 -12 -8.5 -20t-20.5 -9v0zM502 275q-18 1 -26 14.5t0.5 28.5t24.5 15.5t25 -14.5q4 -7 4 -15q0 -12 -8 -20.5t-20 -8.5v0zM502 375q-18 0 -26 14t0.5 29t24.5 15t25 -14q4 -7 4 -15q0 -13 -8 -21t-20 -8v0zM502 474q-18 1 -26 14.5
t0.5 28.5t24.5 15.5t25 -14.5q4 -7 4 -15q0 -12 -8 -20t-20 -9v0zM621 275q-17 1 -25 14.5t0.5 28.5t24 15.5t25.5 -14.5q4 -7 4 -15q0 -12 -8.5 -20.5t-20.5 -8.5v0zM621 375q-17 0 -25 14t0.5 29t24 15t25.5 -14q4 -7 4 -15q0 -12 -8.5 -20.5t-20.5 -8.5v0zM621 474
q-17 1 -25 14.5t0.5 28.5t24 15.5t25.5 -14.5q4 -7 4 -15q0 -12 -8.5 -20t-20.5 -9v0zM621 474z" />
    <glyph glyph-name="P" unicode="P" 
d="M0 67h41h41v648h-82v-648zM922 715v140v140h-410v-280h-160v-648h672v648h-102zM633 202h-39h-40v80h79v-80zM633 332h-39h-40v79h79v-79zM633 457h-39h-40v79h79v-79zM779 201h-39h-40v81h79v-81zM779 331h-39h-40v80h79v-80zM779 456h-39h-40v80h79v-80zM925 200h-40
h-40v82h79zM925 330h-40h-40v81h79zM925 455h-40h-40v81h79zM973 604h-256h-256v70h51v-34h410v34h51v-70zM114 30h103h104v758h-207v-758zM867 917h-146h-145v27h291v-27zM867 844h-146h-145v26h291v-26zM867 844z" />
    <glyph glyph-name="Q" unicode="Q" 
d="M875 640h-32h-32v85q-9 178 -149 258.5t-299 0.5q-70 -42 -109.5 -110t-39.5 -149v-85h-64q-9 -1 -15 -7t-6 -15v-533q0 -36 24.5 -60t60.5 -25h597q36 1 60 25t25 60v533q0 9 -6 15t-15 7v0zM564 315q0 -7 6 -60l7 -61q1 -10 -5 -16.5t-16 -6.5h-86q-10 0 -16 6.5
t-6 16.5l13 121q-39 32 -34 78t50 69q48 18 85 -9.5t34 -77.5q-2 -18 -10.5 -33.5t-23.5 -26.5h2zM683 640h-171h-170v85q5 102 85 148t171 0q40 -24 62.5 -63t22.5 -85v-85z" />
    <glyph glyph-name="R" unicode="R" 
d="M875 639h-267h-266v85q5 101 85 147t170 0q46 -26 69 -74h135q-51 170 -206 215t-289 -71q-45 -43 -68.5 -99t-23.5 -118v-85h-64q-9 -1 -15 -7t-6 -15v-532q1 -36 25 -60t61 -25h596q36 1 60 25t25 60v532q-1 9 -6.5 15t-14.5 7v0zM564 315q1 -8 6 -61l7 -60
q1 -10 -5 -16.5t-16 -7.5h-86q-10 1 -16 7.5t-5 16.5l13 121q-40 32 -35 77.5t51 68.5q47 18 84 -9t34 -78q-2 -18 -10.5 -33.5t-23.5 -25.5h2z" />
    <glyph glyph-name="S" unicode="S" 
d="M968 583h-192h-192v384q-5 27 -25 42.5t-46.5 15.5t-46.5 -15.5t-25 -41.5v-384h-384q-27 -5 -42.5 -25t-15.5 -46.5t15.5 -46.5t41.5 -25h384v-384q5 -27 25 -42.5t46.5 -15.5t46.5 15.5t25 41.5v384h384q27 5 42.5 25t15.5 46.5t-15.5 46.5t-41.5 25v0zM968 583z" />
    <glyph glyph-name="T" unicode="T" 
d="M968 584h-456h-456q-26 -6 -41.5 -25.5t-15.5 -46t15.5 -46t41.5 -25.5h912q26 6 41.5 25.5t15.5 46t-15.5 46t-41.5 25.5v0z" />
    <glyph glyph-name="U" unicode="U" 
d="M384 896q4 -76 64 -110.5t128 -0.5q30 18 47 47t17 64q-4 76 -64 110.5t-128 0.5q-30 -18 -47 -47t-17 -64zM611 704h-17h-18q-13 0 -23 -9l-41 -42l-41 42q-10 9 -23 9h-35q-25 0 -42.5 -16t-20.5 -41l-30 -227q-2 -14 8 -25t24 -11h35l25 -326q4 -26 22 -41.5t43 -15.5
h70q26 0 43.5 16t20.5 42l27 325h34q14 1 24 11.5t8 25.5l-29 226q-3 25 -21 41t-43 16v0zM704 896q4 -76 64 -110.5t128 -0.5q30 18 47 47t17 64q-4 76 -64 110.5t-128 0.5q-30 -18 -47 -47t-17 -64zM192 1024q-76 -4 -110.5 -64t-0.5 -128q42 -64 111.5 -64t110.5 64
q17 30 17 64v0q-1 54 -37 90.5t-91 37.5v0zM994 647q-2 25 -20 41t-43 16h-35q-13 0 -23 -9l-41 -42l-41 42q-10 9 -23 9h-35q-6 0 -11 -2q13 -22 16 -48l30 -225q4 -32 -11 -59t-44 -40l21 -208q3 -25 20.5 -41t43.5 -17h70q25 1 43 17t21 42l25 261h35q14 1 24 11.5
t8 25.5zM256 428q2 15 15 114l14 114q3 24 16 46q-5 2 -10 2h-35q-13 0 -23 -9l-41 -42l-41 42q-10 9 -23 9h-35q-25 0 -42.5 -16t-20.5 -41l-30 -227q-2 -14 8 -25t24 -11h35l26 -262q3 -26 20.5 -42t42.5 -16h70q26 1 43.5 17t20.5 41l21 208q-18 8 -32 23t-20 35t-3 40v0
z" />
    <glyph glyph-name="V" unicode="V" 
d="M205 717q58 2 96.5 40.5t39.5 96.5q1 27 -9.5 52t-30 44.5t-44.5 30t-52.5 10.5t-52 -10.5t-44 -30t-30 -44.5t-10.5 -52q2 -58 40.5 -96.5t96.5 -40.5v0zM205 717zM367 504q63 -60 145 -60t145 60q29 29 44.5 66.5t15.5 78.5q-2 87 -60 144.5t-145 60.5
q-87 -3 -145 -60.5t-60 -144.5q0 -41 15.5 -78.5t44.5 -66.5v0zM367 504zM819 717q58 2 96.5 40.5t39.5 96.5q1 27 -9.5 52t-29.5 44q-42 40 -96.5 40t-96.5 -40q-20 -19 -30.5 -44t-9.5 -52q1 -58 39.5 -96.5t96.5 -40.5v0zM819 717zM958 717q-13 -4 -23 -11
q-25 -13 -52 -23q-30 -11 -63 -11q-37 0 -71 12q2 -17 3 -35q-1 -37 -12 -71.5t-32 -65.5q41 0 78 -18t63 -50h72q41 -1 74 22q15 11 22.5 27.5t6.5 35.5q0 188 -66 188v0zM958 717zM878 286q-5 30 -14 57.5t-22.5 51.5t-33.5 43t-46 29q-28 11 -59 11q-13 -4 -23 -12
l-39 -25q-27 -17 -57 -26q-35 -12 -72 -12t-72 12q-30 9 -57 26l-39 25q-10 8 -23 12q-31 0 -59 -11q-26 -10 -46 -29t-33.5 -43t-22.5 -51.5t-14 -57t-7 -57.5t-3 -56.5t9 -54.5t31 -45.5t47.5 -29.5t55.5 -8h466q28 -1 54.5 8.5t47 29t30.5 45.5t10 54.5t-2.5 56.5
t-7.5 57h1zM878 286zM316 512q-21 31 -32 65.5t-11 71.5q0 18 3 35q-35 -12 -71 -12q-33 0 -64 11q-26 10 -51 23q-11 7 -24 11q-66 0 -66 -188q-1 -19 7 -35.5t23 -27.5q33 -23 73 -22h71q26 33 63 50.5t79 17.5v0zM316 512z" />
    <glyph glyph-name="W" unicode="W" 
d="M512 1024q-160 -4 -266.5 -110.5t-110.5 -266.5q0 -80 33 -154q77 -159 179.5 -296.5t148.5 -189.5q7 -7 16.5 -7t15.5 7q47 52 149 189t179 298q33 73 33 153q-4 160 -110.5 266.5t-266.5 110.5v0zM512 451q-117 6 -170 98t0 196q64 98 170 98t170 -98q26 -46 26 -98
q-2 -83 -57.5 -138.5t-138.5 -57.5v0zM512 451z" />
    <glyph glyph-name="X" unicode="X" 
d="M139 82q0 -10 6 -16.5t16 -6.5h258v211q-2 15 7 25t23 10h107q16 2 27 -8t11 -27v-210h252q12 -1 20 7.5t7 20.5v390l-356 316l-378 -316v-396zM139 82zM0 507q0 -5 25 -22t77 22l418 354l393 -351q60 -39 86 -22.5t25 22.5l-504 456zM0 507zM903 862h-51h-50v-122
l100 -86zM903 862z" />
    <glyph glyph-name="Y" unicode="Y" 
d="M512 1024q-304 -16 -442.5 -256t-0.5 -512q166 -256 443 -256t443 256q34 59 51.5 123.5t17.5 132.5q-5 218 -149.5 362t-362.5 150v0zM728 170q-2 3 -11 19l-11 19q-5 7 -13 7q-4 0 -8 -2.5t-5.5 -8t1.5 -10.5l22 -38q-77 -41 -164 -47v54q-1 16 -13.5 23t-26 -0.5
t-13.5 -22.5v-54q-86 5 -162 45l22 38q3 5 1.5 10.5t-7.5 9.5q-3 1 -6 1q-9 0 -13 -7l-22 -38q-73 46 -122 118l46 26q14 9 14 23.5t-13.5 22.5t-27.5 0l-46 -25q-38 77 -41 162h44q7 0 11 5t3.5 11.5t-4.5 10.5t-10 4h-44q3 87 41 165l46 -25q6 -4 14 -4q16 -1 24 11t2 27
q-4 9 -13 13l-46 27q48 71 120 117l22 -38q2 -3 5 -5q8 -4 15 0q5 3 6.5 8.5t-1.5 10.5l-22 38q78 40 165 44v-53q1 -16 13.5 -23.5t26 0t14.5 23.5v53q84 -6 160 -45l-22 -38q-3 -5 -1.5 -10.5t6.5 -8.5q3 -2 7 -2q8 0 13 7l21 38q74 -46 123 -118l-47 -28
q-14 -7 -15 -21.5t11 -24.5q8 -6 18 -5q7 0 14 4l46 25q38 -77 41 -162h-44q-6 0 -10 -4.5t-4 -10.5t4 -10t10 -4h44q-3 -86 -41 -164l-46 26q-15 7 -27.5 -0.5t-13 -23t12.5 -23.5l47 -26q-48 -71 -120 -116v0zM728 170zM711 658q-10 -6 -86 -47l-87 -48q-12 7 -25.5 7
t-25.5 -7l-173 96q-13 7 -26 3t-19.5 -16.5t-3 -25.5t15.5 -20l177 -98q8 -33 37 -43t55 11q15 13 19 32l176 98q12 7 16 20t-3 25.5t-20 16.5t-26 -3zM711 658z" />
    <glyph glyph-name="Z" unicode="Z" 
d="M763 808q31 1 51 21t20 50v74q-2 42 -35 61.5t-71 -0.5q-17 -9 -26 -25.5t-10 -35.5v-74q1 -30 21 -50t50 -21v0zM763 808zM1016 901h-72h-71v-36q0 -64 -49.5 -96t-108.5 -5q-28 15 -44 42t-14 59v36h-289v-36q0 -64 -49.5 -96t-108.5 -5q-28 15 -44 42t-14 59v36
l-144 2v-903h1009zM945 72h-433h-433v577h866v-577zM945 72zM259 808q30 1 50 21t21 50v74q-3 42 -36 61.5t-71 -0.5q-16 -9 -25.5 -25.5t-9.5 -35.5v-74q0 -30 20 -50t51 -21v0zM259 808zM368 571v-50v-50h114v100h-114zM552 571v-50v-50h114v100h-114zM722 571v-50v-50
h114v100h-114zM368 405v-50v-51h114v101h-114zM552 405v-50v-51h114v101h-114zM722 405v-50v-51h114v101h-114zM368 235v-50v-50h114v100h-114zM188 405v-50v-51h113v101h-113zM188 235v-50v-50h113v100h-113zM552 235v-50v-50h114v100h-114zM722 235v-50v-50h114v100h-114z
" />
    <glyph glyph-name="bracketleft" unicode="[" 
d="M512 1025v0q-217 -6 -361.5 -150.5t-149.5 -361.5q0 -81 24.5 -157.5t72.5 -142.5l-64 -190l197 63q263 -155 510.5 -31t281.5 428q7 226 -138.5 380.5t-372.5 161.5v0zM810 302q-11 -27 -40.5 -46t-59.5 -26q-17 -6 -55.5 -1.5t-123.5 39.5q-114 54 -181.5 132.5
t-74.5 92.5q-10 10 -34 54t-27 100q-1 35 12 67.5t39 56.5q22 19 51 19h17q11 0 18.5 -4.5t14.5 -21.5l46 -110q8 -14 2 -27.5t-17 -25t-22 -24.5q-6 -8 -9 -14.5t3 -17.5q34 -58 83 -103q53 -48 120 -74q9 -4 19 -2.5t17 8.5q9 9 19 24l21 29q6 9 16.5 12.5t20.5 -1.5
q14 -5 50 -23l71 -35q7 -3 10 -8q7 -36 -6 -70v0z" />
    <glyph glyph-name="backslash" unicode="\" 
d="M359 446h80h80q-46 -112 -154.5 -132t-191.5 68q-74 96 -37.5 199.5t154.5 131.5q47 9 92.5 -4t81.5 -45q6 -6 14.5 -6t15.5 6l59 54q7 7 7 16t-7 16q-45 43 -101 66t-118 24q-195 -7 -286.5 -158.5t-6.5 -327.5q103 -165 280.5 -168.5t286.5 157.5q42 70 47 152v75h-296
q-9 0 -15.5 -6t-6.5 -16v-80q0 -9 6.5 -15.5t15.5 -6.5v0zM926 563v39v40q0 8 -5.5 13.5t-13.5 5.5h-66q-8 0 -13.5 -5.5t-5.5 -13.5v-79h-79q-9 0 -14 -5.5t-6 -13.5v-66q1 -8 6 -13.5t14 -6.5h78v-78q0 -8 5.5 -13.5t13.5 -5.5h67q8 0 13 5.5t6 13.5v78h78q9 0 14.5 5.5
t5.5 14.5v66q0 8 -5.5 13.5t-13.5 5.5h-79z" />
    <glyph glyph-name="bracketright" unicode="]" 
d="M932 1024h-420h-420q-39 -1 -65 -27t-27 -65v-840q1 -39 27 -65t65 -27h840q39 1 65 27t27 65v840q-1 39 -27 65t-65 27v0zM315 141q-1 -12 -8.5 -19t-17.5 -7h-115q-12 1 -20 8.5t-8 17.5v479q2 11 10 19t18 9h115q12 -1 19 -8.5t7 -17.5v-481v0zM233 691q-47 1 -78 32
t-32 78q1 47 32 78t78 32q47 -1 78 -32t32 -78q-1 -47 -32 -78t-78 -32v0zM916 138q0 -11 -6.5 -18t-18.5 -7h-123q-12 0 -18.5 7t-7.5 18v226q4 31 -6.5 86.5t-80.5 61.5q-56 -4 -75 -43t-19 -70v-261q-1 -11 -7.5 -18t-18.5 -7h-118q-11 0 -18 7t-7 18v487q0 11 7 18t18 7
h121q11 0 18 -7t7 -18v-44q20 32 56.5 53t102.5 21q142 -8 172.5 -104.5t24.5 -179.5l-3 -233v0z" />
    <glyph glyph-name="asciicircum" unicode="^" 
d="M896 1024h-384h-384q-55 -1 -91 -37t-37 -91v-768q1 -55 37 -91t91 -37h384v351h-128v161h128v128q2 81 56.5 135.5t135.5 56.5h128v-161h-64q-28 1 -45.5 -3.5t-18.5 -30.5v-128h161l-64 -161h-97v-348h192q55 1 91 37t37 91v768q-1 55 -37 91t-91 37v0z" />
    <glyph glyph-name="underscore" unicode="_" 
d="M980 796q-20 36 -47 48.5t-72 13.5q-49 3 -147 4.5t-202 1.5t-202 -1.5t-147 -4.5q-45 -2 -72.5 -14t-48 -47.5t-31.5 -104.5t-11 -180v0q0 -111 11 -179.5t32 -104t48 -48t72 -14.5q49 -4 147 -5t202 -1t202 1.5t147 4.5q45 1 72.5 13.5t47.5 48.5t31.5 104.5
t11.5 179.5v0q0 111 -11 179.5t-33 104.5v0zM384 320v192v192l320 -192l-320 -192v0z" />
    <glyph glyph-name="grave" unicode="`" 
d="M1024 830q-58 -26 -121 -33q34 20 57.5 49.5t35.5 66.5q-63 -37 -134 -51q-90 87 -201 60.5t-153 -143.5q-9 -30 -9 -62q0 -24 5 -48q-128 8 -240 65t-193 156q-42 -75 -23.5 -153.5t88.5 -127.5q-50 1 -95 25v-2q2 -77 48 -133t121 -72q-47 -12 -95 -4q22 -65 74.5 -104
t121.5 -42q-56 -43 -122.5 -66t-137.5 -23q-25 0 -51 3q72 -46 154 -70t168 -24q291 11 443.5 194.5t154.5 402.5v27q62 45 104 109v0zM1024 830z" />
    <glyph glyph-name="a" unicode="a" 
d="M128 864v64v64q1 19 16 27.5t31.5 -0.5t16.5 -27v-128q-1 -19 -16 -27.5t-31 0.5t-17 27v0zM672 832q14 0 23 9t9 23v128q-1 19 -16 27.5t-31 -0.5t-17 -27v-128q1 -14 10 -23t22 -9v0zM1024 256q-8 -152 -128 -221.5t-256 0.5q-128 83 -128 221.5t128 221.5
q60 34 128 34q109 -3 181 -75t75 -181v0zM960 256q-6 115 -96 166.5t-192 -0.5q-96 -62 -96 -166t96 -166q45 -25 96 -26q82 2 136 56.5t56 135.5v0zM256 640h-64h-64v-128h128v128zM128 320h64h64v128h-128v-128zM320 512h64h64v128h-128v-128zM320 320h64h64v128h-128
v-128zM128 128h64h64v128h-128v-128zM320 128h64h64v128h-128v-128zM64 84v310v310h704v-128h64v250q0 29 -20 49t-49 21h-26v-32q-2 -38 -32 -55.5t-64 0.5q-15 8 -23.5 23t-8.5 32v32h-384v-32q-2 -38 -32 -55.5t-64 0.5q-15 8 -23 23t-9 32v32h-25q-30 0 -50.5 -20
t-20.5 -50v-742q0 -30 19.5 -50t49.5 -21h378v64h-378q-5 1 -6 7v0zM640 512v64v64h-128v-128h128zM864 256h-48h-48v96q-1 19 -16 28t-31 -0.5t-17 -27.5v-128q1 -13 10 -22t22 -10h128q19 1 28 16t-0.5 31.5t-27.5 16.5v0zM864 256z" />
    <glyph glyph-name="b" unicode="b" 
d="M991 92q-16 16 -122 127l-122 127q148 196 71.5 406t-315.5 265q-245 30 -388.5 -141t-71.5 -406q79 -195 263.5 -253t361.5 56l245 -256q16 -17 38 -17t38.5 16t17 37.5t-15.5 38.5v0zM431 916q182 -9 264.5 -152t0.5 -306q-99 -152 -264 -152.5t-265 152.5
q-40 71 -41 153q4 129 90 215t215 90v0zM431 916z" />
    <glyph glyph-name="c" unicode="c" 
d="M1013 60l-153 153l-152 153q45 54 69 119.5t25 136.5q-6 169 -119 282t-282 118q-170 -5 -282.5 -118t-118.5 -283q6 -169 118.5 -282t282.5 -118q69 0 133.5 23t117.5 67l303 -302q5 -5 11.5 -6t17 -1t17.5 1t12 6q11 11 11 26t-11 26v-1zM401 294q-195 10 -284 163.5
t0 327.5q106 164 283.5 164t284.5 -164q43 -76 44 -164q-3 -139 -95.5 -232t-232.5 -95v0zM401 294zM510 658h-36h-37v73q-3 21 -21 29.5t-36 -2.5q-14 -10 -16 -27v-73h-72q-22 -1 -32 -18t0.5 -35.5t31.5 -19.5h72v-73q3 -21 21 -29.5t37 2.5q13 10 15 27v73h73
q22 1 31.5 18t-0.5 35.5t-31 19.5v0zM510 658z" />
    <glyph glyph-name="d" unicode="d" 
d="M1013 60l-153 153l-152 153q45 54 69 119.5t25 136.5q-6 169 -119 282t-282 118q-170 -5 -282.5 -118t-118.5 -283q6 -169 118.5 -282t282.5 -118q69 0 133.5 23t117.5 67l303 -302q5 -5 11.5 -6t17 -1t17.5 1t12 6q11 11 11 26t-11 26v-1zM401 294q-195 10 -284 163.5
t0 327.5q106 164 283.5 164t284.5 -164q43 -76 44 -164q-3 -139 -95.5 -232t-232.5 -95v0zM401 294zM510 658zM510 658h-109h-109q-22 -1 -32 -18t0.5 -35.5t31.5 -19.5h218q22 1 31.5 18t-0.5 35.5t-31 19.5v0z" />
    <glyph glyph-name="e" unicode="e" 
d="M0 247v-98v-97h195l563 568l-195 195zM906 769q16 15 16 35.5t-16 35.5l-118 118q-15 15 -35.5 15t-35.5 -15l-92 -92l194 -194zM461 154q-7 -6 -51 -51l-52 -51h666v102h-563zM461 154z" />
    <glyph glyph-name="f" unicode="f" 
d="M638 852l104 -104l104 -105l-528 -527l-208 208zM1004 903l-46 46l-47 46q-28 27 -65 27t-65 -27l-89 -89l209 -208l102 103q21 22 21 50.5t-21 50.5zM1 32q-3 -14 6 -22.5t22 -6.5l233 56l-208 209zM1 32z" />
    <glyph glyph-name="g" unicode="g" 
d="M509 817q33 75 98 119.5t148 46.5q112 -3 184 -82t83 -195q6 -53 -8 -105q-17 -68 -53 -128t-88 -107l-364 -324l-358 324q-52 47 -88 107t-53 128q-14 52 -8 105q12 116 84 195t184 82q81 -2 145 -46.5t94 -119.5v0zM509 817z" />
    <glyph glyph-name="h" unicode="h" 
d="M989 458q17 20 26 44.5t9 50.5q-2 52 -36.5 87t-86.5 36h-177q2 8 5 15.5t7 14.5l6 11q12 22 18 36q8 19 12 39q6 24 6 48v26q-1 14 -3 29.5t-7.5 30.5t-14.5 29q-10 15 -26 25q-18 11 -38 17q-27 7 -54 7q-17 0 -29 -12q-13 -14 -21 -31t-13 -35q-4 -13 -8.5 -38.5
t-8.5 -38.5q-4 -16 -11 -31q-7 -17 -20 -31q-34 -37 -65 -77.5t-64 -76.5t-49 -37.5t-27.5 -13t-11.5 -28.5v-410q0 -16 12 -28t29 -13q52 -8 101 -28l77 -26q28 -8 77 -18q45 -10 92 -10h82q37 -2 69.5 11t57.5 40q19 25 27 54.5t4 61.5q26 25 34 60q12 37 0 75
q31 38 29 87q0 25 -9 49v-1zM989 458zM225 594h-92h-92q-17 0 -28.5 -11.5t-12.5 -29.5v-409q0 -18 12 -29.5t29 -11.5h184q18 1 29.5 12.5t11.5 28.5v409q-1 18 -12.5 29.5t-28.5 11.5v0zM152 197q-19 -17 -40 -11t-29 30q-4 20 7.5 35t32.5 16q24 -2 35 -21t0 -41l-6 -8v0
zM152 197z" />
    <glyph glyph-name="i" unicode="i" 
d="M989 566q8 23 9 48q2 48 -27 87q11 38 0 75q-9 35 -35 60q4 32 -4 61.5t-27 54.5q-25 26 -57.5 39.5t-68.5 11.5h-83q-46 -1 -92 -10q-50 -10 -77 -19l-76 -25q-50 -20 -103 -28q-17 -1 -29 -12.5t-12 -28.5v-410q0 -16 11.5 -27.5t27 -13t49.5 -38.5t64.5 -76.5
t64.5 -76.5q13 -14 20 -31q7 -15 11 -31l9 -39l8 -38q5 -18 13 -35t21 -31q12 -12 29 -12q27 0 53 7q20 5 38 16q16 10 26 26q9 13 15 28.5t8 31t3 30.5v25q0 25 -6 49q-5 19 -12 38q-6 14 -18 36q-1 4 -5.5 11t-7.5 14.5t-5 15.5h177q52 2 86.5 36t36.5 85q0 27 -9 51.5
t-26 44.5v0zM989 566zM225 429q17 1 28.5 12.5t12.5 28.5v410q0 17 -11.5 28.5t-29.5 12.5h-184q-17 -1 -29 -12.5t-12 -28.5v-410q1 -17 12.5 -28.5t28.5 -12.5h184zM152 827q16 -18 10 -39.5t-29 -29.5q-5 -1 -10 -1q-18 0 -29.5 12t-11.5 29q1 24 20.5 35t40.5 0
q5 -2 9 -6v0zM152 827z" />
    <glyph glyph-name="j" unicode="j" 
d="M655 559q-61 32 -125 56q-37 15 -68 40q-29 21 -26.5 53t33.5 50q3 2 7 3q21 7 42 8q83 4 158 -32q19 -9 27.5 -5t14.5 23.5t12 40.5l12 42q5 13 -0.5 24t-17.5 15q-48 21 -100 30q-33 3 -40 11.5t-6 40.5q2 47 -8 57.5t-57 8.5h-26q-22 0 -29 -7.5t-7 -29.5v-41
q2 -28 -4.5 -36t-34.5 -17q-70 -25 -110.5 -74t-45.5 -125q-4 -67 27.5 -114.5t87.5 -80.5q69 -36 142 -64q28 -12 51 -31q33 -27 29.5 -65.5t-41.5 -58.5l-5 -2q-45 -19 -93 -12q-73 8 -138 41q-19 10 -28 6.5t-15.5 -24.5t-10.5 -38l-10 -36q-7 -23 -2 -34t28 -22
q60 -27 126 -36q25 -3 31 -10t5 -33v-48q-1 -15 8 -24t24 -8h71q13 -1 21.5 8t7.5 22q1 33 0 66q-2 15 6.5 26.5t23.5 13.5q37 10 69 30.5t56 49.5q67 88 45.5 188t-117.5 154v0zM655 559z" />
    <glyph glyph-name="k" unicode="k" 
d="M1024 666q-16 13 -31 23v69l-8 5q-27 15 -56 25v70l-10 4q-105 32 -208.5 6.5t-204.5 -69.5q-124 -56 -243 -76t-237 61l-26 18v-480l6 -5q28 -20 58 -35v-68l9 -4q26 -11 54 -19v-34q224 -28 448.5 93.5t448.5 -25.5v441v0zM64 692v-187v-187q-17 9 -32 20v404
q123 -72 245 -49t241 77q98 42 192.5 66t187.5 -1v-34q-44 12 -90 11q-77 -1 -152.5 -25t-149 -55t-146 -54.5t-144.5 -24.5q-68 0 -130 28zM575 320q-64 -24 -106.5 2t-44.5 90q2 65 44.5 124t106.5 87q65 23 107.5 -9t43.5 -96q-1 -65 -43.5 -118t-107.5 -80v0zM961 708
q-209 83 -417.5 -28.5t-417.5 -80.5v-375q-15 5 -31 11v408q58 -22 121 -21q76 1 151.5 25t149.5 55.5t146.5 54.5t143.5 24q82 0 154 -40v-33zM587 541v-25v-26l8 3q25 11 53 4q13 -7 13 -37q2 -29 -15 -52q-21 -22 -51 -31l-7 -3v-23l-24 -9v23l-6 -2q-24 -13 -51 -9
q-16 7 -15 38v8l35 14v-4q-1 -19 5.5 -22t27.5 5l3 2v56q-26 -14 -56 -11q-15 6 -15 39q-2 28 15 50q24 24 56 35v20l24 9v-20q25 13 53 7q14 -6 15 -37v-5q-17 -5 -34 -11v4q0 23 -29 12l-6 -2h1zM563 533q0 -1 -2 -2l-3 -1q-31 -12 -31 -37t31 -13l5 2v51v0zM587 405h3
l2 1q15 4 24 15t9.5 26.5t-7.5 18.5q-16 1 -31 -7v-54v0zM587 405z" />
    <glyph glyph-name="l" unicode="l" 
d="M1016 1017q-8 7 -17.5 7t-17.5 -7l-148 -148l-17 18q-32 31 -74.5 31t-74.5 -31l-489 -489l-30 29q-11 11 -26.5 11t-27.5 -11v0q-11 -12 -11 -27t11 -27l57 -57l-81 -81l-2 2q-12 11 -27.5 11t-27.5 -11v0q-11 -12 -11 -27.5t11 -26.5l172 -172q11 -11 27 -11t27 11v0
q11 12 11 27.5t-11 27.5l-2 2l80 81l57 -57q12 -11 27.5 -11t26.5 11v0q11 12 11 27t-11 27l-30 30l490 489q31 33 31 75t-31 75l-20 19l148 148q7 8 7 17.5t-7 17.5v0zM853 701q-16 -16 -127 -128l-128 -128l-26 26l215 214q7 8 7 17.5t-7 17.5l-54 54q-14 6 -26 -1
t-12 -22q0 -6 3 -12l37 -37l-26 -24l-36 36q-13 7 -25 0.5t-13 -22.5q0 -6 3 -12l37 -37l-24 -24l-36 36q-9 13 -22.5 13t-22.5 -13q-5 -9 -2 -19t12 -16l36 -36l-24 -24l-37 36q-14 7 -25.5 0t-12.5 -23q0 -6 3 -12l37 -36l-20 -20l-91 91l256 256q17 16 39.5 16t39.5 -16
l72 -72q17 -18 17 -40t-17 -40v1zM853 701z" />
    <glyph glyph-name="m" unicode="m" 
d="M892 810h-10h-10v31q0 6 -4 10t-10 4h-76q-6 0 -10 -4t-4 -10v-31h-69v35q-2 41 -29.5 69t-68.5 29h-177q-41 -1 -68.5 -29t-29.5 -69v-35h-69v31q0 6 -4 10t-10 4h-76q-6 0 -10 -4t-4 -10v-31h-20q-56 -1 -94 -38.5t-39 -93.5v-465q1 -56 38.5 -93t93.5 -38h760
q56 1 93.5 38t38.5 93v465q-1 56 -38.5 93t-93.5 39v0zM382 845q1 18 13 29.5t29 12.5h176q17 -1 29 -12.5t13 -29.5v-35h-260v35zM512 208q-141 8 -205.5 119t-0.5 237q78 119 206 119t206 -119q31 -55 31 -118q-2 -101 -69 -168t-168 -70v0zM691 387q0 -5 -4 -9t-10 -4
h-93v-92q0 -6 -4 -10t-10 -4h-116q-6 0 -10 4t-4 10v91h-92q-6 0 -10 4t-4 10v117q0 6 4 10t10 4h92v92q0 6 4 10t10 4h116q6 0 10 -4t4 -10v-92h92q6 0 10 -4t4 -10zM691 387z" />
    <glyph glyph-name="n" unicode="n" 
d="M960 551h-260h-259q-6 0 -10 -4t-4 -9v-180q-16 89 -91.5 120t-149.5 -20q-33 -26 -48 -64l-20 -49q-2 -5 0 -10t7 -7l255 -102q5 -2 10 0t7 7l20 49q8 17 10 36v-80q0 -6 4 -9.5t10 -3.5h519q6 0 9.5 3.5t4.5 9.5v300q-1 5 -4.5 9t-9.5 4v0zM837 260h-137h-137
q-18 2 -25 17t3 30q8 11 22 13h274q17 -3 24 -17.5t-2 -30.5q-9 -11 -22 -12v0zM837 357h-137h-137q-18 2 -25 17t3 30q8 11 22 13h274q17 -3 24 -18t-2 -30q-9 -11 -22 -12v0zM837 456h-137h-137q-18 3 -25 17.5t3 29.5q8 12 22 13h274q17 -3 24 -17.5t-2 -29.5
q-9 -12 -22 -13v0zM869 781h-2h-2q-14 1 -17 14l-5 26h4q19 0 31.5 13t13.5 32v113q-1 19 -13.5 32t-31.5 13h-293q-19 0 -31.5 -13t-13.5 -32v-113q1 -19 13.5 -31.5t31.5 -13.5h2l-5 -25q-3 -14 -17 -15v0q-21 0 -40 -8t-34 -23t-23 -34.5t-8 -41.5v-49q0 -6 3.5 -9.5
t9.5 -3.5h520q5 0 9 3.5t4 9.5v49q-1 45 -31 75t-75 32v0zM960 165h-260h-259q-6 0 -10 -3.5t-4 -9.5v-44q1 -46 31 -76.5t76 -31.5h333q45 1 75 31.5t31 76.5v44q-1 12 -13 13v0zM358 170q-16 6 -128 52l-128 51q-5 2 -10 0t-7 -7l-24 -58q-22 -60 1 -115.5t81 -81.5
q28 -11 57 -11q47 1 84.5 25.5t55.5 67.5l24 61q3 10 -6 16v0z" />
    <glyph glyph-name="o" unicode="o" 
d="M731 736q-3 -93 -64 -154t-153 -63q-93 2 -154 63t-63 154q2 92 63 153t154 63v0q92 -4 153 -64t64 -152v0v0zM761 256q0 -14 -9.5 -23.5t-23.5 -9.5t-23.5 9.5t-9.5 23.5t9.5 23.5t23.5 9.5t23.5 -9.5t9.5 -23.5v0v0zM350 378q-23 23 -53 23q-16 0 -30 -7t-24 -18
q54 11 107 2v0v0zM1024 146q-20 122 -90 219.5t-178 155.5q16 -97 -3 -194q32 -11 46 -39.5t3 -60t-39.5 -45.5t-60.5 -3q-25 8 -39 28.5t-14 47t17 47.5t44 28q14 64 9.5 126.5t-9.5 85.5q-7 3 -18 7q-78 -74 -179.5 -74.5t-180.5 72.5q-22 -51 -17 -110q54 -9 87.5 -60
t34.5 -124q-1 -53 -20 -102q-7 -15 -24 -23t-30 -8q-18 1 -29 12t-11 27.5t11 28t26 12.5v0q13 -1 26 -6q9 31 8 64t-11 64q-42 17 -87.5 17t-88.5 -17q-11 -31 -12 -64t7 -64q13 5 26 6q17 -1 28.5 -12t11.5 -27t-11 -28t-27 -13v0q-34 0 -53 31q-23 49 -23 102
q1 73 34 124.5t86 64.5q-2 23 0.5 45.5t6.5 43.5q-114 -57 -187 -157t-93 -225q-4 -30 12 -51t44 -26h896q29 1 48.5 19t19.5 47q4 4 3 8v0z" />
    <glyph glyph-name="p" unicode="p" 
d="M990 1021q-12 7 -25 0l-929 -551q-11 -8 -11 -20.5t12 -19.5l4 -2l237 -66q11 -3 20 4l378 308l-263 -335q-5 -6 -5 -14v-302q1 -17 16 -22q3 -1 7 0q12 0 19 10l165 258l240 -68q10 -2 18.5 3.5t10.5 15.5l115 779q2 14 -9 22v0zM990 1021z" />
    <glyph glyph-name="q" unicode="q" 
d="M985 354h-40h-39q-18 1 -29 -10.5t-10 -28.5v-98q0 -9 -6 -14.5t-14 -5.5h-670q-8 0 -14 5.5t-6 14.5v98q1 17 -10.5 28.5t-28.5 10.5h-79q-17 1 -28 -10.5t-11 -28.5v-236q0 -17 11 -28.5t28 -10.5h946q17 -1 28 10.5t11 28.5v236q0 17 -11 28.5t-28 10.5v0zM985 354z
M484 366q12 -11 28 -11t28 11l236 236q12 12 12 28t-12 28l-55 55q-12 11 -28 11t-27 -11l-40 -39q-10 -8 -21 -4.5t-14 15.5v4v256q0 17 -11 28.5t-29 11.5h-78q-18 0 -29 -11.5t-11 -28.5v-260q-1 -13 -11.5 -18t-21.5 1l-2 2l-40 39q-11 12 -27.5 12t-27.5 -12l-55 -55
q-12 -12 -12 -27.5t12 -27.5zM484 366z" />
    <glyph glyph-name="r" unicode="r" 
d="M801 141h-110h-110v223h73q14 0 20 11t0 23l-143 197q-7 10 -18 10t-19 -10l-141 -195q-8 -12 -2.5 -23t18.5 -13h75v-223h-246q-85 8 -140.5 71t-57.5 148q0 57 27 104t76 76q-24 73 16.5 130.5t116.5 60.5q25 0 49 -9q80 150 233.5 162.5t257.5 -121.5q42 -61 49 -135
q143 -36 186 -163t-49 -243q-31 -35 -73 -56.5t-90 -25.5zM801 141z" />
    <glyph glyph-name="s" unicode="s" 
d="M875 909h-15h-15v-736q-1 -38 -26 -63t-62 -26h-545v-27q0 -24 16 -40t40 -16h607q24 0 40 16t16 40v794q0 24 -16 40t-40 16v2zM875 909zM453 116h152h151q24 1 40 17t17 40v794q0 24 -16 40.5t-41 17.5h-404v-180q-1 -34 -23.5 -56t-56.5 -23h-179v-593q1 -24 17 -40
t40 -17h303zM464 308h-98h-99q-16 1 -23.5 13.5t0.5 26t23 13.5h197q16 -1 23.5 -13.5t0 -26t-23.5 -13.5v0zM662 444h-197h-198q-16 1 -23.5 13.5t0.5 26t23 14.5h395q16 -1 23.5 -13.5t-0.5 -26t-23 -14.5v0zM267 644h198h197q16 -1 23.5 -13.5t-0.5 -26t-23 -14.5h-395
q-16 1 -23.5 13.5t0.5 26t23 14.5v0zM267 644zM118 797h78h77q20 1 33.5 14.5t13.5 33.5v154q1 11 -6 18t-17.5 7t-16.5 -7l-180 -179q-9 -10 -6 -22.5t17 -17.5q3 -1 6 -1h1zM118 797z" />
    <glyph glyph-name="t" unicode="t" 
d="M894 771l-104 104l-104 104q-38 35 -89 43v-339h340q-8 50 -43 88v0zM894 771zM576 597q-27 1 -45 19t-19 45v363h-362q-28 -1 -46 -19t-18 -45v-896q0 -27 18 -45t46 -19h725q27 0 45.5 19t18.5 45v533h-363zM576 597z" />
    <glyph glyph-name="u" unicode="u" 
d="M239 623q-7 -1 -9 -9l-196 -486v-17q0 -9 1.5 -13t8.5 -4h764q14 0 25.5 8.5t15.5 22.5l175 481v17h-785zM239 623zM217 657h352h353v107q-1 20 -14 33t-33 14h-422l-86 119h-320q-20 0 -33 -13.5t-14 -32.5v-714l176 456q4 14 15.5 22.5t25.5 8.5v0zM217 657z" />
    <glyph glyph-name="v" unicode="v" 
d="M947 900q-1 0 -3 2l-2 3q-84 77 -191 76t-190 -79l-484 -485q-34 -33 -53.5 -74.5t-23.5 -88.5q6 -124 104 -181t209 -1q25 14 45 35l418 418q21 22 32.5 50t10.5 59q-8 88 -78 125.5t-147 -5.5q-15 -9 -26 -21l-321 -320q-13 -13 -13 -31q1 -26 21.5 -38t44.5 0q5 3 9 7
v0l320 320q18 17 42.5 17t41.5 -17t18 -40q1 -25 -17 -44l-418 -418q-38 -36 -86.5 -36t-86.5 36q-17 17 -26 39t-9 46q4 29 17 55t34 46l484 485q55 53 128 53.5t129 -52.5l5 -4q51 -57 50.5 -129t-53.5 -127l-401 -402q-18 -19 -12 -42t31 -32q12 -3 23 0t20 12v0l401 401
q79 83 80 190.5t-77 191.5v0zM947 900z" />
    <glyph glyph-name="w" unicode="w" 
d="M1024 613q-3 10 -12 14q-81 32 -168 32q-97 0 -187 -38l-288 245q5 40 -5.5 79t-34.5 72q-5 6 -13.5 6.5t-14.5 -5.5l-295 -294q-6 -7 -5.5 -15t7.5 -14q28 -21 61 -31t68 -9h20l246 -289q-17 -36 -32.5 -135t26.5 -219q4 -9 14 -12h4q8 0 13 6l282 281l262 -261
q11 -4 19.5 1.5t8.5 17.5q0 3 -2 7l-261 263l281 281q7 8 6 18v-1zM1024 613z" />
    <glyph glyph-name="x" unicode="x" 
d="M946 709h-433h-434q-16 -1 -27.5 -12t-11.5 -27v-591q1 -17 12 -28t27 -11h867q16 0 27 11t12 28v591q0 16 -11.5 27t-27.5 12v0zM619 524q-11 -12 -28 -12h-157q-24 1 -34.5 19.5t0.5 39.5q11 19 34 20h157q24 -1 34.5 -19.5t-0.5 -39.5q-2 -4 -6 -8v0zM619 524z
M1013 973q-12 12 -28 12h-945q-16 0 -28 -11.5t-11 -28.5v-157q-1 -17 11 -28.5t28 -11.5h945q17 1 28 12t11 28v157q1 17 -11 28v0zM1013 973z" />
    <glyph glyph-name="y" unicode="y" 
d="M866 312q-23 17 -186 134l-185 133h-409q-15 0 -24.5 -9.5t-10.5 -24.5v-512q1 -14 10.5 -23t23.5 -10h749q15 1 24.5 10.5t9.5 23.5v277q-1 0 -1.5 0.5zM552 419q-10 -10 -24 -10h-137q-14 0 -24 10t-10 24t10 24t24 10h137q14 0 24 -9.5t10 -24t-10 -24.5v0zM973 518
q-3 13 -14 22l-663 478q-12 8 -25.5 5.5t-22.5 -13.5l-80 -111q-8 -11 -5.5 -25t13.5 -22l664 -478q11 -8 25 -6t22 14l80 110q8 12 6 26v0zM973 518z" />
    <glyph glyph-name="z" unicode="z" 
d="M1 512q15 -304 255 -442.5t512 -0.5q256 166 256 443t-256 443q-59 34 -123.5 51.5t-132.5 17.5q-217 -5 -361.5 -149.5t-149.5 -362.5v0zM512 884q221 -12 321.5 -186t-0.5 -371q-6 -11 -14 -23l-515 515q46 32 99 48t109 17v0zM720 205q-189 -113 -369.5 -25.5
t-207.5 307.5q-5 62 11 121.5t51 111.5zM720 205z" />
    <glyph glyph-name="braceleft" unicode="{" 
d="M719 1024h-207h-207q-129 -3 -215.5 -89.5t-89.5 -215.5v-414q3 -129 89.5 -215.5t215.5 -89.5h414q129 3 215.5 89.5t89.5 215.5v414q-3 129 -89.5 215.5t-215.5 89.5v0zM921 305q-2 -86 -59 -143t-143 -59h-414q-86 2 -143 59t-59 143v414q2 86 59 143t143 59h414
q86 -2 143 -59t59 -143v-414v0zM512 777q-158 -8 -229.5 -132.5t0.5 -264.5q86 -133 229 -133t229 133q35 61 36 132q-3 112 -78 187t-187 78v0zM512 350q-96 5 -140 81t0 162q52 81 140 81t140 -81q22 -38 22 -81q-2 -69 -47.5 -114.5t-114.5 -47.5v0zM714 775
q2 -38 31.5 -55t63.5 0q15 9 23.5 23.5t8.5 31.5q-2 37 -32 54.5t-63 0.5q-15 -9 -23.5 -23.5t-8.5 -31.5z" />
  </font>
</defs>
</svg>
