<?xml version="1.0" encoding="utf-8"?>
<!-- Generator: Adobe Illustrator 22.0.1, SVG Export Plug-In . SVG Version: 6.00 Build 0)  -->
<!DOCTYPE svg PUBLIC "-//W3C//DTD SVG 1.1//EN" "http://www.w3.org/Graphics/SVG/1.1/DTD/svg11.dtd">
<svg version="1.1" id="Layer_1" xmlns="http://www.w3.org/2000/svg" xmlns:xlink="http://www.w3.org/1999/xlink" x="0px" y="0px"
	 viewBox="0 0 50 50" style="enable-background:new 0 0 50 50;" xml:space="preserve">
<g>
	<path style="fill:#FFFFFF;" d="M45.9,15.5H4.1c-0.5,0-1,0.2-1.3,0.6c-0.4,0.4-0.6,0.8-0.6,1.3v28.5c0,0.5,0.2,1,0.6,1.3
		c0.4,0.4,0.8,0.6,1.3,0.6h41.8c0.5,0,1-0.2,1.3-0.6c0.4-0.4,0.6-0.8,0.6-1.3V17.4c0-0.5-0.2-1-0.6-1.3
		C46.9,15.7,46.4,15.5,45.9,15.5L45.9,15.5z M30.1,24.4c-0.4,0.4-0.8,0.6-1.3,0.6h-7.6c-0.5,0-1-0.2-1.3-0.6
		c-0.4-0.4-0.6-0.8-0.6-1.3c0-0.5,0.2-1,0.6-1.3c0.4-0.4,0.8-0.6,1.3-0.6h7.6c0.5,0,1,0.2,1.3,0.6c0.4,0.4,0.6,0.8,0.6,1.3
		C30.7,23.6,30.5,24.1,30.1,24.4L30.1,24.4z M30.1,24.4"/>
	<path style="fill:#FFFFFF;" d="M49.1,2.8c-0.4-0.4-0.8-0.6-1.3-0.6H2.2c-0.5,0-1,0.2-1.3,0.6C0.5,3.1,0.3,3.6,0.3,4.1v7.6
		c0,0.5,0.2,1,0.6,1.3c0.4,0.4,0.8,0.6,1.3,0.6h45.6c0.5,0,1-0.2,1.3-0.6c0.4-0.4,0.6-0.8,0.6-1.3V4.1C49.7,3.6,49.5,3.1,49.1,2.8
		L49.1,2.8z M49.1,2.8"/>
</g>
</svg>
