<?xml version="1.0" encoding="iso-8859-1"?>
<!-- Generator: Adobe Illustrator 22.0.1, SVG Export Plug-In . SVG Version: 6.00 Build 0)  -->
<!DOCTYPE svg PUBLIC "-//W3C//DTD SVG 1.1//EN" "http://www.w3.org/Graphics/SVG/1.1/DTD/svg11.dtd">
<svg version="1.1" id="Layer_1" xmlns="http://www.w3.org/2000/svg" xmlns:xlink="http://www.w3.org/1999/xlink" x="0px" y="0px"
	 viewBox="0 0 50 50" style="enable-background:new 0 0 50 50;" xml:space="preserve">
<g>
	<g>
		<path style="fill:#16A085;" d="M7.782,47.115c2.393,0.543,19.883,3.451,22.738,2.787c4.084-0.949,15.645-7.8,17.862-9.93
			c3.436-3.302,0.765-6.788-2.113-5.199l0,0c-3.957,2.184-9.398,4.203-14.825,5.054c-4.828,0.757-13.913-1.069-13.913-3.226
			c0-0.817,7.967,2.014,12.787,0.728c3.695-0.986,3.171-4.443,1.16-4.899c-1.998-0.453-13.706-4.742-18.707-4.89
			c-2.356-0.07-8.171,0.819-10.986,1.278c-0.964,0.157-1.569,0.139-1.629,1.061C-0.125,34.167,0.06,40.28,0.06,45.001"/>
	</g>
</g>
<g>
	<path style="fill:#16A085;" d="M44.739,12.121H34.147V1.529C34.147,1.046,33.491,0,32.181,0c-1.31,0-1.965,1.046-1.965,1.529
		v10.593H19.623c-0.482-0.001-1.529,0.655-1.529,1.965s1.046,1.965,1.529,1.965h10.593v10.592c0,0.483,0.655,1.529,1.965,1.529
		c1.311,0,1.965-1.046,1.965-1.529V16.052h10.593c0.482,0,1.529-0.655,1.529-1.965S45.222,12.121,44.739,12.121L44.739,12.121z"/>
</g>
</svg>
