<?xml version="1.0" encoding="utf-8"?>
<!-- Generator: Adobe Illustrator 22.0.1, SVG Export Plug-In . SVG Version: 6.00 Build 0)  -->
<!DOCTYPE svg PUBLIC "-//W3C//DTD SVG 1.1//EN" "http://www.w3.org/Graphics/SVG/1.1/DTD/svg11.dtd">
<svg version="1.1" id="Layer_1" xmlns="http://www.w3.org/2000/svg" xmlns:xlink="http://www.w3.org/1999/xlink" x="0px" y="0px"
	 viewBox="0 0 50 50" style="enable-background:new 0 0 50 50;" xml:space="preserve">
<g>
	<path style="fill:#C44569;" d="M36.1,4.6h-9.3V0.4H14.3v4.2H5v6.7h31.1V4.6z M17.6,3.7h5.9v0.9h-5.9V3.7z M17.6,3.7"/>
	<path style="fill:#C44569;" d="M33.2,24.2l0.6-9.6H7.4l2.1,32.2h12.7c-1.7-2.3-2.6-5.2-2.6-8.3C19.5,30.9,25.6,24.6,33.2,24.2
		L33.2,24.2z M33.2,24.2"/>
	<path style="fill:#C44569;" d="M33.9,27.5c-6.1,0-11.1,5-11.1,11.1c0,6.1,5,11.1,11.1,11.1S45,44.7,45,38.6
		C45,32.5,40,27.5,33.9,27.5L33.9,27.5z M39.9,42.2l-2.4,2.4l-3.7-3.7l-3.7,3.7l-2.4-2.4l3.7-3.7l-3.7-3.7l2.4-2.4l3.7,3.7l3.7-3.7
		l2.4,2.4l-3.7,3.7L39.9,42.2z M39.9,42.2"/>
</g>
</svg>
