<?xml version="1.0" encoding="iso-8859-1"?>
<!-- Generator: Adobe Illustrator 22.0.1, SVG Export Plug-In . SVG Version: 6.00 Build 0)  -->
<!DOCTYPE svg PUBLIC "-//W3C//DTD SVG 1.1//EN" "http://www.w3.org/Graphics/SVG/1.1/DTD/svg11.dtd">
<svg version="1.1" id="Layer_1" xmlns="http://www.w3.org/2000/svg" xmlns:xlink="http://www.w3.org/1999/xlink" x="0px" y="0px"
	 viewBox="0 0 50 50" style="enable-background:new 0 0 50 50;" xml:space="preserve">
<g>
	<path style="fill:#3498DB;" d="M47.933,32.648h-3.827c-1.137,0-1.902,0.764-1.902,1.914v4.778c0,0.569-0.385,0.951-0.963,0.951
		H8.759c-0.581,0-0.963-0.382-0.963-0.951v-4.778c0-1.149-0.764-1.914-1.914-1.914H2.067c-1.149,0-1.914,0.764-1.914,1.914v11.457
		c0,1.149,0.764,1.914,1.914,1.914h45.865c1.147,0,1.913-0.764,1.913-1.914V34.562C49.846,33.413,49.079,32.648,47.933,32.648
		L47.933,32.648z"/>
	<path style="fill:#3498DB;" d="M23.661,32.07c0.382,0.382,0.951,0.578,1.333,0.578c0.385,0,0.963-0.196,1.345-0.578l11.469-11.46
		c0.382-0.382,0.569-0.767,0.569-1.345c0-0.569-0.186-0.951-0.569-1.333l-2.678-2.678c-0.385-0.385-0.767-0.571-1.345-0.571
		c-0.569,0-0.951,0.186-1.333,0.571l-1.914,1.911c-0.571,0.571-1.718,0.186-1.718-0.764V3.981c0-1.149-0.764-1.914-1.914-1.914
		h-3.815c-1.149,0-1.914,0.764-1.914,1.914v12.606c0,0.764-0.963,1.345-1.727,0.764l-1.904-1.902
		c-0.382-0.385-0.764-0.58-1.343-0.58c-0.571,0-0.953,0.196-1.335,0.58l-2.678,2.668c-0.382,0.382-0.569,0.764-0.569,1.343
		c0,0.571,0.186,0.953,0.569,1.335L23.661,32.07z"/>
</g>
</svg>
