<?xml version="1.0" encoding="iso-8859-1"?>
<!-- Generator: Adobe Illustrator 22.0.1, SVG Export Plug-In . SVG Version: 6.00 Build 0)  -->
<!DOCTYPE svg PUBLIC "-//W3C//DTD SVG 1.1//EN" "http://www.w3.org/Graphics/SVG/1.1/DTD/svg11.dtd">
<svg version="1.1" id="Layer_1" xmlns="http://www.w3.org/2000/svg" xmlns:xlink="http://www.w3.org/1999/xlink" x="0px" y="0px"
	 viewBox="0 0 50 50" style="enable-background:new 0 0 50 50;" xml:space="preserve">
<g>
	<path style="fill:#FFFFFF;" d="M40.687,16.517h-8.301v4.927h8.301c2.47,0,4.386,1.258,4.386,2.345v18.843
		c0,1.083-1.916,2.345-4.386,2.345H9.308c-2.465,0-4.381-1.262-4.381-2.345V23.789c0-1.083,1.916-2.345,4.381-2.345h8.302v-4.927
		H9.308C4.088,16.517,0,19.712,0,23.789v18.843c0,4.081,4.088,7.272,9.308,7.272h31.384c5.215,0,9.309-3.195,9.309-7.272V23.789
		C50,19.712,45.911,16.517,40.687,16.517L40.687,16.517z M40.687,16.517"/>
	<path style="fill:#FFFFFF;" d="M32.454,12.279c0.629,0,1.259-0.241,1.739-0.721c0.963-0.963,0.963-2.521,0-3.484l-7.352-7.352
		C26.361,0.24,25.731,0,25.098,0h-0.036c-0.629,0-1.259,0.24-1.739,0.721L15.97,8.073c-0.962,0.963-0.962,2.521,0,3.484
		c0.481,0.48,1.111,0.721,1.74,0.721c0.629,0,1.258-0.241,1.739-0.721l3.251-3.251v25.226c0,1.359,1.102,2.461,2.465,2.461
		c1.36,0,2.462-1.102,2.462-2.461V8.474l3.083,3.083C31.192,12.037,31.821,12.279,32.454,12.279L32.454,12.279z M32.454,12.279"/>
</g>
<g>
</g>
<g>
</g>
<g>
</g>
<g>
</g>
<g>
</g>
<g>
</g>
</svg>
