<?xml version="1.0" encoding="iso-8859-1"?>
<!-- Generator: Adobe Illustrator 22.0.1, SVG Export Plug-In . SVG Version: 6.00 Build 0)  -->
<!DOCTYPE svg PUBLIC "-//W3C//DTD SVG 1.1//EN" "http://www.w3.org/Graphics/SVG/1.1/DTD/svg11.dtd">
<svg version="1.1" id="Layer_1" xmlns="http://www.w3.org/2000/svg" xmlns:xlink="http://www.w3.org/1999/xlink" x="0px" y="0px"
	 viewBox="0 0 50 50" style="enable-background:new 0 0 50 50;" xml:space="preserve">
<g>
	<path style="fill:#FFFFFF;" d="M40.687,13.517h-8.301v4.927h8.301c2.47,0,4.386,1.258,4.386,2.345v21.843
		c0,1.083-1.916,2.345-4.386,2.345H9.308c-2.465,0-4.381-1.262-4.381-2.345V20.789c0-1.083,1.916-2.345,4.381-2.345h8.302v-4.927
		H9.308C4.088,13.517,0,16.712,0,20.789v21.843c0,4.081,4.088,7.272,9.308,7.272h31.384c5.215,0,9.309-3.195,9.309-7.272V20.789
		C50,16.712,45.911,13.517,40.687,13.517L40.687,13.517z M40.687,13.517"/>
	<path style="fill:#FFFFFF;" d="M32.454,23.811c-0.633,0-1.262,0.241-1.744,0.721l-3.083,3.083V2.557
		c0-1.359-1.102-2.461-2.462-2.461c-1.363,0-2.465,1.102-2.465,2.461v25.226l-3.251-3.251c-0.481-0.48-1.11-0.721-1.739-0.721
		c-0.629,0-1.259,0.241-1.74,0.721c-0.962,0.963-0.962,2.521,0,3.484l7.353,7.352c0.48,0.481,1.11,0.721,1.739,0.721h0.036
		c0.633,0,1.263-0.24,1.744-0.721l7.352-7.352c0.963-0.963,0.963-2.521,0-3.484C33.713,24.052,33.083,23.811,32.454,23.811
		L32.454,23.811z M32.454,23.811"/>
</g>
<g>
</g>
<g>
</g>
<g>
</g>
<g>
</g>
<g>
</g>
<g>
</g>
</svg>
