<?xml version="1.0" encoding="iso-8859-1"?>
<!-- Generator: Adobe Illustrator 22.0.1, SVG Export Plug-In . SVG Version: 6.00 Build 0)  -->
<!DOCTYPE svg PUBLIC "-//W3C//DTD SVG 1.1//EN" "http://www.w3.org/Graphics/SVG/1.1/DTD/svg11.dtd">
<svg version="1.1" id="Isolation_Mode" xmlns="http://www.w3.org/2000/svg" xmlns:xlink="http://www.w3.org/1999/xlink" x="0px"
	 y="0px" viewBox="0 0 262.147 97.961" style="enable-background:new 0 0 262.147 97.961;" xml:space="preserve">
<g>
	<path style="fill:#FFFFFF;" d="M48.98,0C21.93,0,0,21.93,0,48.98c0,27.053,21.93,48.98,48.98,48.98
		c27.05,0,48.98-21.928,48.98-48.98C97.961,21.93,76.031,0,48.98,0z M57.275,86.453h-16.59V30.838h16.59V86.453z M48.98,28.342
		c-4.581,0-8.295-3.713-8.295-8.295c0-4.58,3.714-8.295,8.295-8.295c4.581,0,8.295,3.715,8.295,8.295
		C57.275,24.629,53.562,28.342,48.98,28.342z"/>
	<g style="opacity:0.7;">
		<defs>
			<path id="SVGID_1_" style="opacity:0.7;" d="M48.98,0C21.93,0,0,21.93,0,48.98c0,27.053,21.93,48.98,48.98,48.98
				c27.05,0,48.98-21.928,48.98-48.98C97.961,21.93,76.031,0,48.98,0z M57.275,86.453h-16.59V30.838h16.59V86.453z M48.98,28.342
				c-4.581,0-8.295-3.713-8.295-8.295c0-4.58,3.714-8.295,8.295-8.295c4.581,0,8.295,3.715,8.295,8.295
				C57.275,24.629,53.562,28.342,48.98,28.342z"/>
		</defs>
		<clipPath id="SVGID_2_">
			<use xlink:href="#SVGID_1_"  style="overflow:visible;"/>
		</clipPath>
		<defs>
			<filter id="Adobe_OpacityMaskFilter" filterUnits="userSpaceOnUse" x="41.058" y="86.506" width="43.214" height="14.96">
				<feFlood  style="flood-color:white;flood-opacity:1" result="back"/>
				<feBlend  in="SourceGraphic" in2="back" mode="normal"/>
			</filter>
		</defs>
		<mask maskUnits="userSpaceOnUse" x="41.058" y="86.506" width="43.214" height="14.96" id="SVGID_3_">
			<g style="filter:url(#Adobe_OpacityMaskFilter);">
				<defs>
					<filter id="Adobe_OpacityMaskFilter_1_" filterUnits="userSpaceOnUse" x="30.805" y="35.992" width="59.341" height="64.217">
						<feFlood  style="flood-color:white;flood-opacity:1" result="back"/>
						<feBlend  in="SourceGraphic" in2="back" mode="normal"/>
					</filter>
				</defs>
				<mask maskUnits="userSpaceOnUse" x="30.805" y="35.992" width="59.341" height="64.217" id="SVGID_3_">
					<g style="filter:url(#Adobe_OpacityMaskFilter_1_);">
					</g>
				</mask>
				
					<linearGradient id="SVGID_4_" gradientUnits="userSpaceOnUse" x1="286.6391" y1="510.0602" x2="343.5734" y2="536.2471" gradientTransform="matrix(0.5327 0.8463 -0.8463 0.5327 336.3286 -476.1479)">
					<stop  offset="0.0054" style="stop-color:#4D4D4D"/>
					<stop  offset="0.1114" style="stop-color:#464646"/>
					<stop  offset="0.172" style="stop-color:#404040"/>
					<stop  offset="0.3639" style="stop-color:#3B3B3B"/>
					<stop  offset="0.5903" style="stop-color:#2C2C2C"/>
					<stop  offset="0.8332" style="stop-color:#151515"/>
					<stop  offset="1" style="stop-color:#000000"/>
				</linearGradient>
				<path style="clip-path:url(#SVGID_2_);mask:url(#SVGID_3_);fill:url(#SVGID_4_);" d="M30.805,35.992l12.726,62.701
					c13.412,3.271,28.078,1.328,40.681-6.604c2.109-1.328,4.083-2.789,5.934-4.349l-6.559-38.573L30.805,35.992z"/>
			</g>
		</mask>
		
			<linearGradient id="SVGID_5_" gradientUnits="userSpaceOnUse" x1="329.0203" y1="531.1061" x2="344.0078" y2="537.9996" gradientTransform="matrix(0.5327 0.8463 -0.8463 0.5327 336.3286 -476.1479)">
			<stop  offset="0.0054" style="stop-color:#231F20"/>
			<stop  offset="0.03" style="stop-color:#292527"/>
			<stop  offset="0.0645" style="stop-color:#3A3739"/>
			<stop  offset="0.1049" style="stop-color:#565557"/>
			<stop  offset="0.1494" style="stop-color:#7D7D80"/>
			<stop  offset="0.172" style="stop-color:#939598"/>
			<stop  offset="0.3054" style="stop-color:#8E9093"/>
			<stop  offset="0.4629" style="stop-color:#818285"/>
			<stop  offset="0.6325" style="stop-color:#6B6B6D"/>
			<stop  offset="0.8107" style="stop-color:#4C4A4C"/>
			<stop  offset="0.9939" style="stop-color:#242122"/>
			<stop  offset="1" style="stop-color:#231F20"/>
		</linearGradient>
		<path style="clip-path:url(#SVGID_2_);fill:url(#SVGID_5_);" d="M41.058,86.506l13.016,13.725
			c11.217,2.998,15.953,0.633,30.138-8.142c0.845,0.69-7.6,1.971-7.6,1.971l-10.777,5.879L41.058,86.506z"/>
	</g>
	<path style="fill:#FFFFFF;" d="M213.167,0c-27.05,0-48.979,21.93-48.979,48.98c0,27.053,21.93,48.98,48.979,48.98
		c27.051,0,48.98-21.928,48.98-48.98C262.147,21.93,240.217,0,213.167,0z M241.843,64.965c-0.217,7.186-6.26,20.15-26.571,21.33
		c-21.007,1.219-30.881-12.891-30.881-12.891l11.311-12.389c0,0,3.77,2.693,11.671,5.746c7.9,3.051,14.723,0.539,13.106-3.949
		c-1.616-4.488-16.159-9.338-16.159-9.338c-6.105-2.514-19.392-8.523-14.184-25.674c11.709-30.012,49.554-9.156,49.554-9.156
		l-10.234,14.799c0,0-7.86-3.039-11.923-3.539c-8.188-0.937-8.591,5.266-6.063,7c2.188,1.5,5.801,1.885,9.813,3.625
		c3.966,1.72,7.681,3.619,7.681,3.619C243.926,51.982,241.843,64.965,241.843,64.965z"/>
	<path style="fill:#FFFFFF;" d="M132.626,0c-27.05,0-48.979,21.93-48.979,48.98c0,27.053,21.93,48.98,48.979,48.98
		c27.051,0,48.98-21.928,48.98-48.98C181.606,21.93,159.676,0,132.626,0z M132.626,86.699c-15.256,0-27.623-12.367-27.623-27.623
		c0-2.596,0.033-47.424,0.033-47.424l18.297,0.027v21.383c0.006-0.002,0.012-0.004,0.018-0.006v25.896h0.01
		c-0.01,0.174-0.027,0.348-0.027,0.525c0,5.461,4.428,9.891,9.892,9.891c5.461,0,9.891-4.43,9.891-9.891
		c0-5.463-4.43-9.891-9.891-9.891c-2.42,0-4.634,0.871-6.353,2.313V32.084c1.858-0.396,3.777-0.629,5.754-0.629
		c15.251,0,27.622,12.368,27.622,27.621C160.249,74.332,147.878,86.699,132.626,86.699z"/>
	<g>
		<defs>
			<path id="SVGID_6_" d="M132.626,0c-27.05,0-48.979,21.93-48.979,48.98c0,27.053,21.93,48.98,48.979,48.98
				c27.051,0,48.98-21.928,48.98-48.98C181.606,21.93,159.676,0,132.626,0z M132.626,86.699c-15.256,0-27.623-12.367-27.623-27.623
				c0-2.596,0.033-47.424,0.033-47.424l18.297,0.027v21.383c0.006-0.002,0.012-0.004,0.018-0.006v25.896h0.01
				c-0.01,0.174-0.027,0.348-0.027,0.525c0,5.461,4.428,9.891,9.892,9.891c5.461,0,9.891-4.43,9.891-9.891
				c0-5.463-4.43-9.891-9.891-9.891c-2.42,0-4.634,0.871-6.353,2.313V32.084c1.858-0.396,3.777-0.629,5.754-0.629
				c15.251,0,27.622,12.368,27.622,27.621C160.249,74.332,147.878,86.699,132.626,86.699z"/>
		</defs>
		<clipPath id="SVGID_7_">
			<use xlink:href="#SVGID_6_"  style="overflow:visible;"/>
		</clipPath>
	</g>
	<g style="opacity:0.7;">
		<defs>
			<path id="SVGID_8_" style="opacity:0.7;" d="M213.167,0c-27.05,0-48.979,21.93-48.979,48.98c0,27.053,21.93,48.98,48.979,48.98
				c27.051,0,48.98-21.928,48.98-48.98C262.147,21.93,240.217,0,213.167,0z M241.843,64.965c-0.217,7.186-6.26,20.15-26.571,21.33
				c-21.007,1.219-30.881-12.891-30.881-12.891l11.311-12.389c0,0,3.77,2.693,11.671,5.746c7.9,3.051,14.723,0.539,13.106-3.949
				c-1.616-4.488-16.159-9.338-16.159-9.338c-6.105-2.514-19.392-8.523-14.184-25.674c11.709-30.012,49.554-9.156,49.554-9.156
				l-10.234,14.799c0,0-7.86-3.039-11.923-3.539c-8.188-0.937-8.591,5.266-6.063,7c2.188,1.5,5.801,1.885,9.813,3.625
				c3.966,1.72,7.681,3.619,7.681,3.619C243.926,51.982,241.843,64.965,241.843,64.965z"/>
		</defs>
		<use xlink:href="#SVGID_8_"  style="overflow:visible;fill:#FFFFFF;"/>
		<clipPath id="SVGID_9_">
			<use xlink:href="#SVGID_8_"  style="overflow:visible;"/>
		</clipPath>
		<path style="clip-path:url(#SVGID_9_);fill:#FFFFFF;" d="M245.124,17.196"/>
	</g>
	<g style="opacity:0.7;">
		<defs>
			<path id="SVGID_10_" style="opacity:0.7;" d="M132.626,0c-27.05,0-48.979,21.93-48.979,48.98c0,27.053,21.93,48.98,48.979,48.98
				c27.051,0,48.98-21.928,48.98-48.98C181.606,21.93,159.676,0,132.626,0z M132.626,86.699c-15.256,0-27.623-12.367-27.623-27.623
				c0-2.596,0.033-47.424,0.033-47.424l18.297,0.027v21.383c0.006-0.002,0.012-0.004,0.018-0.006v25.896h0.01
				c-0.01,0.174-0.027,0.348-0.027,0.525c0,5.461,4.428,9.891,9.892,9.891c5.461,0,9.891-4.43,9.891-9.891
				c0-5.463-4.43-9.891-9.891-9.891c-2.42,0-4.634,0.871-6.353,2.313V32.084c1.858-0.396,3.777-0.629,5.754-0.629
				c15.251,0,27.622,12.368,27.622,27.621C160.249,74.332,147.878,86.699,132.626,86.699z"/>
		</defs>
		<clipPath id="SVGID_11_">
			<use xlink:href="#SVGID_10_"  style="overflow:visible;"/>
		</clipPath>
	</g>
</g>
</svg>
