<?xml version="1.0" encoding="utf-8"?>
<!-- Generator: Adobe Illustrator 22.0.1, SVG Export Plug-In . SVG Version: 6.00 Build 0)  -->
<!DOCTYPE svg PUBLIC "-//W3C//DTD SVG 1.1//EN" "http://www.w3.org/Graphics/SVG/1.1/DTD/svg11.dtd">
<svg version="1.1" id="Isolation_Mode" xmlns="http://www.w3.org/2000/svg" xmlns:xlink="http://www.w3.org/1999/xlink" x="0px"
	 y="0px" viewBox="0 0 262.1 98" style="enable-background:new 0 0 262.1 98;" xml:space="preserve">
<style type="text/css">
	.st0{fill:#FFFFFF;}
	.st1{opacity:0.7;}
	.st2{clip-path:url(#SVGID_5_);}
	.st3{clip-path:url(#SVGID_6_);}
	.st4{filter:url(#Adobe_OpacityMaskFilter);}
	.st5{clip-path:url(#SVGID_7_);}
	.st6{clip-path:url(#SVGID_13_);}
	.st7{clip-path:url(#SVGID_14_);}
	.st8{clip-path:url(#SVGID_15_);fill:url(#SVGID_16_);}
	.st9{clip-path:url(#SVGID_7_);mask:url(#SVGID_9_);fill:url(#SVGID_17_);}
	.st10{opacity:0.7;fill:#FFFFFF;enable-background:new    ;}
	.st11{clip-path:url(#SVGID_21_);fill:#FFFFFF;}
</style>
<g>
	<path class="st0" d="M49,0C21.9,0,0,21.9,0,49C0,76,21.9,98,49,98S98,76,98,49C98,21.9,76,0,49,0z M57.3,86.5H40.7V30.8h16.6V86.5z
		 M49,28.3c-4.6,0-8.3-3.7-8.3-8.3c0-4.6,3.7-8.3,8.3-8.3s8.3,3.7,8.3,8.3C57.3,24.6,53.6,28.3,49,28.3z"/>
	<g class="st1">
		<g>
			<g>
				<defs>
					<path id="SVGID_2_" d="M49,0C21.9,0,0,21.9,0,49C0,76,21.9,98,49,98S98,76,98,49C98,21.9,76,0,49,0z M57.3,86.5H40.7V30.8h16.6
						V86.5z M49,28.3c-4.6,0-8.3-3.7-8.3-8.3c0-4.6,3.7-8.3,8.3-8.3s8.3,3.7,8.3,8.3C57.3,24.6,53.6,28.3,49,28.3z"/>
				</defs>
				<defs>
					<polygon id="SVGID_3_" points="1,1 2,1 1,2 					"/>
				</defs>
				<defs>
					<polygon id="SVGID_4_" points="-1,-1 -2,-1 -1,-2 					"/>
				</defs>
				<clipPath id="SVGID_5_">
					<use xlink:href="#SVGID_2_"  style="overflow:visible;"/>
				</clipPath>
				<clipPath id="SVGID_6_" class="st2">
					<use xlink:href="#SVGID_3_"  style="overflow:visible;"/>
				</clipPath>
				<clipPath id="SVGID_7_" class="st3">
					<use xlink:href="#SVGID_4_"  style="overflow:visible;"/>
				</clipPath>
				<defs>
					<filter id="Adobe_OpacityMaskFilter" filterUnits="userSpaceOnUse" x="30.8" y="36" width="59.3" height="64.2">
						<feColorMatrix  type="matrix" values="1 0 0 0 0  0 1 0 0 0  0 0 1 0 0  0 0 0 1 0"/>
					</filter>
				</defs>
				<mask maskUnits="userSpaceOnUse" x="30.8" y="36" width="59.3" height="64.2" id="SVGID_9_">
					<g class="st4">
						<g>
							<defs>
								<path id="SVGID_10_" d="M49,0C21.9,0,0,21.9,0,49C0,76,21.9,98,49,98S98,76,98,49C98,21.9,76,0,49,0z M57.3,86.5H40.7V30.8
									h16.6V86.5z M49,28.3c-4.6,0-8.3-3.7-8.3-8.3c0-4.6,3.7-8.3,8.3-8.3s8.3,3.7,8.3,8.3C57.3,24.6,53.6,28.3,49,28.3z"/>
							</defs>
							<defs>
								<polygon id="SVGID_11_" points="1,1 2,1 1,2 								"/>
							</defs>
							<defs>
								<polygon id="SVGID_12_" points="-1,-1 -2,-1 -1,-2 								"/>
							</defs>
							<clipPath id="SVGID_13_" class="st5">
								<use xlink:href="#SVGID_10_"  style="overflow:visible;"/>
							</clipPath>
							<clipPath id="SVGID_14_" class="st6">
								<use xlink:href="#SVGID_11_"  style="overflow:visible;"/>
							</clipPath>
							<clipPath id="SVGID_15_" class="st7">
								<use xlink:href="#SVGID_12_"  style="overflow:visible;"/>
							</clipPath>
							
								<linearGradient id="SVGID_16_" gradientUnits="userSpaceOnUse" x1="315.8612" y1="-512.9836" x2="372.7955" y2="-539.1705" gradientTransform="matrix(0.5327 0.8463 0.8463 -0.5327 323.2362 -502.4359)">
								<stop  offset="5.400000e-03" style="stop-color:#4D4D4D"/>
								<stop  offset="0.1114" style="stop-color:#464646"/>
								<stop  offset="0.172" style="stop-color:#404040"/>
								<stop  offset="0.3639" style="stop-color:#3B3B3B"/>
								<stop  offset="0.5903" style="stop-color:#2C2C2C"/>
								<stop  offset="0.8332" style="stop-color:#151515"/>
								<stop  offset="1" style="stop-color:#000000"/>
							</linearGradient>
							<path class="st8" d="M30.8,36l12.7,62.7c13.4,3.3,28.1,1.3,40.7-6.6c2.1-1.3,4.1-2.8,5.9-4.3l-6.6-38.6L30.8,36z"/>
						</g>
					</g>
				</mask>
				
					<linearGradient id="SVGID_17_" gradientUnits="userSpaceOnUse" x1="315.8612" y1="-512.9836" x2="372.7955" y2="-539.1705" gradientTransform="matrix(0.5327 0.8463 0.8463 -0.5327 323.2362 -502.4359)">
					<stop  offset="5.400000e-03" style="stop-color:#4D4D4D"/>
					<stop  offset="0.1114" style="stop-color:#464646"/>
					<stop  offset="0.172" style="stop-color:#404040"/>
					<stop  offset="0.3639" style="stop-color:#3B3B3B"/>
					<stop  offset="0.5903" style="stop-color:#2C2C2C"/>
					<stop  offset="0.8332" style="stop-color:#151515"/>
					<stop  offset="1" style="stop-color:#000000"/>
				</linearGradient>
				<path class="st9" d="M30.8,36l12.7,62.7c13.4,3.3,28.1,1.3,40.7-6.6c2.1-1.3,4.1-2.8,5.9-4.3l-6.6-38.6L30.8,36z"/>
			</g>
		</g>
		<g>
			<defs>
				<path id="SVGID_18_" d="M49,0C21.9,0,0,21.9,0,49C0,76,21.9,98,49,98S98,76,98,49C98,21.9,76,0,49,0z M57.3,86.5H40.7V30.8h16.6
					V86.5z M49,28.3c-4.6,0-8.3-3.7-8.3-8.3c0-4.6,3.7-8.3,8.3-8.3s8.3,3.7,8.3,8.3C57.3,24.6,53.6,28.3,49,28.3z"/>
			</defs>
			<clipPath id="SVGID_19_">
				<use xlink:href="#SVGID_18_"  style="overflow:visible;"/>
			</clipPath>
		</g>
	</g>
	<path class="st0" d="M213.2,0c-27.1,0-49,21.9-49,49c0,27.1,21.9,49,49,49c27.1,0,49-21.9,49-49C262.1,21.9,240.2,0,213.2,0z
		 M241.8,65c-0.2,7.2-6.3,20.2-26.6,21.3c-21,1.2-30.9-12.9-30.9-12.9L195.7,61c0,0,3.8,2.7,11.7,5.7c7.9,3.1,14.7,0.5,13.1-3.9
		c-1.6-4.5-16.2-9.3-16.2-9.3c-6.1-2.5-19.4-8.5-14.2-25.7c11.7-30,49.6-9.2,49.6-9.2l-10.2,14.8c0,0-7.9-3-11.9-3.5
		c-8.2-0.9-8.6,5.3-6.1,7c2.2,1.5,5.8,1.9,9.8,3.6c4,1.7,7.7,3.6,7.7,3.6C243.9,52,241.8,65,241.8,65z"/>
	<path class="st0" d="M132.6,0c-27.1,0-49,21.9-49,49c0,27.1,21.9,49,49,49c27.1,0,49-21.9,49-49C181.6,21.9,159.7,0,132.6,0z
		 M132.6,86.7c-15.3,0-27.6-12.4-27.6-27.6c0-2.6,0-47.4,0-47.4l18.3,0v21.4c0,0,0,0,0,0V59h0c0,0.2,0,0.3,0,0.5
		c0,5.5,4.4,9.9,9.9,9.9c5.5,0,9.9-4.4,9.9-9.9c0-5.5-4.4-9.9-9.9-9.9c-2.4,0-4.6,0.9-6.4,2.3V32.1c1.9-0.4,3.8-0.6,5.8-0.6
		c15.3,0,27.6,12.4,27.6,27.6C160.2,74.3,147.9,86.7,132.6,86.7z"/>
	<g class="st1">
		<g>
			<path id="SVGID_8_" class="st10" d="M213.2,0c-27.1,0-49,21.9-49,49c0,27.1,21.9,49,49,49c27.1,0,49-21.9,49-49
				C262.1,21.9,240.2,0,213.2,0z M241.8,65c-0.2,7.2-6.3,20.2-26.6,21.3c-21,1.2-30.9-12.9-30.9-12.9L195.7,61c0,0,3.8,2.7,11.7,5.7
				c7.9,3.1,14.7,0.5,13.1-3.9c-1.6-4.5-16.2-9.3-16.2-9.3c-6.1-2.5-19.4-8.5-14.2-25.7c11.7-30,49.6-9.2,49.6-9.2l-10.2,14.8
				c0,0-7.9-3-11.9-3.5c-8.2-0.9-8.6,5.3-6.1,7c2.2,1.5,5.8,1.9,9.8,3.6c4,1.7,7.7,3.6,7.7,3.6C243.9,52,241.8,65,241.8,65z"/>
		</g>
		<g>
			<defs>
				<path id="SVGID_20_" d="M213.2,0c-27.1,0-49,21.9-49,49c0,27.1,21.9,49,49,49c27.1,0,49-21.9,49-49C262.1,21.9,240.2,0,213.2,0z
					 M241.8,65c-0.2,7.2-6.3,20.2-26.6,21.3c-21,1.2-30.9-12.9-30.9-12.9L195.7,61c0,0,3.8,2.7,11.7,5.7c7.9,3.1,14.7,0.5,13.1-3.9
					c-1.6-4.5-16.2-9.3-16.2-9.3c-6.1-2.5-19.4-8.5-14.2-25.7c11.7-30,49.6-9.2,49.6-9.2l-10.2,14.8c0,0-7.9-3-11.9-3.5
					c-8.2-0.9-8.6,5.3-6.1,7c2.2,1.5,5.8,1.9,9.8,3.6c4,1.7,7.7,3.6,7.7,3.6C243.9,52,241.8,65,241.8,65z"/>
			</defs>
			<clipPath id="SVGID_21_">
				<use xlink:href="#SVGID_20_"  style="overflow:visible;"/>
			</clipPath>
			<path class="st11" d="M245.1,17.2"/>
		</g>
	</g>
</g>
</svg>
