<?xml version="1.0" encoding="iso-8859-1"?>
<!-- Generator: Adobe Illustrator 22.0.1, SVG Export Plug-In . SVG Version: 6.00 Build 0)  -->
<!DOCTYPE svg PUBLIC "-//W3C//DTD SVG 1.1//EN" "http://www.w3.org/Graphics/SVG/1.1/DTD/svg11.dtd">
<svg version="1.1" id="Layer_1" xmlns="http://www.w3.org/2000/svg" xmlns:xlink="http://www.w3.org/1999/xlink" x="0px" y="0px"
	 viewBox="0 0 50 50" style="enable-background:new 0 0 50 50;" xml:space="preserve">
<g>
	<path style="fill:#7F8C8D;" d="M10.74,6.617L5.626-0.195L3.361,15.714l15.909,2.265l-5.114-6.812
		c7.502-5.632,18.244-4.102,23.876,3.4c1.708,2.275,2.73,5.044,3.187,7.547l5.963,0.849c-0.631-4.141-1.876-8.185-4.599-11.812
		C35.076,1.152,20.75-0.898,10.74,6.617L10.74,6.617z M34.632,38.443c-7.488,5.621-18.232,4.089-23.861-3.41
		c-1.708-2.275-2.74-5.058-3.196-7.558L1.61,26.622c0.616,4.152,1.878,8.188,4.61,11.827c7.504,9.996,21.822,12.035,31.818,4.531
		l5.124,6.826l2.269-15.934l-15.923-2.254L34.632,38.443z"/>
</g>
</svg>
