<?xml version="1.0" encoding="iso-8859-1"?>
<!-- Generator: Adobe Illustrator 22.0.1, SVG Export Plug-In . SVG Version: 6.00 Build 0)  -->
<!DOCTYPE svg PUBLIC "-//W3C//DTD SVG 1.1//EN" "http://www.w3.org/Graphics/SVG/1.1/DTD/svg11.dtd">
<svg version="1.1" id="Layer_1" xmlns="http://www.w3.org/2000/svg" xmlns:xlink="http://www.w3.org/1999/xlink" x="0px" y="0px"
	 viewBox="0 0 50 50" style="enable-background:new 0 0 50 50;" xml:space="preserve">
<g>
	<g>
		<path style="fill:#FFFFFF;" d="M41.5,5.095l-5.551-4.881c-0.172-0.15-0.397-0.228-0.621-0.211c-0.228,0.015-0.44,0.12-0.588,0.289
			L14.599,23.215l-7.161-9.479c-0.138-0.18-0.34-0.299-0.564-0.331c-0.226-0.033-0.454,0.028-0.636,0.165l-5.897,4.454
			c-0.379,0.287-0.454,0.823-0.167,1.199l13.259,17.55c0.155,0.205,0.395,0.33,0.652,0.341h0.032c0.247,0,0.481-0.106,0.644-0.293
			l26.816-30.52C41.89,5.947,41.855,5.406,41.5,5.095L41.5,5.095z"/>
	</g>
</g>
<path style="fill:#FFFFFF;" d="M38.19,33.45c0,0.609,0.232,1.214,0.694,1.678l2.966,2.966H17.745c-1.307,0-2.367,1.06-2.367,2.368
	c0,1.311,1.06,2.371,2.367,2.371H42.01l-3.127,3.127c-0.462,0.463-0.694,1.068-0.694,1.673s0.232,1.211,0.694,1.674
	c0.926,0.925,2.425,0.925,3.351,0l7.072-7.073C49.769,41.771,50,41.165,50,40.56v-0.035c0-0.609-0.231-1.215-0.694-1.678
	l-7.072-7.072c-0.926-0.926-2.425-0.926-3.351,0C38.421,32.239,38.19,32.845,38.19,33.45L38.19,33.45z"/>
</svg>
