<?xml version="1.0" encoding="iso-8859-1"?>
<!-- Generator: Adobe Illustrator 22.0.1, SVG Export Plug-In . SVG Version: 6.00 Build 0)  -->
<!DOCTYPE svg PUBLIC "-//W3C//DTD SVG 1.1//EN" "http://www.w3.org/Graphics/SVG/1.1/DTD/svg11.dtd">
<svg version="1.1" id="Layer_1" xmlns="http://www.w3.org/2000/svg" xmlns:xlink="http://www.w3.org/1999/xlink" x="0px" y="0px"
	 viewBox="0 0 50 50" style="enable-background:new 0 0 50 50;" xml:space="preserve">
<g>
	<g>
		<path style="fill:#FFFFFF;" d="M49.652,8.892l-6.642-5.84c-0.206-0.18-0.475-0.273-0.743-0.253
			c-0.273,0.018-0.526,0.143-0.703,0.346L17.467,30.572L8.899,19.231c-0.165-0.215-0.407-0.358-0.675-0.396
			c-0.27-0.04-0.543,0.033-0.761,0.198l-7.055,5.329c-0.453,0.343-0.543,0.985-0.2,1.435l15.864,20.998
			c0.185,0.245,0.472,0.395,0.78,0.408h0.038c0.295,0,0.575-0.127,0.77-0.35l32.084-36.516C50.119,9.912,50.077,9.264,49.652,8.892
			L49.652,8.892z M49.652,8.892"/>
	</g>
</g>
<g>
</g>
<g>
</g>
<g>
</g>
<g>
</g>
<g>
</g>
<g>
</g>
</svg>
