<?xml version="1.0" encoding="utf-8"?>
<!-- Generator: Adobe Illustrator 22.0.1, SVG Export Plug-In . SVG Version: 6.00 Build 0)  -->
<!DOCTYPE svg PUBLIC "-//W3C//DTD SVG 1.1//EN" "http://www.w3.org/Graphics/SVG/1.1/DTD/svg11.dtd">
<svg version="1.1" id="Layer_1" xmlns="http://www.w3.org/2000/svg" xmlns:xlink="http://www.w3.org/1999/xlink" x="0px" y="0px"
	 viewBox="0 0 50 50" style="enable-background:new 0 0 50 50;" xml:space="preserve">
<g>
	<g>
		<path style="fill:#FFFFFF;" d="M48.2,45.3L36.4,33.1c3-3.6,4.7-8.1,4.7-12.9c0-11-9-20-20-20c-11,0-20,9-20,20c0,11,9,20,20,20
			c4.1,0,8.1-1.2,11.5-3.6L44.4,49c0.5,0.5,1.2,0.8,1.9,0.8c0.7,0,1.3-0.3,1.8-0.7C49.1,48,49.2,46.4,48.2,45.3L48.2,45.3z
			 M21.1,5.5c8.1,0,14.8,6.6,14.8,14.8c0,8.1-6.6,14.8-14.8,14.8c-8.1,0-14.8-6.6-14.8-14.8C6.3,12.1,12.9,5.5,21.1,5.5L21.1,5.5z
			 M21.1,5.5"/>
	</g>
</g>
</svg>
