<?xml version="1.0" encoding="utf-8"?>
<!-- Generator: Adobe Illustrator 22.0.1, SVG Export Plug-In . SVG Version: 6.00 Build 0)  -->
<!DOCTYPE svg PUBLIC "-//W3C//DTD SVG 1.1//EN" "http://www.w3.org/Graphics/SVG/1.1/DTD/svg11.dtd">
<svg version="1.1" id="Layer_1" xmlns="http://www.w3.org/2000/svg" xmlns:xlink="http://www.w3.org/1999/xlink" x="0px" y="0px"
	 viewBox="0 0 50 50" style="enable-background:new 0 0 50 50;" xml:space="preserve">
<g>
	<path style="fill:#FFFFFF;" d="M42.1,34.7L24.2,21.8H4.3c-0.5,0-0.8,0.2-1.2,0.5c-0.3,0.3-0.5,0.7-0.5,1.2v24.7
		c0,0.5,0.2,0.8,0.5,1.2c0.3,0.3,0.7,0.5,1.2,0.5h36.3c0.5,0,0.8-0.2,1.2-0.5c0.3-0.3,0.5-0.7,0.5-1.2V34.7
		C42.2,34.7,42.2,34.7,42.1,34.7z M26.9,29.5c-0.3,0.3-0.7,0.5-1.2,0.5h-6.6c-0.4,0-0.8-0.2-1.2-0.5c-0.3-0.3-0.5-0.7-0.5-1.2
		c0-0.5,0.2-0.8,0.5-1.2c0.3-0.3,0.7-0.5,1.2-0.5h6.6c0.4,0,0.8,0.2,1.2,0.5c0.3,0.3,0.5,0.7,0.5,1.2C27.4,28.8,27.2,29.2,26.9,29.5
		z"/>
	<path style="fill:#FFFFFF;" d="M47.3,24.7c-0.1-0.5-0.3-0.8-0.7-1.1L14.5,0.5c-0.4-0.3-0.8-0.4-1.2-0.3c-0.5,0.1-0.8,0.3-1.1,0.7
		L8.4,6.3C8.1,6.6,8,7,8.1,7.5c0.1,0.5,0.3,0.8,0.7,1.1l32.1,23.1c0.4,0.3,0.8,0.4,1.2,0.3c0.5-0.1,0.8-0.3,1.1-0.7L47,26
		C47.3,25.6,47.4,25.2,47.3,24.7L47.3,24.7z M47.3,24.7"/>
</g>
</svg>
