<?xml version="1.0" encoding="iso-8859-1"?>
<!-- Generator: Adobe Illustrator 22.0.1, SVG Export Plug-In . SVG Version: 6.00 Build 0)  -->
<!DOCTYPE svg PUBLIC "-//W3C//DTD SVG 1.1//EN" "http://www.w3.org/Graphics/SVG/1.1/DTD/svg11.dtd">
<svg version="1.1" id="Layer_1" xmlns="http://www.w3.org/2000/svg" xmlns:xlink="http://www.w3.org/1999/xlink" x="0px" y="0px"
	 viewBox="0 0 50 50" style="enable-background:new 0 0 50 50;" xml:space="preserve">
<g>
	<g>
		<path style="fill:#0984E3;" d="M25,10.144c-9.523,0-18.159,5.21-24.532,13.673c-0.52,0.693-0.52,1.662,0,2.355
			C6.84,34.645,15.477,39.856,25,39.856c9.524,0,18.16-5.211,24.532-13.673c0.52-0.694,0.52-1.662,0-2.355
			C43.159,15.354,34.523,10.144,25,10.144L25,10.144z M25.683,35.461c-6.321,0.398-11.542-4.813-11.144-11.145
			c0.326-5.221,4.557-9.452,9.778-9.778c6.322-0.398,11.542,4.812,11.145,11.145C35.125,30.893,30.893,35.125,25.683,35.461
			L25.683,35.461z M25.367,30.628c-3.406,0.214-6.22-2.59-5.996-5.995c0.173-2.814,2.457-5.088,5.271-5.271
			c3.406-0.214,6.22,2.59,5.996,5.995C30.455,28.181,28.171,30.455,25.367,30.628L25.367,30.628z"/>
	</g>
</g>
</svg>
